<?xml version="1.0" encoding="utf-8"?>
<!-- Generator: Adobe Illustrator 15.0.0, SVG Export Plug-In . SVG Version: 6.00 Build 0)  -->
<!DOCTYPE svg PUBLIC "-//W3C//DTD SVG 1.1//EN" "http://www.w3.org/Graphics/SVG/1.1/DTD/svg11.dtd">
<svg version="1.1" id="Calque_1" xmlns="http://www.w3.org/2000/svg" xmlns:xlink="http://www.w3.org/1999/xlink" x="0px" y="0px"
	 width="841.89px" height="211.182px" viewBox="0 -48.106 841.89 211.182" enable-background="new 0 -48.106 841.89 211.182"
	 xml:space="preserve">
<path fill="#F8F9F6" d="M334.871,1.969c-7.229-2.697-15.172-4.185-23.51-4.185c-16.129,0-30.77,5.583-41.625,14.677
	c-10.977-13.653-28.99-22.57-49.374-22.57c-25.274,0-46.925,13.705-56.002,33.167c-3.48-1.868-7.37-2.838-11.315-2.83
	c-0.611,0-1.21,0.039-1.806,0.082c-6.57-23.316-30.382-40.591-58.764-40.591c-24.368,0-45.362,12.737-54.974,31.094
	c-3.416-1.234-7.145-1.3-10.605-0.189c-3.993-4.266-10.023-6.978-16.772-6.978c-9.662,0-17.839,5.569-20.692,13.272
	C-21.223,8.66-35.165,3.644-50.445,3.644c-20.382,0-38.398,8.912-49.376,22.568c-10.853-9.095-25.497-14.676-41.621-14.676
	c-8.338,0-16.278,1.49-23.505,4.186c-2.591-27.483-28.606-49.083-60.34-49.083c-26.665,0-49.287,15.25-57.375,36.426
	c-3.104-1.394-6.471-2.112-9.873-2.105c-5,0-9.594,1.504-13.27,4.01c-3.508-17.298-20.567-30.435-41.127-30.435
	c-22.318,0-40.5,15.481-41.707,34.958c-8.257-3.729-17.603-5.849-27.511-5.849c-12.477,0-24.07,3.342-33.708,9.062
	c-2.677-3.358-7.085-5.556-12.08-5.556c-1.977,0-3.859,0.35-5.583,0.971c-5.527-14.092-20.373-24.33-38.034-24.866v179.214H842.89
	V-21.338c-11.055-10.504-26.813-17.075-44.315-17.075c-0.785,0-1.567,0.016-2.346,0.041c-0.035,0.046-0.078,0.089-0.112,0.136
	l-0.22-0.124c-25.495,0.979-46.884,15.91-54.701,36.371c-3.107-1.396-6.473-2.111-9.877-2.104c-4.999,0-9.591,1.502-13.267,4.013
	c-3.507-17.303-20.562-30.438-41.128-30.438c-18.301,0-33.811,10.411-39.485,24.895c-1.789-0.645-3.676-0.976-5.577-0.972
	c-4.996,0-9.4,2.201-12.082,5.559c-9.636-5.724-21.229-9.062-33.707-9.062c-9.91,0-19.252,2.117-27.514,5.849
	c-1.201-19.481-19.383-34.955-41.709-34.96c-24.232-0.007-39.054,16.508-41.125,30.438c-3.676-2.505-8.271-4.014-13.271-4.014
	c-3.561,0-6.907,0.768-9.872,2.109c-8.087-21.18-30.708-36.428-57.377-36.428c-3.735,0-7.382,0.309-10.937,0.884
	c-10.442,1.91-19.908,6.2-27.635,12.216c-0.075-0.214-0.169-0.416-0.26-0.626C344.324-25.706,336.253-12.709,334.871,1.969z"/>
<path opacity="0.21" fill="#50C2C8" enable-background="new    " d="M7.003,22.815c7.54-1.646,15.614-1.992,23.865-0.811
	c15.964,2.286,29.668,9.889,39.125,20.424c12.801-11.956,31.897-18.231,52.074-15.342c25.018,3.583,42.931,15.771,49.158,36.325
	l13.371,1.914c0.6,0.084,1.627,0.19,2.215,0.315c9.809-22.148,35.199-34.52,63.3-30.496c24.122,3.455,43.097,19.039,50.011,38.571
	c1.87-0.388,3.789-0.447,5.677-0.174c1.745,0.25,3.366,0.771,4.849,1.49c4.556-3.658,10.906-5.49,17.59-4.534
	c9.566,1.368,16.875,8.04,18.601,16.072c11.718-6.666,26.827-13.468,41.953-11.303c20.178,2.889,37.909,10.927,46.839,26.001
	c12.033-7.466,22.902-8.088,38.928-6.305c12.738,1.419,19.422,7.499,25.271,12.302c6.461-26.84,35.279-44.532,66.689-40.036
	c26.393,3.781,46.625,22.084,51.635,44.191c3.27-0.94,6.705-1.178,10.072-0.688c4.949,0.709,9.283,2.851,12.564,5.852
	c5.926-16.628,24.674-27.216,45.029-24.3c22.092,3.162,40.791,17.623,39.225,37.073c8.701-2.522,18.021-2.999,27.834-1.595
	c12.352,1.768,20.686,9.865,29.412,16.894c3.125-2.945,7.803-4.494,12.744-3.789c1.957,0.282,3.77,0.894,5.395,1.755
	c7.459-13.175,24.477-23.017,42.033-21.044l0.428,42.491l-1338.809,15.116l-0.107-252.744c12.431-8.831,32.405-11.804,49.729-9.322
	c0.78,0.11,1.549,0.237,2.314,0.373c0.031,0.051,0.065,0.101,0.092,0.152c0.081-0.031,0.158-0.061,0.237-0.092
	c25.097,4.583,44.153,22.39,48.993,43.755c3.273-0.941,6.705-1.176,10.075-0.687c4.947,0.708,9.282,2.85,12.563,5.853
	c5.925-16.631,24.669-27.215,45.028-24.302c18.112,2.594,31.993,15.102,35.556,30.242c1.863-0.384,3.779-0.446,5.662-0.171
	c4.946,0.707,8.995,3.507,11.17,7.21c10.35-4.298,22.298-5.961,34.653-4.193c9.811,1.407,18.758,4.827,26.404,9.694
	c3.953-19.117,24.145-31.858,46.246-28.699c23.989,3.428,36.319,21.874,36.392,35.958c3.996-1.959,8.761-2.8,13.707-2.093
	c3.525,0.507,6.73,1.744,9.473,3.489c11.006-19.816,35.563-31.706,61.961-27.925c3.695,0.528,7.268,1.352,10.699,2.422
	c10.067,3.372,18.832,8.961,25.625,16.011c0.109-0.201,0.232-0.386,0.346-0.581C1.57-5.92,7.717,8.085,7.003,22.815L7.003,22.815z"
	/>
<g>
	<path fill="#F79927" d="M561.068,59.685c-1.718-1.522-4.117,0.517-5.834-1.007c-0.76,1.104,0.031,0.983,1.011,0.948
		c-0.729,0.583-1.424,1.177-0.964,1.89c0.121-0.01,0.247-0.018,0.369-0.035c0.407-0.183,0.719-0.344,1.035-0.193
		c-0.34,0.087-0.69,0.154-1.035,0.193c-0.106,0.053-0.219,0.098-0.329,0.141c-0.031-0.04-0.018-0.066-0.04-0.106
		c-4.285,0.333-7.724-2.923-12.315-1.98c4.904,2.103,10.194,3.155,15.531,3.077c-1.12-1.247-1.915-1.617-1.066-2.919
		C558.61,59.752,559.898,60.116,561.068,59.685L561.068,59.685z M536.63,54.907l0.093-0.2c-1.488-0.439-3.178-0.987-4.849-1.035
		c-0.274,0.477-0.366,1.039-0.247,1.574C533.317,55.792,535.047,54.661,536.63,54.907z M523.891,56.27
		c3.563,0.682,7.482,0.565,10.89,2.625c0.572-0.699,0.986-0.035,1.174-0.433c-1.502-0.942-2.892-1.092-4.424-3.013
		c-2.881,2.052-5.121-0.439-7.752,0.524l-0.297,0.105L523.891,56.27z M589.624,47.722l-0.095,0.195l0.313,0.386
		c2.168,0.034,2.381-2.531,3.234-3.83C591.328,45.605,591.175,46.984,589.624,47.722z M649.561,45.933
		c0.42,0.682,0.031,0.984,0.441,1.667l0.194,0.084c0.854-0.812,1.295,0.359,2.277,0.324l5.439-5.47
		C654.758,42.042,652.94,43.87,649.561,45.933L649.561,45.933z M611.511,59.558l0.201,0.095c1.254-0.628,0.832-1.799,1.201-2.593
		C611.44,57.1,610.795,58.493,611.511,59.558z M660.148,31.456c-1.702-1.029,0.168-0.891-1.055-2.428
		c-1.461,0.536-0.944,1.502-2.205,2.133C657.625,32.709,658.906,32.575,660.148,31.456z M672.598,125.891
		c-0.047,0.001-0.091,0.01-0.141,0.01c-0.01,0.07,0.009,0.138,0.05,0.191L672.598,125.891L672.598,125.891z M708.341,91.094
		c-0.034-0.015-0.065-0.017-0.093-0.029c0,0.066,0.006,0.143,0,0.228L708.341,91.094z M675.223,52.25
		c-0.06,0.029-0.113,0.061-0.172,0.079c0.031,0.052,0.059,0.066,0.078,0.113L675.223,52.25L675.223,52.25z M683.76,94.486
		c-0.126,0-0.219,0.037-0.332,0.06c0.013,0.019,0.032,0.032,0.044,0.05L683.76,94.486L683.76,94.486z M540.108,59.43
		c0.521,0.362,1.168,0.482,1.787,0.33c-1.433-1.622-3.292-1.278-5.071-1.609C537.837,59.095,539.28,58.072,540.108,59.43
		L540.108,59.43z M726.549,98.323c0.006,0.049-0.01,0.062-0.01,0.105c0.068-0.013,0.141-0.002,0.209-0.017L726.549,98.323z
		 M673.552,105.015c0.04,0.049,0.06,0.106,0.088,0.156l0.106-0.066L673.552,105.015z M623.017,99.043l-0.124,0.128
		c0.012,0.021,0.024,0.054,0.034,0.067L623.017,99.043z M624.034,86.919c0.054-0.068,0.126-0.116,0.188-0.188
		C624.148,86.755,624.079,86.818,624.034,86.919z M721.228,21.964l-0.082,0.065c0.098,0.019,0.194,0.034,0.291,0.059
		C721.365,22.041,721.3,22.019,721.228,21.964z M641.237,93.191c-0.091,0.063-0.152,0.155-0.188,0.256l0.419-0.247
		C641.384,93.194,641.309,93.198,641.237,93.191z M646.101,114.587l-0.065,0.022c0,0.063-0.031,0.114-0.031,0.185L646.101,114.587z
		 M550.187,57.551c-1.401-0.645-2.962-0.402-4.438-0.356l0.106,0.291c-1.261,0.629-2.57-0.211-3.938,0.114
		C544.541,58.818,547.573,58.802,550.187,57.551z M662.963,23.797c0.021,0.066-0.006,0.101,0,0.157
		c0.065-0.027,0.124-0.036,0.199-0.062L662.963,23.797z M656.553,19.862l-0.175,0.095c0.031,0.046,0.053,0.062,0.078,0.099
		L656.553,19.862z M691.69,37.106c-0.044-0.075-0.072-0.121-0.106-0.18c-0.041,0.027-0.053,0.063-0.094,0.08L691.69,37.106z"/>
	<path fill="#F79927" d="M593.88,118.007c0.319,0.877-0.56,1.196,0.441,1.662c1.768-0.152,2.59-1.945,4.958-1.82
		c-0.737-1.554-2.164-0.034-3.181-0.985c-1.624-1.721-2.071-3.382-0.535-4.608c0.985-0.028,1.692,0.548,2.95-0.083
		c-0.429-1.171,0.034-2.164,1.392-2.99c0.31,0.381,0.514,0.967,0.335,1.367c5.056-2.021,8.283-5.853,13.346-4.234
		c0.063-1.183,1.419-2.01,0.987-3.177c1.49,0.442,3.407-1.082,4.759,1.235c-0.914,2.479-4.198,1.203-5.012,3.485
		c-4.357-4.197-5.752,5.093-11.378,4.183c-0.544,1.69-0.544,1.69-1.876,3.005c-0.507-0.476-0.826-1.353-1.414-1.135
		c0.322,0.879-1.536,1.221-0.037,2.163c2.18,0.524,4.87-1.618,6.879-0.204l1.83-1.328c0.259,0.406,0.368,0.888,0.334,1.363
		c1.062-0.716,1.033-1.699,1.796-2.314l1.232,1.531c0.275-0.587,0.406-2.952,1.996-2.214c-0.267,1.085,0.638,1.753,0.447,2.152
		c-0.944,1.013-1.552,0.734-2.152,0.45c-0.535,1.693-1.069,3.375-2.412,4.698c-2.09-0.72-1.367-2.816-1.301-3.993
		c-0.772,0.617-1.092-0.26-1.768,0.149l-0.513-0.476l-0.182,0.4c-0.06,1.188,0.165,2.259-0.989,3.183
		c-3.585,0.352-6.869,2.155-9.097,4.988c1.332-1.669,0.866,0.913-0.316,0.485c0.16,0.472,0.278,0.945,0.413,1.42
		c1.937-0.496,3.954-1.278,5.653-3.847c2.164,0.036,6.479,3.254,4.88,5.658c0.804,0.372,2.033-1.236,2.994-1.761
		c1.116,1.246,2.472,0.426,3.591,1.667c-0.369,0.8-0.435,1.974,0.081,2.952c1.771-0.154,4.046,0.17,4.965-1.822
		c0.413,0.683,0.031,0.983,0.44,1.667c-2.049,0.746-3.45,3.245-6.093,3.712c-0.657,0.905,0.065,1.968-0.406,2.963
		c0.612,0.769,1.508,0.94,2.279,0.318c-0.419,2.471-2.08,2.917-4.235,3.371c0.673-0.906,0.238-2.072,0.897-2.97
		c-1.707-1.53-3.663-0.974-5.387-2.499c1.662-0.941,1.711-2.118,3.832-3.563c-0.259,1.088,1.014,0.955,1.809,1.326
		c-0.819-1.358-0.338-1.862,0.307-3.258c-3.145-0.002-4.94,2.804-7.84,1.218c-0.432,1.975-0.741,1.589-2.979,2.253
		c-0.923-1.161-0.344-1.856-0.757-2.54c1.442-1.026,2.55-0.271,3.735,0.287c0.165-1.38,1.508-2.21,2.869-2.547
		c-2.356-3.277-6.889-0.287-10.279-1.857c-0.061,0.053-0.072,0.097-0.116,0.152c0.103,0.406,0.24,0.798,0.335,1.199
		c0.193,0.294,0.343,0.566,0.241,0.805l-0.075,0.043c0.355,1.644,0.609,3.301,0.769,4.975c0.407,0.215,0.807,0.312,1.117-0.065
		c-0.095,0.931-0.535,0.866-1.067,0.598c0.104,1.327,0.142,2.657,0.113,3.992c0.278,0.149,0.554,0.308,0.819,0.434
		c0.382-0.307,2.087,0.725,1.749-0.641c0.679-0.415,0.138,1.271,1.396,0.644c-0.732-1.552-0.517-0.968,1.504-2.199
		c0.02,0.488-0.456,0.995-0.047,1.672l-2.317,1.345c-0.514-0.473-1.177,0.432-1.593-0.737l-0.651,1.396
		c-0.415,0.198-0.769,0.501-1.054,0.869c-0.057,0.675-0.115,1.353-0.21,2.031c0.705,0.585,0.276,1.173,0.63,2.136
		c1.066-0.233,0.826-1.795,1.342-0.828c0.625,0.584,0.926,1.147,1.042,1.683c3.997-0.036,8.049,0.826,12.182,2.746
		c1.034,0.467,2.029,1.03,2.993,1.621c0.066-0.047,0.106-0.1,0.193-0.15c0.15,0.182,0.267,0.348,0.38,0.522
		c2.015,1.3,3.859,2.83,5.48,4.617c4.546-4.026,9.601-7.426,15.043-10.116c-0.384-0.215-0.726-0.495-1.025-0.818
		c1.057-1.206,1.684,0.048,2.631-0.962c0.219,0.2,0.382,0.453,0.491,0.732c4.931-2.244,10.114-3.901,15.426-4.932
		c-0.075-0.133-0.157-0.236-0.223-0.403c0.86-0.82,1.556-0.735,2.519-1.257l0.822,1.144c0.264-0.036,0.523-0.1,0.786-0.134
		c0.432-0.53,0.046-1.134-0.053-1.743c0.769-0.612,1.106,0.755,1.785,0.342c-0.104,0.438-0.26,0.863-0.473,1.261
		c10.249-1.2,20.635-0.074,30.389,3.289c1.201-0.436,2.456-0.719,3.732-0.833c2.396-2.04,5.268-4.582,7.583-2.784
		c1.258-0.623,0.341-1.776,2.096-2.422c3.832,0.085,9.82-7.078,13.758-3.557c-4.145-0.469-6.635,4.916-11.273,4.46
		c-0.075,0.689-1.137,1.409-0.529,2.187c-0.7-0.571-2.161-0.042-3.25-0.304c-0.664,0.906,0.347,1.858-1.104,2.394
		c-2.55-1.583-4.78,0.271-6.854,2.413c1.278,0.548,2.539,1.122,3.779,1.736c-0.241-0.165-0.477-0.329-0.758-0.588
		c2.064-0.26,4.183-1.697,6.05-1.561c-1.461,1.264-2.402,3.009-3.966,2.769c7.238,3.237,13.887,7.686,19.648,13.147
		c1.868-1.286,3.92-3.197,5.146-1.027c0.063-0.026,0.11-0.06,0.182-0.075l-0.094,0.196c-0.024-0.055-0.059-0.079-0.084-0.121
		c-1.537,0.584-2.781,1.387-3.97,2.173c0.51,0.505,1.028,0.995,1.523,1.511c1.629-0.973,3.137-2.098,4.095-3.803
		c2.228-1.149,5.092-1.04,5.713-3.416c0.409,0.676,1.444-0.541,1.845-0.349c0.97-0.523,1.448-1.032,1.323-1.82
		c3.247-3.336,14.328-7.902,16.357-12.281c3.498-8.076,10.155-15.645,10.502-23.721c-0.031-0.982-1.069-2.923,0.713-2.577
		c0.36-0.798,1.03-1.698,0.101-2.856c-1.683-0.541-1.813,1.826-1.292,2.8c-2.387,5.676-2.306,11.767-7.563,16.849
		c-1.364,0.328-2.484-0.908-3.958-0.866l3.771-5.523c-0.489,0.018-0.889-0.166-1.102-0.754c2.211-1.641,1.986-5.861,4.173-8.483
		c-0.523-0.963-1.089-0.262-1.518-1.432c-0.24-1.567,1.983-2.713,0.447-4.636l1.736-1.135c-2.943-3.058,0.635-5.036,1.837-7.626
		c-0.72-1.06-1.655,0.441-2.083-0.719c0.322-2.274,2.536-3.918,2.17-6.26c1.891,0.635,2.504,1.401,3.285,4.425
		c-0.954,1.012-1.668,0.441-2.737,0.676c0.535,1.457,1.301,0.842,2.089,0.724c-0.081,3.837,1.108,7.533-0.662,10.837
		c0.44,0.118,0.832,0.386,1.104,0.754c2.214-1.635,0.97-3.667,2.401-5.183c0.295-10.045-1-20.331-2.289-30.621
		c-3.21-5.109,0.028-8.947-3.87-14.138c-0.501-3.623-2.872-7.389-1.986-10.861c-2.716-1.981-7.129-4.996-6.271-8.959
		c-8.707-9.803-18.007-16.669-27.996-19c0.61,0.391,1.164,0.311,1.894,1.089l-0.195-0.088c-1.657,0.437-2.164-0.039-3.625,0.501
		c-0.016-0.477,0.554-0.703,1.639-1.566c-1.244-0.28-2.499-0.501-3.77-0.639c-5.321-3.676-10.748-4.5-16.311-6.103
		c2.941-10.509,8.54-20.513,14.24-30.711c7.57-10.057,17.006-19.978,21.904-30.551l2.502-1.749c0.37-0.802,0.541-1.691,0.407-2.961
		c-0.382,0.313-0.782,0.125-0.782,0.125c-0.372,0.801-0.754,1.104-1.527,1.715c-0.115-0.783-0.222-1.078-1.1-0.752
		c-0.476,0.502-2.338,0.857-1.815,1.817c1.386,0.162-0.075,0.692-1.322,1.813l-2.071,2.915c-0.776,0.615-0.566,1.192-1.123,1.901
		c0.115,0.783-1.634,1.426-2.003,2.225c0.814,0.864,1.899,1.126,0.941,2.135l-1.394-0.646l-1.784,2.805l0.4,0.183
		c-1.827,1.334-2.681,2.637-4.999,3.986c-0.159,1.381-2.59,1.948-1.676,3.1c1.288,0.357,1.717-1.627,2.518-1.258
		c-1.061,0.721,0.26,2.059-0.71,2.573c-2.475-0.91-2.399,2.042-3.982,1.304c-2.23,1.148-1.204,2.586-2.452,3.706
		c0.313,0.381-0.072,0.691,0.321,0.878c-1.623,0.873-3.112,1.976-4.433,3.278c0.735,1.557-2.402,2.043-1.567,3.391l1.739-1.134
		c1.317,1.338-1.42,2.009-2.202,2.135l-1.06,0.721c0.259,2.053-1.468,3.679-3.385,5.215l0.412,0.676
		c0.582-0.218,0.904,0.66,1.414,1.135c-0.188,0.4-1.126,1.901-1.739,1.134l-0.19-0.095c-0.771,0.616,0.043,1.474-1.023,2.2
		c0.632,1.261-2.103,1.932-2.571,2.929c-0.451,0.998-1.524,1.719-1.191,2.594c1.839-0.843,3.307-4.523,4.954-1.821
		c-2.847-0.112-2.556,3.423-5.026,3.001c-0.232,2.074-0.46,4.145-2.679,5.783c-0.325,2.273-3.169,2.65-5.039,2.507
		c-1.107-0.75-2.443,0.569-3.288-1.276l-0.396-0.189c-2.354,0.362-4.358-1.053-6.907-0.783c-0.88,0.324-1.874-0.138-2.504-1.398
		c-0.584,0.216-0.926-1.153-1.595-0.739c-1.442,1.028-2.425,1.064-3.438,0.103c0.366,2.348-1.783-0.341-2.95,0.088l-0.309-0.385
		c-5.741,1.938-11.006,0.232-17.025,2.769c0.411,0.676,1.011,0.949,1.405,1.139c2.446-0.568,4.607-0.53,7.235-1.492
		c0.676-0.418,0.37-0.801,1.049-1.217c0.428,1.174,1.473-0.041,1.901,1.125l-1.061,0.722c-3.053,3.431-8.813,1.248-11.871,4.188
		c-1.212-1.044-2.781-0.804-4.502,0.824c-1.239-2.028-2.825-2.278-4.587-2.125c-2.953,6.377-8.643,3.502-12.731,5
		c0.106,0.292,0.612,0.766,0.425,1.166c-1.06,0.72-1.643,0.935-2.434,0.568c-0.325-0.875,1.121-1.908,0.592-2.871
		c-1.396-0.647-0.081-2.952-2.269-3.472c1.232,1.538-0.322,2.273,0.217,3.732c-2.202,2.131-6.376,3.828-7.69,6.127l2.306-1.835
		c0.213,0.583,0.892,0.169,1.014,0.953l0.802,0.362l1.729-1.134c2.597,1.201,4.792,2.216,6.601,3.544
		c-0.476,0.506-2.174-0.039-1.736,1.136c3.679,1.458,6.257-4.613,10.07-1.875c-3.132,0.488-4.148,5.828-6.817,2.172
		c-1.724,4.771-8.706,5.175-12.537,8.239c0.053,5.109-6.514,2.554-8.731,4.194c-0.078,0.692,0.541,1.461-0.142,1.871l-2.59-1.201
		c0.476-0.506-0.832-1.347-0.146-1.766l1.735-1.131c0.414,0.681,0.742,2.046,2.009,1.419c0.842-1.307-1.787-0.338-1.139-1.736
		c4.373-1.605,7.195-6.114,11.862-4.682c-0.936-1.646,1.107-2.397,1.236-4.754c-1.015-0.954-2.012-1.422-3.197-1.478
		c-1.258,0.628-0.555,1.192-1.524,1.712c0.704,0.568,1.415,1.143,0.942,2.137c-0.851,0.816-3.479,1.778-2.949,0.083
		c-0.504-0.477-0.823-1.355-1.205-1.044c-0.757,1.102,0.816,0.858-0.338,1.781c-1.924,1.531-5.468-1.805-8.631,0.844
		c0.26,2.06-1.755,3.792-3.933,3.268c1.934,2.105-1.282,3.286-3.207,4.818c-2.427,1.06-2.061,3.404-4.61,3.676
		c-0.676,0.417,1.314,0.847,0.841,1.842c-3.06,2.949-5.421,2.824-7.701,5.638c0,0,0.013,0.495-0.188,0.4
		c-0.977,0.03-1.902-1.125-2.96-0.403c-0.297,0.108-0.184,0.4,0.016,0.491c2.456-0.074-0.729,5.234-2.725,4.309
		c0.425,0.682,0.907,0.666,1.414,1.139l0.419,0.68c0.295-0.106,0.799,0.367,1.011,0.952c1.621-1.919,2.615-1.45,4.64-2.697
		c4.852-2.109,7.87-6.532,11.803-6.645l1.946,2.593c-2.256,0.168-1.415,2.013-3.552,2.958c-0.419-0.677-1.001-0.461-1.413-1.139
		c-1.048,1.212-2.244,0.657-2.309,1.839c0.841,1.833-0.779,0.119-1.549,0.727c1.207,1.05-1.83,1.337-1.665,3.59
		c-1.977-0.432-2.323,1.348-3.913,0.61c0.241,1.566,3.413,2.549,3.447,3.53c-1.289-0.353-2.731,0.679-3.744-0.278
		c0.051-1.682-0.977-3.122-2.53-2.385c1.035,0.676,1.595,1.874,1.467,3.097c-1.337,1.321-4.164,2.198-4.515,3.48
		c0.977-0.027,1.965-0.06,2.791,1.292c1.623-1.425,2.625-0.956,4.082-1.492c0.118,0.786,1.626,1.715,0.751,2.045
		c-1.543,1.226-4.308,0.912-5.027,3c1.383,0.161,0.645,1.753,2.137,2.196l-2.396,2.532c-0.642,1.401,2.277,3.474-0.241,4.726
		c0.507,0.479,1.064-0.228,1.658-0.438c1.121,1.241,1.055,2.432,1.192,3.703c-1.567,0.244-1.226-1.535-2.809-1.783
		c-0.967,0.521-0.561,1.192-1.424,1.515c0.9,0.663,0.771,3.027-1.073,3.871l1.188,0.063c1.549-0.735,3.727-0.203,3.467-2.27
		c1.383,0.159,0.647,1.753,2.13,2.199c-1.937,1.046-2.358-0.124-2.483,2.234c-0.582,0.213-1.09-0.266-1.768,0.159l0.4,0.182
		c-1.847,0.84-1.737,1.135-3.473,2.267c0.06,1.967,1.202,4.199-0.717,5.727c0.51,0.476,1.011,0.946,1.796,0.826
		c0.297-0.102,0.682-0.415,0.694,0.079c1.142-1.411-0.425-1.168-0.672-2.733c1.289,0.354,0.769-0.615,1.048-1.209
		c1.154-0.927,1.502,0.941,2.55-0.275c0.388-0.309,0.368-0.798,1.045-1.205c-1.117-1.245-1.938-2.108-0.792-3.516
		c0.069,2.449,2.424,2.084,1.22,4.682c2.638-0.469,3.767-2.37,5.318-3.106c0.92,1.161,1.442,2.118,1.467,3.102
		c-0.982,0.03-3.303,1.377-2.09,2.424c1.477-3.192,4.127-0.024,6.476-0.389c-0.606-0.768-1.501-0.939-2.22-2
		c0.565-0.701,2.13-0.944,1.719-1.625c-0.997-0.455-1.348-2.317-2.927-2.566c2.442-3.716,5.865-4.308,8.771-2.72
		c-2.356,0.362-2.564,3.419-5.706,3.418c0.517,0.963-0.304,3.248,2.097,4.359c-0.085,0.692,0.534,1.46-0.235,2.075
		c-0.417-0.682-1.445,1.029-1.874-0.135c-0.141,1.864-1.968,3.2-1.326,4.954c0.701,0.567,1.732-1.133,2.28,0.324
		c0.147,1.766-2.969,2.741-3.012,4.42c-2.281-0.327-2.203-4.166-5.007-2.808c3.436,3.047-1.757,3.792-3.206,4.821
		c0.351,1.858,2.446,2.576,4.069,4.304c-0.815,1.258-0.79,0.686-1.985,1.368c0.163,0.307,0.304,0.618,0.463,0.927
		C592.999,118.013,593.449,117.461,593.88,118.007L593.88,118.007z M607.136,123.907c-1.549,0.737-2.022-1.904-1.255-2.518
		C607.557,121.44,608.277,122.503,607.136,123.907z M608.487,142.952c-0.781,0.121-1.302-0.848-2.269-0.328
		c-0.228-1.066,1.997-2.216,2.322-1.341l0.199,0.09l0.088-0.193C609.448,141.94,609.459,142.431,608.487,142.952L608.487,142.952z
		 M750.374,135.276c1.215,1.047-1.823,1.328-0.903,2.483l0.193,0.095c-0.879,0.317-1.298-0.361-1.814-1.321
		C748.515,135.628,749.176,134.719,750.374,135.276z M601.351,45.405c-0.9-0.665-0.566-2.442,0.147-1.875l0.766-0.615l-0.199-0.088
		c-0.135-1.282,2.083,0.72,1.626,1.718C602.417,44.684,602.737,45.555,601.351,45.405z M605.139,43.522
		c-0.034-0.983-0.313-0.386-1.032-1.441c0.679-0.421,0.667-0.912,0.647-1.401c0.782-0.118,1.608,1.229,1.769-0.153
		c0.581-0.209-0.16,1.38,0.449,2.147C606.269,42.668,605.593,42.978,605.139,43.522z M609.312,35.037
		c-0.065-1.964,3.007-1.279,2.271,0.32C610.814,35.976,610.076,34.426,609.312,35.037z M614.643,101.949
		c-1.089-0.261-2.465-0.415-3.667-0.967c-0.941,1.504-2.85,3.529-4.654,2.199c-0.9-3.806,5.334-2.618,5.923-5.974
		c-0.814-0.858-1.978-0.436-2.791-1.297c1.104-2.395,2.859-6.185,6.022-5.691c0.168-0.89-2.409-1.597-3.592-1.663l0.094-0.196
		c-1.258,0.624-2.193-1.021-3.118,0.976c0.168-0.891,0.309-2.761,1.525-1.72c1.439-1.024,3.308-1.375,3.432-3.738
		c1.749-0.645,3.533-0.304,4.834-2.596c0.159,1.765,1.626,1.712,1.874,3.288c-1.249,1.115-2.69,2.146-3.238,3.344
		c3.413,2.549-0.713,5.719-2.455,6.85l2.662,3.655C615.753,99.553,616.583,100.908,614.643,101.949L614.643,101.949z M607.67,78.847
		c0.24-1.574-1.383-3.303,0.182-3.546l1.857-0.353c0.451-1.391,1.353-2.585,2.566-3.418c1.463-0.042,2.912,2.074,2.265,3.473
		c-1.527,1.712-4.339-0.067-5.848,2.14l-0.193-0.091C608.708,77.642,608.434,78.24,607.67,78.847L607.67,78.847z M606.366,71.712
		c0.138,1.272-1.793-0.831-2.18-0.53c-0.826-1.35,2.199-2.136,3.193-1.672l-0.1-0.292c0.65-1.393,1.88-3.005,3.838-3.071
		c0.816,0.863,0.241,1.571,0.66,2.246c-1.739,1.131-3.104,1.469-4.58,1.509c-0.568,0.703-0.97,0.522-1.555,0.736
		C605.17,71.155,605.787,71.917,606.366,71.712L606.366,71.712z M607.026,64.014c1.354-3.969,3.792-1.389,2.899,1.588
		C608.558,65.94,607.845,65.37,607.026,64.014z M616.408,65.216c-0.021-0.489,2.453-3.216,2.915-1.07
		c1.721-1.623,2.212-1.637,2.951-3.228c0.891,0.168,2.113,1.703,1.748,2.505c-1.151,0.918-2.23,1.149-2.947,0.082
		c-0.569,0.707-2.214,1.635-1.698,2.608c-0.973,0.027-1.796-0.832-2.568-0.714l-0.727,2.088c-1.194-0.553-2.471-0.415-3.59-1.665
		C614.011,64.105,615.022,65.063,616.408,65.216z M616.723,59.305c-0.034-0.98,1.643-4.083,2.885-2.058
		C618.041,57.492,618.366,58.367,616.723,59.305z M635.862,48.302c-0.86,0.819-1.186-0.058-1.937,1.05
		c-0.737-1.557-1.992-0.93-2.867-0.603c-0.771,0.613,0.994,0.457,0.535,1.453c-0.864,0.818-2.7-1.496-2.738,0.677
		c-1.179-0.065-0.554-1.95-0.669-2.734c1.27-0.137,1.816-1.82,2.858-3.035c1.067-0.229,0.244,1.566-0.034,2.164
		c0.613,0.77,1.942-0.551,1.59,0.738c0.56-1.195,1.613-1.916,3.472-2.267C636.4,46.622,634.455,47.169,635.862,48.302z
		 M664.673,44.69c-0.788,0.126-0.418-0.675-0.722-1.058c-0.307-0.385-0.691-0.076-1.066,0.228c-1.121-1.241,1.316-1.816,1.523-1.717
		C665.41,43.101,664.149,43.728,664.673,44.69z M665.462,41.424c0.967-0.518,2.034-0.749,2.932-0.571
		C668.416,41.833,665.715,43.487,665.462,41.424z M660.429,47.573c1.107,0.755,2.117,1.708,3.392,1.571
		c-0.126,2.364,0.941,5.281,3.534,6.481c0.548,1.95,0.013,3.633,0.363,5.493c0.601,0.284,0.676-0.415,0.857-0.812
		c0.594,0.28,0.23,1.069,1.71,1.52c-2.038,0.754-0.243,1.584,0.464,2.155c-0.545,1.686-3.4,1.574-3.257-0.296l-1.739,1.134
		c1.867,3.288,4.918-0.147,6.848,1.954c-0.328,2.273-3.307,1.38-3.832,3.563c-2.162-0.036-6.347,1.174-7.161,3.953
		c1.722,1.52-0.128,2.363,0.02,3.636c-3.237,0.195-6.623,5.412-9.755,2.751c0.895,0.171,2.213-1.638,3.211-1.176
		c1.051-1.212-0.573-2.939,1.382-2.991c-1.292-0.358-2.127-2.199-3.598-2.157c1.712-1.626,4.562-2.002,3.892-4.736
		c-0.994-0.463-2.168-0.033-2.99-1.388c1.048-1.211,2.383-2.531,3.974-1.792c0.672-0.909,0.04-2.168-0.395-3.329
		c-2.074-0.236-4.599,0.529-6.229-1.189l0.648-1.408c4.608-0.53,7.298-2.674,11.215-3.284c-0.748-2.041-0.291-3.037-2.287-3.956
		l-2.377,2.532c-1.295-0.357-0.569-2.449-2.118-1.711c0.56-1.193,2.046-3.895,3.845-3.063c0.629-1.887-0.842-1.846-2.237-2.491
		c-0.585,0.216-0.28,0.601-0.064,1.184c-1.384-0.155-2.591-1.2-3.586-1.662c-0.754,1.1-2.95,3.235-4.167,2.192
		c-1.357,0.823-0.438,1.975-0.895,2.97c-3.895,1.592-3.723-6.082-0.703-3.707c1.261-0.63-0.042-1.477,1.322-1.819
		c-0.516-0.96-1.305-0.839-2.084-0.718c0.667-0.908-0.565-2.446-0.193-3.237c2.412-1.553,3.356-3.055,5.84-2.143
		c2.773-5.98,5.864,1.99,8.444,2.701C662.337,45.553,660.692,46.486,660.429,47.573L660.429,47.573z M681.452,30.432
		c-0.336,1.777-2.446,0.068-3.623,0.497c0.172-0.888,1.032-1.698,2.29-2.328c0.507,0.476,1.173-0.428,1.596,0.738
		C680.735,29.365,680.485,30.951,681.452,30.432z M682.833,33.726c0.441,1.66,0.147,1.769,1.549,2.412
		c-3.362-0.581-6.182,3.927-9.106,1.355c1.433-1.518,2.331-0.857,3.713-0.699L682.833,33.726z M688.593,25.494
		c-1.164,0.922-1.783-0.339-2.77-0.315C685.778,23.709,688.048,24.033,688.593,25.494z M691.03,44.791
		c-1.135,1.416-3.332,3.544-4.686,1.225c0.075-0.691,0.847-1.304,1.817-1.825c-1.702-1.03-3.454-0.393-4.773-1.722
		c-1.323,1.81-2.794,1.847-4.361,2.094l0.146,1.763c-1.748,0.647-3.572-1.172-4.968,1.33l-0.09,0.197
		c-0.595-0.282-1.414-1.136-2.196-1.018c2.073-2.918,8.712-4.69,12.234-5.476c0.47-0.506-1.032-1.444-1.154-2.225
		C686.958,36.852,687.126,45.895,691.03,44.791L691.03,44.791z M690.379,23.177c0.266-1.089,2.435-1.054,3.275,0.792
		C692.375,24.104,691.383,23.642,690.379,23.177z M691.69,37.106l-0.2-0.095c0.044-0.024,0.066-0.058,0.088-0.079
		c-0.582-0.986-1.12-0.439-1.607-1.342c0.854-0.816,1.67,0.044,2.53-0.767c-0.263,0.568-0.088,1.568-0.923,2.111
		C691.612,36.984,691.646,37.032,691.69,37.106L691.69,37.106z M698.256,59.532c1.64,2.208,0.438,4.806-1.805,5.464
		c-1.029-1.443,1.261-0.631,0.435-1.981c-4.867-1.528-7.836,4.363-13.076,3.638C686.644,62.628,695.272,61.786,698.256,59.532z
		 M700.13,39.809c0.625,1.261-1.054,1.207-1.924,1.531C697.177,39.89,699.463,40.711,700.13,39.809z M693.902,75.191
		c2.475,0.43,4.599-4.164,6.835-1.679c0.772-0.612-0.734-1.551-0.46-2.145c3.836-0.412,6.335-2.159,10.021-3.841
		c-0.301,3.255-5.487,4.001-7.054,7.388c-0.325-0.874-0.814-0.859-1.121-1.246c-2.073,2.919-4.392,1.117-6.362,4.328l-1.505-0.941
		l-0.088,0.197c-2.033,1.239-2.202,2.131-3.963,2.281C691.599,77.038,693.182,77.285,693.902,75.191L693.902,75.191z
		 M705.586,61.471c1.186,0.064,2.299,0.818,3.641-0.012c-1.52,1.721-2.352,3.515-3.274,5.51c-1.859,0.348-3.098-1.685-4.699-2.417
		c0.65-1.403,3.197-1.679,4.38-1.608C705.915,62.348,705.126,62.472,705.586,61.471z M717.781,81.175
		c-1.768,0.151-2.973-0.896-4.68,1.222c-1.493-0.448,0.152-1.384-1.442-2.12c1.188,0.554,3.024-0.779,3.673-2.181
		c0.813,0.86,1.96-0.063,2.789,1.301C717.246,79.714,717.173,80.407,717.781,81.175z M738.368,59.22
		c-0.226,2.074-4.424,0.129-1.896-1.125C736.972,58.575,737.582,59.337,738.368,59.22z M741.139,56.388l-1.924,1.531
		C738.096,56.67,740.495,54.63,741.139,56.388z M735.135,69.348c-4.17,2.189-4.751,5.551-8.684,5.667
		C725.56,71.694,732.95,68.824,735.135,69.348z M731.307,79.687l-0.095,0.2c0.063-1.187-0.138-1.277-0.994-0.461l-1.424-1.63
		C730.225,76.279,733.049,78.554,731.307,79.687z M705.99,104.54c-1.073,0.231-1.902-1.122-3.15-0.003
		c-0.738-1.552,2.431-1.055,1.789-2.808c1.042-1.213,3.345,0.092,3.504-1.296c0.854-0.809,1.208,1.058,1.971,0.442
		c-0.069,0.688-0.841,1.301-2.196,2.13l-0.72-1.065C705.927,102.57,707.341,103.71,705.99,104.54L705.99,104.54z M712.627,86.542
		l0.097-0.201c-0.65,1.396-0.906,2.489-2.581,2.437C709.897,87.216,711.371,87.165,712.627,86.542z M711.592,91.39
		c1.261-0.628,2.184,0.523,3.445-0.103c-0.063,1.188-1.221,2.099-1.881,3.005l-0.088,0.2
		C711.467,93.752,711.239,92.681,711.592,91.39z M710.442,98.599c1.345-0.823,2.271,0.325,3.187,1.478
		C712.881,101.676,709.916,100.778,710.442,98.599z M720.035,84.154c0.63-1.887,3.139-3.633,4.674-1.711
		C723.674,84.145,721.772,83.025,720.035,84.154z M729.937,63.308c0.766-0.612,1.676,0.049,2.577,0.703
		C731.454,64.733,730.64,63.874,729.937,63.308z M725.344,77.411c-2.09-0.727-4.692,1.222-6.841,1.677
		c0.388-3.448,4.921-3.289,6.534-5.208C724.897,75.75,725.495,76.027,725.344,77.411z M693.454,102.842
		c-0.906-3.811,4.009-3.954,6.739-4.619c0.231,1.069,0.26,2.057-0.695,3.07c-0.622-1.26-1.488-0.441-2.192-1.021l-0.197-0.09
		C696.953,101.56,694.708,102.212,693.454,102.842z M686.459,105.908c-0.798-0.369,0.144-1.874-1.029-1.446
		c0.816-2.287,4.915-0.146,5.027-3.005c0.426,1.174,1.474-0.041,1.808,1.328l-0.737,1.59c-1.168,0.433-2.138,0.945-2.853-0.11
		l0.09-0.2C688.115,105.462,687.132,105.497,686.459,105.908z M684.169,108.232c-1.942,1.051-1.614-1.223-2.919-2.073
		c0.599,0.281,1.477-0.041,1.993,0.926C681.708,108.311,683.847,107.361,684.169,108.232z M685.562,102.1l-3.182-0.981
		c3.219,2.456-3.375,2.068-3.882,4.732c-1.449,1.032-2.475-0.418-3.752-0.283c-0.259-2.058,3.351-3.051,4.38-1.607
		c1.045-1.203-0.135-1.273-0.757-2.039c2.158-0.458,5.581-4.202,8.209-2.015c0.554-1.193-1.232-1.542-1.439-2.124
		c0.291-0.105,1.762-0.151,1.439-1.025c1.971,0.432,2.665,0.506,5.646-1.244c-0.063-0.034-0.125-0.062-0.179-0.102l0.188,0.092
		l-0.017,0.01c0.783,0.453,2.205,0.672,2.631,1.337c-0.059-2.218,2.662-5.716,3.704-0.848
		C695.113,99.255,689.651,97.453,685.562,102.1L685.562,102.1z M658.869,104.271c1.677,0.052,2.968,0.404,4.717-0.239
		c0.67-0.412,0.95-1.01,0.244-1.576c3.732-0.207,4.123-3.666,7.302-2.676c1.065-3.871,4.545-2.498,7.829-4.365
		c1.662,2.704-5.055,5.165-7.104,5.431c-0.332,2.272-2.869,3.036-5.399,3.8l-1.777-0.343c-0.585,0.217-1.345,4.464-4.244,2.883
		l0.277-0.6C661.271,105.377,659.303,105.435,658.869,104.271z M646.558,106.799c-0.735-1.549-1.599-0.737-2.578-0.707
		c-0.06-1.962,2.263-3.313,3.586-5.118c-0.16,1.383,1.395,0.646,2.55-0.278l1.836,2.311
		C650.034,104.532,647.978,104.793,646.558,106.799L646.558,106.799z M647.333,109.826c-0.976,0.032-2.058,0.257-2.774-0.803
		C645.526,108.506,646.417,108.68,647.333,109.826z M652.021,98.671c-0.877,0.323-1.18-0.059-1.104-0.754
		c-1.033,1.702-3.964,2.282-5.5,0.363l6.094-6.871c-1.408-1.139-3.144-0.002-4.727-0.252c1.035-1.698,7.451-4.057,7.63-8.093
		c2.012-1.736,4.313-0.428,6.4,0.298c-0.438,1.981-2.875,2.553-5.077,4.68c-0.967,0.524,0.435,1.661-0.529,2.181
		c2.199,1.017,4.603-0.528,7.151-0.8c0.507,0.468,0.726,1.056,0.053,1.467c2.532-0.767,7.442-7.694,11.797-3.501
		c-1.367,0.334-1.051,1.213-1.93,1.539c-0.889-0.175-0.428-1.171-1.99-0.93c-1.528,1.718-3.137,3.636-5.442,2.324
		c-1.167,0.428-0.153,1.385-0.923,1.996c-1.57,0.241-1.78-0.341-3.307,1.38C658.108,91.803,652.612,95.313,652.021,98.671
		L652.021,98.671z M645.063,99.568c-0.941,1.503-1.201-0.556-2.155,0.457C641.81,99.272,644.834,98.494,645.063,99.568z
		 M663.608,75.218c1.173-0.43,2.136-0.948,2.769,0.313C666.21,76.416,664.348,76.772,663.608,75.218z M663.714,81.799
		c-0.88,0.317-1.95,0.552-2.844,0.381c0.372-0.796,1.555-0.733,2.107-1.934C663.683,80.818,663.496,81.215,663.714,81.799z
		 M681.463,47.148c1.129-1.409,1.972,0.433,3.313-0.885c0.813,0.862-0.26,1.093,0.348,1.858
		C683.854,48.257,682.305,48.994,681.463,47.148L681.463,47.148z M680.462,49.826c-0.4-0.181-0.982,0.039-1.457,0.545
		c-0.817-0.863,0.815-2.297,1.505-2.21C680.528,48.651,680.05,49.159,680.462,49.826z M677.201,62.613
		c0.878-0.314,1.848-0.841,2.273,0.327C678.701,63.553,677.813,63.381,677.201,62.613z M675.661,66.987
		c-3.056-0.204-0.666-5.878,1.479-3.191C677.766,65.06,677.106,65.966,675.661,66.987z M683.713,73.139
		c1.839-0.838,3.241-0.19,4.989-0.833c0.476-0.51-0.313-0.386-0.72-1.063c1.567-0.243,3.456-2.759,4.68-1.222
		c0.436,1.166-3.882,1.587-1.892,2.513c-2.521,1.254-6.982,3.066-9.272,5.392C679.549,75.329,684.476,75.672,683.713,73.139
		L683.713,73.139z M693.695,81.401c1.949-0.56,0.139,1.271,1.148,2.222l0.201,0.092c-0.983,0.03-1.784-0.343-2.731,0.676
		C691.578,82.836,695.131,83.521,693.695,81.401z M714.411,67.011c-0.581,0.218-0.703-0.565-0.613-0.767
		c-0.396-0.185-0.875,0.322-1.2-0.553c0.69-0.425,1.2,0.553,2.161-0.459C716.06,66.078,713.601,66.149,714.411,67.011z
		 M708.321,77.028c-1.555,0.735-1.527,1.718-2.878,2.546c-0.613-0.767-1.027-1.442-0.84-1.835
		C706.258,77.286,706.791,75.106,708.321,77.028z M707.178,81.583c0.7,0.572-0.034,2.164,1.404,1.139
		c0.513,0.479,0.032,0.985,0.538,1.462c-0.184,0.396-0.4-0.188-0.794-0.367c-1.577-0.25-3.319,0.884-5.068,1.525l-0.44-1.659
		C705.004,84.702,704.532,82.064,707.178,81.583L707.178,81.583z M703.137,81.417c-0.186,0.396-2.315-1.798-3.226-2.46
		C701.272,78.128,702.02,80.166,703.137,81.417z M701.566,84.804c-0.063,1.181-0.034,2.164,0.673,2.73
		c-1.038,1.7-6.973,0.406-7.358,3.851c-1.848,0.354-3.797,1.396-5.561,1.554C691.292,89.729,696.818,87.209,701.566,84.804
		L701.566,84.804z M688.099,95.04c-1.186-0.063-1.821,1.329-3.104,1.47l-1.129-1.735c0.169-0.896,1.457-0.538,2.502-1.75
		C686.891,93.993,687.57,93.583,688.099,95.04z M682.227,89.415l-0.717-1.065c2.856,0.113,4.874-4.771,7.302-2.677
		C687.485,87.487,685.149,88.343,682.227,89.415z M683.753,94.486l-0.287,0.103c-0.017-0.018-0.031-0.024-0.038-0.049
		c-1.651,0.323-1.955,2.448-3.388,0.645l0.369-0.801c0.947-0.514,2.289-0.839,3.019,0.157
		C683.542,94.521,683.634,94.488,683.753,94.486L683.753,94.486z M684.463,81.965c-0.688-0.067-1.191-0.554-1.717-1.521
		c0.866-0.813,1.279-0.139,2.046-0.751c-0.367,0.802,0.444,1.66-0.522,2.186L684.463,81.965z M681.029,92.007
		c-0.578,0.213-1.208-1.048-1.761,0.149c-1.215-1.047,0.046-1.675-0.476-2.643C680.143,88.691,679.615,90.864,681.029,92.007z
		 M686.285,80.144c0.065-1.188,1.937-1.043,2.521-1.256c0.811,0.866,1.423,1.629,1.251,2.521
		C688.693,81.744,687.648,79.807,686.285,80.144z M680.963,83.256c-1.232,1.607-4.079,1.5-4.593,4.173
		c-0.716-1.067-2.102-1.219-1.949-2.599C676.847,83.774,678.974,82.33,680.963,83.256z M668.228,91.402
		c0.876-0.316,1.396,0.653,2.242-0.657c1.026,1.445,1.32,1.335,2.832,2.765c-0.188,0.402-0.369,0.806-0.063,1.188l-0.199-0.091
		C670.956,97.029,668.5,93.955,668.228,91.402L668.228,91.402z M669.123,95.212l-0.2-0.096c-1.136,1.413-2.039,0.756-3.006,1.27
		c-0.613-0.768-0.441-1.658,0.415-2.47C666.979,95.667,668.299,93.859,669.123,95.212z M664.339,96.141
		c1.011,0.952,0.257,2.065,0.081,2.951c-2.306,1.835-3.791-1.756-6.47,0.882l-1.816-1.823
		C658.452,96.805,660.854,94.772,664.339,96.141z M664.345,109.717c-0.857,0.817-1.948,0.553-2.762-0.312
		C662.641,108.685,663.445,109.052,664.345,109.717z M667.304,113.266c0.308,3.534-6.594,3.241-8.451,6.74l-0.827-1.353
		C661.884,116.078,664.69,114.721,667.304,113.266z M668.125,107.833c1.712-1.119,3.172-1.187,5.519-2.662
		c-0.031-0.048-0.051-0.108-0.094-0.159l0.2,0.088l-0.106,0.064c0.873,1.258-0.632,3.218,0.61,3.563
		c-0.261,1.088-2.844,0.379-2.388,2.527l-2.637,0.475c-0.522-0.963,0.44-1.489,1.136-1.413
		C669.755,109.557,667.784,109.608,668.125,107.833L668.125,107.833z M669.989,114.265c-0.612-0.768,0.555-1.191-0.146-1.767
		l2.637-0.464C673.005,112.995,670.877,114.433,669.989,114.265z M670.602,118.185c0.454,2.149-1.771,3.3-3.632,3.649
		C667.615,120.439,669.06,119.402,670.602,118.185z M664.371,120.628c1.241,2.028,3.992,1.851,3.664,4.118
		c-0.489,0.017-0.901-0.657-1.468,0.045c-0.645-1.751-0.838-1.837-2.519-1.892C663.036,121.949,664.496,121.41,664.371,120.628z
		 M672.06,124.429c1.201-0.294,0.406,0.909,0.397,1.469c0.05,0,0.087-0.013,0.141-0.013l-0.091,0.201
		c-0.041-0.06-0.056-0.123-0.05-0.189c-2.281-0.092-3.816,0.632-5.694,2.129C666.582,125.287,671.506,125.63,672.06,124.429
		L672.06,124.429z M673.133,110.634c0.534-1.693,3.025-0.778,3.659,0.969C674.875,113.135,674.127,111.092,673.133,110.634z
		 M677.66,107.644c1.063-0.718,1.489,0.44,2.452-0.073c0.614,0.771-0.734,1.598-1.504,2.208
		C677.794,108.917,677.582,108.334,677.66,107.644z M703.421,97.535l0.088-0.192c0.046,1.469-1.84,0.834-2.519,1.254
		C700.859,97.313,702.733,97.458,703.421,97.535L703.421,97.535z M699.189,94.121c0.3-3.253,5.039-2.508,7.316-5.33
		c0.67,0.988,1.737,1.121,1.743,2.276c0.027,0.013,0.059,0.014,0.093,0.029l-0.099,0.197c0.018-0.089,0.006-0.156,0.006-0.227
		C705.295,89.826,702.429,94.9,699.189,94.121z M709.095,76.909c-0.412-0.675-0.027-0.979-0.435-1.658
		c3.961-2.28,5.775-4.101,9.098-4.986c1.013,0.95,0.729,1.552,1.349,2.322C715.862,72.772,712.494,75.329,709.095,76.909
		L709.095,76.909z M719.416,56.731c-0.647,1.395-3.274-0.79-2.227,1.148l0.197,0.091l-2.456,0.073
		c-0.688-3.223,4.238-2.881,5.847-2.14C720.118,57.303,718.481,55.086,719.416,56.731z M694.722,43.113
		c-0.42-0.683-0.032-0.979-0.538-1.46c1.154-0.918,1.854-0.351,2.73-0.671C697.034,41.762,695.698,43.087,694.722,43.113z
		 M698.4,34.645l-1.139-1.732c0.967-0.527,1.58,0.245,2.572,0.702C699.577,34.709,699.455,33.926,698.4,34.645L698.4,34.645z
		 M694.224,43.126l0.098-0.197c-0.148,1.876-3.473,2.264-2.957,0.089C692.413,41.8,693.243,43.157,694.224,43.126z M676.33,49.859
		c0.771-0.613,1.196,0.557,1.853-0.351c0.125,0.78-0.438,1.486-1.701,2.117C675.379,50.866,677.526,50.416,676.33,49.859z
		 M675.223,52.25l-0.094,0.194c-0.022-0.052-0.054-0.061-0.066-0.107c-0.919,0.485-1.827,0.957-2.755,0.979
		c-0.117-0.779,0.44-1.486,1.504-2.201c0.31,0.816,0.914,0.547,1.248,1.222L675.223,52.25z M672.248,48.203
		c-1.349,0.829-4.083,1.502-4.048-0.665C669.641,46.518,672.113,46.931,672.248,48.203z M670.877,41.752
		c-1.41-1.136,1.095-2.882,1.736-1.131L670.877,41.752z M641.69,95.345c-2.055,0.26-5.915,2.825-6.588,0.098
		c2.043,0.06,4.12-0.946,5.94-1.998c0.035-0.1,0.101-0.19,0.188-0.251c0.072,0.004,0.153,0.001,0.231,0.004
		c1.001-0.59,1.914-1.182,2.677-1.57c-0.309-0.384-0.781,0.123-1.166,0.434c0.138-1.871,2.222-1.152,2.962,0.405
		c-1.661,0.609-3.144,0.847-4.467,0.733l-0.426,0.248C640.824,94.041,641.931,94.819,641.69,95.345L641.69,95.345z M636.823,87.034
		c1.258-0.628,1.117,1.238,1.439,2.115c-0.764,0.614-1.276,0.135-2.152,0.454C635.59,88.638,636.851,88.009,636.823,87.034
		L636.823,87.034z M644.913,77.934c-0.126-0.782,2.317-1.348,0.322-2.274c1.261-0.628,1.918,1.615,2.913,2.081
		c-0.26,1.083-0.444,1.48-1.718,1.622c1.133,1.733,2.972,0.896,4.126,3.117c-2.306,1.839-3.416,1.088-5.418,3.319
		c-0.741-2.053,0.822-2.291,2.086-2.918C646.746,80.243,644.772,79.81,644.913,77.934z M650.211,71.188
		c-0.964,0.527-1.851,0.351-2.915,1.068C645.952,69.937,649.667,69.239,650.211,71.188z M650.049,68.934
		c0.967-0.521,1.968-0.06,2.856,0.111c0.122,0.786-0.341,1.784-1.602,2.41C650.29,70.502,651.063,69.884,650.049,68.934
		L650.049,68.934z M653.386,55.454c-1.01-0.947-1.638-2.21,0.107-2.854c0.514,0.476,0.859,2.334,1.624,1.721
		C655.662,55.785,654.172,55.336,653.386,55.454z M644.797,57.78c0.888,0.17,0.947,2.137,2.515,1.894
		c0.24,1.566-1.136,1.409-2.12,1.438C643.78,59.974,643.06,58.91,644.797,57.78L644.797,57.78z M640.784,61.729
		c-0.41-0.675,1.447-1.026,1.924-1.532c0.604,0.28,1.21,1.047,1.999,0.927C644.363,62.911,642.032,60.619,640.784,61.729z
		 M639.848,63.238c-1.809-1.319-4.945,2.315-6.021,2.537c-1.102-0.751-0.613-0.766-1.442-2.119c1.514-2.202,4.454-2.297,6.428-2.349
		C639.513,61.873,639.635,62.653,639.848,63.238L639.848,63.238z M622.461,77.228c-3.035,0.291-3.22,0.688-4.659-1.437
		c0.17-0.893,1.033-1.698,2.09-2.426c1.718,1.525,4.286-1.402,5.537,1.119c2.816-1.363,1.802-2.326,3.752-2.871
		c-0.169,0.893,1.106,0.753,1.642,2.208c-2.496,1.599-5.462,2.28-8.399,1.932L622.461,77.228L622.461,77.228z M624.522,67.039
		l1.353-0.826c0.703,0.565,1.292,0.355,1.897,1.128c-0.947,1.012-1.897,2.022-2.489,2.233c-0.798-0.366-1.768,0.151-2.577-0.706
		C624.278,68.621,622.921,66.303,624.522,67.039z M632.39,50.571c0.109,0.299,0.585-0.208,0.876-0.311l1.032,1.441
		c-0.632,1.887-2.521,1.258-3.598,1.482C630.056,51.435,632.437,52.049,632.39,50.571L632.39,50.571z M627.823,65.661
		c0.951-1.012,1.57-0.243,2.519-1.257c0.613,0.778,0.832,1.355,0.754,2.052C629.722,66.783,628.746,66.814,627.823,65.661z
		 M633.084,70.517c-0.432-1.166-1.261,0.63-1.601-0.739c0.693,0.079,1.554-0.734,2.273,0.325c-0.104,0.84-0.86,1.446-1.705,1.353
		c-0.038-0.008-0.081-0.015-0.122-0.024C631.812,70.652,632.512,71.225,633.084,70.517L633.084,70.517z M645.97,34.338
		c-0.701-0.568-0.231-1.072-0.441-1.659c0.788-0.119,1.308,0.844,2.184,0.527C648.135,34.374,646.342,33.544,645.97,34.338z
		 M644.075,39.995c0.209,0.586,0.115,0.784-0.065,1.183c-1.143,1.416-1.684-0.537-2.532,0.771c-0.7-0.568-1.025-1.446-0.841-1.844
		C641.975,38.786,643.099,40.029,644.075,39.995z M632.788,60.693c-0.877,0.316-1.577-0.243-2.641,0.475
		c-0.234-1.571-0.735-1.559-1.066-2.927l2.409-1.544C632.425,58.342,632.928,58.824,632.788,60.693z M627.657,53.468
		c1.258-0.63-0.344,1.786,0.923,1.16l-0.278,0.595l-0.588,0.212c-0.4-0.189-0.606-0.766-1.188-0.553
		C625.896,53.624,628.467,54.331,627.657,53.468L627.657,53.468z M624.614,56.906c-0.874,0.318-1.58-0.243-2.396-1.106
		c1.048-1.213,1.555-0.735,2.324-1.347C624.86,55.318,624.494,56.119,624.614,56.906z M625.342,51.672
		c-0.147-1.766-1.89-0.633-1.167-2.721l1.476-0.046C626.171,49.877,626.897,50.937,625.342,51.672z M615.601,71.138
		c0.488-0.014,1.792-2.313,2.73-0.671l-0.094,0.195c0.951-1.011,2.071,0.233,2.324-1.345l-0.319-0.385l0.676-0.416
		c-0.304-0.385-0.779,0.124-1.164,0.435c-0.212-0.583,0.264-1.092,0.735-1.598c4.133,3.126-1.724,4.771-4.245,6.03
		C615.147,72.623,616.871,71.002,615.601,71.138L615.601,71.138z M617.69,78.65c0.389-0.313,0.201,0.092,0.201,0.092
		c0.322,0.878-0.68,0.42-0.86,0.812c-1.367,0.339-2.074-0.229-2.807-1.784C615.275,77.048,618.197,75.98,617.69,78.65z
		 M619.388,102.691l3.502-3.521c-1.58-2.681,0.168-5.463,0.168-8.586c-0.547-1.947-2.562-0.216-2.421-2.093
		c0.647-1.393,3.024-0.778,4.313-0.421c0.686-0.107-0.241-1.503-0.734-1.339c-0.057,0.067-0.129,0.111-0.188,0.19
		c0.034-0.087,0.101-0.158,0.188-0.19c1.849-2.073,5.34-1.656,7.523-1.816c4.026-3.462,6.901-2.86,10.02-6.984
		c-1.014-0.947-2.337,0.854-3.592,1.482c-1.61-1.226-4.573-1.634-4.485,1.313c-1.167-2.714-5.449,1.837-7.464,0.427
		c-1.555,0.733-0.341,1.782-1.896,2.514c-0.694-0.566-1.698-1.028-2.421-2.09c2.402-2.036,4.501-0.815,4.915-3.293
		c1.186,0.062,1.808,1.318,2.99,1.387c0.973-0.521-0.529-1.461-0.057-1.967c5.313,0.045,10.648-8.865,15.714-4.101
		c-1.167,0.428-3.257,2.845-2.922,1.067c-2.906,1.567,1.292,3.506,2.421,5.239c-2.033,1.243-3.237,0.189-4.914,0.147
		c-0.37,0.801,0.353,1.855,1.063,2.916c-1.258,0.63-2.424,1.063-3.639,0.008c-1.063,0.723-0.244,1.585-0.616,2.383
		c-2.103,1.937-3.178-0.987-5.105,0.06c-0.074,0.688-0.019,2.656,1.055,2.429c0.322,0.874-1.655,0.441-1.886-0.634
		c-2.106,1.932-3.704,1.194-5.456,1.833c0.031,0.978,1.937,2.104-0.528,2.183c0.821,1.35,1.904,1.121,2.617,2.183
		c0.754-1.103,0.921-2.48,2.688-2.637c-0.72,2.089-3.438,6.889-6.3,6.775c1.948,2.6,6.913,0.781,9.091-2.327
		c4.035,3.323-2.791,5.487-5.165,4.873c-0.86,0.814-0.832,1.796-1.107,2.394c-0.77,0.608-1.461,0.536-2.271-0.325
		C623.781,104.721,620.828,104.814,619.388,102.691L619.388,102.691z M634.649,90.137c-1.223,1.611-1.777-0.331-2.851-0.109
		C631.858,88.845,634.04,89.375,634.649,90.137z M612.127,123.077c-0.415-0.688-1.272,0.133-1.795-0.831
		c1.765-0.156,0.676-0.421,0.644-1.401c0.573-0.7,1.168-0.433,1.756-0.638C613.048,121.08,612.985,122.262,612.127,123.077z
		 M614.206,120.156c-0.7-0.565-0.032-0.974-0.426-1.167c1.242-1.116,2.778-2.342,3.974-1.789c0.388-0.313-0.319-0.874-0.432-1.172
		c2.139-0.946,8.909-1.443,8.511-4.774c-3.385-1.57-7.223,1.984-10.741,2.291c-2.056-2.889,5.687-3.906,3.632-6.794
		c1.272-0.146,1.448,2.602,3.578,1.663c1.421-2.012,2.596-1.949,5.105-3.701c1.918,1.612,4.933-2.801,6.757-0.984
		c-1.629,1.429-1.188,3.08-2.818,4.506c-1.827-1.813-2.584,2.441-5.067,1.534c-0.041,2.167,3.077,1.186,4.461,1.338
		c0.081,2.953-3.732,3.358-5.71,3.421c1.243,2.028-2.806,1.357-0.575,3.357l-0.09,0.199
		C621.053,118.97,618.041,117.094,614.206,120.156L614.206,120.156z M614.333,127.731c-1.119-1.246-0.685-3.225,0.789-3.27
		C615.948,125.811,615.681,126.898,614.333,127.731z M616.673,123.728c0.857-0.819,2.103-1.941,2.638-0.475
		c0.172-0.891,2.321-1.348,1.401-2.5c2.256-0.165,4.586-1.021,6.91-2.369c0.829,1.354-1.207,2.104,0.016,3.639
		c-2.195-1.018-5.409,3.313-7.217,1.984c-0.676,0.414-0.46,0.997,0.341,1.86l-0.188-0.097
		C619.001,126.015,617.806,125.465,616.673,123.728L616.673,123.728z M618.757,130.743l0.087-0.198
		c-1.433-1.632,2.903-1.561,2.446-3.709c2.074,0.232,3.438-0.098,4.965-1.821c0.395,0.192,0.808,0.86,1.396,0.65
		C626.859,128.92,622.033,128.876,618.757,130.743L618.757,130.743z M619.99,135.919c-0.244-1.572,3.822-3.56,5.036-2.509
		C623.089,134.443,621.644,135.475,619.99,135.919z M631.599,119.738c-0.504-0.475-0.123-0.779-0.335-1.367
		c0.675-0.412,0.982-0.03,1.664-0.437C632.941,118.418,632.572,119.219,631.599,119.738z M637.778,105.885
		c1.151-0.922,2.499-1.749,3.679-2.177c0.053,1.964,1.104,4.393-1.014,5.838l0,0L639,110.574c-0.413-0.678-0.995-0.465-1.211-1.044
		l0.463-0.998C637.036,107.478,638.788,106.835,637.778,105.885z M635.597,115.29c4.191-1.204,8.064-3.29,11.114-3.083
		c0.119,0.734-0.606,1.5-0.679,2.402l0.06-0.022l-0.088,0.199c0-0.063,0.022-0.115,0.034-0.184c-3.31,0.896-7.342,3.34-11.093,2.083
		C635.628,116.271,635.41,115.694,635.597,115.29L635.597,115.29z M625.99,145.966c0.341-1.779,1.782,0.341,2.919-1.066
		C628.937,145.875,626.434,147.624,625.99,145.966z M630.992,145.62c-1.001-0.464-0.917-1.151-2.13-2.198
		C630.476,141.5,631.858,144.812,630.992,145.62z M654.066,114.643c-0.954,1.01,0.724,1.063,0.048,1.473
		c-4.115,0.518-6.88,3.353-9.563,5.989c-0.423-1.167-1.289-0.354-1.624-1.72l-0.088,0.198c-1.846,0.835-3.716,0.695-5.671,1.251
		c-0.275-2.556,5.358-1.636,6.764-4.136c0.703,0.566,1.292,0.356,1.905,1.12c0.228-2.074,3.456-2.755,5.02-2.998
		c2.322-1.349,4.8-4.083,6.814-2.663C656.506,114.078,655.264,115.201,654.066,114.643z M648.289,138.613l-0.736-1.554
		c1.154-0.92,2.121-1.442,3.119-0.974C650.508,136.974,649.645,137.791,648.289,138.613z M651.329,131.546l-0.294,0.103
		c-0.772,0.615-1.107-0.753-1.779-0.342c1.842-3.986,7.082-6.408,11.875-7.335c-0.167,1.381-2.597,1.947-1.777,3.301
		C656.91,127.344,652.405,128.165,651.329,131.546z M657.614,134.693c-0.876,0.321-1.348-2.319-2.584-1.194
		c-0.435-1.171,1.637-0.938,1.918-1.54c1.213,1.057,0.646,1.757,0.96,2.629L657.614,134.693z M659.668,130.796
		c0.938-1.501,4.452-2.297,6.207-2.938C666.573,131.575,661.399,129.667,659.668,130.796z M661.958,138.406
		c0.072-0.694-0.447-1.662-1.061-2.431l7.477-3.078l1.14,1.737C665.203,135.062,666.038,136.906,661.958,138.406z M672.432,133.567
		c-0.769,0.611-1.567,0.244-2.149,0.458c-0.925-1.152,0.342-1.778,0.4-2.964c2.169,0.033,4.921-3.296,6.47-0.881
		C674.807,130.544,673.267,131.778,672.432,133.567z M673.267,138.558c-0.625-1.261,3.939-3.266,5.031-3.003
		C677.059,137.169,675.204,137.52,673.267,138.558z M678.091,128.674c0.264-1.087,2.688-2.144,3.319-0.888l0.194,0.097
		C681.164,129.375,678.933,130.523,678.091,128.674L678.091,128.674z M686.448,125.278c-0.839-1.843,2.59-1.942,2.164,0.034
		C687.749,126.131,687.404,124.265,686.448,125.278z M695.667,107.991c-0.417,2.473-5.534,2.53-4.309,4.066
		c-1.27,0.139-8.734,0.559-7.942,4.079c-2.841,0.374-7.15,0.806-7.852,3.87c-1.164,0.434-2.878-1.098-2.913-2.072
		c3.132-0.488,7.07-3.752,12.893-6.386c1.46-0.533,2.608-1.449,3.769-2.367c3.197-1.673,6.783-0.011,6.576-3.739
		c1.871,0.14,4.114-0.514,6.234-1.951c0.813,0.857-0.064,1.182,1.042,1.937c-1.535,1.228-2.644,0.475-3.979,1.79
		c-1.168,0.434,1.576,0.246,0.23,1.074l-0.46,0.998C697.866,109.009,696.771,108.75,695.667,107.991z M696.473,115.145l-1.135-1.73
		C696.473,112,697.825,114.324,696.473,115.145z M699.836,112.587l-0.823-1.352c0.216-2.563,3.788-1.394,4.715-3.388
		c1.01,0.954,1.01,0.954,1.441,2.118l-0.09,0.205C703.215,110.526,701.344,110.379,699.836,112.587z M701.319,116.182
		c0.372-0.8,1.877,0.146,1.448-1.026l0.194,0.092c0.294-0.108,1.518,1.434,1.167,2.719
		C702.855,118.105,702.151,117.537,701.319,116.182z M712.453,106.804c-1.154,0.921-2.062,0.256-2.597-1.2
		C711.098,104.489,711.821,105.548,712.453,106.804z M717.661,100.257c0.889,0.168,1.769-0.15,2.488,0.91l0.199,0.091
		c-0.819,2.292-4.345,2.584-6.575,3.738c-0.707-0.567,0.26-1.089-0.163-1.769c0.971-0.523,2.159-0.453,3.335-0.396
		C717.72,102.224,717.202,101.255,717.661,100.257z M710.716,114.721l-0.2-0.093c-1.142-2.224-3.197,1.673-4.479,1.319
		c-0.557-1.954,0.229-2.076,1.57-3.388l0.72,1.057c1.151-0.919,0.429-1.97,1.687-2.602c2.018,1.414,5.137-2.71,7.561-3.765
		c1.917,1.605,2.537-0.774,3.907-1.103c0.013,0.493-0.663,0.905-0.16,1.381C717.476,110.586,713.628,110.014,710.716,114.721
		L710.716,114.721z M723.997,98.099c0.818,0.164,1.576,0.468,2.543,0.329c0.006-0.044,0.019-0.063,0.019-0.11l0.193,0.091
		c-0.068,0.015-0.141,0.008-0.212,0.021c-0.047,1.769-2.249,0.57-3.272,1.754C722.932,98.819,724.008,98.596,723.997,98.099z
		 M715.049,124.727c-0.241-1.57,1.868-3.496,2.997-1.759l0.103,0.291C716.973,123.198,717.044,125.654,715.049,124.727z
		 M719.116,122.737c0.078-0.692-0.735-1.558,0.325-2.272c0.4,0.186,0.991,0.456,1.411,1.139L719.116,122.737z M721.027,120.709
		c-0.149-1.764,1.952-0.557,2.641-0.472C723.618,121.913,721.625,120.989,721.027,120.709z M710.338,141.683
		c-0.429-1.171,1.082-3.375,1.917-1.535L710.338,141.683z M723.727,135.285c-4.545-0.65-6.967,7.188-10.427,3.163
		c3.119-0.921,5.975-2.595,8.306-4.872c0.707,0.57,1.499,0.449,2.318,1.809L723.727,135.285z M723.315,154.475
		c0.645-1.401,1.813-1.83,3.284-1.87C726.627,153.591,724.078,153.862,723.315,154.475z M735.943,136.094
		c-0.244-1.565,0.945-1.011,2.193-2.128C738.68,135.43,737.144,136.656,735.943,136.094z M745.803,123.708
		c-0.954,1.016-1.799-0.83-2.952,0.088c-0.624-1.264,1.019-2.198,1.479-3.194c0.601,0.276,1.301,0.844,2.074,0.233
		C746.926,121.804,746.757,122.701,745.803,123.708L745.803,123.708z M754.428,106.145c-0.065,1.18-0.128,2.364-1.486,3.192
		l0.098-0.196c-0.414-0.68-0.921-1.154-1.596-0.739C750.706,106.843,753.624,105.775,754.428,106.145z M760.363,87.582
		c0.991,0.459-0.926,1.992,0.717,1.055l0.199,0.092c-1.937,1.045-1.742,4.283-4.026,3.468c-0.612-0.77,0.245-1.584-0.472-2.644
		C758.213,88.034,758.614,88.216,760.363,87.582z M741.47,116.853c1.146-0.92,1.499,0.948,2.359,0.127
		c0.382-0.307-0.229-1.071-0.429-1.169c1.63-1.43,2.838-0.378,5.143-2.218c-0.094,3.351-4.326,3.579-7.88,6.04
		C740.344,118.754,740.804,117.757,741.47,116.853z M739.278,119.477c0.325,0.877-0.134,1.874-1.195,2.592l0.091-0.198l-0.995-0.461
		C736.362,120.544,738.687,119.201,739.278,119.477z M734.37,126.41c1.188,0.065,0.77-0.615,1.735-1.135
		c0.723,1.067,2.438-1.059,2.998,1.384c-2.215,1.639-3.811,0.902-6.808,2.662c-1.213-1.044,3.325-1.638,3.845-0.675
		C736.538,128.341,734.683,126.792,734.37,126.41L734.37,126.41z M757.328,71.638c0.529,1.46,1.161,2.717-0.281,3.746
		C755.699,73.059,755.467,71.993,757.328,71.638z M731.279,124.735c-2.023,1.239-6.68,0.296-6.488,3.536
		c-1.729,1.134-3.237,0.188-4.454-1.34c3.356,0.585,5.708-2.924,9.146-3.027c0.388-0.309-0.313-0.389-0.807-0.369
		C729.408,121.446,730.925,122.872,731.279,124.735z M741.367,87.256c2.938-0.573,3.15-3.143,5.413-3.308
		C748.59,85.273,743.013,89.466,741.367,87.256z M753.709,59.058c2.436,2.579,2.018,5.054,3.184,7.775
		c-2.387,2.529-3.729-2.944-5.987-2.77l0.094-0.2C750.852,62.092,750.987,60.22,753.709,59.058L753.709,59.058z M730.791,108.52
		c1.276-0.138-1.135,1.413,0.26,2.06c-1.32-1.339-3.369,2.556-4.702,0.73C729.164,109.944,729.261,109.741,730.791,108.52
		L730.791,108.52z M725.117,116.066c-0.701-0.567-1.293-0.355-1.81-1.323c-3.103,1.473-3.049,3.44-5.361,4.783l-0.097,0.2
		c-0.595-0.277-1.116-1.245-1.777-0.342c-1.367-2.811,3.344-3.051,5.074-4.675c1.533-1.229,2.456-3.223,5.024-3.002
		C726.412,113.269,725.963,114.757,725.117,116.066L725.117,116.066z M736.353,74.031c1.833-1.334,2.455-0.073,2.99,1.386
		C737.52,76.75,737.088,75.582,736.353,74.031z M731.057,84.416c0.365-0.8,1.695-2.604,2.486-2.235l0.098-0.197
		C734.882,84.009,731.932,84.096,731.057,84.416L731.057,84.416z M736.218,82.689C733.015,80.719,739.278,79.748,736.218,82.689z
		 M725.591,105.628c-0.213-0.585-0.794-0.37-1.205-1.056c0.683-0.412,1.381,0.168,2.047-0.747
		C727.04,104.599,726.561,105.103,725.591,105.628z M745.191,70.127c-0.542,1.688-3.351,3.05-5.394,3.801
		c-1.376-3.303,2.577-2.438,3.091-5.104C743.594,69.386,744.653,68.666,745.191,70.127z M748.991,52.509
		c1.208,1.047-1.322,1.81-1.717,1.624C746.544,53.073,748.288,51.934,748.991,52.509z M745.031,61.578
		c0.335,1.366-1.442,1.023,0.747,2.039c-1.166,0.438,0.041,1.475-1.125,1.904c-0.702-0.565-1.978-0.436-1.518-1.43
		c-1.058,0.718-1.718,1.626-1.295,2.793c-0.688-0.072-4.114,0.516-2.491,2.237c-1.261,0.627-0.256-2.058-1.207-1.047
		C740.72,65.636,742.328,63.232,745.031,61.578L745.031,61.578z M733.722,88.075c-3.319,4.035-7.042,4.736-10.762,8.583
		c-1.407,0.515-2.73,0.833-3.757-0.904l-3.473,2.397c-1.013-0.948-0.234-1.568-0.454-2.148
		C720.599,96.528,728,87.354,733.722,88.075z M736.485,38.725c4.479,0.458,8.499,2.949,10.911,6.754l-0.088,0.191
		c-4.02,0.317-6.948-5.398-11.493-2.902c0.566-0.702-0.354-1.857-0.47-2.639C736.018,39.718,736.206,39.32,736.485,38.725
		L736.485,38.725z M728.423,55.581c1.488,0.445,3.228-0.689,4.727,0.251c0.212,0.583-0.26,1.089,0.046,1.475
		c-5.765,1.442-8.652,6.649-14.092,8.975c1.308,0.844,2.884,1.097,4.727,0.25c1.194,0.563,0.642,1.754,2.192,1.019
		c-0.081,0.695-0.845,1.313-1.323,1.816c-1.931-2.107-6.341-1.479-8.371-3.882c0.141-1.869,5.368-1.142,4.586-4.658
		c2.891-2.053,4.821,0.055,7.711-2.002c-2.59-1.201-0.947-2.133-2.79-4.441C726.798,53.86,729.964,54.351,728.423,55.581
		L728.423,55.581z M725.154,54.793c-0.688-0.078-1.194-0.564-1.511-1.432c1.042-1.21,1.842-0.842,2.562,0.212
		C725.526,54,725.833,54.38,725.154,54.793z M734.548,29.826c-1.706-1.03,0.365-0.797,1.992,0.925
		c-1.295-0.351-2.762-0.312-4.174-1.441C732.333,28.319,733.869,30.241,734.548,29.826L734.548,29.826z M726.961,36.249
		c0.697,0.077,1.201,0.561,1.721,1.521c-0.976,0.036-2.149,0.457-2.865-0.598L726.961,36.249z M723.727,39.593
		c-0.034-0.98-0.354-1.862,0.015-2.659c0.512,0.474,1.493,0.441,2.516,1.892c-1.555,0.733-6.469,4.03-8.131,4.465
		C718.543,40.828,721.346,38.977,723.727,39.593z M712.546,53.792c0.626,1.26,2.434,2.578,0.886,3.316
		c-0.739-1.55-2.175-0.033-3.013-1.876c-0.829,1.8-2.185,2.622-4.177,1.701l-0.091,0.199c-0.65,1.401-0.775,3.759-2.858,3.037
		c-1.327-1.34,2.011-1.731,0.294-3.256C706.424,56.536,709.593,53.88,712.546,53.792z M714.33,41.049
		c-5.502,3.507-10.833,2.979-16.223,6.778l-0.82-0.854c2.622-1.457,3.557-2.958,5.844-2.143c0.46-0.995,0.318-2.275,1.383-2.991
		c0.51,0.477,1.272-0.139,1.902,1.125c0.565-0.707,0.344-1.789,1.401-2.502c1.692,0.538,3.811-0.902,5.774-0.96
		C714.095,39.978,713.617,40.487,714.33,41.049z M714.702,37.108c-2.903,1.563-5.787,0.466-8.434,0.944
		c-0.704-0.57-0.122-0.79-0.335-1.368C709.394,33.92,713.507,33.404,714.702,37.108z M695.704,26.854
		c-0.553,1.198,1.383,0.165,1.627,1.722c-2.502,1.749-4.684,1.225-6.401-0.301c0.542-1.693,2.723-1.17,3.905-1.098
		c-0.63-1.264-1.232-1.54-2.043-2.4c3.272-0.622,6.476-1.571,9.554-2.839c1.336-1.319,3.222-0.689,3.27,0.792l-0.583,0.208
		l0.201,0.092c-2.228,1.148-1.499,2.698-1.649,4.08c1.883,0.629,4.086-1.493,5.882-0.667l1.069,2.916
		C704.939,33.069,700.741,27.489,695.704,26.854z M713.288,22.891c-0.854,0.812-1.395-0.647-2.73,0.671
		C709.731,22.206,712.957,21.524,713.288,22.891z M713.216,20.433c-1.168,0.434-1.978-0.433-2.967-0.405
		C710.229,19.043,712.48,18.881,713.216,20.433z M701.526,17.437c1.799-0.934,4.01-0.512,5.339,1.029
		c3.46,0.879-7.141,1.295-5.84-1.007C701.137,17.749,701.431,17.637,701.526,17.437z M700.496,19.141
		c0.135,1.275-1.833,1.331-2.414,1.549c-1.242-2.033-2.963-0.406-4.358-1.051c-1.27,0.136-4.82-0.06-3.71-2.453
		c2.277,0.324,4.821,0.06,6.998,0.577c0.304,0.383-0.278,0.598-0.459,0.999C697.759,19.813,699.295,18.585,700.496,19.141z
		 M711.151-15.896c2.422-1.548,3.194-1.669,5.103-3.692l0.203,0.088c0.576,2.938-3.203,1.674-2.728,4.314
		C712.775-14.173,712.059-15.234,711.151-15.896L711.151-15.896z M699.658,11.003l0.826,1.352c-0.529,2.181-2.343,0.367-3.686,1.683
		C696.463,12.675,698.783,11.325,699.658,11.003L699.658,11.003z M682.405,12.701c5.08-1.044,9.123,2.775,14.231,2.222
		c0.409,0.682-1.249,1.121-2.015,1.733c-3.429-1.726-7.258-2.493-11.084-2.219l0.085-0.2c-1.07,0.226-1.958,0.056-2.913,1.066
		c-0.631-1.257-1.695-0.538-2.43-2.083L682.405,12.701z M675.216,12.515c-2.959-0.403-6.422,2.358-8.753,0.066
		C670.236,10.207,672.435,11.717,675.216,12.515z M666.172,22.62c1.167-0.433,0.231,1.068,1.033,1.442
		c-2.213,1.643-2.09-0.721-3.485-1.368c-0.328-1.366,3.835,0.082,1.289,0.355C665.41,23.235,667.292,23.871,666.172,22.62
		L666.172,22.62z M662.963,23.954c-0.006-0.056,0.015-0.095,0-0.157l0.199,0.091C663.087,23.918,663.029,23.927,662.963,23.954
		c0.109,0.992-0.688,1.769-1.692,2.453l-1.033-1.446C661.243,24.289,661.918,24.297,662.963,23.954z M658.578,24.914
		c1.42,1.628,2.434,2.58,2.293,4.458c0.706,0.567,1.407,1.139,2.483,0.914c0.945-1.504-2.206-1.507-1.438-2.118
		c7.276-0.02,16.042-9.527,22.992-7.275c-1.26,0.627-1.735,1.134-1.705,2.114c-2.643,0.476-4.799,4.079-8.077,2.803
		c-1.338,1.321,1.624,1.721,0.882,3.314c-4.867,1.621-9.118,0.86-14.036,4.161c-1.001-0.46-1.955,0.551-2.577-0.709
		c-1.696,2.607-5.487,4-8.131,4.465c0.335,1.366,0.191,2.745-1.84,3.988c-0.047-1.465,0.842-1.301-0.672-2.726
		c0.334-1.786,3.043-3.443,3.184-5.316c1.661-0.438,2.622,2.189,4.252,0.759c0.764-0.612-0.826-1.346-0.948-2.136
		c-1.589-0.739-3.516,0.8-5.198,0.747c-1.931-2.108-0.761-2.537-2.979-4.537C650.844,26.422,654.683,26.507,658.578,24.914
		L658.578,24.914z M656.378,19.958c0.064-0.032,0.106-0.063,0.175-0.093l-0.094,0.194C656.437,20.019,656.406,20.003,656.378,19.958
		c-1.014,0.58-0.623,1.046-1.349,1.616l-1.442-2.12C654.708,18.56,655.574,18.719,656.378,19.958z M651.069,20.712
		c0.817,0.86,1.965-0.061,2.597,1.198l-0.203-0.092c-1.142,1.42-1.937,1.048-3.013,1.269
		C649.93,22.12,650.102,21.233,651.069,20.712z M648.902,23.827c-1.07,0.227-2.637,0.467-3.667-0.97
		C646.771,21.63,647.972,22.181,648.902,23.827z M642.726,17.81c-1.089-0.263,2.043-0.749,2.452-0.067
		C645.333,19.509,643.523,18.181,642.726,17.81z M610.976,48.164c0-3.144,3.533-3.447,4.953-5.459
		c4.667,1.436,10.983-4.357,15.938-3.04c0.572-3.844,4.316-3.568,6.091-6.862c-0.166,0.889,0.842,1.84,0.764,2.534
		c-1.33,1.32-2.425,1.058-3.873,2.081c-0.316,2.273,3.375,4.226,4.792,5.361c-3.163,3.144-5.705,0.268-7.195,2.967
		c-1.163-2.72,2.206-2.126,3.558-2.958c0.569-0.699-2.906-1.579-2.953,0.087c-1.092-0.258-0.135-1.271-0.748-2.04
		c-0.403-0.19-1.721,1.625-2.922,1.067c-0.021,2.655-3.166,2.652-4.933,2.808c-0.444,1.486,1.514,1.43,0.071,2.449
		c-1.66,0.443-2.161-0.033-2.702-1.49c-1.937,1.048-1.505,2.208-2.059,3.405c0.703,0.568,1.689,0.544,2.218,1.999
		c-2.797,1.852-3.513,3.948-7.433,4.55c-0.304,0.104-0.698-0.075-0.88,0.321c0.42,0.674,0.924,1.152,1.59,0.738
		c0.435,1.166-1.762,0.151-0.819,1.792l0.381-0.302c0.691,0.07,1.208,1.043,1.627,1.714c-0.568,0.704-0.159,1.384-1.126,1.906
		c-0.416-0.682-0.816-0.861-1.417-1.142c-0.065,0.689-0.561,1.194-1.43,1.521c-1.085-0.263-0.66,0.907-2.121,1.439
		c-0.213-0.574-0.382-2.835,1.014-2.192L612.049,61c-0.628-1.256-1.808-0.827-2.593-1.195c0.244-1.582,0.522-2.187-1.195-3.705
		l3.332-0.396c1.323-1.81,3.642-3.159,5.362-4.782c0.879-0.313,2.536-0.763,2.597-1.944c-0.927-1.163-2.084-0.728-2.638,0.466
		c-0.436-1.169,1.518-1.713-0.476-2.643c-0.804-0.371-3.362,2.567-4.971,1.331c-1.067,0.72,0.146,1.764-1.708,2.116
		c-0.494,0.015-1.418-1.139-1.931-2.108C608.887,47.44,610.06,47.017,610.976,48.164L610.976,48.164z M604.964,51.193
		c0.886-0.313,1.398,0.646,2.187,0.526c0.429,1.17-0.976,0.035-1.348,0.827L604.964,51.193z M593.227,62.958
		c1.014-2.199,2.915-1.071,4.377-1.608l0.228-2.069c4.427-0.133,5.209-3.405,8.807-1.736c-1.342,1.317-1.896,2.513-3.66,2.665
		l-0.307-0.386l-0.113-0.288c-1.773-0.345-0.734,1.587-0.703,2.572c-1.648,0.942-2.659-0.024-4.029,0.315
		C597.892,64.392,594.099,65.781,593.227,62.958L593.227,62.958z M594.628,80.319c0.995,0.463-1.188,3.086-3.053,2.951l-0.21-0.097
		l-0.094,0.192c-0.304-0.383-0.316-0.871-0.716-1.057l1.441-1.027c-0.328-1.369,0.904,0.658,1.214,1.045
		c0.851-0.813,0.829-1.796-0.091-2.949c0.798,0.366,1.902,1.125,3.075,0.692l-0.091,0.2c-0.294,0.103-0.281,0.589-0.075,0.688
		C595.333,80.888,595.702,80.091,594.628,80.319L594.628,80.319z M600.4,72.575c-0.647,1.403-1.345,1.322-2.803,1.855
		c-1.055,1.212-1.843,0.841-2.638,0.474c-0.475,0.503,0.032,0.98,0.322,1.366c-1.163,0.426-0.553,1.192-1.707,1.625
		c-1.191-0.066-2.416-1.603-3.985-1.85c0.889,0.168,3.071-2.448,4.266-1.897c0.276-0.597,0.437-1.979,0.877-0.317
		c1.163-0.431-0.629-1.264,0.829-1.797c-0.694-0.073-1.418-1.139-2.134-2.196c0.882-0.32,0.372-0.804-0.047-1.472
		c2.077,0.233,3.285-1.869,5.228-2.91c-0.253,1.576,0.234,1.566,1.342,2.323c-0.688-0.074-2.015,1.731-2.637,0.471
		c-1.446,1.028-1.511,2.207-1.777,3.298c0.216,0.583,2.337-0.855,1.142-1.41c1.073-0.231,0.254,2.057,1.78,0.339
		c0.016,0.492,0.031,0.982,0.416,0.679c0.488-0.015,0.889,0.167,1.367-0.338C603.732,69.032,603.559,73.075,600.4,72.575z
		 M609.606,81.447c-2.492,2.235-2.861,3.037-5.745,5.093c-0.983-0.588-1.871-1.321-2.619-2.19c-1.17,0.436-0.554,1.194-1.724,1.625
		c1.411,1.135,0.767-0.614,1.742-1.137c1.188,0.56-0.638,1.887,0.729,1.552c-0.348,1.299-2.456,0.075-3.525,0.313
		c-0.651-1.751,2.671-2.638,2.718-4.313l1.796-2.318c-1.221-1.537-2.516,1.254-3.957-0.866c1.167-0.428-0.139-1.273,1.122-1.9
		c1.292,0.353,0.538,1.459,1.628,1.72c0.188-0.397-0.232-1.076-0.336-1.367c1.37-0.335,2.72-1.162,4.009-0.809
		c0.134,1.276-1.603,2.41-2.156,3.601c1.736,2.016,3.944,0.377,6.22,0.699l0.294-0.105c-0.154-1.767,1.47-0.048,1.937-1.041
		c0.075-0.692,0.947-1.016,1.673,0.05c-1.073,0.227-1.608,1.917-0.647,1.395C612.604,82.833,610.395,81.32,609.606,81.447
		L609.606,81.447z M606.109,92.66c1.261-0.624,0.541-1.683,2.09-2.418c0.213,0.58,0.717,1.065,0.813,0.86
		c0.229,1.071-0.435,1.979-0.698,3.073C607.551,94.783,606.923,93.523,606.109,92.66z"/>
	<path fill="#F79927" d="M692.046,95.412c0.054,0.044,0.123,0.067,0.182,0.102l0.02-0.01L692.046,95.412z M694.863,96.852
		c0,0.211,0.034,0.434,0.1,0.639C695.028,97.274,694.991,97.039,694.863,96.852z M719.104,95.592c0.03,0.058,0.064,0.1,0.1,0.159
		l0.097-0.066L719.104,95.592z M585.241,82.272c0.3-0.104-2.409,1.551-3.223,0.688l-0.675,0.417c0.72,1.062,1.488,0.443,2.549-0.279
		c0.315,0.878,0.716,1.07,1.401,0.652C586.564,83.606,586.292,81.059,585.241,82.272L585.241,82.272z M579.215,84.817
		c0.538,1.457,2.781,0.801,2.556-0.274c-0.397-0.19-0.876,0.313-1.182-0.064C580.204,84.785,579.9,84.398,579.215,84.817z
		 M580.749,89.88c-0.182,0.4,0.406,0.19,0.612,0.768c0.129-0.101,0.251-0.201,0.38-0.307c0.591-0.212,0.984-0.03,1.401,0.646
		c1.845-0.84-0.364-2.35,0.984-3.174C582.844,87.459,582.82,90.115,580.749,89.88L580.749,89.88z M630.397,16.703
		c1.759-0.806,4.305,1.796,5.347,0.335c0.02-0.688,0.647-1.257,0.901-1.802c-1.529,0.144-3.072-0.152-4.449-0.854
		C632.04,15.77,630.476,16.013,630.397,16.703z M613.167-10.418c-0.027,0.015-0.066,0.012-0.094,0.021v0.176L613.167-10.418z
		 M638.812,15.276c1.073-0.232,1.577,0.244,2.645-0.472l0.09-0.196l1.151-0.917c-1.485-0.449-3.345-0.098-5.462,1.336
		C637.473,16.592,638.498,14.396,638.812,15.276z M635.91,16.836c-0.048,0.094-0.113,0.136-0.166,0.203
		c0,0.066-0.031,0.127-0.025,0.193L635.91,16.836z M670.671,110.702c0.553-1.192,2.693-2.146,2.449-3.703
		c-0.389,0.303-0.982,0.031-1.195-0.562c-1.17,0.428-0.754,1.104-1.711,1.623C671.797,108.802,670.737,109.524,670.671,110.702
		L670.671,110.702z M762.514,126.853c4.189,2.073,9.082,2.212,13.387,0.388c6.856,2.447,14.906-1.331,21.883,1.411
		c4.755-1.911,9.037-0.167,13.72-1.389c1.415-2.012,3.504-1.287,5.638-2.236c5.571,2.098,12.113,0.524,18.119,0.642
		c-0.213-0.58-0.031-0.982,0.153-1.384c-1.292-0.354-3.01,1.272-4.052-0.667c1.167-0.434,2.354-0.365,3.335-0.389
		c-1.601-1.234-3.932,0.11-5.906-0.317l-0.193,0.397c-1.155,0.924-2.141,0.951-3.104,1.472c-0.206-0.587,0.063-1.184-0.713-1.059
		c-0.16,1.378-2.644,0.459-3.573-0.689c-0.691-0.566-2.161-0.033-3.247-0.296c-0.391,0.304-0.77,0.613-1.167,0.426
		c-2.997,1.766-5.33-0.528-8.045,0.635c0.409,0.684,1.569-0.239,1.992,0.93c-1.736,1.134-2.69-1.004-4.687,1.217l-0.104-0.29
		c-1.66,0.442-3.209,1.176-4.238-0.27c1.276-0.136,2.831-0.871,3.92-0.607c0.889,0.168,1.937-1.041,2.73-0.674
		c-0.613-0.767-1.583-0.247-2.09-0.721c-14.236,0.912-28.311,0.445-42.638,1.071C762.781,125.759,761.579,125.209,762.514,126.853z
		 M797.996,126.09c-2.73,0.49-5.521,0.512-8.259,0.051C791.645,124.112,795.599,124.978,797.996,126.09z M783.23,125.538
		c-1.417,2.015-4.979,1.333-6.882,0.207C778.775,124.691,780.958,125.219,783.23,125.538z"/>
	<path fill="#F79927" d="M594.606-32.585l0.4,0.189c8.895,9.193,16.076,19.904,21.198,31.622c1.937,2.109,2.283,3.967,3.719,6.093
		c-0.169,0.889,1.148,2.227,1.865,3.286c0.2,0.092,0.616,0.768,0.804,0.368c-0.307-0.38-0.03-0.981-0.641-1.75
		c1.275-0.134,2.925,2.572,3.065,3.844c-0.389,0.303-0.688-0.08-0.983,0.027c-0.287,0.109-0.472,0.509-0.067,0.689l0.415,0.679
		c0.448,0.044,0.87,0.239,1.195,0.554c1.343-0.819,2.391,1.108,3.913-0.606c0.047-1.672-3.44-3.043-3.304-4.918
		c-2.058-2.399-3.842-5.015-5.33-7.804c-0.819-0.863-1.433-1.632-1.351-2.318c-2.318-1.804-1.409-4.29-2.049-6.039
		c-4.371-11.479-15.198-21.577-23.047-30.786l-1.396-0.644c-2.07-0.235-0.526,2.183-0.988,3.179
		C591.969-35.255,594.931-34.855,594.606-32.585z M617.678-0.815c0.679-0.412,1.275-0.133,2.208,1.507
		c-1.166,0.431-2.177-0.527-3.01-1.88C616.758-1.964,617.471-1.402,617.678-0.815z M613.073-10.394
		c0.035-0.008,0.066-0.005,0.097-0.021l-0.097,0.196V-10.394c-0.716,0.262-2.284-1.167-1.836-2.129
		C612.803-13.411,613.108-11.595,613.073-10.394z M604.236-26.18c-0.185,0.397-1.796-0.828-1.17,0.43
		c-0.583,0.211-0.796-0.368-1.102-0.753C602.612-27.902,604.399-27.562,604.236-26.18z M574.419,62.233
		c-1.977-0.429-3.839-0.075-5.834-1.006c-3.326,0.889-4.498,0.823-7.001,2.574c3.47,0.881,6.907,0.777,10.299,2.343
		c0.381-0.307,0.688,0.077,0.872-0.316c-0.256-2.066-2.59-1.201-4.17-1.451c0.056-1.181,1.358-0.33,0.816-1.794
		C571.256,61.741,572.405,63.967,574.419,62.233L574.419,62.233z M566.514,64.147l-0.835-1.35
		C566.436,61.693,568.457,63.594,566.514,64.147z M579.985,67.479c0.397,0.185,0.798,0.373,0.982-0.029
		c1.038-1.209,2.04-0.749,2.912-1.071c1.821-1.818,2.096-5.569-0.751-2.039l-0.391-0.193c-1.048,1.211-1.849,0.839-2.844,0.376
		c-0.565,0.706-0.879,0.324-1.461,0.545C577.776,65.978,579.847,66.204,579.985,67.479z M759.765,54.351
		c19.205-11.771,38.672-23.106,58.396-33.99l-0.514-0.479c-1.567,0.246-3.379,2.068-4.887,1.128
		c-0.966,0.521-1.942,0.551-2.944,0.089c-2.983,2.245-5.073,1.528-7.144,4.441l0.293-0.105c2.712-1.163,7.421-5.039,8.753-3.205
		c-3.396,1.571-6.963,4.041-9.892,4.616c0.182-0.397-0.121-0.783,0.555-1.193c-8.174,2.997-17.225,9.465-25.258,13.734
		c0.61,0.767-1.442,1.027-1.715,1.624c0.313,0.875,1.367-0.335,1.782,0.339c1.508-2.208,3.993-4.452,6.843-4.336
		c2.214-1.639,6.694-6.593,10.085-5.022c-6.037,2.054-13.518,8.271-20.411,11.132c-0.426-0.677-0.035-0.984-0.054-1.475
		c-0.663,0.903-2.556,0.273-2.208,1.639c0.597,0.276,1.1,0.754,1.961-0.06c-0.354,1.29-3.331,3.541-4.16,2.191
		c0.188-0.4,0.766-0.612,0.449-0.999c-1.566,0.245-3.672,2.181-5.402,3.314c0.304,0.382,1.073-0.229,1.474-0.047
		c0.238,1.57-1.239,1.608-2.493,2.236c-0.419-0.68,0.951-1.016,0.335-1.78c-1.925,1.531-2.737,3.817-5.1,3.691
		c-0.575,0.214-0.275,0.599-0.944,1.012l0.604,0.774C758.754,53.398,759.258,53.877,759.765,54.351L759.765,54.351z M800.746,27.068
		l-0.087,0.2c1.022,1.441-2.021,1.725-2.493,2.234C797.436,27.954,800.552,26.974,800.746,27.068z M768.943,45.521
		c0.319,0.875-1.833,1.334-2.195,2.13C765.423,46.316,768.264,45.936,768.943,45.521z"/>
</g>
<path fill="#96D2CA" d="M2.464,148.157c7.234-2.698,15.177-4.185,23.514-4.185c16.123,0,30.769,5.581,41.619,14.673
	c10.979-13.65,28.996-22.567,49.374-22.567c25.275,0,44.733,9.524,53.811,28.993l13.505-0.001c0.607,0,1.643-0.041,2.237,0
	c6.573-23.316,29.954-39.159,58.339-39.159c24.37,0,45.36,12.738,54.974,31.091c1.795-0.647,3.688-0.979,5.596-0.976
	c1.761,0,3.441,0.287,5.008,0.788c3.995-4.268,10.023-6.979,16.774-6.979c9.66,0,17.841,5.572,20.69,13.273
	c10.655-8.259,24.648-17.132,39.926-17.132c20.381,0,39.076,5.441,50.053,19.1c10.852-9.094,21.523-11.252,37.64-11.759
	c12.813-0.4,20.29,4.672,26.763,8.597c2.59-27.485,28.604-49.086,60.341-49.086c26.664,0,49.283,15.252,57.376,36.427
	c3.104-1.394,6.47-2.113,9.874-2.107c4.999,0,9.592,1.505,13.267,4.015c3.51-17.301,20.569-30.439,41.131-30.439
	c22.317,0,42.876,11.664,44.084,31.144c8.255-3.732,17.415-5.525,27.326-5.525c12.475,0,21.873,6.836,31.515,12.554
	c2.674-3.355,7.082-5.556,12.077-5.556c1.975,0,3.858,0.351,5.585,0.972c5.518-14.098,20.365-24.333,38.027-24.867v35.627H-505.555
	v-40.225c11.056-10.504,26.814-17.076,44.315-17.076c0.785,0,1.566,0.019,2.344,0.041c0.037,0.044,0.079,0.091,0.115,0.138
	c0.073-0.044,0.147-0.082,0.219-0.125c25.494,0.981,46.883,15.909,54.701,36.371c3.104-1.395,6.473-2.11,9.876-2.104
	c4.998,0,9.592,1.501,13.268,4.013c3.504-17.304,20.562-30.438,41.126-30.438c18.299,0,33.812,10.412,39.485,24.895
	c1.79-0.645,3.675-0.974,5.579-0.971c4.998,0,9.402,2.2,12.08,5.558c9.638-5.722,21.23-9.062,33.709-9.062
	c9.911,0,19.254,2.115,27.513,5.851c1.203-19.483,19.385-34.956,41.709-34.962c24.234-0.007,39.056,16.508,41.125,30.439
	c3.675-2.506,8.271-4.016,13.271-4.016c3.559,0,6.906,0.768,9.872,2.108c8.086-21.177,30.708-36.425,57.375-36.425
	c3.735,0,7.388,0.308,10.937,0.883c10.444,1.91,19.908,6.201,27.635,12.217c0.077-0.213,0.175-0.414,0.26-0.624
	C-6.986,120.479,1.083,133.474,2.464,148.157L2.464,148.157z"/>
<path fill="#96D2CA" d="M400.117,53.698c1.611-0.214,3.128-0.151,4.518,0.116c6.162-8.032,19.026-19.971,29.718-19.941
	c11.297,0.033,16.749,4.54,19.721,13.342c0.025,0.003,2.325-2.328,7.208-5.241c10.577-6.297,19.255-4.626,22.254,0.62
	c2.466,4.302,4.121,11.278,0.445,17.188c1.166-0.203,2.358-0.315,3.56-0.307c9.789,0.025,16.48,7.324,14.932,16.296
	c-1.555,8.976-10.758,16.231-20.557,16.206c-2.625-0.01-5.021-0.557-7.101-1.501c-5.734,9.665-17.162,16.513-29.162,16.477
	c-11.297-0.032-19.978-6.154-22.949-14.955c-11.043-0.072-19.571-5.97-22.674-14.497c-0.601,0.152-1.208,0.279-1.821,0.367
	c-7.458,0.999-13.077-3.603-12.55-10.271C386.187,60.919,392.66,54.702,400.117,53.698z"/>
<path fill="#96D2CA" d="M164.5,122.271c0.774,0.005,1.486-0.115,2.127-0.328c3.398,3.417,10.199,8.276,15.249,7.611
	c5.333-0.702,7.636-3.163,8.502-7.501c0.013-0.003,1.242,0.957,3.726,2.036c5.371,2.331,9.372,1.015,10.47-1.646
	c0.901-2.18,1.261-5.575-0.835-8.145c0.566,0.025,1.132,0.004,1.702-0.07c4.624-0.607,7.336-4.461,6.056-8.606
	c-1.276-4.144-6.063-7.008-10.689-6.402c-1.239,0.165-2.337,0.567-3.263,1.142c-3.297-4.218-9.11-6.757-14.775-6.012
	c-5.333,0.701-9.063,4.122-9.929,8.46c-5.211,0.707-8.88,4.01-9.829,8.227c-0.292-0.035-0.584-0.06-0.88-0.061
	c-3.583-0.02-5.959,2.494-5.304,5.613C157.481,119.71,160.919,122.252,164.5,122.271z"/>
<path fill="#F8F9F6" d="M147.901-14.064c0.773,0.005,1.486-0.115,2.127-0.328c3.398,3.417,10.199,8.276,15.248,7.611
	c5.334-0.702,7.637-3.163,8.503-7.501c0.013-0.003,1.241,0.957,3.726,2.036c5.371,2.331,9.373,1.015,10.471-1.646
	c0.9-2.18,1.261-5.575-0.836-8.145c0.566,0.025,1.133,0.004,1.703-0.07c4.623-0.607,7.336-4.461,6.056-8.606
	c-1.276-4.144-6.063-7.008-10.689-6.402c-1.239,0.165-2.337,0.567-3.263,1.142c-3.297-4.218-9.109-6.757-14.775-6.012
	c-5.333,0.701-9.063,4.122-9.929,8.46c-5.211,0.707-8.88,4.01-9.829,8.227c-0.292-0.035-0.584-0.06-0.88-0.061
	c-3.583-0.02-5.96,2.494-5.304,5.613C140.882-16.625,144.321-14.083,147.901-14.064z"/>
<path fill="#F8F9F6" d="M566.123,260.584c1.272,0.01,2.445-0.189,3.499-0.54c5.592,5.623,16.78,13.618,25.087,12.522
	c8.775-1.153,12.563-5.202,13.989-12.339c0.021-0.007,2.042,1.574,6.129,3.348c8.837,3.837,15.421,1.671,17.227-2.705
	c1.481-3.586,2.074-9.175-1.375-13.4c0.932,0.042,1.864,0.007,2.803-0.115c7.605-0.999,12.068-7.339,9.963-14.161
	c-2.101-6.815-9.975-11.529-17.587-10.533c-2.039,0.272-3.845,0.935-5.368,1.88c-5.424-6.941-14.987-11.118-24.309-9.891
	c-8.774,1.153-14.91,6.78-16.335,13.917c-8.573,1.163-14.609,6.597-16.171,13.534c-0.48-0.058-0.961-0.097-1.448-0.1
	c-5.895-0.032-9.806,4.104-8.726,9.235C554.576,256.372,560.233,260.555,566.123,260.584z"/>
<path fill="#F8F9F6" d="M572.363,142.688c0.777,0,1.529-0.107,2.249-0.291c3.114,5.682,9.148,9.535,16.085,9.535
	c7.706,0,14.29-4.762,17.002-11.498c0.611,9.572,8.547,17.152,18.273,17.152c8.456,0,15.556-5.734,17.673-13.52
	c3.338,3.488,8.027,5.67,13.236,5.67c3.895,0,7.499-1.223,10.469-3.293c2.061,7.869,9.199,13.686,17.715,13.686
	c10.075,0,18.245-8.129,18.326-18.186c2.17,1.596,4.84,2.551,7.739,2.551c4.646,0,8.716-2.428,11.04-6.076
	c1.571,1.297,3.586,2.076,5.783,2.076c5.021,0,9.09-4.07,9.09-9.092s-4.069-9.09-9.09-9.09c-2.197,0-4.212,0.779-5.783,2.074
	c-2.323-3.648-6.395-6.074-11.04-6.074c-2.47,0-4.771,0.695-6.741,1.883c-1.542-8.564-9.018-15.066-18.025-15.066
	c-6.342,0-11.93,3.221-15.222,8.113c-2.24-1.793-5.077-2.871-8.17-2.871c-2.224,0-4.315,0.559-6.149,1.535
	c-0.602-9.58-8.541-17.17-18.274-17.17c-6.539,0-12.262,3.434-15.508,8.584c-0.351-0.041-0.706-0.068-1.068-0.068
	c-5.021,0-9.091,4.07-9.091,9.09c0,0.246,0.018,0.488,0.036,0.73c-0.012,0-0.023-0.002-0.036-0.002
	c-4.623,0-8.677,2.402-11.007,6.02c-3.096-2.389-6.965-3.826-11.178-3.826c-6.937,0-12.971,3.854-16.084,9.535
	c-0.721-0.184-1.473-0.293-2.25-0.293c-5.021,0-9.091,4.07-9.091,9.09C563.272,138.618,567.341,142.688,572.363,142.688z"/>
<path fill="#96D2CA" d="M19.585,62.987c0.777,0,1.529-0.107,2.249-0.291c3.114,5.682,9.148,9.536,16.085,9.536
	c7.706,0,14.29-4.762,17.002-11.499c0.611,9.573,8.547,17.153,18.273,17.153c8.456,0,15.556-5.734,17.673-13.52
	c3.338,3.489,8.027,5.67,13.236,5.67c3.895,0,7.499-1.223,10.469-3.293c2.061,7.87,9.199,13.686,17.715,13.686
	c10.075,0,18.245-8.129,18.326-18.186c2.17,1.596,4.84,2.551,7.739,2.551c4.646,0,8.716-2.428,11.04-6.076
	c1.571,1.297,3.586,2.076,5.783,2.076c5.021,0,9.09-4.07,9.09-9.092s-4.069-9.09-9.09-9.09c-2.197,0-4.212,0.779-5.783,2.074
	c-2.323-3.648-6.395-6.074-11.04-6.074c-2.47,0-4.771,0.695-6.741,1.883c-1.542-8.564-9.018-15.066-18.025-15.066
	c-6.342,0-11.93,3.221-15.222,8.113c-2.24-1.793-5.077-2.871-8.17-2.871c-2.224,0-4.315,0.559-6.149,1.535
	c-0.602-9.58-8.541-17.17-18.274-17.17c-6.539,0-12.262,3.434-15.508,8.584c-0.351-0.041-0.706-0.068-1.068-0.068
	c-5.021,0-9.091,4.07-9.091,9.09c0,0.246,0.018,0.488,0.036,0.73c-0.012,0-0.023-0.002-0.036-0.002
	c-4.623,0-8.677,2.402-11.007,6.02c-3.096-2.389-6.965-3.826-11.178-3.826c-6.937,0-12.971,3.854-16.084,9.535
	c-0.721-0.184-1.473-0.293-2.25-0.293c-5.021,0-9.091,4.07-9.091,9.09C10.495,58.917,14.564,62.987,19.585,62.987z"/>
</svg>
