<?xml version="1.0" encoding="utf-8"?>
<!-- Generator: Adobe Illustrator 15.0.0, SVG Export Plug-In . SVG Version: 6.00 Build 0)  -->
<!DOCTYPE svg PUBLIC "-//W3C//DTD SVG 1.1//EN" "http://www.w3.org/Graphics/SVG/1.1/DTD/svg11.dtd">
<svg version="1.1" id="Calque_1" xmlns="http://www.w3.org/2000/svg" xmlns:xlink="http://www.w3.org/1999/xlink" x="0px" y="0px"
	 width="841.89px" height="134.203px" viewBox="0 0 841.89 134.203" enable-background="new 0 0 841.89 134.203"
	 xml:space="preserve">
<path fill="#F8F9F6" d="M525.178,35.765c-4.534-1.684-9.515-2.613-14.743-2.613c-10.115,0-19.297,3.486-26.105,9.163
	c-6.885-8.524-18.181-14.091-30.965-14.091c-15.85,0-29.428,8.556-35.121,20.707c-2.183-1.166-4.622-1.772-7.096-1.767
	c-0.384,0-0.759,0.024-1.133,0.051c-4.12-14.557-19.054-25.343-36.854-25.343c-15.282,0-28.448,7.953-34.476,19.413
	c-2.142-0.771-4.481-0.812-6.651-0.118c-2.504-2.663-6.286-4.357-10.519-4.357c-6.059,0-11.188,3.477-12.977,8.287
	c-6.683-5.155-15.426-8.287-25.009-8.287c-12.782,0-24.081,5.564-30.965,14.091c-6.807-5.678-15.991-9.163-26.103-9.163
	c-5.229,0-10.208,0.93-14.741,2.613c-1.625-17.159-17.94-30.645-37.842-30.645c-16.723,0-30.91,9.521-35.983,22.743
	c-1.947-0.871-4.058-1.319-6.191-1.315c-3.136,0-6.017,0.939-8.322,2.504c-2.2-10.8-12.898-19.002-25.793-19.002
	c-13.997,0-25.399,9.666-26.156,21.826c-5.178-2.328-11.039-3.652-17.253-3.652c-7.824,0-15.095,2.087-21.139,5.658
	c-1.68-2.097-4.444-3.469-7.576-3.469c-1.24,0-2.42,0.219-3.501,0.606C18.499,30.807,9.188,24.415-1.888,24.08v111.89h845.667
	V21.213c-6.934-6.558-16.814-10.661-27.793-10.661c-0.492,0-0.982,0.01-1.471,0.025c-0.021,0.029-0.049,0.056-0.07,0.085
	l-0.137-0.077c-15.99,0.612-29.404,9.933-34.307,22.708c-1.947-0.871-4.059-1.318-6.193-1.314c-3.135,0-6.016,0.938-8.32,2.506
	c-2.199-10.803-12.895-19.004-25.793-19.004c-11.477,0-21.203,6.5-24.764,15.543c-1.121-0.403-2.305-0.609-3.498-0.607
	c-3.133,0-5.895,1.374-7.576,3.471c-6.043-3.574-13.313-5.658-21.139-5.658c-6.215,0-12.074,1.322-17.256,3.652
	c-0.752-12.163-12.156-21.824-26.158-21.827c-15.195-0.005-24.492,10.306-25.79,19.003c-2.306-1.564-5.187-2.506-8.323-2.506
	c-2.232,0-4.33,0.479-6.191,1.316c-5.07-13.223-19.258-22.743-35.982-22.743c-2.342,0-4.63,0.193-6.859,0.552
	c-6.549,1.192-12.484,3.871-17.33,7.627c-0.047-0.134-0.106-0.26-0.164-0.391C531.107,18.486,526.045,26.6,525.178,35.765z"/>
<path opacity="0.21" fill="#50C2C8" enable-background="new    " d="M316.882,90.134c4.649-1.334,9.688-1.883,14.9-1.486
	c10.084,0.768,18.975,4.938,25.328,11.111c7.516-7.975,19.207-12.67,31.952-11.7c15.804,1.202,27.518,8.058,32.264,20.606
	l8.446,0.641c0.379,0.029,1.027,0.052,1.399,0.105c5.223-14.201,20.601-22.953,38.351-21.604
	c15.238,1.158,27.758,10.086,32.892,21.97c1.153-0.319,2.353-0.435,3.545-0.342c1.103,0.084,2.138,0.341,3.097,0.728
	c2.699-2.466,6.598-3.869,10.818-3.548c6.043,0.459,10.893,4.313,12.306,9.247c7.058-4.636,16.231-9.494,25.785-8.77
	c12.747,0.97,24.175,5.248,30.386,14.271c7.221-5.146,13.998-5.981,24.1-5.53c8.029,0.359,12.465,3.873,16.322,6.623
	c2.934-16.986,20.236-29.195,40.078-27.688c16.672,1.27,30.09,11.838,34.139,25.404c2.008-0.721,4.148-1.01,6.273-0.844
	c3.129,0.238,5.928,1.395,8.105,3.129c3.021-10.603,14.316-17.971,27.174-16.992c13.955,1.061,26.254,9.299,26.08,21.48
	c5.34-1.93,11.152-2.609,17.35-2.139c7.803,0.592,13.354,5.293,19.105,9.313c1.834-1.963,4.697-3.121,7.818-2.885
	c1.236,0.096,2.395,0.402,3.449,0.871c4.121-8.514,14.365-15.346,25.432-14.84v18.701L-1.888,136.97V50.807
	c7.414-6.013,19.791-8.688,30.735-7.854c0.492,0.037,0.979,0.084,1.463,0.137c0.021,0.03,0.045,0.06,0.065,0.091
	c0.049-0.023,0.096-0.044,0.143-0.067c15.895,1.822,28.557,12.13,32.469,25.241c2.009-0.722,4.147-1.009,6.275-0.843
	c3.125,0.238,5.927,1.394,8.104,3.129c3.02-10.604,14.312-17.97,27.173-16.993c11.441,0.87,20.645,8.091,23.5,17.376
	c1.15-0.316,2.347-0.434,3.536-0.34c3.125,0.236,5.774,1.814,7.289,4.031c6.299-3.104,13.707-4.631,21.512-4.039
	c6.198,0.473,11.938,2.234,16.924,4.953c1.683-12.073,13.792-20.841,27.753-19.783c15.154,1.147,23.632,12.131,24.26,20.902
	c2.419-1.385,5.366-2.104,8.491-1.867c2.227,0.17,4.284,0.809,6.072,1.783c6.068-12.799,20.944-21.217,37.619-19.949
	c2.334,0.177,4.604,0.543,6.796,1.069c6.439,1.686,12.155,4.807,16.698,8.919c0.06-0.129,0.129-0.25,0.192-0.375
	C312.293,72.457,316.719,80.929,316.882,90.134L316.882,90.134z"/>
<g>
	<path fill="#F79927" d="M667.037,71.798c-1.078-0.949-2.582,0.322-3.659-0.629c-0.478,0.689,0.021,0.614,0.634,0.592
		c-0.457,0.365-0.893,0.736-0.604,1.181c0.076-0.007,0.154-0.011,0.23-0.022c0.256-0.113,0.451-0.215,0.65-0.119
		c-0.215,0.054-0.434,0.096-0.65,0.119c-0.066,0.033-0.137,0.062-0.205,0.088c-0.02-0.024-0.012-0.041-0.025-0.065
		c-2.689,0.208-4.846-1.825-7.725-1.237c3.076,1.313,6.395,1.971,9.74,1.922c-0.701-0.779-1.2-1.01-0.668-1.822
		C665.494,71.841,666.302,72.068,667.037,71.798L667.037,71.798z M651.71,68.816l0.059-0.125c-0.934-0.273-1.994-0.616-3.041-0.646
		c-0.172,0.299-0.229,0.649-0.154,0.983C649.632,69.369,650.718,68.662,651.71,68.816z M643.722,69.667
		c2.234,0.426,4.691,0.353,6.828,1.639c0.359-0.438,0.619-0.022,0.736-0.271c-0.941-0.588-1.813-0.682-2.774-1.881
		c-1.808,1.281-3.212-0.273-4.862,0.327l-0.186,0.065L643.722,69.667z M684.945,64.33l-0.059,0.122l0.195,0.241
		c1.359,0.021,1.494-1.58,2.029-2.391C686.013,63.009,685.917,63.869,684.945,64.33z M722.535,63.213
		c0.262,0.426,0.02,0.614,0.275,1.041l0.123,0.053c0.535-0.507,0.813,0.224,1.428,0.202l3.412-3.415
		C725.792,60.784,724.654,61.925,722.535,63.213L722.535,63.213z M698.671,71.72l0.125,0.059c0.787-0.393,0.523-1.123,0.754-1.619
		C698.626,70.185,698.222,71.054,698.671,71.72z M729.173,54.175c-1.066-0.643,0.105-0.557-0.662-1.516
		c-0.916,0.334-0.592,0.938-1.383,1.332C727.591,54.957,728.394,54.873,729.173,54.175z M736.982,113.134
		c-0.029,0-0.057,0.006-0.088,0.006c-0.006,0.044,0.006,0.086,0.031,0.119L736.982,113.134L736.982,113.134z M759.398,91.409
		c-0.021-0.009-0.041-0.01-0.059-0.019c0,0.043,0.004,0.09,0,0.143L759.398,91.409z M738.628,67.157
		c-0.037,0.019-0.072,0.038-0.109,0.05c0.02,0.032,0.037,0.041,0.049,0.07L738.628,67.157L738.628,67.157z M743.982,93.527
		c-0.078,0-0.137,0.023-0.209,0.037c0.008,0.012,0.02,0.02,0.027,0.031L743.982,93.527L743.982,93.527z M653.892,71.64
		c0.326,0.226,0.731,0.301,1.119,0.205c-0.898-1.012-2.063-0.797-3.18-1.004C652.468,71.431,653.373,70.792,653.892,71.64
		L653.892,71.64z M770.816,95.921c0.004,0.031-0.006,0.039-0.006,0.066c0.043-0.008,0.088-0.001,0.132-0.01L770.816,95.921z
		 M737.58,100.1c0.025,0.03,0.037,0.067,0.055,0.098l0.067-0.041L737.58,100.1z M705.888,96.373l-0.078,0.08
		c0.008,0.014,0.016,0.033,0.021,0.041L705.888,96.373z M706.525,88.802c0.033-0.043,0.078-0.072,0.117-0.117
		C706.595,88.701,706.552,88.739,706.525,88.802z M767.48,48.248l-0.053,0.041c0.063,0.012,0.123,0.021,0.184,0.037
		C767.566,48.296,767.525,48.283,767.48,48.248z M717.314,92.718c-0.057,0.039-0.096,0.097-0.117,0.16l0.262-0.154
		C717.406,92.72,717.359,92.722,717.314,92.718z M720.365,106.078l-0.041,0.014c0,0.039-0.02,0.07-0.02,0.115L720.365,106.078z
		 M660.212,70.466c-0.879-0.402-1.857-0.25-2.783-0.223l0.066,0.182c-0.791,0.394-1.613-0.131-2.471,0.072
		C656.671,71.257,658.574,71.248,660.212,70.466z M730.939,49.393c0.014,0.041-0.004,0.063,0,0.098
		c0.041-0.017,0.078-0.022,0.125-0.039L730.939,49.393z M726.919,46.936l-0.109,0.059c0.02,0.029,0.033,0.039,0.049,0.062
		L726.919,46.936z M748.955,57.702c-0.027-0.046-0.045-0.075-0.066-0.112c-0.025,0.017-0.033,0.039-0.059,0.05L748.955,57.702z"/>
	<path fill="#F79927" d="M687.615,108.212c0.199,0.547-0.352,0.746,0.277,1.037c1.107-0.095,1.623-1.215,3.109-1.136
		c-0.463-0.971-1.357-0.022-1.996-0.616c-1.018-1.074-1.299-2.111-0.336-2.877c0.619-0.018,1.063,0.342,1.852-0.052
		c-0.27-0.731,0.021-1.351,0.873-1.866c0.193,0.237,0.32,0.604,0.209,0.854c3.17-1.262,5.195-3.654,8.369-2.645
		c0.039-0.738,0.891-1.254,0.621-1.982c0.934,0.275,2.136-0.676,2.982,0.771c-0.572,1.548-2.633,0.751-3.143,2.177
		c-2.732-2.621-3.607,3.18-7.135,2.611c-0.342,1.055-0.342,1.055-1.178,1.876c-0.318-0.297-0.518-0.845-0.887-0.709
		c0.203,0.548-0.963,0.763-0.023,1.351c1.367,0.328,3.055-1.01,4.314-0.127l1.148-0.83c0.162,0.254,0.23,0.555,0.209,0.852
		c0.666-0.447,0.648-1.061,1.127-1.445l0.771,0.957c0.174-0.367,0.256-1.844,1.252-1.383c-0.166,0.678,0.4,1.094,0.281,1.344
		c-0.592,0.633-0.973,0.459-1.35,0.281c-0.336,1.057-0.672,2.107-1.514,2.934c-1.311-0.449-0.856-1.758-0.814-2.494
		c-0.486,0.386-0.686-0.162-1.109,0.094l-0.322-0.297l-0.113,0.25c-0.037,0.742,0.104,1.41-0.619,1.986
		c-2.249,0.221-4.309,1.346-5.705,3.115c0.835-1.042,0.543,0.57-0.199,0.303c0.1,0.295,0.176,0.59,0.26,0.887
		c1.213-0.311,2.479-0.799,3.545-2.401c1.357,0.022,4.063,2.031,3.061,3.532c0.504,0.232,1.275-0.771,1.877-1.1
		c0.701,0.778,1.551,0.267,2.252,1.041c-0.23,0.5-0.271,1.232,0.051,1.844c1.111-0.096,2.537,0.105,3.114-1.139
		c0.259,0.426,0.021,0.614,0.276,1.041c-1.285,0.467-2.164,2.026-3.822,2.318c-0.412,0.564,0.042,1.229-0.254,1.85
		c0.385,0.479,0.945,0.586,1.43,0.198c-0.263,1.543-1.305,1.821-2.656,2.104c0.422-0.565,0.148-1.293,0.563-1.854
		c-1.07-0.955-2.297-0.607-3.377-1.561c1.041-0.588,1.072-1.322,2.402-2.225c-0.162,0.68,0.635,0.598,1.135,0.828
		c-0.516-0.848-0.213-1.162,0.191-2.033c-1.971-0.002-3.098,1.75-4.916,0.76c-0.271,1.232-0.465,0.992-1.867,1.406
		c-0.58-0.725-0.217-1.158-0.476-1.586c0.905-0.64,1.599-0.17,2.343,0.18c0.104-0.861,0.945-1.379,1.799-1.59
		c-1.477-2.047-4.32-0.18-6.447-1.16c-0.037,0.033-0.045,0.061-0.072,0.096c0.064,0.254,0.15,0.498,0.211,0.748
		c0.121,0.184,0.215,0.354,0.15,0.503l-0.047,0.026c0.223,1.027,0.383,2.062,0.482,3.106c0.254,0.134,0.506,0.194,0.7-0.041
		c-0.06,0.581-0.335,0.541-0.669,0.373c0.064,0.828,0.088,1.659,0.07,2.492c0.174,0.094,0.348,0.192,0.514,0.271
		c0.24-0.19,1.309,0.453,1.098-0.399c0.426-0.259,0.086,0.794,0.875,0.401c-0.459-0.969-0.324-0.604,0.943-1.373
		c0.012,0.306-0.287,0.621-0.029,1.045l-1.453,0.84c-0.322-0.297-0.738,0.27-1-0.461l-0.408,0.871
		c-0.26,0.125-0.482,0.313-0.66,0.543c-0.035,0.422-0.072,0.844-0.131,1.268c0.441,0.365,0.172,0.732,0.393,1.334
		c0.67-0.146,0.52-1.121,0.842-0.518c0.393,0.365,0.582,0.717,0.654,1.051c2.508-0.021,5.047,0.516,7.639,1.715
		c0.65,0.291,1.273,0.643,1.879,1.012c0.041-0.029,0.066-0.063,0.121-0.094c0.094,0.113,0.166,0.217,0.236,0.326
		c1.264,0.813,2.422,1.768,3.438,2.883c2.852-2.514,6.021-4.637,9.436-6.316c-0.242-0.133-0.455-0.309-0.645-0.51
		c0.664-0.754,1.057,0.029,1.65-0.602c0.137,0.125,0.24,0.283,0.309,0.457c3.092-1.4,6.342-2.436,9.674-3.078
		c-0.047-0.083-0.098-0.148-0.139-0.252c0.539-0.512,0.975-0.459,1.578-0.785l0.517,0.715c0.165-0.023,0.327-0.063,0.493-0.084
		c0.27-0.33,0.029-0.708-0.035-1.088c0.484-0.383,0.695,0.471,1.121,0.213c-0.064,0.273-0.162,0.539-0.297,0.787
		c6.428-0.749,12.941-0.046,19.059,2.055c0.754-0.273,1.541-0.449,2.34-0.521c1.504-1.273,3.305-2.86,4.756-1.738
		c0.789-0.389,0.215-1.109,1.314-1.512c2.404,0.053,6.158-4.419,8.629-2.221c-2.6-0.293-4.162,3.07-7.07,2.785
		c-0.047,0.43-0.713,0.879-0.332,1.364c-0.439-0.356-1.355-0.026-2.039-0.188c-0.416,0.565,0.219,1.16-0.691,1.494
		c-1.6-0.988-2.998,0.168-4.299,1.506c0.803,0.342,1.594,0.701,2.369,1.084c-0.15-0.104-0.297-0.205-0.475-0.367
		c1.295-0.162,2.623-1.059,3.795-0.975c-0.916,0.789-1.506,1.879-2.488,1.729c4.541,2.021,8.709,4.799,12.322,8.209
		c1.172-0.803,2.459-1.996,3.229-0.641c0.039-0.018,0.068-0.037,0.113-0.047l-0.059,0.123c-0.016-0.035-0.037-0.051-0.053-0.076
		c-0.963,0.363-1.744,0.865-2.49,1.355c0.32,0.316,0.646,0.621,0.955,0.943c1.023-0.607,1.969-1.309,2.568-2.373
		c1.396-0.719,3.193-0.65,3.582-2.133c0.258,0.422,0.906-0.338,1.158-0.219c0.607-0.326,0.908-0.645,0.83-1.137
		c2.037-2.082,8.984-4.934,10.258-7.668c2.193-5.041,6.369-9.766,6.586-14.809c-0.02-0.613-0.67-1.825,0.447-1.609
		c0.227-0.498,0.646-1.061,0.064-1.783c-1.057-0.338-1.139,1.141-0.811,1.748c-1.498,3.544-1.447,7.346-4.744,10.52
		c-0.855,0.205-1.559-0.567-2.482-0.541l2.365-3.448c-0.307,0.011-0.559-0.104-0.691-0.472c1.387-1.023,1.246-3.658,2.617-5.295
		c-0.328-0.603-0.682-0.164-0.951-0.895c-0.152-0.979,1.244-1.693,0.281-2.895l1.088-0.709c-1.846-1.908,0.398-3.144,1.152-4.762
		c-0.451-0.66-1.039,0.276-1.307-0.447c0.201-1.42,1.59-2.446,1.361-3.908c1.184,0.396,1.568,0.875,2.059,2.762
		c-0.598,0.632-1.045,0.275-1.715,0.422c0.334,0.91,0.814,0.525,1.31,0.452c-0.052,2.396,0.694,4.703-0.415,6.767
		c0.275,0.073,0.521,0.24,0.691,0.471c1.389-1.021,0.609-2.291,1.508-3.236c0.184-6.271-0.629-12.693-1.438-19.118
		c-2.012-3.19,0.018-5.586-2.426-8.827c-0.314-2.262-1.801-4.613-1.246-6.781c-1.703-1.236-4.471-3.119-3.934-5.593
		c-5.461-6.12-11.293-10.407-17.557-11.862c0.383,0.244,0.729,0.194,1.186,0.68l-0.121-0.055c-1.039,0.273-1.357-0.024-2.273,0.313
		c-0.01-0.298,0.348-0.439,1.027-0.978c-0.779-0.175-1.566-0.313-2.363-0.399c-3.338-2.295-6.74-2.809-10.229-3.81
		c1.844-6.561,5.355-12.807,8.93-19.174c4.748-6.279,10.664-12.473,13.736-19.074l1.57-1.092c0.23-0.501,0.34-1.056,0.256-1.849
		c-0.24,0.195-0.492,0.078-0.492,0.078c-0.232,0.5-0.473,0.689-0.957,1.071c-0.072-0.489-0.139-0.673-0.689-0.47
		c-0.299,0.314-1.467,0.535-1.139,1.135c0.869,0.101-0.047,0.432-0.83,1.132l-1.299,1.82c-0.486,0.384-0.355,0.744-0.703,1.187
		c0.072,0.489-1.025,0.89-1.256,1.389c0.51,0.539,1.189,0.703,0.59,1.333l-0.875-0.403l-1.117,1.751l0.25,0.114
		c-1.146,0.833-1.682,1.646-3.135,2.489c-0.1,0.862-1.625,1.216-1.051,1.935c0.807,0.223,1.076-1.016,1.578-0.785
		c-0.664,0.45,0.164,1.285-0.445,1.606c-1.551-0.568-1.504,1.275-2.498,0.814c-1.398,0.717-0.754,1.615-1.537,2.314
		c0.195,0.238-0.045,0.432,0.201,0.548c-1.018,0.545-1.951,1.234-2.779,2.047c0.461,0.972-1.506,1.275-0.982,2.117l1.09-0.708
		c0.826,0.836-0.891,1.255-1.381,1.333l-0.664,0.45c0.162,1.282-0.922,2.297-2.123,3.256l0.258,0.422
		c0.365-0.136,0.568,0.412,0.887,0.709c-0.117,0.25-0.705,1.187-1.09,0.708l-0.119-0.059c-0.484,0.384,0.027,0.92-0.643,1.373
		c0.396,0.787-1.318,1.206-1.613,1.829c-0.281,0.623-0.955,1.073-0.746,1.619c1.152-0.526,2.072-2.824,3.107-1.137
		c-1.785-0.07-1.604,2.137-3.152,1.874c-0.146,1.295-0.289,2.588-1.68,3.611c-0.205,1.419-1.988,1.654-3.16,1.565
		c-0.695-0.468-1.533,0.355-2.063-0.797l-0.25-0.118c-1.475,0.226-2.732-0.658-4.332-0.489c-0.551,0.202-1.174-0.086-1.568-0.873
		c-0.367,0.135-0.582-0.72-1.002-0.461c-0.904,0.642-1.52,0.664-2.154,0.064c0.229,1.466-1.119-0.213-1.852,0.055l-0.193-0.24
		c-3.6,1.21-6.902,0.145-10.678,1.729c0.258,0.422,0.635,0.592,0.881,0.711c1.535-0.355,2.891-0.331,4.539-0.932
		c0.424-0.261,0.23-0.5,0.656-0.759c0.27,0.733,0.924-0.026,1.193,0.702l-0.664,0.451c-1.916,2.142-5.527,0.779-7.445,2.615
		c-0.76-0.652-1.744-0.502-2.824,0.514c-0.777-1.266-1.771-1.422-2.875-1.327c-1.854,3.982-5.422,2.187-7.986,3.122
		c0.066,0.182,0.385,0.478,0.268,0.728c-0.666,0.45-1.03,0.584-1.527,0.355c-0.203-0.546,0.703-1.191,0.371-1.792
		c-0.875-0.404-0.051-1.843-1.422-2.168c0.773,0.96-0.202,1.419,0.135,2.33c-1.381,1.331-3.998,2.39-4.822,3.826l1.447-1.146
		c0.133,0.364,0.559,0.106,0.635,0.595l0.502,0.226l1.086-0.708c1.627,0.75,3.004,1.384,4.139,2.213
		c-0.299,0.316-1.363-0.024-1.088,0.709c2.307,0.91,3.924-2.88,6.314-1.171c-1.963,0.305-2.602,3.639-4.275,1.356
		c-1.08,2.979-5.459,3.231-7.863,5.144c0.033,3.19-4.084,1.595-5.475,2.619c-0.049,0.432,0.34,0.912-0.088,1.168l-1.625-0.75
		c0.299-0.316-0.521-0.841-0.092-1.103l1.088-0.706c0.26,0.425,0.465,1.277,1.26,0.886c0.527-0.816-1.121-0.211-0.715-1.084
		c2.744-1.002,4.514-3.817,7.439-2.923c-0.586-1.028,0.695-1.497,0.775-2.968c-0.635-0.596-1.262-0.888-2.004-0.923
		c-0.789,0.392-0.348,0.744-0.957,1.069c0.441,0.355,0.887,0.713,0.592,1.334c-0.533,0.509-2.182,1.11-1.85,0.052
		c-0.316-0.298-0.518-0.846-0.756-0.652c-0.475,0.688,0.512,0.536-0.213,1.112c-1.205,0.956-3.429-1.127-5.412,0.527
		c0.162,1.286-1.102,2.367-2.467,2.04c1.213,1.314-0.805,2.051-2.01,3.008c-1.523,0.662-1.293,2.125-2.893,2.295
		c-0.424,0.261,0.824,0.529,0.527,1.15c-1.918,1.84-3.399,1.763-4.83,3.52c0,0,0.008,0.309-0.117,0.25
		c-0.611,0.02-1.193-0.702-1.855-0.252c-0.188,0.068-0.116,0.25,0.01,0.307c1.539-0.046-0.457,3.268-1.709,2.69
		c0.266,0.426,0.568,0.416,0.887,0.711l0.262,0.425c0.186-0.066,0.502,0.229,0.635,0.594c1.016-1.197,1.641-0.904,2.91-1.684
		c3.043-1.316,4.936-4.078,7.401-4.148l1.22,1.619c-1.414,0.105-0.887,1.256-2.227,1.846c-0.262-0.422-0.627-0.287-0.887-0.711
		c-0.656,0.758-1.406,0.41-1.447,1.148c0.527,1.145-0.488,0.074-0.971,0.454c0.756,0.655-1.148,0.835-1.045,2.241
		c-1.24-0.27-1.457,0.842-2.453,0.381c0.15,0.979,2.141,1.592,2.162,2.205c-0.809-0.221-1.713,0.423-2.35-0.174
		c0.031-1.051-0.611-1.949-1.586-1.489c0.648,0.422,1,1.17,0.92,1.933c-0.838,0.825-2.611,1.373-2.832,2.174
		c0.613-0.018,1.232-0.037,1.75,0.807c1.02-0.891,1.646-0.598,2.561-0.932c0.074,0.49,1.02,1.07,0.471,1.276
		c-0.967,0.765-2.701,0.569-3.152,1.873c0.867,0.101,0.404,1.095,1.34,1.371l-1.502,1.581c-0.402,0.875,1.428,2.169-0.152,2.951
		c0.318,0.298,0.668-0.143,1.041-0.274c0.701,0.774,0.66,1.519,0.746,2.312c-0.982,0.152-0.768-0.959-1.762-1.113
		c-0.605,0.326-0.351,0.744-0.893,0.945c0.566,0.414,0.484,1.891-0.672,2.418l0.744,0.039c0.973-0.459,2.338-0.127,2.174-1.418
		c0.867,0.1,0.406,1.096,1.336,1.373c-1.213,0.653-1.479-0.076-1.557,1.396c-0.365,0.133-0.684-0.166-1.109,0.099l0.252,0.114
		c-1.158,0.524-1.09,0.708-2.178,1.415c0.037,1.229,0.754,2.622-0.449,3.575c0.32,0.297,0.633,0.591,1.126,0.516
		c0.187-0.063,0.427-0.259,0.435,0.05c0.717-0.881-0.266-0.729-0.421-1.707c0.808,0.221,0.483-0.384,0.657-0.754
		c0.725-0.578,0.941,0.588,1.6-0.173c0.242-0.192,0.23-0.498,0.654-0.752c-0.699-0.776-1.215-1.315-0.496-2.194
		c0.043,1.528,1.52,1.301,0.766,2.922c1.654-0.293,2.361-1.479,3.334-1.939c0.578,0.725,0.904,1.323,0.92,1.938
		c-0.615,0.019-2.07,0.859-1.31,1.513c0.927-1.993,2.587-0.015,4.062-0.243c-0.381-0.479-0.941-0.586-1.393-1.248
		c0.354-0.438,1.336-0.59,1.078-1.016c-0.625-0.283-0.846-1.446-1.836-1.602c1.531-2.32,3.678-2.689,5.5-1.697
		c-1.477,0.226-1.607,2.135-3.578,2.133c0.324,0.602-0.189,2.029,1.314,2.722c-0.053,0.433,0.336,0.912-0.146,1.296
		c-0.262-0.425-0.906,0.643-1.176-0.084c-0.088,1.164-1.234,1.998-0.832,3.094c0.439,0.354,1.088-0.707,1.432,0.202
		c0.092,1.103-1.863,1.712-1.891,2.759c-1.43-0.203-1.381-2.601-3.139-1.752c2.154,1.901-1.102,2.367-2.01,3.01
		c0.219,1.16,1.533,1.608,2.551,2.687c-0.512,0.785-0.496,0.429-1.244,0.854c0.102,0.191,0.189,0.386,0.289,0.578
		C687.062,108.216,687.343,107.871,687.615,108.212L687.615,108.212z M695.927,111.895c-0.971,0.461-1.268-1.188-0.787-1.571
		C696.193,110.355,696.644,111.019,695.927,111.895z M696.775,123.787c-0.49,0.074-0.816-0.529-1.422-0.205
		c-0.145-0.666,1.251-1.385,1.455-0.838l0.125,0.057l0.055-0.121C697.376,123.154,697.384,123.46,696.775,123.787L696.775,123.787z
		 M785.757,118.994c0.762,0.653-1.143,0.829-0.566,1.551l0.121,0.059c-0.551,0.197-0.814-0.225-1.137-0.825
		C784.593,119.214,785.007,118.646,785.757,118.994z M692.3,62.884c-0.566-0.415-0.355-1.525,0.092-1.171l0.48-0.384l-0.125-0.055
		c-0.086-0.8,1.307,0.45,1.02,1.073C692.968,62.433,693.169,62.977,692.3,62.884z M694.675,61.708
		c-0.021-0.614-0.195-0.241-0.646-0.9c0.426-0.263,0.418-0.569,0.406-0.875c0.49-0.073,1.008,0.768,1.107-0.095
		c0.365-0.131-0.1,0.862,0.283,1.341C695.384,61.175,694.96,61.368,694.675,61.708z M697.292,56.41
		c-0.041-1.226,1.885-0.798,1.424,0.2C698.234,56.996,697.771,56.029,697.292,56.41z M700.636,98.186
		c-0.684-0.163-1.547-0.259-2.301-0.604c-0.59,0.939-1.787,2.205-2.918,1.373c-0.565-2.375,3.344-1.634,3.713-3.729
		c-0.51-0.536-1.24-0.271-1.75-0.811c0.693-1.494,1.793-3.861,3.777-3.553c0.105-0.555-1.512-0.997-2.252-1.038l0.059-0.122
		c-0.789,0.389-1.375-0.638-1.957,0.608c0.107-0.556,0.195-1.724,0.959-1.073c0.902-0.641,2.072-0.859,2.152-2.334
		c1.096-0.402,2.215-0.189,3.029-1.621c0.102,1.102,1.021,1.069,1.176,2.053c-0.783,0.696-1.688,1.34-2.031,2.088
		c2.141,1.592-0.446,3.57-1.539,4.276l1.67,2.282C701.332,96.69,701.852,97.537,700.636,98.186L700.636,98.186z M696.263,83.763
		c0.15-0.983-0.867-2.063,0.113-2.215l1.166-0.219c0.281-0.869,0.848-1.615,1.607-2.135c0.918-0.025,1.827,1.295,1.422,2.168
		c-0.959,1.068-2.723-0.042-3.668,1.336l-0.121-0.057C696.914,83.011,696.742,83.384,696.263,83.763L696.263,83.763z
		 M695.445,79.308c0.086,0.795-1.125-0.52-1.367-0.331c-0.518-0.843,1.379-1.333,2.002-1.044l-0.063-0.182
		c0.408-0.869,1.18-1.877,2.408-1.918c0.512,0.539,0.15,0.981,0.414,1.402c-1.092,0.706-1.947,0.917-2.873,0.941
		c-0.357,0.439-0.607,0.326-0.975,0.461C694.695,78.96,695.082,79.436,695.445,79.308L695.445,79.308z M695.859,74.501
		c0.85-2.478,2.377-0.867,1.818,0.992C696.82,75.705,696.373,75.349,695.859,74.501z M701.742,75.251
		c-0.014-0.305,1.539-2.008,1.828-0.668c1.08-1.013,1.389-1.021,1.852-2.015c0.559,0.104,1.326,1.063,1.096,1.563
		c-0.723,0.574-1.398,0.718-1.848,0.052c-0.357,0.44-1.389,1.021-1.065,1.628c-0.61,0.018-1.126-0.52-1.61-0.445l-0.455,1.303
		c-0.75-0.345-1.551-0.258-2.252-1.039C700.24,74.559,700.873,75.157,701.742,75.251z M701.941,71.562
		c-0.021-0.612,1.029-2.549,1.809-1.285C702.767,70.429,702.97,70.976,701.941,71.562z M713.943,64.692
		c-0.539,0.511-0.744-0.036-1.215,0.655c-0.463-0.971-1.248-0.58-1.799-0.375c-0.482,0.382,0.625,0.285,0.336,0.906
		c-0.541,0.512-1.693-0.934-1.717,0.424c-0.74-0.041-0.348-1.219-0.42-1.708c0.797-0.086,1.141-1.137,1.793-1.895
		c0.67-0.143,0.154,0.978-0.021,1.351c0.385,0.481,1.219-0.344,0.996,0.461c0.352-0.746,1.014-1.196,2.178-1.415
		C714.281,63.643,713.06,63.985,713.943,64.692z M732.011,62.437c-0.494,0.079-0.262-0.421-0.453-0.66
		c-0.191-0.241-0.434-0.048-0.668,0.142c-0.703-0.775,0.826-1.134,0.955-1.072C732.474,61.445,731.683,61.836,732.011,62.437z
		 M732.507,60.398c0.605-0.323,1.273-0.467,1.838-0.357C734.359,60.653,732.666,61.686,732.507,60.398z M729.349,64.237
		c0.695,0.472,1.328,1.065,2.127,0.981c-0.078,1.476,0.592,3.297,2.217,4.047c0.344,1.217,0.008,2.268,0.229,3.429
		c0.377,0.177,0.424-0.259,0.537-0.507c0.373,0.175,0.145,0.667,1.072,0.949c-1.277,0.47-0.152,0.988,0.291,1.345
		c-0.342,1.053-2.133,0.983-2.043-0.185l-1.09,0.707c1.172,2.053,3.084-0.092,4.295,1.221c-0.207,1.419-2.074,0.861-2.404,2.224
		c-1.355-0.022-3.98,0.733-4.49,2.468c1.08,0.949-0.08,1.477,0.012,2.271c-2.031,0.122-4.152,3.379-6.117,1.718
		c0.561,0.107,1.387-1.023,2.014-0.734c0.658-0.756-0.359-1.836,0.867-1.867c-0.811-0.225-1.334-1.373-2.256-1.348
		c1.072-1.015,2.859-1.25,2.439-2.957c-0.623-0.289-1.359-0.021-1.875-0.865c0.656-0.758,1.494-1.58,2.49-1.119
		c0.423-0.568,0.027-1.354-0.246-2.079c-1.301-0.147-2.885,0.331-3.906-0.742l0.406-0.879c2.891-0.331,4.576-1.67,7.033-2.05
		c-0.469-1.274-0.182-1.896-1.434-2.471l-1.492,1.582c-0.812-0.224-0.355-1.529-1.328-1.068c0.352-0.745,1.283-2.432,2.412-1.913
		c0.395-1.179-0.527-1.152-1.402-1.556c-0.367,0.135-0.178,0.375-0.043,0.74c-0.865-0.098-1.623-0.75-2.248-1.039
		c-0.473,0.687-1.85,2.02-2.613,1.369c-0.852,0.514-0.273,1.232-0.561,1.854c-2.441,0.994-2.334-3.796-0.441-2.313
		c0.791-0.394-0.025-0.922,0.83-1.136c-0.324-0.599-0.818-0.524-1.307-0.448c0.418-0.567-0.355-1.527-0.121-2.021
		c1.512-0.97,2.105-1.908,3.662-1.338c1.738-3.734,3.676,1.242,5.295,1.686C730.546,62.976,729.515,63.558,729.349,64.237
		L729.349,64.237z M742.533,53.535c-0.209,1.11-1.533,0.043-2.271,0.311c0.109-0.555,0.648-1.061,1.438-1.454
		c0.316,0.297,0.734-0.267,1,0.461C742.084,52.869,741.927,53.859,742.533,53.535z M743.4,55.592
		c0.277,1.036,0.094,1.104,0.973,1.506c-2.109-0.363-3.877,2.452-5.711,0.846c0.898-0.948,1.461-0.535,2.328-0.436L743.4,55.592z
		 M747.013,50.452c-0.73,0.576-1.119-0.211-1.736-0.196C745.248,49.338,746.671,49.54,747.013,50.452z M748.541,62.5
		c-0.711,0.884-2.089,2.212-2.938,0.765c0.047-0.432,0.531-0.814,1.139-1.14c-1.066-0.643-2.166-0.245-2.994-1.075
		c-0.83,1.13-1.752,1.153-2.734,1.307l0.092,1.101c-1.096,0.404-2.24-0.732-3.115,0.83l-0.057,0.123
		c-0.373-0.176-0.887-0.709-1.377-0.635c1.301-1.822,5.463-2.928,7.672-3.419c0.295-0.316-0.646-0.902-0.723-1.389
		C745.986,57.543,746.093,63.189,748.541,62.5L748.541,62.5z M748.132,49.006c0.168-0.68,1.527-0.658,2.055,0.494
		C749.384,49.584,748.763,49.296,748.132,49.006z M748.955,57.702l-0.125-0.059c0.027-0.015,0.041-0.036,0.055-0.049
		c-0.365-0.616-0.703-0.274-1.008-0.838c0.535-0.51,1.047,0.028,1.586-0.479c-0.164,0.355-0.055,0.979-0.578,1.318
		C748.906,57.626,748.927,57.656,748.955,57.702L748.955,57.702z M753.074,71.703c1.027,1.379,0.273,3.002-1.133,3.412
		c-0.645-0.9,0.791-0.395,0.273-1.236c-3.053-0.955-4.916,2.724-8.201,2.271C745.791,73.636,751.201,73.111,753.074,71.703z
		 M754.248,59.39c0.393,0.787-0.66,0.753-1.205,0.956C752.396,59.44,753.83,59.953,754.248,59.39z M750.341,81.48
		c1.553,0.268,2.885-2.6,4.287-1.049c0.484-0.381-0.461-0.967-0.287-1.338c2.404-0.258,3.973-1.348,6.283-2.398
		c-0.189,2.032-3.441,2.498-4.424,4.613c-0.205-0.547-0.51-0.537-0.703-0.778c-1.301,1.822-2.754,0.697-3.99,2.702l-0.943-0.588
		l-0.055,0.123c-1.275,0.773-1.381,1.33-2.486,1.424C748.898,82.632,749.89,82.787,750.341,81.48L750.341,81.48z M757.669,72.914
		c0.744,0.041,1.441,0.512,2.283-0.007c-0.953,1.074-1.475,2.194-2.053,3.44c-1.166,0.217-1.943-1.053-2.947-1.51
		c0.408-0.875,2.006-1.047,2.746-1.004C757.876,73.462,757.38,73.539,757.669,72.914z M765.318,85.216
		c-1.109,0.095-1.865-0.559-2.936,0.763c-0.936-0.28,0.096-0.864-0.904-1.323c0.746,0.346,1.896-0.486,2.303-1.361
		c0.51,0.537,1.23-0.039,1.75,0.812C764.982,84.304,764.937,84.737,765.318,85.216z M778.228,71.509
		c-0.141,1.295-2.773,0.08-1.189-0.703C777.353,71.106,777.736,71.582,778.228,71.509z M779.966,69.741l-1.207,0.956
		C778.058,69.917,779.562,68.643,779.966,69.741z M776.203,77.832c-2.615,1.367-2.98,3.467-5.447,3.539
		C770.197,79.296,774.83,77.505,776.203,77.832z M773.8,84.287l-0.059,0.125c0.039-0.74-0.086-0.797-0.625-0.287l-0.893-1.018
		C773.121,82.159,774.892,83.58,773.8,84.287z M757.923,99.804c-0.674,0.144-1.193-0.701-1.977-0.002
		c-0.463-0.969,1.525-0.659,1.123-1.754c0.652-0.756,2.098,0.058,2.197-0.809c0.535-0.505,0.756,0.66,1.236,0.275
		c-0.043,0.431-0.529,0.813-1.379,1.33l-0.451-0.664C757.884,98.574,758.771,99.287,757.923,99.804L757.923,99.804z M762.085,88.567
		l0.061-0.126c-0.408,0.872-0.568,1.555-1.617,1.521C760.373,88.988,761.296,88.955,762.085,88.567z M761.437,91.593
		c0.791-0.391,1.369,0.328,2.16-0.063c-0.039,0.742-0.766,1.31-1.18,1.876l-0.055,0.125C761.359,93.069,761.214,92.4,761.437,91.593
		z M760.714,96.095c0.844-0.514,1.424,0.203,2,0.922C762.246,98.015,760.384,97.455,760.714,96.095z M766.732,87.076
		c0.395-1.178,1.967-2.268,2.932-1.068C769.013,87.071,767.82,86.371,766.732,87.076z M772.941,74.061
		c0.48-0.382,1.051,0.03,1.617,0.438C773.892,74.951,773.382,74.414,772.941,74.061z M770.06,82.866
		c-1.311-0.454-2.941,0.763-4.289,1.048c0.242-2.154,3.086-2.055,4.098-3.252C769.781,81.83,770.156,82.001,770.06,82.866z
		 M750.062,98.744c-0.57-2.379,2.513-2.469,4.225-2.884c0.146,0.668,0.164,1.284-0.436,1.917c-0.389-0.786-0.934-0.275-1.375-0.637
		l-0.123-0.057C752.255,97.944,750.849,98.35,750.062,98.744z M745.675,100.658c-0.5-0.23,0.09-1.17-0.646-0.902
		c0.512-1.428,3.082-0.092,3.152-1.877c0.268,0.733,0.926-0.025,1.135,0.83l-0.463,0.992c-0.732,0.27-1.34,0.59-1.789-0.068
		l0.057-0.125C746.712,100.38,746.097,100.401,745.675,100.658z M744.238,102.109c-1.217,0.656-1.012-0.764-1.83-1.294
		c0.375,0.175,0.926-0.026,1.25,0.577C742.695,102.159,744.037,101.565,744.238,102.109z M745.111,98.281l-1.994-0.613
		c2.018,1.533-2.117,1.291-2.436,2.955c-0.908,0.645-1.551-0.261-2.352-0.177c-0.162-1.284,2.102-1.905,2.746-1.004
		c0.656-0.751-0.084-0.795-0.475-1.272c1.354-0.287,3.5-2.623,5.148-1.258c0.348-0.746-0.773-0.963-0.902-1.326
		c0.182-0.066,1.104-0.095,0.902-0.641c1.236,0.27,1.672,0.316,3.541-0.777c-0.039-0.021-0.078-0.037-0.111-0.063l0.117,0.057
		l-0.01,0.006c0.49,0.283,1.383,0.42,1.65,0.836c-0.037-1.385,1.67-3.569,2.322-0.529C751.101,96.505,747.675,95.378,745.111,98.281
		L745.111,98.281z M728.371,99.636c1.053,0.031,1.861,0.252,2.959-0.149c0.42-0.258,0.596-0.631,0.152-0.985
		c2.342-0.129,2.586-2.287,4.58-1.67c0.668-2.416,2.85-1.56,4.91-2.726c1.041,1.688-3.17,3.226-4.455,3.392
		c-0.209,1.418-1.799,1.895-3.387,2.371l-1.115-0.213c-0.365,0.135-0.842,2.787-2.662,1.799l0.176-0.373
		C729.878,100.328,728.644,100.363,728.371,99.636z M720.65,101.214c-0.461-0.967-1.002-0.461-1.615-0.441
		c-0.037-1.225,1.418-2.068,2.248-3.195c-0.1,0.863,0.875,0.403,1.6-0.174l1.15,1.443C722.831,99.798,721.541,99.962,720.65,101.214
		L720.65,101.214z M721.138,103.104c-0.613,0.021-1.291,0.161-1.74-0.501C720.003,102.28,720.562,102.388,721.138,103.104z
		 M724.076,96.14c-0.549,0.201-0.738-0.037-0.691-0.471c-0.648,1.063-2.486,1.424-3.449,0.227l3.822-4.29
		c-0.883-0.711-1.973-0.001-2.965-0.157c0.648-1.061,4.673-2.533,4.785-5.053c1.262-1.084,2.705-0.268,4.014,0.186
		c-0.275,1.237-1.803,1.594-3.184,2.922c-0.607,0.328,0.271,1.037-0.332,1.362c1.379,0.634,2.886-0.331,4.484-0.5
		c0.318,0.292,0.455,0.659,0.033,0.916c1.588-0.479,4.668-4.804,7.398-2.187c-0.857,0.209-0.658,0.758-1.211,0.961
		c-0.557-0.108-0.268-0.73-1.248-0.58c-0.959,1.072-1.967,2.27-3.412,1.451c-0.732,0.268-0.098,0.865-0.58,1.246
		c-0.984,0.151-1.115-0.213-2.072,0.861C727.894,91.852,724.447,94.042,724.076,96.14L724.076,96.14z M719.712,96.7
		c-0.59,0.938-0.752-0.347-1.352,0.285C717.673,96.515,719.57,96.029,719.712,96.7z M731.343,81.498
		c0.736-0.269,1.34-0.593,1.736,0.195C732.976,82.244,731.808,82.466,731.343,81.498z M731.41,85.606
		c-0.551,0.198-1.223,0.345-1.783,0.237c0.234-0.496,0.975-0.457,1.322-1.207C731.39,84.994,731.273,85.242,731.41,85.606z
		 M742.542,63.972c0.707-0.88,1.234,0.27,2.076-0.553c0.51,0.538-0.162,0.682,0.219,1.16
		C744.041,64.664,743.07,65.125,742.542,63.972L742.542,63.972z M741.914,65.644c-0.252-0.113-0.615,0.023-0.914,0.34
		c-0.512-0.539,0.512-1.434,0.943-1.38C741.955,64.91,741.654,65.227,741.914,65.644z M739.867,73.626
		c0.553-0.195,1.16-0.524,1.428,0.205C740.81,74.214,740.251,74.107,739.867,73.626z M738.902,76.358
		c-1.916-0.127-0.418-3.67,0.928-1.992C740.222,75.155,739.808,75.72,738.902,76.358z M743.953,80.199
		c1.152-0.523,2.031-0.119,3.129-0.52c0.299-0.318-0.197-0.241-0.451-0.664c0.982-0.152,2.168-1.723,2.936-0.764
		c0.271,0.729-2.436,0.992-1.188,1.569c-1.582,0.783-4.379,1.915-5.814,3.366C741.341,81.566,744.431,81.781,743.953,80.199
		L743.953,80.199z M750.212,85.357c1.223-0.35,0.086,0.794,0.721,1.387l0.125,0.059c-0.615,0.019-1.119-0.215-1.713,0.422
		C748.884,86.253,751.113,86.681,750.212,85.357z M763.205,76.373c-0.365,0.137-0.441-0.353-0.385-0.479
		c-0.25-0.115-0.549,0.201-0.754-0.346c0.434-0.265,0.754,0.346,1.355-0.287C764.238,75.791,762.697,75.835,763.205,76.373z
		 M759.384,82.626c-0.975,0.459-0.957,1.073-1.805,1.59c-0.385-0.479-0.645-0.9-0.525-1.146
		C758.091,82.789,758.425,81.427,759.384,82.626z M758.667,85.47c0.439,0.357-0.021,1.352,0.881,0.711
		c0.322,0.3,0.02,0.615,0.338,0.912c-0.115,0.248-0.25-0.117-0.498-0.229c-0.988-0.156-2.082,0.553-3.178,0.952l-0.277-1.035
		C757.304,87.417,757.009,85.771,758.667,85.47L758.667,85.47z M756.134,85.367c-0.117,0.248-1.453-1.123-2.023-1.535
		C754.964,83.314,755.433,84.585,756.134,85.367z M755.148,87.482c-0.039,0.736-0.021,1.352,0.422,1.705
		c-0.65,1.061-4.373,0.254-4.613,2.404c-1.16,0.221-2.383,0.871-3.488,0.97C748.707,90.556,752.171,88.984,755.148,87.482
		L755.148,87.482z M746.703,93.873c-0.744-0.039-1.143,0.83-1.945,0.918l-0.709-1.084c0.105-0.56,0.914-0.336,1.57-1.093
		C745.945,93.218,746.371,92.962,746.703,93.873z M743.021,90.361l-0.449-0.666c1.791,0.07,3.057-2.979,4.578-1.671
		C746.318,89.157,744.853,89.692,743.021,90.361z M743.978,93.527l-0.182,0.064c-0.01-0.012-0.02-0.016-0.023-0.031
		c-1.035,0.201-1.225,1.529-2.125,0.402l0.232-0.5c0.594-0.32,1.436-0.523,1.893,0.099
		C743.845,93.548,743.904,93.528,743.978,93.527L743.978,93.527z M744.423,85.71c-0.432-0.043-0.748-0.347-1.078-0.951
		c0.545-0.506,0.803-0.086,1.283-0.469c-0.229,0.502,0.279,1.037-0.326,1.365L744.423,85.71z M742.269,91.979
		c-0.363,0.133-0.758-0.654-1.105,0.094c-0.76-0.653,0.029-1.046-0.297-1.649C741.714,89.909,741.382,91.265,742.269,91.979z
		 M745.564,84.573c0.043-0.741,1.215-0.651,1.582-0.784c0.508,0.541,0.893,1.018,0.785,1.574
		C747.076,85.571,746.419,84.362,745.564,84.573z M742.228,86.515c-0.773,1.004-2.559,0.938-2.881,2.605
		c-0.449-0.666-1.318-0.761-1.223-1.623C739.646,86.839,740.98,85.937,742.228,86.515z M734.242,91.601
		c0.549-0.197,0.875,0.408,1.406-0.41c0.643,0.902,0.828,0.834,1.775,1.727c-0.117,0.25-0.232,0.502-0.039,0.741l-0.127-0.057
		C735.952,95.114,734.412,93.195,734.242,91.601L734.242,91.601z M734.802,93.98l-0.125-0.059c-0.713,0.881-1.279,0.471-1.887,0.791
		c-0.385-0.479-0.275-1.035,0.262-1.541C733.458,94.263,734.287,93.134,734.802,93.98z M731.802,94.56
		c0.633,0.595,0.16,1.29,0.051,1.843c-1.445,1.146-2.377-1.097-4.057,0.55l-1.141-1.138
		C728.111,94.975,729.617,93.705,731.802,94.56z M731.806,103.037c-0.537,0.51-1.223,0.346-1.732-0.195
		C730.738,102.392,731.242,102.621,731.806,103.037z M733.662,105.251c0.193,2.207-4.135,2.024-5.301,4.209l-0.518-0.845
		C730.261,107.007,732.021,106.16,733.662,105.251z M734.175,101.86c1.074-0.698,1.99-0.741,3.461-1.662
		c-0.02-0.03-0.031-0.067-0.059-0.099l0.126,0.055l-0.067,0.04c0.549,0.785-0.396,2.009,0.383,2.224
		c-0.162,0.68-1.783,0.237-1.496,1.578l-1.654,0.297c-0.328-0.602,0.277-0.93,0.713-0.883
		C735.199,102.936,733.962,102.968,734.175,101.86L734.175,101.86z M735.345,105.876c-0.385-0.479,0.348-0.744-0.092-1.104
		l1.654-0.29C737.236,105.082,735.902,105.981,735.345,105.876z M735.73,108.323c0.285,1.343-1.111,2.06-2.277,2.278
		C733.857,109.73,734.763,109.083,735.73,108.323z M731.822,109.849c0.779,1.266,2.504,1.154,2.297,2.57
		c-0.305,0.01-0.564-0.41-0.92,0.028c-0.404-1.094-0.525-1.147-1.578-1.181C730.984,110.673,731.9,110.335,731.822,109.849z
		 M736.644,112.222c0.754-0.184,0.256,0.566,0.25,0.916c0.031,0,0.055-0.008,0.088-0.008l-0.057,0.125
		c-0.025-0.037-0.035-0.076-0.031-0.117c-1.432-0.057-2.395,0.395-3.572,1.328C733.208,112.757,736.296,112.972,736.644,112.222
		L736.644,112.222z M737.318,103.609c0.334-1.057,1.896-0.486,2.295,0.605C738.41,105.169,737.941,103.895,737.318,103.609z
		 M740.156,101.742c0.668-0.447,0.934,0.275,1.539-0.046c0.384,0.481-0.461,0.998-0.945,1.379
		C740.24,102.537,740.107,102.173,740.156,101.742z M756.312,95.431l0.055-0.121c0.029,0.917-1.152,0.521-1.578,0.783
		C754.705,95.292,755.88,95.382,756.312,95.431L756.312,95.431z M753.658,93.298c0.188-2.03,3.16-1.565,4.588-3.328
		c0.42,0.617,1.09,0.701,1.094,1.422c0.018,0.008,0.037,0.009,0.059,0.018l-0.063,0.124c0.012-0.056,0.004-0.098,0.004-0.142
		C757.488,90.617,755.691,93.785,753.658,93.298z M759.871,82.552c-0.258-0.422-0.018-0.611-0.271-1.035
		c2.482-1.424,3.621-2.561,5.705-3.113c0.635,0.594,0.457,0.969,0.844,1.45C764.115,79.97,762.001,81.566,759.871,82.552
		L759.871,82.552z M766.343,69.955c-0.406,0.871-2.055-0.492-1.396,0.717l0.123,0.058l-1.541,0.046
		c-0.43-2.012,2.66-1.799,3.668-1.336C766.783,70.312,765.757,68.927,766.343,69.955z M750.857,61.452
		c-0.264-0.426-0.02-0.611-0.338-0.911c0.723-0.573,1.162-0.219,1.713-0.419C752.306,60.609,751.468,61.436,750.857,61.452z
		 M753.164,56.165l-0.715-1.081c0.607-0.329,0.99,0.153,1.613,0.438C753.9,56.206,753.824,55.717,753.164,56.165L753.164,56.165z
		 M750.544,61.461l0.061-0.123c-0.092,1.171-2.178,1.413-1.854,0.055C749.408,60.633,749.927,61.48,750.544,61.461z M739.322,65.664
		c0.482-0.382,0.75,0.348,1.162-0.219c0.078,0.486-0.275,0.928-1.068,1.322C738.726,66.292,740.072,66.011,739.322,65.664z
		 M738.628,67.157l-0.061,0.121c-0.014-0.032-0.033-0.038-0.041-0.067c-0.576,0.303-1.145,0.598-1.729,0.611
		c-0.072-0.486,0.277-0.928,0.945-1.374c0.193,0.509,0.572,0.341,0.781,0.763L738.628,67.157z M736.761,64.63
		c-0.846,0.518-2.56,0.938-2.537-0.416C735.128,63.578,736.677,63.836,736.761,64.63z M735.902,60.603
		c-0.885-0.709,0.688-1.799,1.09-0.706L735.902,60.603z M717.598,94.063c-1.288,0.162-3.71,1.765-4.132,0.062
		c1.281,0.037,2.584-0.591,3.727-1.248c0.021-0.063,0.063-0.119,0.117-0.156c0.045,0.002,0.096,0,0.145,0.002
		c0.629-0.368,1.201-0.737,1.68-0.98c-0.193-0.238-0.49,0.077-0.732,0.271c0.088-1.168,1.393-0.721,1.859,0.252
		c-1.043,0.381-1.973,0.529-2.803,0.459l-0.266,0.154C717.054,93.25,717.75,93.735,717.598,94.063L717.598,94.063z M714.544,88.875
		c0.789-0.393,0.701,0.772,0.904,1.32c-0.479,0.383-0.801,0.084-1.351,0.283C713.773,89.876,714.564,89.483,714.544,88.875
		L714.544,88.875z M719.619,83.193c-0.078-0.488,1.453-0.842,0.203-1.42c0.789-0.393,1.201,1.008,1.826,1.299
		c-0.164,0.676-0.279,0.924-1.078,1.014c0.711,1.082,1.865,0.559,2.588,1.945c-1.445,1.148-2.143,0.68-3.398,2.072
		c-0.465-1.281,0.518-1.43,1.309-1.821C720.769,84.634,719.531,84.364,719.619,83.193z M722.943,78.981
		c-0.605,0.329-1.162,0.219-1.828,0.667C720.271,78.2,722.601,77.763,722.943,78.981z M722.84,77.574
		c0.606-0.326,1.233-0.037,1.792,0.069c0.076,0.491-0.215,1.114-1.006,1.505C722.992,78.552,723.476,78.167,722.84,77.574
		L722.84,77.574z M724.933,69.158c-0.633-0.592-1.027-1.38,0.066-1.781c0.322,0.297,0.541,1.457,1.02,1.074
		C726.361,69.364,725.425,69.083,724.933,69.158z M719.546,70.61c0.557,0.106,0.594,1.334,1.578,1.183
		c0.15,0.978-0.713,0.879-1.332,0.897C718.908,71.979,718.458,71.315,719.546,70.61L719.546,70.61z M717.029,73.076
		c-0.256-0.422,0.908-0.641,1.207-0.957c0.379,0.176,0.76,0.654,1.254,0.579C719.273,73.813,717.812,72.382,717.029,73.076z
		 M716.443,74.017c-1.135-0.823-3.102,1.445-3.777,1.584c-0.689-0.469-0.385-0.479-0.904-1.323c0.949-1.375,2.795-1.435,4.031-1.467
		C716.232,73.166,716.31,73.652,716.443,74.017L716.443,74.017z M705.539,82.751c-1.902,0.182-2.02,0.43-2.922-0.896
		c0.106-0.557,0.648-1.061,1.311-1.514c1.078,0.951,2.688-0.877,3.473,0.697c1.766-0.851,1.131-1.451,2.354-1.791
		c-0.107,0.557,0.693,0.469,1.029,1.377c-1.566,0.998-3.426,1.424-5.268,1.207L705.539,82.751L705.539,82.751z M706.832,76.39
		l0.848-0.516c0.441,0.354,0.811,0.223,1.191,0.705c-0.596,0.631-1.191,1.262-1.563,1.395c-0.5-0.229-1.109,0.094-1.617-0.441
		C706.679,77.378,705.828,75.931,706.832,76.39z M711.765,66.109c0.068,0.188,0.367-0.13,0.549-0.193l0.648,0.899
		c-0.396,1.179-1.582,0.785-2.256,0.926C710.302,66.648,711.794,67.032,711.765,66.109L711.765,66.109z M708.902,75.53
		c0.596-0.632,0.984-0.151,1.578-0.784c0.385,0.485,0.521,0.846,0.473,1.28C710.091,76.231,709.48,76.25,708.902,75.53z
		 M712.201,78.562c-0.27-0.729-0.791,0.393-1.004-0.462c0.436,0.05,0.975-0.458,1.426,0.204c-0.064,0.523-0.539,0.902-1.068,0.844
		c-0.023-0.005-0.051-0.01-0.077-0.016C711.402,78.646,711.841,79.003,712.201,78.562L712.201,78.562z M720.283,55.974
		c-0.439-0.354-0.146-0.669-0.277-1.036c0.494-0.074,0.82,0.527,1.369,0.329C721.64,55.996,720.515,55.478,720.283,55.974z
		 M719.093,59.506c0.131,0.366,0.072,0.489-0.041,0.738c-0.717,0.884-1.057-0.335-1.588,0.482c-0.439-0.355-0.643-0.903-0.527-1.151
		C717.777,58.751,718.482,59.527,719.093,59.506z M712.015,72.429c-0.55,0.197-0.99-0.152-1.656,0.296
		c-0.146-0.981-0.461-0.974-0.67-1.827l1.512-0.964C711.787,70.96,712.103,71.261,712.015,72.429z M708.796,67.917
		c0.789-0.394-0.215,1.115,0.58,0.725l-0.176,0.371l-0.369,0.133c-0.25-0.118-0.379-0.479-0.744-0.346
		C707.693,68.015,709.306,68.457,708.796,67.917L708.796,67.917z M706.888,70.064c-0.547,0.199-0.99-0.152-1.502-0.691
		c0.656-0.757,0.975-0.459,1.457-0.841C707.042,69.073,706.814,69.573,706.888,70.064z M707.345,66.796
		c-0.092-1.103-1.186-0.396-0.732-1.699l0.926-0.028C707.865,65.675,708.32,66.337,707.345,66.796z M701.236,78.95
		c0.307-0.009,1.125-1.444,1.713-0.419l-0.059,0.122c0.596-0.631,1.299,0.146,1.457-0.84l-0.199-0.24l0.424-0.26
		c-0.191-0.24-0.488,0.077-0.73,0.272c-0.133-0.365,0.164-0.683,0.461-0.998c2.592,1.951-1.08,2.979-2.662,3.764
		C700.951,79.876,702.033,78.865,701.236,78.95L701.236,78.95z M702.546,83.64c0.244-0.195,0.125,0.057,0.125,0.057
		c0.203,0.549-0.426,0.262-0.539,0.508c-0.857,0.211-1.301-0.144-1.76-1.115C701.033,82.64,702.865,81.972,702.546,83.64z
		 M703.613,98.65l2.195-2.199c-0.992-1.674,0.105-3.41,0.105-5.361c-0.344-1.215-1.607-0.135-1.52-1.306
		c0.406-0.87,1.898-0.485,2.706-0.263c0.429-0.066-0.151-0.938-0.462-0.836c-0.035,0.042-0.08,0.068-0.117,0.119
		c0.021-0.055,0.063-0.1,0.117-0.119c1.16-1.295,3.35-1.034,4.719-1.135c2.525-2.16,4.328-1.785,6.285-4.36
		c-0.637-0.591-1.467,0.532-2.254,0.926c-1.01-0.766-2.867-1.021-2.813,0.82c-0.732-1.694-3.418,1.147-4.682,0.267
		c-0.975,0.457-0.213,1.112-1.188,1.569c-0.436-0.354-1.066-0.642-1.52-1.306c1.508-1.271,2.824-0.508,3.082-2.055
		c0.744,0.038,1.135,0.822,1.875,0.865c0.611-0.324-0.33-0.912-0.035-1.229c3.332,0.029,6.68-5.535,9.855-2.56
		c-0.732,0.267-2.043,1.776-1.832,0.666c-1.822,0.979,0.811,2.188,1.518,3.271c-1.275,0.777-2.029,0.119-3.082,0.093
		c-0.23,0.5,0.223,1.159,0.668,1.821c-0.789,0.393-1.521,0.662-2.283,0.004c-0.666,0.451-0.152,0.99-0.385,1.488
		c-1.318,1.209-1.994-0.617-3.203,0.037c-0.047,0.43-0.012,1.658,0.662,1.516c0.201,0.547-1.039,0.275-1.184-0.396
		c-1.32,1.207-2.322,0.746-3.422,1.146c0.02,0.609,1.215,1.313-0.331,1.361c0.517,0.844,1.194,0.7,1.642,1.363
		c0.473-0.688,0.578-1.549,1.686-1.646c-0.451,1.305-2.156,4.301-3.951,4.23c1.223,1.623,4.336,0.488,5.701-1.453
		c2.531,2.075-1.75,3.426-3.238,3.043c-0.541,0.508-0.523,1.121-0.695,1.494c-0.482,0.38-0.916,0.335-1.424-0.203
		C706.367,99.917,704.515,99.975,703.613,98.65L703.613,98.65z M713.181,90.812c-0.766,1.006-1.113-0.207-1.787-0.068
		C711.431,90.005,712.8,90.335,713.181,90.812z M699.058,111.376c-0.262-0.429-0.799,0.084-1.125-0.519
		c1.105-0.097,0.423-0.263,0.402-0.875c0.359-0.437,0.732-0.271,1.102-0.397C699.634,110.13,699.595,110.869,699.058,111.376z
		 M700.361,109.554c-0.439-0.354-0.02-0.608-0.267-0.729c0.778-0.696,1.742-1.462,2.491-1.116c0.244-0.197-0.199-0.547-0.27-0.732
		c1.342-0.59,5.586-0.901,5.338-2.98c-2.123-0.98-4.531,1.238-6.738,1.43c-1.289-1.803,3.568-2.438,2.279-4.241
		c0.797-0.091,0.908,1.624,2.244,1.038c0.891-1.256,1.627-1.217,3.201-2.311c1.203,1.006,3.094-1.748,4.238-0.615
		c-1.023,0.893-0.746,1.924-1.768,2.813c-1.146-1.132-1.621,1.524-3.18,0.958c-0.025,1.354,1.932,0.74,2.799,0.836
		c0.051,1.844-2.342,2.096-3.58,2.135c0.777,1.268-1.76,0.848-0.361,2.096l-0.057,0.125
		C704.656,108.813,702.767,107.642,700.361,109.554L700.361,109.554z M700.441,114.283c-0.701-0.777-0.43-2.013,0.494-2.041
		C701.455,113.083,701.287,113.763,700.441,114.283z M701.91,111.784c0.537-0.512,1.318-1.212,1.652-0.296
		c0.109-0.557,1.457-0.842,0.879-1.561c1.416-0.104,2.877-0.639,4.334-1.479c0.52,0.845-0.756,1.313,0.01,2.271
		c-1.377-0.635-3.391,2.07-4.525,1.24c-0.424,0.258-0.289,0.621,0.214,1.16l-0.118-0.06
		C703.369,113.212,702.619,112.869,701.91,111.784L701.91,111.784z M703.216,116.164l0.055-0.125
		c-0.898-1.018,1.82-0.974,1.533-2.314c1.301,0.145,2.156-0.061,3.113-1.137c0.248,0.119,0.508,0.537,0.875,0.406
		C708.296,115.026,705.269,114.998,703.216,116.164L703.216,116.164z M703.988,119.395c-0.152-0.981,2.398-2.222,3.16-1.565
		C705.933,118.474,705.027,119.119,703.988,119.395z M711.269,109.292c-0.316-0.297-0.076-0.486-0.209-0.854
		c0.424-0.258,0.615-0.02,1.043-0.273C712.111,108.468,711.878,108.968,711.269,109.292z M715.144,100.644
		c0.723-0.576,1.567-1.092,2.307-1.359c0.033,1.227,0.693,2.742-0.635,3.645l0,0l-0.904,0.642c-0.26-0.423-0.625-0.29-0.76-0.651
		l0.291-0.623C714.679,101.638,715.777,101.237,715.144,100.644z M713.777,106.515c2.629-0.752,5.057-2.055,6.971-1.924
		c0.074,0.457-0.381,0.936-0.426,1.498l0.037-0.014l-0.055,0.125c0-0.039,0.014-0.072,0.021-0.115
		c-2.076,0.561-4.605,2.086-6.957,1.301C713.796,107.128,713.658,106.768,713.777,106.515L713.777,106.515z M707.751,125.667
		c0.214-1.109,1.119,0.213,1.83-0.666C709.599,125.611,708.031,126.703,707.751,125.667z M710.888,125.451
		c-0.627-0.289-0.574-0.719-1.336-1.371C710.564,122.88,711.431,124.947,710.888,125.451z M725.359,106.112
		c-0.598,0.63,0.453,0.663,0.029,0.919c-2.58,0.323-4.314,2.094-5.996,3.739c-0.266-0.728-0.809-0.222-1.02-1.073l-0.055,0.124
		c-1.158,0.521-2.33,0.435-3.557,0.78c-0.172-1.596,3.361-1.021,4.242-2.582c0.441,0.354,0.811,0.223,1.193,0.699
		c0.145-1.295,2.168-1.719,3.15-1.871c1.455-0.842,3.01-2.549,4.271-1.663C726.89,105.759,726.111,106.46,725.359,106.112z
		 M721.736,121.078l-0.461-0.971c0.725-0.574,1.33-0.9,1.955-0.607C723.128,120.054,722.587,120.564,721.736,121.078z
		 M723.642,116.666l-0.184,0.063c-0.484,0.384-0.695-0.47-1.117-0.214c1.156-2.488,4.441-4,7.447-4.579
		c-0.104,0.862-1.627,1.216-1.113,2.062C727.142,114.041,724.318,114.554,723.642,116.666z M727.583,118.63
		c-0.549,0.199-0.846-1.449-1.619-0.746c-0.273-0.731,1.025-0.586,1.201-0.961c0.762,0.658,0.406,1.096,0.604,1.641L727.583,118.63z
		 M728.873,116.197c0.59-0.938,2.793-1.434,3.893-1.834C733.203,116.683,729.958,115.492,728.873,116.197z M730.31,120.948
		c0.045-0.433-0.281-1.038-0.666-1.519l4.689-1.92l0.713,1.084C732.343,118.86,732.867,120.011,730.31,120.948z M736.878,117.927
		c-0.484,0.381-0.984,0.152-1.35,0.285c-0.58-0.719,0.215-1.11,0.252-1.851c1.359,0.021,3.086-2.058,4.057-0.55
		C738.367,116.039,737.402,116.809,736.878,117.927z M737.402,121.042c-0.393-0.787,2.469-2.039,3.154-1.875
		C739.779,120.175,738.617,120.395,737.402,121.042z M740.427,114.873c0.164-0.68,1.686-1.339,2.08-0.555l0.123,0.061
		C742.353,115.31,740.955,116.026,740.427,114.873L740.427,114.873z M745.667,112.751c-0.527-1.15,1.623-1.213,1.357,0.021
		C746.484,113.284,746.267,112.119,745.667,112.751z M751.449,101.958c-0.262,1.543-3.471,1.58-2.701,2.539
		c-0.797,0.086-5.479,0.348-4.982,2.547c-1.781,0.232-4.484,0.502-4.924,2.416c-0.73,0.271-1.805-0.686-1.826-1.295
		c1.963-0.304,4.434-2.342,8.084-3.986c0.916-0.332,1.637-0.904,2.365-1.479c2.004-1.044,4.254-0.006,4.123-2.334
		c1.174,0.088,2.58-0.32,3.91-1.218c0.51,0.535-0.041,0.737,0.654,1.209c-0.965,0.767-1.658,0.296-2.496,1.117
		c-0.732,0.271,0.988,0.153,0.145,0.671l-0.287,0.623C752.828,102.595,752.14,102.431,751.449,101.958z M751.955,106.425
		l-0.713-1.08C751.955,104.46,752.802,105.912,751.955,106.425z M754.064,104.828l-0.516-0.843c0.135-1.601,2.375-0.87,2.955-2.116
		c0.635,0.596,0.635,0.596,0.904,1.323l-0.057,0.128C756.183,103.541,755.009,103.45,754.064,104.828z M754.994,107.073
		c0.234-0.5,1.178,0.091,0.908-0.642l0.121,0.058c0.186-0.067,0.953,0.896,0.732,1.697
		C755.957,108.273,755.515,107.917,754.994,107.073z M761.976,101.218c-0.725,0.574-1.293,0.158-1.629-0.75
		C761.126,99.772,761.58,100.433,761.976,101.218z M765.242,97.13c0.559,0.104,1.109-0.094,1.561,0.567l0.125,0.058
		c-0.514,1.431-2.725,1.613-4.123,2.334c-0.443-0.354,0.162-0.681-0.102-1.104c0.607-0.327,1.354-0.282,2.09-0.247
		C765.279,98.358,764.955,97.753,765.242,97.13z M760.886,106.16l-0.125-0.058c-0.715-1.388-2.004,1.045-2.809,0.823
		c-0.35-1.219,0.143-1.295,0.984-2.114l0.451,0.659c0.723-0.573,0.27-1.229,1.058-1.623c1.265,0.882,3.222-1.692,4.741-2.352
		c1.203,1.002,1.592-0.482,2.451-0.688c0.008,0.308-0.416,0.564-0.1,0.861C765.126,103.58,762.714,103.222,760.886,106.16
		L760.886,106.16z M769.216,95.783c0.514,0.102,0.988,0.292,1.594,0.205c0.004-0.027,0.012-0.039,0.012-0.068l0.122,0.057
		c-0.044,0.009-0.089,0.005-0.134,0.013c-0.029,1.104-1.41,0.356-2.053,1.095C768.548,96.232,769.224,96.093,769.216,95.783z
		 M763.605,112.408c-0.152-0.98,1.17-2.183,1.879-1.099l0.064,0.182C764.81,111.453,764.857,112.986,763.605,112.408z
		 M766.154,111.166c0.051-0.433-0.46-0.973,0.205-1.42c0.252,0.116,0.621,0.285,0.885,0.711L766.154,111.166z M767.353,109.899
		c-0.094-1.101,1.225-0.347,1.656-0.294C768.978,110.65,767.728,110.074,767.353,109.899z M760.65,122.994
		c-0.27-0.73,0.68-2.107,1.203-0.959L760.65,122.994z M769.046,119c-2.85-0.406-4.369,4.486-6.539,1.975
		c1.957-0.575,3.748-1.62,5.209-3.043c0.443,0.357,0.939,0.281,1.453,1.13L769.046,119z M768.789,130.98
		c0.403-0.875,1.137-1.143,2.059-1.168C770.865,130.429,769.267,130.597,768.789,130.98z M776.708,119.505
		c-0.154-0.979,0.592-0.633,1.375-1.33C778.425,119.089,777.46,119.855,776.708,119.505z M782.892,111.772
		c-0.6,0.634-1.129-0.519-1.852,0.054c-0.391-0.789,0.639-1.371,0.928-1.994c0.377,0.174,0.816,0.527,1.301,0.146
		C783.595,110.582,783.49,111.142,782.892,111.772L782.892,111.772z M788.3,100.806c-0.041,0.736-0.08,1.476-0.932,1.992
		l0.061-0.121c-0.258-0.426-0.576-0.721-1-0.463C785.966,101.242,787.796,100.575,788.3,100.806z M792.023,89.216
		c0.621,0.287-0.582,1.244,0.449,0.658l0.125,0.057c-1.215,0.652-1.094,2.675-2.525,2.166c-0.385-0.48,0.154-0.989-0.295-1.65
		C790.675,89.498,790.925,89.612,792.023,89.216z M780.175,107.492c0.717-0.574,0.939,0.592,1.479,0.079
		c0.238-0.192-0.143-0.669-0.27-0.729c1.023-0.893,1.779-0.236,3.227-1.385c-0.059,2.092-2.715,2.234-4.943,3.771
		C779.468,108.679,779.757,108.056,780.175,107.492z M778.798,109.13c0.205,0.547-0.084,1.17-0.748,1.617l0.057-0.123l-0.625-0.289
		C776.97,109.796,778.429,108.957,778.798,109.13z M775.72,113.458c0.746,0.041,0.484-0.385,1.09-0.709
		c0.453,0.666,1.527-0.66,1.879,0.864c-1.389,1.022-2.389,0.563-4.27,1.662c-0.76-0.651,2.086-1.022,2.412-0.422
		C777.082,114.664,775.917,113.697,775.72,113.458L775.72,113.458z M790.119,79.261c0.332,0.912,0.729,1.697-0.176,2.34
		C789.097,80.149,788.953,79.483,790.119,79.261z M773.783,112.412c-1.27,0.774-4.189,0.186-4.068,2.209
		c-1.086,0.707-2.031,0.117-2.795-0.837c2.105,0.365,3.58-1.825,5.736-1.891c0.244-0.192-0.195-0.242-0.506-0.229
		C772.609,110.359,773.56,111.25,773.783,112.412z M780.109,89.013c1.844-0.358,1.977-1.963,3.395-2.065
		C784.64,87.775,781.142,90.393,780.109,89.013z M787.849,71.408c1.529,1.61,1.266,3.155,1.998,4.854
		c-1.498,1.58-2.34-1.838-3.756-1.729l0.059-0.125C786.058,73.302,786.142,72.132,787.849,71.408L787.849,71.408z M773.476,102.289
		c0.801-0.086-0.711,0.883,0.164,1.286c-0.828-0.836-2.113,1.595-2.949,0.456C772.457,103.177,772.517,103.05,773.476,102.289
		L773.476,102.289z M769.917,107c-0.439-0.354-0.811-0.222-1.133-0.826c-1.947,0.92-1.914,2.148-3.363,2.986l-0.061,0.125
		c-0.373-0.173-0.701-0.777-1.115-0.213c-0.857-1.755,2.098-1.904,3.182-2.919c0.963-0.767,1.541-2.013,3.152-1.874
		C770.73,105.253,770.449,106.183,769.917,107L769.917,107z M776.964,80.755c1.15-0.832,1.541-0.045,1.877,0.865
		C777.697,82.455,777.425,81.724,776.964,80.755z M773.644,87.24c0.229-0.5,1.063-1.626,1.559-1.396l0.061-0.123
		C776.042,86.986,774.193,87.041,773.644,87.24L773.644,87.24z M776.88,86.162C774.871,84.931,778.798,84.325,776.88,86.162z
		 M770.216,100.483c-0.133-0.364-0.498-0.231-0.756-0.658c0.428-0.258,0.865,0.104,1.283-0.467
		C771.125,99.841,770.824,100.156,770.216,100.483z M782.507,78.319c-0.34,1.054-2.102,1.903-3.383,2.373
		c-0.863-2.062,1.617-1.522,1.939-3.187C781.507,77.856,782.169,77.406,782.507,78.319z M784.89,67.319
		c0.758,0.653-0.83,1.13-1.076,1.015C783.357,67.671,784.449,66.96,784.89,67.319z M782.408,72.981
		c0.209,0.853-0.904,0.64,0.469,1.272c-0.732,0.274,0.025,0.922-0.707,1.189c-0.439-0.354-1.24-0.271-0.951-0.893
		c-0.664,0.447-1.078,1.015-0.813,1.744c-0.432-0.045-2.58,0.321-1.561,1.396c-0.791,0.391-0.162-1.285-0.758-0.654
		C779.705,75.515,780.712,74.013,782.408,72.981L782.408,72.981z M775.315,89.524c-2.081,2.519-4.417,2.957-6.749,5.358
		c-0.883,0.322-1.713,0.521-2.355-0.564l-2.178,1.497c-0.637-0.593-0.148-0.979-0.285-1.341
		C767.085,94.802,771.726,89.074,775.315,89.524z M777.046,58.713c2.811,0.286,5.332,1.841,6.844,4.217l-0.055,0.119
		c-2.521,0.198-4.357-3.37-7.209-1.812c0.355-0.438-0.221-1.16-0.293-1.648C776.755,59.333,776.873,59.084,777.046,58.713
		L777.046,58.713z M771.992,69.237c0.934,0.278,2.023-0.431,2.965,0.157c0.133,0.363-0.164,0.68,0.029,0.921
		c-3.617,0.899-5.428,4.151-8.84,5.603c0.82,0.527,1.811,0.686,2.965,0.156c0.75,0.352,0.402,1.096,1.375,0.637
		c-0.051,0.434-0.529,0.818-0.828,1.133c-1.211-1.315-3.979-0.924-5.252-2.424c0.09-1.166,3.367-0.713,2.877-2.908
		c1.813-1.281,3.023,0.035,4.836-1.25c-1.625-0.75-0.594-1.332-1.75-2.772C770.974,68.162,772.958,68.468,771.992,69.237
		L771.992,69.237z M769.941,68.746c-0.432-0.049-0.749-0.353-0.947-0.895c0.652-0.756,1.156-0.525,1.607,0.133
		C770.175,68.25,770.367,68.487,769.941,68.746z M775.833,53.157c-1.07-0.643,0.229-0.498,1.25,0.577
		c-0.813-0.219-1.732-0.195-2.617-0.9C774.445,52.216,775.408,53.416,775.833,53.157L775.833,53.157z M771.076,57.167
		c0.438,0.048,0.754,0.35,1.078,0.95c-0.611,0.022-1.348,0.285-1.797-0.374L771.076,57.167z M769.046,59.255
		c-0.021-0.612-0.221-1.162,0.01-1.66c0.32,0.296,0.936,0.275,1.578,1.181c-0.975,0.458-4.057,2.516-5.1,2.788
		C765.796,60.026,767.554,58.87,769.046,59.255z M762.035,68.121c0.393,0.786,1.527,1.609,0.555,2.07
		c-0.463-0.969-1.363-0.021-1.889-1.172c-0.52,1.124-1.369,1.637-2.619,1.063l-0.057,0.123c-0.408,0.875-0.486,2.348-1.793,1.896
		c-0.832-0.836,1.262-1.081,0.184-2.033C758.195,69.833,760.183,68.175,762.035,68.121z M763.154,60.164
		c-3.451,2.19-6.795,1.86-10.176,4.232l-0.514-0.533c1.645-0.91,2.23-1.847,3.666-1.338c0.287-0.621,0.199-1.42,0.867-1.867
		c0.318,0.297,0.797-0.087,1.191,0.702c0.355-0.441,0.217-1.117,0.879-1.562c1.063,0.336,2.391-0.563,3.623-0.599
		C763.005,59.495,762.707,59.813,763.154,60.164z M763.386,57.703c-1.82,0.976-3.629,0.291-5.289,0.59
		c-0.441-0.356-0.076-0.493-0.209-0.854C760.058,55.713,762.636,55.391,763.386,57.703z M751.472,51.301
		c-0.348,0.748,0.867,0.103,1.02,1.075c-1.568,1.092-2.936,0.765-4.014-0.188c0.34-1.057,1.707-0.731,2.449-0.686
		c-0.395-0.789-0.773-0.961-1.281-1.498c2.052-0.388,4.061-0.981,5.99-1.773c0.838-0.823,2.021-0.43,2.051,0.494l-0.365,0.13
		l0.127,0.057c-1.398,0.717-0.941,1.685-1.035,2.547c1.182,0.393,2.563-0.932,3.689-0.416l0.67,1.821
		C757.263,55.182,754.63,51.698,751.472,51.301z M762.5,48.827c-0.535,0.507-0.875-0.404-1.713,0.419
		C760.269,48.399,762.292,47.974,762.5,48.827z M762.455,47.292c-0.732,0.271-1.24-0.27-1.859-0.253
		C760.582,46.425,761.994,46.324,762.455,47.292z M755.123,45.422c1.129-0.583,2.516-0.32,3.35,0.642
		c2.17,0.549-4.479,0.809-3.662-0.629C754.88,45.617,755.064,45.547,755.123,45.422z M754.478,46.486
		c0.084,0.796-1.15,0.831-1.516,0.967c-0.777-1.269-1.857-0.253-2.732-0.656c-0.797,0.085-3.023-0.037-2.326-1.531
		c1.428,0.202,3.023,0.037,4.389,0.36c0.189,0.239-0.176,0.373-0.289,0.623C752.761,46.905,753.724,46.139,754.478,46.486z
		 M761.16,24.611c1.52-0.967,2.004-1.042,3.199-2.305l0.129,0.055c0.361,1.834-2.01,1.045-1.711,2.694
		C762.177,25.686,761.728,25.024,761.16,24.611L761.16,24.611z M753.953,41.405l0.518,0.844c-0.332,1.362-1.471,0.229-2.313,1.051
		C751.949,42.449,753.402,41.606,753.953,41.405L753.953,41.405z M743.132,42.465c3.186-0.652,5.721,1.733,8.924,1.387
		c0.258,0.426-0.783,0.7-1.264,1.082c-2.15-1.077-4.551-1.556-6.949-1.385l0.053-0.125c-0.672,0.141-1.229,0.035-1.828,0.666
		c-0.395-0.785-1.063-0.336-1.523-1.301L743.132,42.465z M738.625,42.349c-1.857-0.252-4.029,1.472-5.49,0.041
		C735.5,40.908,736.88,41.851,738.625,42.349z M732.953,48.658c0.73-0.27,0.145,0.667,0.646,0.9
		c-1.387,1.026-1.311-0.45-2.186-0.854c-0.205-0.853,2.406,0.051,0.809,0.222C732.474,49.042,733.654,49.439,732.953,48.658
		L732.953,48.658z M730.939,49.491c-0.004-0.035,0.01-0.059,0-0.098l0.125,0.057C731.017,49.469,730.98,49.474,730.939,49.491
		c0.068,0.619-0.432,1.104-1.061,1.531l-0.648-0.903C729.861,49.7,730.283,49.705,730.939,49.491z M728.189,50.09
		c0.891,1.016,1.525,1.611,1.438,2.783c0.443,0.354,0.883,0.711,1.559,0.571c0.592-0.939-1.385-0.941-0.904-1.323
		c4.564-0.012,10.063-5.948,14.421-4.542c-0.79,0.392-1.089,0.708-1.069,1.32c-1.658,0.297-3.01,2.547-5.066,1.75
		c-0.838,0.825,1.02,1.075,0.555,2.069c-3.053,1.012-5.719,0.537-8.803,2.598c-0.629-0.287-1.227,0.344-1.617-0.443
		c-1.064,1.628-3.441,2.498-5.1,2.788c0.211,0.853,0.121,1.714-1.152,2.49c-0.031-0.915,0.527-0.812-0.422-1.702
		c0.209-1.115,1.908-2.15,1.996-3.319c1.043-0.274,1.645,1.367,2.666,0.474c0.479-0.382-0.518-0.84-0.594-1.334
		c-0.996-0.461-2.205,0.5-3.261,0.467c-1.21-1.316-0.478-1.584-1.868-2.833C723.339,51.032,725.746,51.085,728.189,50.09
		L728.189,50.09z M726.81,46.996c0.041-0.02,0.066-0.039,0.109-0.058l-0.059,0.121C726.847,47.034,726.828,47.024,726.81,46.996
		c-0.637,0.362-0.391,0.653-0.846,1.009l-0.904-1.323C725.761,46.123,726.304,46.223,726.81,46.996z M723.48,47.467
		c0.512,0.537,1.232-0.038,1.629,0.748l-0.129-0.057c-0.715,0.886-1.213,0.654-1.889,0.792
		C722.765,48.346,722.875,47.792,723.48,47.467z M722.121,49.411c-0.672,0.142-1.654,0.292-2.299-0.605
		C720.785,48.04,721.537,48.384,722.121,49.411z M718.248,45.655c-0.684-0.164,1.281-0.468,1.537-0.042
		C719.882,46.716,718.748,45.887,718.248,45.655z M698.335,64.606c0-1.963,2.217-2.152,3.107-3.408
		c2.926,0.896,6.887-2.721,9.994-1.898c0.359-2.4,2.709-2.228,3.82-4.284c-0.104,0.555,0.527,1.148,0.479,1.582
		c-0.834,0.824-1.52,0.66-2.428,1.299c-0.199,1.419,2.117,2.638,3.006,3.347c-1.984,1.963-3.58,0.167-4.514,1.853
		c-0.729-1.698,1.383-1.328,2.23-1.847c0.357-0.436-1.822-0.985-1.852,0.055c-0.684-0.162-0.084-0.794-0.469-1.274
		c-0.254-0.119-1.078,1.015-1.832,0.666c-0.014,1.658-1.986,1.656-3.094,1.753c-0.279,0.928,0.949,0.893,0.045,1.529
		c-1.043,0.277-1.355-0.021-1.695-0.93c-1.215,0.654-0.943,1.379-1.291,2.126c0.441,0.354,1.059,0.34,1.391,1.248
		c-1.754,1.156-2.203,2.465-4.66,2.84c-0.191,0.064-0.438-0.047-0.553,0.201c0.264,0.42,0.58,0.719,0.998,0.461
		c0.271,0.728-1.105,0.094-0.516,1.119l0.24-0.189c0.434,0.044,0.758,0.652,1.02,1.07c-0.357,0.439-0.1,0.865-0.705,1.19
		c-0.262-0.426-0.514-0.538-0.889-0.713c-0.041,0.431-0.352,0.745-0.896,0.949c-0.682-0.164-0.414,0.565-1.33,0.899
		c-0.135-0.359-0.24-1.771,0.635-1.369l0.432-0.262c-0.395-0.785-1.135-0.517-1.627-0.746c0.154-0.988,0.328-1.365-0.748-2.313
		l2.088-0.247c0.83-1.13,2.285-1.973,3.363-2.986c0.551-0.195,1.592-0.476,1.629-1.213c-0.582-0.726-1.307-0.455-1.654,0.291
		c-0.273-0.73,0.951-1.07-0.299-1.65c-0.504-0.232-2.109,1.603-3.117,0.831c-0.668,0.45,0.092,1.101-1.07,1.321
		c-0.311,0.01-0.889-0.711-1.211-1.316C697.025,64.154,697.761,63.89,698.335,64.606L698.335,64.606z M694.566,66.498
		c0.555-0.195,0.877,0.403,1.371,0.328c0.27,0.73-0.611,0.021-0.846,0.516L694.566,66.498z M687.205,73.843
		c0.636-1.373,1.828-0.67,2.744-1.004l0.145-1.293c2.775-0.082,3.266-2.125,5.521-1.084c-0.842,0.822-1.189,1.569-2.295,1.664
		l-0.191-0.24l-0.072-0.18c-1.111-0.216-0.461,0.99-0.441,1.605c-1.033,0.588-1.666-0.016-2.525,0.197
		C690.13,74.738,687.751,75.605,687.205,73.843L687.205,73.843z M688.083,84.681c0.623,0.289-0.746,1.927-1.914,1.843l-0.133-0.06
		l-0.059,0.119c-0.189-0.238-0.197-0.543-0.449-0.66l0.904-0.641c-0.205-0.855,0.568,0.411,0.762,0.652
		c0.533-0.508,0.52-1.121-0.057-1.842c0.5,0.229,1.193,0.703,1.928,0.433l-0.057,0.125c-0.184,0.063-0.176,0.368-0.047,0.431
		C688.525,85.037,688.757,84.541,688.083,84.681L688.083,84.681z M691.703,79.847c-0.406,0.875-0.844,0.824-1.758,1.158
		c-0.66,0.756-1.154,0.524-1.654,0.295c-0.297,0.314,0.021,0.613,0.203,0.854c-0.73,0.266-0.348,0.744-1.072,1.014
		c-0.746-0.041-1.514-1-2.498-1.154c0.557,0.105,1.926-1.528,2.676-1.184c0.172-0.373,0.273-1.236,0.549-0.199
		c0.73-0.269-0.395-0.789,0.52-1.121c-0.436-0.047-0.889-0.711-1.338-1.371c0.555-0.2,0.234-0.502-0.029-0.92
		c1.303,0.146,2.061-1.166,3.279-1.816c-0.16,0.984,0.146,0.979,0.842,1.45c-0.432-0.046-1.264,1.081-1.654,0.294
		c-0.906,0.643-0.947,1.378-1.115,2.059c0.137,0.364,1.467-0.533,0.717-0.88c0.672-0.144,0.158,1.284,1.116,0.212
		c0.011,0.307,0.021,0.613,0.261,0.424c0.307-0.01,0.557,0.104,0.857-0.211C693.792,77.634,693.685,80.159,691.703,79.847z
		 M697.477,85.386c-1.563,1.396-1.796,1.896-3.604,3.18c-0.615-0.367-1.172-0.825-1.642-1.368c-0.733,0.272-0.347,0.746-1.081,1.015
		c0.885,0.709,0.48-0.383,1.094-0.709c0.744,0.349-0.4,1.178,0.457,0.969c-0.219,0.811-1.541,0.046-2.212,0.195
		c-0.407-1.094,1.675-1.647,1.704-2.693l1.127-1.448c-0.766-0.959-1.578,0.783-2.482-0.54c0.732-0.268-0.086-0.796,0.705-1.188
		c0.811,0.221,0.338,0.912,1.02,1.074c0.119-0.248-0.145-0.672-0.209-0.854c0.859-0.209,1.705-0.727,2.514-0.506
		c0.084,0.798-1.006,1.506-1.354,2.248c1.09,1.259,2.475,0.236,3.9,0.438l0.186-0.066c-0.096-1.103,0.922-0.029,1.215-0.649
		c0.047-0.433,0.594-0.634,1.049,0.03c-0.674,0.143-1.008,1.197-0.406,0.871C699.357,86.251,697.972,85.306,697.477,85.386
		L697.477,85.386z M695.283,92.386c0.791-0.389,0.34-1.051,1.312-1.51c0.134,0.362,0.448,0.666,0.511,0.537
		c0.143,0.67-0.273,1.235-0.438,1.92C696.189,93.712,695.794,92.925,695.283,92.386z"/>
	<path fill="#F79927" d="M749.179,94.105c0.033,0.027,0.076,0.042,0.113,0.063l0.012-0.006L749.179,94.105z M750.945,95.003
		c0,0.133,0.021,0.271,0.063,0.399C751.048,95.267,751.025,95.121,750.945,95.003z M766.146,94.218
		c0.021,0.035,0.043,0.062,0.064,0.099l0.061-0.042L766.146,94.218z M682.197,85.901c0.188-0.065-1.512,0.968-2.021,0.431
		l-0.424,0.26c0.451,0.662,0.934,0.277,1.6-0.174c0.197,0.547,0.449,0.668,0.879,0.406
		C683.025,86.734,682.855,85.144,682.197,85.901L682.197,85.901z M678.417,87.49c0.338,0.91,1.744,0.5,1.604-0.171
		c-0.25-0.119-0.551,0.194-0.742-0.041C679.037,87.47,678.847,87.228,678.417,87.49z M679.378,90.651
		c-0.113,0.25,0.256,0.119,0.385,0.479c0.08-0.063,0.156-0.125,0.238-0.191c0.369-0.133,0.617-0.02,0.879,0.404
		c1.156-0.525-0.229-1.467,0.617-1.982C680.693,89.14,680.677,90.798,679.378,90.651L679.378,90.651z M710.515,44.964
		c1.104-0.503,2.7,1.121,3.354,0.209c0.012-0.43,0.406-0.785,0.564-1.125c-0.959,0.09-1.926-0.095-2.789-0.533
		C711.546,44.381,710.564,44.533,710.515,44.964z M699.71,28.031c-0.018,0.009-0.043,0.007-0.061,0.013v0.11L699.71,28.031z
		 M715.792,44.073c0.674-0.145,0.99,0.152,1.658-0.295l0.057-0.122l0.723-0.573c-0.932-0.28-2.098-0.061-3.426,0.834
		C714.953,44.894,715.595,43.523,715.792,44.073z M713.972,45.047c-0.029,0.059-0.07,0.085-0.104,0.127
		c0,0.041-0.02,0.079-0.016,0.12L713.972,45.047z M735.773,103.651c0.348-0.744,1.689-1.34,1.537-2.312
		c-0.244,0.188-0.617,0.019-0.75-0.352c-0.734,0.268-0.473,0.689-1.074,1.014C736.48,102.464,735.814,102.916,735.773,103.651
		L735.773,103.651z M793.373,113.735c2.627,1.294,5.695,1.381,8.395,0.242c4.301,1.528,9.348-0.831,13.723,0.881
		c2.982-1.192,5.668-0.104,8.605-0.867c0.887-1.256,2.197-0.804,3.535-1.396c3.494,1.309,7.596,0.326,11.363,0.4
		c-0.133-0.363-0.02-0.613,0.096-0.865c-0.811-0.221-1.887,0.795-2.539-0.416c0.73-0.271,1.475-0.228,2.09-0.242
		c-1.004-0.771-2.465,0.068-3.703-0.198l-0.121,0.248c-0.725,0.577-1.344,0.594-1.947,0.919c-0.129-0.366,0.039-0.738-0.447-0.661
		c-0.1,0.86-1.658,0.287-2.24-0.43c-0.434-0.354-1.355-0.021-2.037-0.185c-0.244,0.188-0.482,0.383-0.73,0.266
		c-1.881,1.102-3.344-0.33-5.047,0.396c0.258,0.426,0.984-0.15,1.25,0.58c-1.09,0.708-1.688-0.627-2.939,0.76l-0.064-0.182
		c-1.041,0.277-2.014,0.734-2.658-0.168c0.801-0.085,1.775-0.544,2.459-0.379c0.557,0.105,1.213-0.65,1.711-0.421
		c-0.383-0.479-0.992-0.154-1.309-0.45c-8.93,0.57-17.756,0.277-26.742,0.669C793.539,113.052,792.785,112.708,793.373,113.735z
		 M815.625,113.259c-1.713,0.306-3.463,0.318-5.18,0.031C811.641,112.024,814.121,112.564,815.625,113.259z M806.363,112.914
		c-0.889,1.258-3.123,0.832-4.314,0.129C803.57,112.384,804.939,112.714,806.363,112.914z"/>
	<path fill="#F79927" d="M688.07,14.191l0.252,0.118c5.576,5.74,10.082,12.427,13.293,19.743c1.215,1.316,1.432,2.477,2.332,3.804
		c-0.105,0.555,0.721,1.39,1.17,2.052c0.125,0.057,0.387,0.479,0.504,0.23c-0.191-0.238-0.02-0.613-0.402-1.093
		c0.801-0.084,1.834,1.606,1.924,2.4c-0.244,0.189-0.432-0.05-0.617,0.017c-0.18,0.068-0.296,0.318-0.043,0.43l0.262,0.424
		c0.279,0.028,0.545,0.149,0.748,0.346c0.842-0.511,1.5,0.692,2.455-0.378c0.029-1.044-2.158-1.9-2.072-3.071
		c-1.291-1.498-2.408-3.131-3.342-4.872c-0.516-0.539-0.898-1.019-0.848-1.448c-1.455-1.126-0.883-2.678-1.285-3.77
		c-2.742-7.167-9.531-13.471-14.453-19.221L687.072,9.5c-1.299-0.147-0.33,1.363-0.621,1.985
		C686.416,12.524,688.273,12.774,688.07,14.191z M702.539,34.026c0.426-0.257,0.801-0.083,1.385,0.941
		c-0.73,0.269-1.365-0.329-1.887-1.174C701.962,33.309,702.41,33.66,702.539,34.026z M699.65,28.046
		c0.021-0.005,0.043-0.003,0.063-0.013l-0.063,0.122V28.046c-0.449,0.164-1.432-0.728-1.15-1.329
		C699.482,26.162,699.671,27.296,699.65,28.046z M694.109,18.19c-0.115,0.248-1.127-0.517-0.734,0.268
		c-0.365,0.132-0.498-0.23-0.689-0.47C693.09,17.115,694.21,17.327,694.109,18.19z M675.41,73.39
		c-1.24-0.268-2.406-0.047-3.658-0.629c-2.086,0.556-2.822,0.515-4.391,1.607c2.176,0.551,4.332,0.485,6.457,1.463
		c0.24-0.191,0.432,0.049,0.549-0.197c-0.162-1.289-1.625-0.75-2.615-0.905c0.035-0.737,0.852-0.206,0.512-1.12
		C673.425,73.083,674.146,74.472,675.41,73.39L675.41,73.39z M670.453,74.585l-0.525-0.844
		C670.404,73.052,671.669,74.24,670.453,74.585z M678.9,76.666c0.25,0.115,0.5,0.231,0.615-0.019
		c0.652-0.755,1.279-0.468,1.828-0.669c1.141-1.135,1.314-3.477-0.471-1.273l-0.246-0.119c-0.657,0.756-1.16,0.523-1.783,0.234
		c-0.355,0.441-0.551,0.202-0.916,0.34C677.515,75.728,678.814,75.869,678.9,76.666z M791.648,68.468
		c12.043-7.349,24.252-14.426,36.623-21.221l-0.322-0.298c-0.982,0.153-2.119,1.291-3.064,0.704
		c-0.607,0.325-1.219,0.344-1.846,0.055c-1.873,1.402-3.184,0.954-4.482,2.773l0.186-0.066c1.701-0.726,4.652-3.146,5.488-2.001
		c-2.131,0.981-4.367,2.523-6.203,2.882c0.113-0.248-0.076-0.489,0.348-0.745c-5.127,1.871-10.803,5.909-15.84,8.575
		c0.383,0.478-0.904,0.641-1.076,1.014c0.197,0.546,0.857-0.209,1.119,0.211c0.945-1.378,2.504-2.779,4.291-2.707
		c1.389-1.023,4.197-4.116,6.324-3.135c-3.787,1.282-8.477,5.164-12.801,6.95c-0.268-0.423-0.021-0.614-0.033-0.921
		c-0.416,0.564-1.604,0.171-1.385,1.023c0.373,0.173,0.689,0.471,1.229-0.037c-0.221,0.805-2.088,2.211-2.609,1.368
		c0.119-0.25,0.482-0.382,0.283-0.624c-0.982,0.153-2.303,1.362-3.389,2.069c0.191,0.239,0.674-0.143,0.924-0.029
		c0.15,0.98-0.775,1.004-1.563,1.396c-0.264-0.425,0.596-0.635,0.209-1.112c-1.205,0.956-1.717,2.383-3.197,2.304
		c-0.361,0.134-0.172,0.374-0.592,0.632l0.377,0.482C791.013,67.875,791.33,68.173,791.648,68.468L791.648,68.468z M817.349,51.435
		l-0.057,0.125c0.643,0.9-1.266,1.077-1.563,1.395C815.273,51.988,817.226,51.376,817.349,51.435z M797.404,62.956
		c0.199,0.547-1.15,0.833-1.377,1.33C795.197,63.452,796.978,63.215,797.404,62.956z"/>
</g>
<path fill="#96D2CA" d="M316.712,126.412c4.537-1.686,9.518-2.613,14.747-2.613c10.112,0,19.296,3.484,26.101,9.162
	c6.885-8.523,18.185-14.09,30.964-14.09c15.851,0,28.054,5.945,33.748,18.102l8.469-0.002c0.38,0,1.03-0.025,1.403,0
	c4.121-14.557,18.785-24.448,36.586-24.448c15.283,0,28.448,7.953,34.477,19.411c1.127-0.404,2.313-0.611,3.51-0.609
	c1.105,0,2.158,0.18,3.142,0.492c2.505-2.664,6.286-4.357,10.52-4.357c6.058,0,11.188,3.479,12.976,8.287
	c6.683-5.156,15.458-10.695,25.04-10.695c12.782,0,24.506,3.396,31.39,11.924c6.807-5.678,13.498-7.025,23.605-7.342
	c8.037-0.25,12.725,2.918,16.785,5.367c1.623-17.16,17.939-30.646,37.842-30.646c16.721,0,30.908,9.522,35.982,22.743
	c1.947-0.871,4.059-1.32,6.193-1.316c3.135,0,6.014,0.939,8.32,2.506c2.201-10.801,12.898-19.004,25.795-19.004
	c13.996,0,26.889,7.282,27.646,19.443c5.178-2.33,10.922-3.449,17.137-3.449c7.824,0,13.717,4.268,19.764,7.838
	c1.678-2.096,4.441-3.469,7.576-3.469c1.236,0,2.418,0.219,3.502,0.607c3.459-8.803,12.771-15.192,23.848-15.526v22.243H-1.888
	v-25.113c6.934-6.559,16.816-10.661,27.792-10.661c0.492,0,0.983,0.011,1.471,0.024c0.023,0.029,0.049,0.058,0.071,0.086
	c0.046-0.026,0.093-0.051,0.138-0.077c15.988,0.612,29.402,9.933,34.306,22.708c1.947-0.871,4.059-1.318,6.193-1.314
	c3.134,0,6.016,0.938,8.321,2.506c2.198-10.804,12.896-19.004,25.792-19.004c11.476,0,21.205,6.502,24.762,15.543
	c1.122-0.402,2.306-0.607,3.499-0.605c3.134,0,5.896,1.373,7.576,3.469c6.044-3.572,13.314-5.656,21.14-5.656
	c6.216,0,12.075,1.32,17.254,3.652c0.754-12.164,12.157-21.824,26.158-21.828c15.198-0.004,24.493,10.307,25.791,19.004
	c2.305-1.564,5.188-2.507,8.323-2.507c2.232,0,4.332,0.479,6.191,1.317c5.071-13.223,19.259-22.742,35.982-22.742
	c2.343,0,4.633,0.191,6.859,0.551c6.55,1.193,12.485,3.872,17.331,7.628c0.048-0.133,0.11-0.259,0.163-0.39
	C310.786,109.13,315.846,117.244,316.712,126.412L316.712,126.412z"/>
<path fill="#96D2CA" d="M566.097,68.061c1.01-0.134,1.962-0.095,2.833,0.073c3.864-5.015,11.933-12.469,18.638-12.45
	c7.084,0.02,10.504,2.834,12.367,8.33c0.017,0.002,1.459-1.454,4.521-3.272c6.633-3.932,12.074-2.889,13.957,0.387
	c1.545,2.686,2.584,7.041,0.277,10.731c0.732-0.127,1.48-0.196,2.232-0.192c6.139,0.017,10.336,4.573,9.365,10.174
	c-0.975,5.604-6.748,10.135-12.893,10.119c-1.645-0.006-3.148-0.348-4.453-0.938c-3.596,6.035-10.762,10.311-18.289,10.287
	c-7.084-0.02-12.527-3.842-14.392-9.336c-6.925-0.047-12.274-3.729-14.22-9.053c-0.377,0.096-0.758,0.176-1.143,0.229
	c-4.676,0.624-8.199-2.249-7.871-6.412C557.361,72.57,561.419,68.688,566.097,68.061z"/>
<path fill="#96D2CA" d="M418.332,110.875c0.485,0.002,0.932-0.072,1.334-0.205c2.131,2.133,6.396,5.166,9.563,4.752
	c3.346-0.438,4.789-1.975,5.332-4.684c0.008-0.002,0.779,0.598,2.338,1.271c3.367,1.455,5.877,0.634,6.566-1.027
	c0.564-1.361,0.79-3.48-0.524-5.085c0.354,0.017,0.71,0.003,1.067-0.044c2.899-0.379,4.6-2.785,3.798-5.373
	c-0.8-2.587-3.802-4.376-6.704-3.997c-0.776,0.103-1.465,0.354-2.046,0.712c-2.067-2.633-5.713-4.218-9.267-3.753
	c-3.344,0.438-5.684,2.573-6.227,5.282c-3.268,0.441-5.569,2.503-6.164,5.136c-0.184-0.022-0.367-0.037-0.552-0.038
	c-2.248-0.012-3.737,1.559-3.326,3.506C413.93,109.275,416.086,110.863,418.332,110.875z"/>
</svg>
