<?xml version="1.0" encoding="utf-8"?>
<!-- Generator: Adobe Illustrator 15.0.0, SVG Export Plug-In . SVG Version: 6.00 Build 0)  -->
<!DOCTYPE svg PUBLIC "-//W3C//DTD SVG 1.1//EN" "http://www.w3.org/Graphics/SVG/1.1/DTD/svg11.dtd">
<svg version="1.1" id="Capa_1" xmlns="http://www.w3.org/2000/svg" xmlns:xlink="http://www.w3.org/1999/xlink" x="0px" y="0px"
	 width="800px" height="800px" viewBox="0 0 800 800" enable-background="new 0 0 800 800" xml:space="preserve">
<path opacity="0.1" fill="#F79927" enable-background="new    " d="M-370.771,300.561c-32.731-13.968-64.777,18.032-96.065,18.032
	h-8.336c-31.288,0-63.334-32-96.065-18.032c-30.721,13.108-48.273,67.8-48.273,99.65c0,35.176,16.391,81.772,52.339,93.049
	c24.82,7.786,64.479-14.667,92-14.667h8.336c27.521,0,67.18,22.453,92,14.667c35.948-11.276,52.339-57.873,52.339-93.049
	C-322.497,368.361-340.05,313.67-370.771,300.561z M-575.738,400.414c-6.867,0-12.434-5.566-12.434-12.434
	c0-6.866,5.566-12.433,12.434-12.433c6.866,0,12.434,5.566,12.434,12.433C-563.305,394.847-568.872,400.414-575.738,400.414z
	 M-471.004,467.365c-37.371,0-67.667-30.295-67.667-67.667s30.296-67.667,67.667-67.667s67.667,30.295,67.667,67.667
	S-433.633,467.365-471.004,467.365z M-366.27,400.924c-6.866,0-12.434-5.567-12.434-12.435c0-6.866,5.567-12.433,12.434-12.433
	c6.867,0,12.434,5.566,12.434,12.433C-353.836,395.357-359.402,400.924-366.27,400.924z"/>
<path fill="none" stroke="#103653" stroke-width="8" stroke-miterlimit="10" d="M-475.172,478.594c-27.521,0-67.18,22.453-92,14.667
	c-35.948-11.276-52.339-57.873-52.339-93.049c0-31.851,17.553-86.542,48.273-99.65c32.731-13.968,64.777,18.032,96.065,18.032"/>
<path fill="none" stroke="#103653" stroke-width="8" stroke-miterlimit="10" d="M-497.511,297.032"/>
<circle fill="none" stroke="#103653" stroke-width="8" stroke-miterlimit="10" cx="-471.004" cy="399.698" r="67.667"/>
<circle fill="none" stroke="#103653" stroke-width="7.2781" stroke-miterlimit="10" cx="-575.738" cy="387.98" r="12.434"/>
<path fill="none" stroke="#103653" stroke-width="7.2781" stroke-miterlimit="10" d="M-474.865,504.801
	c-28.773,0-55.981-23.541-72.615-46.954c-8.784-12.363-22.294-35.476-14.092-51.363c3.63-7.033,10.58-11.067,19.066-11.067"/>
<path fill="none" stroke="#103653" stroke-width="10" stroke-miterlimit="10" d="M-466.836,478.594c27.521,0,67.18,22.453,92,14.667
	c35.948-11.276,52.339-57.873,52.339-93.049c0-31.851-17.553-86.542-48.273-99.65c-32.731-13.968-64.777,18.032-96.065,18.032
	h-8.336c-31.288,0-63.334-32-96.065-18.032c-30.721,13.108-48.273,67.8-48.273,99.65c0,35.176,16.391,81.772,52.339,93.049
	c24.82,7.786,64.479-14.667,92-14.667H-466.836z"/>
<path fill="none" stroke="#103653" stroke-width="8" stroke-miterlimit="10" d="M-497.511,297.032"/>
<circle fill="none" stroke="#103653" stroke-width="7.2781" stroke-miterlimit="10" cx="-575.738" cy="387.98" r="12.434"/>
<path fill="none" stroke="#103653" stroke-width="8" stroke-miterlimit="10" d="M-497.511,297.032"/>
<circle fill="none" stroke="#103653" stroke-width="7.2781" stroke-miterlimit="10" cx="-366.27" cy="388.489" r="12.434"/>
<g>
	<path fill="#103653" d="M-520.429,400.282c-0.743-0.268-1.514-0.439-2.313-0.516c-0.762-0.095-1.542-0.181-2.342-0.258
		c0.723,0.115,1.466,0.22,2.228,0.315c0.8,0.096,1.552,0.306,2.256,0.63c-0.076,0.077-0.152,0.144-0.229,0.2
		c-0.076,0.058-0.152,0.086-0.229,0.086c-0.267,0-0.524-0.033-0.771-0.1c-0.248-0.066-0.514-0.101-0.8-0.101v-0.343
		c-0.095,0.019-0.229,0.028-0.4,0.028c-0.476,0-0.942-0.066-1.399-0.2c-0.457-0.133-0.924-0.201-1.399-0.201
		c-0.248,0-0.485,0.029-0.714,0.086v0.115c0.609,0.038,1.232,0.1,1.871,0.186c0.638,0.086,1.29,0.196,1.957,0.329
		c-0.61-0.095-1.262-0.181-1.957-0.257c-0.695-0.076-1.347-0.115-1.957-0.115c-0.248,0-0.481,0.005-0.7,0.014
		c-0.219,0.01-0.433,0.024-0.643,0.043c0,0.401,0.01,0.869,0.029,1.404c0.019,0.534,0.057,1.055,0.114,1.561s0.124,0.949,0.2,1.332
		c0.076,0.381,0.171,0.629,0.286,0.744l0.257,0.516c0.229,0.706,0.99,1.06,2.285,1.06c0.286,0,0.628-0.038,1.028-0.114
		c0.399-0.076,0.804-0.168,1.213-0.272c0.409-0.104,0.8-0.196,1.171-0.272c0.371-0.076,0.689-0.114,0.957-0.114
		c0.267,0,0.418,0.038,0.457,0.114c0.038,0.076,0.057,0.182,0.057,0.315c-0.8,0.096-1.571,0.239-2.313,0.429
		c-0.647,0.172-1.276,0.307-1.885,0.402c0.609-0.096,1.228-0.211,1.856-0.344c0.742-0.172,1.494-0.306,2.256-0.401
		c-0.038,0.114-0.057,0.19-0.057,0.229c0,0.113,0.047,0.21,0.143,0.285l0.4-0.057c0.114-0.019,0.229-0.033,0.343-0.043
		s0.218-0.033,0.314-0.072c0.343,0.097,0.585,0.201,0.729,0.316c0.143,0.113,0.214,0.238,0.214,0.371
		c0,0.249-0.119,0.421-0.357,0.516c-0.238,0.096-0.462,0.248-0.671,0.459h-0.114c-0.553,0-1.085,0.043-1.6,0.129
		s-1.023,0.176-1.528,0.271c-0.505,0.096-1.019,0.187-1.542,0.272c-0.524,0.085-1.062,0.128-1.613,0.128h-0.4h-0.171
		c0.361,0.039,0.752,0.059,1.171,0.059c0.533,0,1.033-0.029,1.5-0.086c0.466-0.059,0.918-0.125,1.356-0.201
		c0.438-0.076,0.861-0.143,1.271-0.2c0.409-0.058,0.823-0.086,1.242-0.086c-0.305,0.153-0.676,0.301-1.114,0.444
		c-0.438,0.143-0.924,0.268-1.457,0.371c-0.533,0.105-1.085,0.191-1.656,0.258c-0.571,0.067-1.133,0.101-1.685,0.101
		c-0.381,0-0.752-0.019-1.114-0.058c-0.362-0.038-0.752-0.162-1.171-0.371l-0.028-0.316c-0.267-0.095-0.548-0.271-0.843-0.529
		c-0.295-0.258-0.566-0.529-0.814-0.816c-0.248-0.286-0.457-0.553-0.628-0.801s-0.257-0.411-0.257-0.487l-0.085-0.258
		c-0.171-0.362-0.31-0.764-0.415-1.203c-0.104-0.438-0.186-0.883-0.243-1.331c-0.057-0.449-0.105-0.893-0.143-1.332
		c-0.039-0.439-0.067-0.85-0.086-1.231c-0.038-0.63-0.067-1.265-0.085-1.904c-0.019-0.64-0.029-1.284-0.029-1.933
		s0.004-1.303,0.015-1.962c0.009-0.659,0.014-1.322,0.014-1.99h-0.086c-0.095,0.726-0.147,1.422-0.157,2.09
		c-0.01,0.669-0.015,1.337-0.015,2.005v1.117c0,1.337,0.072,2.731,0.214,4.181c0.143,1.451,0.509,2.864,1.1,4.239
		c-0.438-0.745-0.714-1.484-0.828-2.221c-0.114-0.734-0.219-1.417-0.314-2.047c-0.114-0.82-0.195-1.613-0.243-2.377
		c-0.048-0.764-0.071-1.546-0.071-2.349v-0.601c0-1.107,0.028-2.234,0.085-3.379s0.229-2.358,0.514-3.637
		c-0.114,0-0.171-0.057-0.171-0.172c0-0.114,0.062-0.276,0.186-0.487c0.124-0.21,0.28-0.415,0.471-0.616
		c0.19-0.2,0.404-0.372,0.643-0.515c0.238-0.144,0.471-0.215,0.7-0.215h6.797c0.704,0.134,1.395,0.243,2.07,0.329
		s1.385,0.148,2.128,0.186l-0.029,0.659c0,0.115-0.053,0.206-0.157,0.272c-0.105,0.067-0.338,0.1-0.7,0.1
		c-0.114,0-0.253-0.004-0.415-0.014s-0.338-0.024-0.528-0.043v0.257c0.781,0.172,1.395,0.382,1.842,0.63
		c0.447,0.248,0.671,0.487,0.671,0.716c0,0.268-0.253,0.43-0.757,0.487c-0.505,0.057-1.176,0.086-2.014,0.086
		c-1.066,0-2.204-0.004-3.413-0.014s-2.375-0.062-3.499-0.158h-0.485c-0.096,0.726-0.162,1.47-0.2,2.234s-0.067,1.546-0.085,2.348
		c0.304,0,0.604-0.014,0.899-0.043c0.295-0.028,0.604-0.043,0.928-0.043c0.267,0,0.576,0.024,0.928,0.072
		c0.352,0.048,0.724,0.11,1.114,0.186c0.39,0.077,0.781,0.167,1.171,0.272c0.39,0.105,0.747,0.215,1.071,0.33
		c0.057,0.019,0.124,0.028,0.2,0.028h0.486c0.247,0,0.414,0.039,0.5,0.115c0.086,0.077,0.129,0.229,0.129,0.458
		c-0.324,0-0.628-0.019-0.914-0.057c-0.286-0.038-0.562-0.076-0.828-0.114c0.266,0.096,0.542,0.167,0.828,0.214
		c0.286,0.048,0.59,0.091,0.914,0.129c-0.039,0.096-0.062,0.182-0.072,0.258c-0.01,0.077-0.014,0.143-0.014,0.201
		c0.19,0.039,0.319,0.129,0.386,0.272c0.066,0.143,0.1,0.301,0.1,0.473c0,0.248-0.052,0.444-0.157,0.587
		C-520.376,400.096-520.429,400.206-520.429,400.282z M-530.482,403.518c0.076,0.458,0.167,0.95,0.271,1.476
		c0.104,0.524,0.266,1.04,0.485,1.546c0.219,0.506,0.519,0.979,0.9,1.417c0.304,0.363,0.704,0.669,1.199,0.917
		c-0.571-0.306-1.038-0.726-1.399-1.261c-0.419-0.648-0.748-1.374-0.985-2.176c-0.238-0.803-0.414-1.651-0.528-2.549
		c-0.095-0.897-0.171-1.756-0.229-2.578c0.019,0.515,0.047,1.041,0.086,1.576C-530.644,402.421-530.577,402.965-530.482,403.518z
		 M-528.168,409.418c-0.248-0.115-0.467-0.248-0.657-0.4c-0.134-0.115-0.257-0.229-0.372-0.344c0.114,0.114,0.248,0.219,0.4,0.314
		C-528.587,409.141-528.378,409.285-528.168,409.418z M-523.485,397.676c0.324,0.058,0.667,0.105,1.028,0.144
		c-0.343-0.096-0.667-0.167-0.971-0.215c-0.305-0.047-0.609-0.11-0.914-0.187C-524.094,397.533-523.809,397.619-523.485,397.676z"/>
	<path fill="#103653" d="M-515.203,407.757c0-0.095,0.029-0.21,0.086-0.343c0.057-0.135,0.085-0.277,0.085-0.43
		c0.057-0.459,0.095-0.788,0.114-0.988c0.019-0.201,0.029-0.377,0.029-0.53c0-0.802-0.024-1.665-0.071-2.592
		c-0.048-0.926-0.1-1.818-0.157-2.677c0-0.268-0.005-0.583-0.014-0.945c-0.01-0.362-0.034-0.649-0.072-0.859
		c0.057-0.668,0.104-1.327,0.143-1.976c0.038-0.649,0.057-1.308,0.057-1.976v-0.716c0-0.248-0.01-0.496-0.029-0.744
		c0.057,0.057,0.114,0.086,0.171,0.086c0.076,0,0.157-0.029,0.243-0.086c0.085-0.058,0.166-0.086,0.243-0.086
		c0.133,0,0.243,0.143,0.328,0.429c0.086,0.287,0.129,0.917,0.129,1.89h0.257c0.095-1.069,0.243-1.918,0.443-2.549
		c0.2-0.63,0.404-0.945,0.614-0.945c0.095,0,0.247,0.206,0.457,0.616c0.209,0.411,0.314,1.055,0.314,1.933l0.314-0.516
		c0.209-0.248,0.442-0.505,0.7-0.773c0.257-0.268,0.547-0.506,0.871-0.716c0.323-0.209,0.686-0.386,1.085-0.53
		c0.399-0.143,0.856-0.215,1.371-0.215c0.99,0,1.852,0.225,2.585,0.673c0.732,0.449,1.347,1.031,1.842,1.747
		c0.495,0.716,0.9,1.528,1.214,2.435c0.314,0.907,0.557,1.823,0.729,2.749c0.171,0.926,0.286,1.819,0.343,2.678
		s0.085,1.594,0.085,2.205c0,0.554-0.034,0.883-0.1,0.988c-0.067,0.104-0.186,0.166-0.357,0.186
		c-0.038-1.471-0.133-2.969-0.286-4.496s-0.514-3.007-1.085-4.439c0.514,1.508,0.842,2.993,0.985,4.453
		c0.143,1.461,0.214,2.926,0.214,4.396c-0.114-0.057-0.219-0.086-0.314-0.086c-0.076,0-0.143,0.029-0.2,0.086
		c0,0.152,0.01,0.314,0.029,0.486c0.019,0.153,0.033,0.307,0.043,0.459c0.009,0.152,0.014,0.296,0.014,0.43
		c-0.114,0.439-0.229,0.754-0.343,0.945c-0.114,0.19-0.219,0.285-0.314,0.285c-0.114,0-0.21-0.052-0.286-0.157
		c-0.077-0.104-0.148-0.233-0.214-0.386c-0.067-0.153-0.133-0.32-0.2-0.502s-0.157-0.357-0.271-0.529
		c0.038-0.324,0.066-0.588,0.085-0.788s0.029-0.367,0.029-0.501c0-0.516-0.01-1.136-0.029-1.861s-0.071-1.484-0.157-2.277
		c-0.086-0.792-0.219-1.584-0.4-2.376c-0.181-0.792-0.429-1.499-0.743-2.119c-0.314-0.62-0.709-1.126-1.185-1.518
		c-0.477-0.391-1.047-0.587-1.714-0.587c-0.457,0-0.862,0.153-1.214,0.458c-0.353,0.306-0.657,0.697-0.914,1.174
		c-0.257,0.478-0.481,0.998-0.671,1.561c-0.19,0.563-0.343,1.103-0.457,1.618c0.171-0.534,0.347-1.078,0.528-1.632
		c0.181-0.553,0.4-1.06,0.657-1.518c0.257-0.458,0.557-0.835,0.9-1.131c0.343-0.296,0.743-0.444,1.2-0.444
		c0.59,0,1.099,0.163,1.528,0.487c0.428,0.325,0.79,0.745,1.085,1.26c0.295,0.515,0.533,1.103,0.714,1.761
		c0.181,0.659,0.318,1.327,0.414,2.004c0.095,0.678,0.157,1.337,0.186,1.977c0.029,0.64,0.043,1.188,0.043,1.646
		c0,0.363-0.005,0.726-0.014,1.088c-0.01,0.363-0.024,0.735-0.043,1.117c-0.171-0.726-0.3-1.484-0.386-2.277
		c-0.085-0.791-0.176-1.574-0.271-2.348c-0.096-0.773-0.214-1.518-0.357-2.234c-0.143-0.716-0.348-1.379-0.614-1.99l0.2-0.287
		c-0.19-0.439-0.405-0.778-0.643-1.017c-0.238-0.239-0.471-0.416-0.7-0.53c-0.229-0.115-0.438-0.181-0.628-0.201
		c-0.19-0.019-0.314-0.028-0.371-0.028c-0.476,0-0.899,0.172-1.271,0.515c-0.371,0.344-0.695,0.807-0.971,1.389
		c-0.276,0.583-0.519,1.255-0.728,2.019c-0.21,0.764-0.391,1.565-0.542,2.406c-0.153,0.84-0.286,1.686-0.4,2.534
		c-0.114,0.85-0.21,1.646-0.286,2.392h0.257c0.095-0.648,0.195-1.365,0.3-2.148c0.104-0.782,0.219-1.579,0.343-2.391
		c0.124-0.812,0.271-1.599,0.443-2.363s0.375-1.451,0.614-2.062c0.238-0.611,0.519-1.107,0.843-1.489
		c0.304-0.362,0.676-0.573,1.114-0.63c-0.419,0.096-0.771,0.363-1.057,0.802c-0.305,0.458-0.571,1.021-0.8,1.689
		c-0.229,0.668-0.433,1.399-0.614,2.191c-0.181,0.792-0.348,1.551-0.5,2.277l-0.571,4.181c-0.076,0.268-0.133,0.506-0.171,0.717
		l-0.114,0.602c-0.038,0.19-0.076,0.396-0.114,0.615c-0.038,0.22-0.085,0.473-0.143,0.759l-0.086,0.344h-0.171l-2.884-0.974
		c-0.096-0.02-0.167-0.048-0.214-0.086C-515.093,407.862-515.146,407.814-515.203,407.757z M-510.233,393.066
		c-0.381,0.325-0.681,0.673-0.9,1.045c-0.219,0.373-0.424,0.75-0.614,1.131v0.029c0.267-0.554,0.638-1.117,1.114-1.69
		c0.457-0.534,1.066-0.935,1.828-1.203c-0.248,0.077-0.486,0.153-0.714,0.229C-509.786,392.703-510.023,392.856-510.233,393.066z
		 M-506.035,395.385c-0.152-0.114-0.329-0.205-0.528-0.272c-0.2-0.066-0.443-0.158-0.728-0.272l-0.029-0.057
		c0.324,0.019,0.609,0.091,0.857,0.214c0.247,0.125,0.485,0.339,0.714,0.645L-506.035,395.385z M-506.806,392.12
		c-0.096-0.019-0.229-0.029-0.4-0.029c0.609,0.153,1.18,0.32,1.713,0.501c0.533,0.182,1.038,0.54,1.514,1.074
		c-0.324-0.439-0.748-0.783-1.271-1.031C-505.773,392.388-506.292,392.216-506.806,392.12z M-503.921,393.724
		c0.267,0.325,0.514,0.697,0.743,1.117s0.429,0.792,0.6,1.117c-0.191-0.439-0.372-0.84-0.543-1.203
		C-503.293,394.393-503.56,394.049-503.921,393.724z"/>
	<path fill="#103653" d="M-494.467,409.619c-0.438-1.719-0.896-3.385-1.371-4.998c-0.476-1.613-0.971-3.24-1.485-4.883
		c-0.248-0.763-0.457-1.513-0.628-2.248c-0.171-0.735-0.419-1.475-0.743-2.219c0.133-0.038,0.243-0.11,0.328-0.215
		c0.086-0.105,0.195-0.158,0.329-0.158c0.095,0,0.186,0.057,0.271,0.172c0.085,0.115,0.162,0.244,0.229,0.387
		c0.066,0.143,0.128,0.291,0.186,0.444s0.095,0.258,0.114,0.315l0.343-0.086c-0.077-0.305-0.139-0.606-0.186-0.902
		c-0.048-0.296-0.072-0.597-0.072-0.902c0-0.114,0.015-0.291,0.043-0.53c0.029-0.238,0.138-0.358,0.329-0.358
		c0.286,0,0.6,0.263,0.942,0.788c0.343,0.525,0.681,1.198,1.014,2.019s0.662,1.723,0.985,2.706c0.324,0.984,0.619,1.933,0.886,2.85
		c0.266,0.916,0.5,1.736,0.7,2.463c0.2,0.725,0.337,1.24,0.414,1.546c0.495-0.63,0.933-1.288,1.313-1.976s0.757-1.379,1.128-2.076
		c0.371-0.697,0.761-1.384,1.171-2.063c0.409-0.677,0.89-1.322,1.442-1.933c0.133-0.152,0.337-0.401,0.614-0.745
		c0.276-0.343,0.571-0.691,0.885-1.045c0.314-0.353,0.624-0.664,0.928-0.931c0.305-0.267,0.552-0.401,0.743-0.401
		c0.095,0,0.181,0.067,0.257,0.201c-0.724,0.726-1.442,1.451-2.156,2.176c-0.714,0.726-1.338,1.546-1.871,2.463
		c0.552-0.878,1.186-1.675,1.899-2.391s1.452-1.408,2.213-2.076l0.257,0.344c0.114-0.172,0.324-0.363,0.628-0.573
		s0.562-0.315,0.771-0.315c0.152,0,0.266,0.048,0.342,0.144s0.114,0.22,0.114,0.372c0,0.134-0.019,0.306-0.057,0.516
		c-0.038,0.21-0.095,0.363-0.171,0.458c-0.095,0.134-0.209,0.249-0.342,0.344c-0.628,0.573-1.224,1.103-1.785,1.589
		c-0.562,0.487-1.09,1.084-1.585,1.79l0.2-0.201c0.514-0.611,1.033-1.155,1.557-1.632c0.523-0.477,1.118-0.935,1.785-1.375
		c-0.362,0.611-0.776,1.131-1.243,1.561c-0.467,0.43-0.938,0.912-1.414,1.446c-0.229,0.268-0.424,0.559-0.585,0.874
		c-0.162,0.315-0.367,0.597-0.614,0.845l-0.257-0.086c-0.362,0.783-0.738,1.58-1.128,2.391c-0.39,0.813-0.814,1.604-1.271,2.377
		c-0.457,0.773-0.967,1.504-1.528,2.191s-1.195,1.289-1.899,1.805c-0.057,0.113-0.176,0.214-0.357,0.3s-0.319,0.157-0.414,0.215
		l-1.799-0.802c-0.133-0.439-0.281-0.906-0.442-1.403c-0.162-0.496-0.319-0.964-0.471-1.403l-0.143,0.029l0.771,2.777
		c0.019,0.019,0.052,0.038,0.1,0.057c0.047,0.02,0.143,0.063,0.286,0.129c0.143,0.067,0.361,0.162,0.657,0.287
		c0.295,0.124,0.7,0.291,1.214,0.501c0.761-0.458,1.409-0.955,1.942-1.489c0.514-0.516,1.009-1.126,1.485-1.832
		c-0.209,0.362-0.428,0.696-0.657,1.002c-0.229,0.324-0.476,0.63-0.743,0.916c-0.267,0.287-0.562,0.559-0.885,0.816
		c-0.324,0.258-0.695,0.501-1.114,0.73L-494.467,409.619z M-489.155,402.687c0.571-1.088,1.161-2.156,1.771-3.207
		c-0.667,1.031-1.276,2.082-1.828,3.15c-0.553,1.051-1.152,2.072-1.799,3.064C-490.326,404.74-489.708,403.738-489.155,402.687z
		 M-490.469,408.502c0.914-1.031,1.7-2.119,2.356-3.266c0.657-1.145,1.242-2.319,1.756-3.521v-0.058
		c-0.324,0.573-0.643,1.159-0.957,1.761c-0.314,0.602-0.633,1.193-0.957,1.775c-0.324,0.583-0.667,1.156-1.028,1.719
		C-489.66,407.475-490.05,408.006-490.469,408.502z M-488.584,407.127c-0.039,0.039-0.067,0.076-0.086,0.115
		C-488.651,407.203-488.623,407.166-488.584,407.127z M-488.527,407.041c0.304-0.496,0.59-1.002,0.856-1.518
		c0.019-0.02,0.038-0.038,0.057-0.058c-0.019,0.02-0.028,0.038-0.028,0.058C-487.909,406.039-488.204,406.545-488.527,407.041z
		 M-487.499,405.208c-0.019,0.058-0.047,0.114-0.085,0.172C-487.546,405.322-487.518,405.265-487.499,405.208z M-487.013,404.292
		c-0.077,0.153-0.153,0.306-0.229,0.458C-487.166,404.597-487.09,404.445-487.013,404.292z M-485.214,399.853
		c-0.191,0.268-0.367,0.53-0.528,0.788c-0.162,0.258-0.319,0.511-0.472,0.759c0.171-0.248,0.372-0.491,0.6-0.73
		C-485.385,400.43-485.252,400.158-485.214,399.853z"/>
	<path fill="#103653" d="M-474.047,392.349c0.019,0.096,0.124,0.144,0.314,0.144h0.057c0.114,0,0.19,0.01,0.229,0.028
		c0.99,0.306,1.975,0.75,2.956,1.332c0.98,0.583,1.866,1.279,2.656,2.091c0.79,0.812,1.428,1.732,1.913,2.764
		c0.486,1.031,0.729,2.138,0.729,3.322c0,1.031-0.2,2.023-0.6,2.979s-0.953,1.785-1.657,2.491c0.724-0.63,1.3-1.417,1.728-2.362
		s0.643-1.962,0.643-3.05c0-1.222-0.257-2.363-0.771-3.422s-1.171-2.009-1.971-2.85c-0.8-0.84-1.69-1.561-2.67-2.162
		c-0.981-0.602-1.938-1.064-2.871-1.389c0.724,0,1.461,0.163,2.214,0.487c0.752,0.325,1.471,0.75,2.156,1.274
		c0.685,0.525,1.318,1.127,1.899,1.804c0.581,0.678,1.071,1.37,1.471,2.076l-0.2,0.287c0.381,0.573,0.671,1.193,0.871,1.861
		c0.2,0.668,0.3,1.356,0.3,2.062c0,1.355-0.291,2.545-0.871,3.565c-0.581,1.021-1.313,1.872-2.199,2.549
		c-0.885,0.678-1.856,1.188-2.913,1.532c-1.057,0.344-2.052,0.516-2.984,0.516c-0.533,0-1.071-0.058-1.614-0.172
		c-0.542-0.115-1.09-0.306-1.642-0.572v0.172c0.533,0.305,1.081,0.515,1.642,0.629c0.562,0.115,1.119,0.172,1.671,0.172
		c1.371,0,2.718-0.301,4.042-0.902c1.323-0.601,2.442-1.445,3.355-2.533c-0.876,1.126-1.966,2.004-3.27,2.635
		c-1.304,0.629-2.661,0.944-4.07,0.944c-1.447,0-2.618-0.282-3.513-0.845c-0.896-0.563-1.595-1.256-2.099-2.076
		c-0.505-0.82-0.843-1.689-1.014-2.606c-0.171-0.916-0.257-1.737-0.257-2.462c0-0.975,0.128-1.929,0.385-2.865
		c0.257-0.935,0.652-1.794,1.186-2.577c0.533-0.783,1.218-1.456,2.056-2.019c0.837-0.563,1.847-0.959,3.027-1.188l-0.828-0.201
		c-0.4-0.095-0.686-0.209-0.857-0.343c-0.171-0.133-0.257-0.248-0.257-0.344c0-0.153,0.167-0.319,0.5-0.501
		C-474.842,392.44-474.466,392.349-474.047,392.349z M-475.332,395.958c0.514-0.19,1.009-0.286,1.485-0.286
		c0.476,0,0.843,0.071,1.1,0.215c0.257,0.143,0.386,0.291,0.386,0.444c0,0.096-0.11,0.2-0.329,0.315
		c-0.219,0.114-0.495,0.272-0.828,0.473c-0.333,0.2-0.695,0.454-1.085,0.759c-0.391,0.306-0.752,0.692-1.085,1.16
		c-0.333,0.468-0.609,1.036-0.828,1.704c-0.219,0.669-0.328,1.451-0.328,2.349c0,1.317,0.295,2.311,0.885,2.979
		c0.59,0.669,1.409,1.003,2.456,1.003c0.667,0,1.347-0.115,2.042-0.344c0.695-0.229,1.323-0.555,1.885-0.975
		c0.561-0.42,1.018-0.936,1.371-1.546c0.352-0.61,0.528-1.298,0.528-2.062c0-0.573-0.1-1.146-0.3-1.719
		c-0.2-0.573-0.476-1.122-0.828-1.647c-0.353-0.525-0.771-1.017-1.257-1.475c-0.485-0.458-1.014-0.85-1.585-1.174
		c-0.552-0.305-1.004-0.539-1.356-0.702c-0.353-0.162-0.605-0.319-0.757-0.473c-0.153,0.077-0.367,0.167-0.643,0.272
		c-0.276,0.105-0.643,0.263-1.1,0.472L-475.332,395.958z M-473.419,394.154l-0.257-0.114c-0.019,0.038-0.048,0.076-0.085,0.114
		c-0.039,0.039-0.057,0.077-0.057,0.115c0,0.039,0.023,0.091,0.071,0.157c0.047,0.067,0.09,0.12,0.128,0.158L-473.419,394.154z
		 M-473.419,394.612c0.876,0.286,1.714,0.716,2.514,1.289c0.686,0.516,1.313,1.079,1.885,1.689
		c-0.552-0.648-1.152-1.231-1.799-1.747c-0.743-0.611-1.571-1.088-2.485-1.432L-473.419,394.612z M-467.878,404.378
		c-0.286,0.61-0.686,1.155-1.2,1.632c0.343-0.229,0.633-0.506,0.871-0.83c0.238-0.324,0.433-0.648,0.585-0.974
		s0.267-0.62,0.343-0.888c0.057-0.248,0.104-0.449,0.143-0.602C-467.345,403.213-467.592,403.767-467.878,404.378z
		 M-468.849,397.791c-0.057-0.076-0.114-0.143-0.171-0.201C-468.963,397.667-468.906,397.734-468.849,397.791z M-465.964,406.841
		c-0.02,0.038-0.048,0.076-0.086,0.114c-0.019,0.02-0.038,0.029-0.057,0.029s0.029-0.101,0.143-0.301
		c0.114-0.201,0.252-0.439,0.414-0.717c0.162-0.276,0.318-0.567,0.471-0.873c0.133-0.229,0.229-0.43,0.286-0.602
		C-465.061,405.313-465.45,406.095-465.964,406.841z M-464.793,404.492c0.019-0.038,0.028-0.076,0.028-0.114
		C-464.765,404.416-464.775,404.454-464.793,404.492z M-464.365,402.201c0,0.306-0.019,0.606-0.057,0.902s-0.105,0.568-0.2,0.816
		c0.133-0.478,0.2-1.012,0.2-1.604c0-0.439-0.038-0.869-0.114-1.289c-0.057-0.363-0.133-0.716-0.229-1.06
		c0.095,0.344,0.181,0.687,0.257,1.031C-464.413,401.381-464.365,401.781-464.365,402.201z M-464.736,404.32
		c-0.019,0.02-0.029,0.039-0.029,0.058C-464.765,404.359-464.755,404.34-464.736,404.32z"/>
	<path fill="#103653" d="M-462.395,417.293c0.152,0.153,0.414,0.272,0.785,0.358c0.372,0.086,0.729,0.129,1.071,0.129
		c0.628,0,1.228-0.206,1.799-0.616c0.571-0.41,1.118-0.969,1.642-1.675c0.523-0.706,1.023-1.518,1.5-2.435
		c0.476-0.916,0.933-1.881,1.371-2.893h-0.028c-0.381,0.84-0.791,1.705-1.229,2.592c-0.438,0.889-0.914,1.699-1.428,2.435
		s-1.071,1.337-1.671,1.804c-0.6,0.469-1.242,0.702-1.928,0.702c-0.552,0-1.095-0.163-1.628-0.487
		c0.286-0.096,0.552-0.143,0.8-0.143c0.076,0,0.209,0.019,0.4,0.057c0.304,0,0.561-0.01,0.771-0.028
		c0.209-0.019,0.409-0.062,0.6-0.128c0.19-0.068,0.372-0.172,0.543-0.316c0.171-0.143,0.361-0.328,0.571-0.558l0.343,0.086
		c0.552-0.726,1.071-1.509,1.557-2.349s0.966-1.689,1.442-2.549l0.514-1.146l-0.257-0.058l-0.428,1.031
		c-0.438,0.859-0.895,1.704-1.371,2.535c-0.476,0.83-1.019,1.589-1.628,2.276c0.667-0.821,1.275-1.737,1.828-2.749
		c0.552-1.013,1.057-2.063,1.514-3.15l-0.171-0.287c-0.096-0.438-0.238-0.868-0.428-1.288c-0.134-0.324-0.286-0.659-0.457-1.003
		c0.343,0.822,0.581,1.614,0.714,2.377c-0.19-0.057-0.348-0.176-0.471-0.357c-0.124-0.182-0.238-0.396-0.343-0.645
		c-0.105-0.248-0.2-0.506-0.286-0.773c-0.085-0.267-0.195-0.533-0.329-0.801l0.143-0.258c-0.305-0.478-0.633-1.07-0.985-1.776
		c-0.353-0.706-0.724-1.432-1.114-2.177c-0.391-0.744-0.786-1.469-1.186-2.176c-0.4-0.707-0.79-1.298-1.171-1.776l-0.085,0.086
		l3.57,6.444c-0.724-1.222-1.495-2.463-2.313-3.723c-0.819-1.261-1.552-2.654-2.199-4.182c0-0.133-0.02-0.31-0.057-0.53
		c-0.039-0.219-0.082-0.448-0.129-0.688c-0.047-0.238-0.1-0.477-0.157-0.716c-0.057-0.238-0.114-0.453-0.171-0.645l0.742-0.229
		c0.095,0,0.181,0.043,0.257,0.129c0.076,0.086,0.143,0.263,0.2,0.53c0.095,0,0.181-0.076,0.257-0.229
		c0.076-0.153,0.157-0.324,0.243-0.516c0.085-0.19,0.181-0.362,0.286-0.515c0.104-0.153,0.243-0.229,0.414-0.229
		c0.247,0,0.471,0.167,0.671,0.501c0.2,0.334,0.39,0.74,0.571,1.217c0.181,0.478,0.376,0.979,0.585,1.504s0.457,0.979,0.743,1.36
		c0.304,0.516,0.614,1.022,0.928,1.518c0.314,0.496,0.604,1.021,0.871,1.575c0.286,0.764,0.657,1.532,1.114,2.306
		s0.818,1.58,1.085,2.42c0.457-1.527,0.823-2.889,1.1-4.082c0.276-1.192,0.49-2.381,0.643-3.565c0.209-0.611,0.39-1.298,0.542-2.062
		c0.152-0.763,0.229-1.508,0.229-2.233l0.628,0.028c0.095,0,0.181,0.043,0.257,0.129s0.114,0.292,0.114,0.616
		c0,0.096-0.005,0.196-0.014,0.301c-0.01,0.105-0.024,0.234-0.043,0.387h0.257c0.171-0.63,0.371-1.136,0.6-1.518
		c0.229-0.381,0.447-0.573,0.657-0.573c0.152,0,0.3,0.163,0.443,0.487c0.143,0.325,0.214,0.869,0.214,1.633
		c0,1.279-0.153,2.663-0.457,4.152c-0.305,1.489-0.619,2.959-0.942,4.41c-0.534,1.947-1.162,3.818-1.885,5.613
		s-1.638,3.617-2.742,5.47c-0.343,0.516-0.728,1.055-1.157,1.618c-0.428,0.563-0.924,1.074-1.485,1.532
		c-0.562,0.458-1.2,0.835-1.914,1.131c-0.714,0.296-1.528,0.444-2.442,0.444c-0.667,0-1.119-0.086-1.357-0.258
		c-0.238-0.172-0.357-0.306-0.357-0.401c0-0.058,0.019-0.124,0.057-0.2c0.571,0.19,1.181,0.286,1.828,0.286
		c0.457,0,0.985-0.081,1.585-0.243s1.138-0.406,1.614-0.73c-0.438,0.229-0.928,0.43-1.471,0.602
		c-0.542,0.172-1.033,0.258-1.471,0.258c-0.686,0-1.352-0.086-1.999-0.258c0-0.134-0.053-0.258-0.157-0.373
		c-0.105-0.113-0.224-0.225-0.357-0.328c-0.133-0.105-0.252-0.215-0.357-0.33c-0.105-0.114-0.157-0.248-0.157-0.4
		c0-0.153,0.047-0.268,0.143-0.344s0.205-0.135,0.329-0.172c0.124-0.039,0.252-0.072,0.386-0.101
		C-462.604,417.365-462.49,417.332-462.395,417.293z M-456.654,405.953c-0.209-0.496-0.452-0.988-0.728-1.475
		c-0.276-0.487-0.576-0.969-0.9-1.447c0.286,0.555,0.581,1.107,0.886,1.662c0.304,0.515,0.59,1.04,0.856,1.574L-456.654,405.953z
		 M-452.798,412.224c-0.553,0.992-1.124,1.99-1.714,2.992c-0.59,1.003-1.333,1.952-2.228,2.85c0.914-0.859,1.671-1.789,2.271-2.792
		S-453.313,413.256-452.798,412.224z M-455.969,402.687c0.019,0.287,0.062,0.525,0.128,0.717s0.143,0.357,0.229,0.501
		c0.086,0.144,0.171,0.276,0.257,0.401c0.085,0.124,0.167,0.271,0.243,0.443l-0.057-0.086L-455.969,402.687z M-454.94,405.037
		l0.942,2.348l0.171-0.172L-454.94,405.037z M-453.77,407.328l-0.2,0.229c0.038,0.057,0.076,0.109,0.114,0.157
		s0.067,0.11,0.086,0.187l0.143-0.229L-453.77,407.328z M-453.427,406.984c0.076-0.229,0.143-0.459,0.2-0.688l0.171-0.688
		l-0.171-0.086l-0.314,1.117C-453.503,406.793-453.465,406.908-453.427,406.984z"/>
	<path fill="#103653" d="M-435.091,410.105c-0.724,0.248-1.276,0.387-1.656,0.415c-0.381,0.028-0.714,0.052-1,0.071
		c-1.067,0-2.028-0.2-2.885-0.602c-0.857-0.4-1.59-0.944-2.199-1.632s-1.081-1.493-1.414-2.42c-0.333-0.926-0.5-1.913-0.5-2.964
		c0-0.611,0.057-1.246,0.171-1.904c0.114-0.659,0.286-1.308,0.514-1.948c0.229-0.639,0.523-1.236,0.885-1.79
		c0.343-0.553,0.752-1.049,1.228-1.489c-0.495,0.401-0.914,0.878-1.256,1.432c-0.362,0.554-0.667,1.15-0.914,1.79
		c-0.248,0.64-0.428,1.298-0.542,1.976c-0.114,0.678-0.171,1.332-0.171,1.962c0,0.802,0.128,1.657,0.385,2.563
		c0.257,0.906,0.671,1.746,1.243,2.52s1.309,1.418,2.213,1.934c0.904,0.516,2.003,0.773,3.299,0.773
		c0.609,0,1.247-0.086,1.914-0.258c-0.724,0.477-1.533,0.716-2.428,0.716c-0.724,0-1.404-0.11-2.042-0.329
		c-0.638-0.221-1.228-0.525-1.771-0.917c-0.542-0.392-1.033-0.854-1.471-1.389c-0.438-0.534-0.81-1.106-1.114-1.718l0.257-0.229
		c-0.324-0.649-0.557-1.298-0.7-1.948c-0.143-0.648-0.214-1.307-0.214-1.976c0-0.974,0.138-1.909,0.415-2.806
		c0.275-0.897,0.643-1.747,1.1-2.549l0.685-0.945c0.114-0.209,0.281-0.419,0.5-0.63c0.219-0.21,0.461-0.415,0.728-0.616
		s0.547-0.382,0.843-0.544c0.295-0.162,0.576-0.31,0.842-0.444c0.686-0.344,1.371-0.654,2.057-0.931
		c0.686-0.276,1.485-0.482,2.399-0.616l-0.114-0.086c-1.752,0.172-3.237,0.597-4.456,1.274c-1.218,0.678-2.208,1.504-2.97,2.478
		s-1.313,2.038-1.656,3.193c-0.343,1.155-0.514,2.287-0.514,3.394c0,0.593,0.052,1.188,0.157,1.79
		c0.104,0.602,0.261,1.198,0.471,1.79c-0.476-1.146-0.714-2.358-0.714-3.638c0-1.26,0.209-2.51,0.628-3.751
		c0.419-1.241,1.076-2.386,1.971-3.437c1.143-1.05,2.389-1.856,3.742-2.42c1.352-0.563,2.656-0.845,3.913-0.845
		c0.4,0,0.809,0.067,1.228,0.2c0.418,0.134,0.8,0.339,1.143,0.616c0.343,0.277,0.623,0.635,0.842,1.074
		c0.219,0.439,0.329,0.974,0.329,1.604c0,0.516-0.124,1.146-0.372,1.89s-0.614,1.465-1.099,2.162
		c-0.486,0.697-1.09,1.289-1.814,1.775s-1.562,0.73-2.513,0.73h-0.942c-0.705-0.152-1.347-0.33-1.928-0.529
		c-0.581-0.201-1.128-0.358-1.643-0.473c-0.076,0.305-0.119,0.597-0.128,0.873c-0.01,0.277-0.014,0.549-0.014,0.816
		c0,0.554,0.062,1.093,0.186,1.617c0.124,0.525,0.319,1.008,0.585,1.447s0.604,0.807,1.014,1.102c0.409,0.297,0.909,0.482,1.5,0.559
		c0.361,0.077,0.675,0.12,0.942,0.129c0.266,0.01,0.49,0.02,0.671,0.029c0.181,0.01,0.314,0.038,0.4,0.086
		c0.086,0.048,0.128,0.139,0.128,0.271c-0.19,0.058-0.385,0.096-0.585,0.115c-0.2,0.02-0.405,0.028-0.614,0.028
		c-0.667,0-1.267-0.11-1.799-0.329c-0.533-0.22-0.99-0.473-1.371-0.76c0.438,0.439,0.961,0.75,1.571,0.932s1.209,0.271,1.799,0.271
		c0.324,0,0.657-0.028,1-0.086c-0.038,0.115-0.057,0.182-0.057,0.201c0,0.114,0.047,0.19,0.143,0.229
		c0.076-0.019,0.209-0.071,0.4-0.157c0.19-0.086,0.385-0.172,0.585-0.258c0.2-0.086,0.395-0.162,0.585-0.229
		c0.19-0.066,0.323-0.1,0.4-0.1c0.095,0,0.181,0.014,0.257,0.043c0.076,0.028,0.114,0.139,0.114,0.329s-0.067,0.42-0.2,0.687
		C-434.625,409.571-434.825,409.838-435.091,410.105z M-441.146,407.385c-0.133-0.152-0.267-0.305-0.4-0.459
		c-0.114-0.133-0.209-0.267-0.286-0.4C-441.66,406.85-441.432,407.136-441.146,407.385z M-440.346,400.884
		c0.038-0.038,0.062-0.095,0.071-0.172c0.009-0.076,0.014-0.134,0.014-0.172l-1.342-0.487l-0.143,0.401L-440.346,400.884z
		 M-439.032,398.764l0.628,0.115c0.209,0.038,0.4,0.057,0.571,0.057c0.19,0,0.414-0.062,0.671-0.186
		c0.257-0.124,0.514-0.301,0.771-0.53c0.257-0.229,0.485-0.516,0.686-0.859c0.2-0.344,0.347-0.735,0.442-1.174l0.057-0.171
		c-0.267,0-0.667,0.067-1.199,0.2c-0.533,0.134-1.085,0.311-1.657,0.53c-0.571,0.22-1.104,0.478-1.599,0.773
		c-0.496,0.296-0.838,0.616-1.028,0.959c0.286,0.057,0.566,0.11,0.843,0.157C-439.571,398.683-439.299,398.726-439.032,398.764z"/>
	<path fill="#103653" d="M-429.407,405.953c0-0.439,0.052-0.803,0.157-1.088c0.104-0.287,0.252-0.535,0.443-0.745
		c-0.153,0.229-0.281,0.487-0.386,0.772c-0.104,0.287-0.157,0.602-0.157,0.945v2.692l0.885,0.172c0.266,0.058,0.533,0.096,0.8,0.114
		c0.266,0.02,0.523,0.029,0.771,0.029c0.266,0,0.504-0.005,0.714-0.015c0.209-0.009,0.418-0.015,0.628-0.015l2.199,0.029
		l-2.171,0.028h-0.314c-0.171,0-0.357,0.005-0.557,0.015c-0.2,0.01-0.414,0.014-0.643,0.014c-0.209,0-0.438-0.01-0.685-0.028
		c-0.248-0.019-0.505-0.058-0.771-0.114l-0.914-0.172V405.953z M-412.985,399.452c-0.381,0.343-0.838,0.678-1.371,1.002
		c-0.534,0.325-1.085,0.626-1.657,0.902s-1.133,0.516-1.685,0.716c-0.552,0.201-1.047,0.357-1.485,0.473
		c-0.438,0.134-0.838,0.263-1.199,0.387c-0.362,0.124-0.705,0.263-1.028,0.415c-0.324,0.153-0.647,0.325-0.971,0.516
		s-0.657,0.42-1,0.687c-0.248,0.191-0.452,0.344-0.614,0.459c-0.162,0.114-0.295,0.211-0.4,0.286
		c-0.105,0.077-0.19,0.134-0.257,0.172s-0.128,0.077-0.186,0.114l1.028,0.086c0.8,0.077,1.571,0.158,2.313,0.244
		c0.742,0.086,1.494,0.176,2.256,0.271c0.323,0.039,0.514,0.063,0.571,0.072s0.114,0.014,0.171,0.014
		c1.561,0.096,2.656,0.168,3.285,0.215c0.628,0.048,0.942,0.187,0.942,0.416c0,0.076-0.01,0.124-0.029,0.143
		c-0.781-0.038-1.538-0.109-2.271-0.215c-0.733-0.104-1.595-0.176-2.584-0.215c-0.381-0.057-0.824-0.109-1.328-0.157
		c-0.505-0.048-1.028-0.086-1.571-0.114c-0.542-0.029-1.085-0.053-1.628-0.072c-0.542-0.019-1.052-0.028-1.528-0.028
		c-0.438,0-0.828,0.005-1.171,0.015s-0.619,0.033-0.829,0.071c0.514,0,1.124,0.01,1.828,0.028c0.704,0.02,1.428,0.043,2.17,0.072
		c0.743,0.028,1.471,0.066,2.185,0.114s1.328,0.11,1.842,0.187l1,0.143c0.666,0.096,1.29,0.153,1.871,0.172
		c0.581,0.02,1.214,0.067,1.899,0.143c-0.096,0.096-0.143,0.191-0.143,0.287c0,0.172,0.119,0.248,0.357,0.229
		c0.238-0.018,0.576,0,1.014,0.058c0.38,0.153,0.652,0.292,0.814,0.415c0.161,0.125,0.243,0.244,0.243,0.358
		s-0.076,0.225-0.229,0.329c-0.153,0.105-0.343,0.187-0.571,0.244l-0.714,0.199c-0.781-0.133-1.528-0.224-2.242-0.271
		c-0.714-0.047-1.5-0.119-2.356-0.215l-0.743-0.086c-0.609-0.076-1.209-0.143-1.799-0.2c-0.59-0.058-1.2-0.114-1.828-0.172
		l-3.028-0.229c-0.209-0.019-0.438-0.033-0.685-0.043c-0.248-0.009-0.505-0.014-0.771-0.014h-0.514c-0.171,0-0.353,0.01-0.543,0.028
		l-0.514,0.028v-2.205c0-0.592,0.143-1.055,0.429-1.389s0.6-0.587,0.942-0.759c0.171-0.095,0.343-0.172,0.514-0.229
		c-0.039,0-0.076,0.01-0.114,0.029c-0.286,0.096-0.567,0.234-0.843,0.415c-0.276,0.182-0.514,0.425-0.714,0.729
		c-0.2,0.307-0.3,0.707-0.3,1.203l-0.029,2.263h2.771l1.742,0.086c0.895,0.058,1.766,0.134,2.613,0.229
		c0.847,0.096,1.689,0.2,2.527,0.314l0.914,0.144c0.724,0.076,1.399,0.153,2.028,0.229s1.275,0.162,1.942,0.258
		c-0.267,0.057-0.557,0.109-0.871,0.156c-0.314,0.048-0.662,0.072-1.042,0.072c-0.362,0-0.686-0.02-0.971-0.057
		c-0.286-0.039-0.619-0.076-1-0.115l-0.914-0.115c-0.667-0.095-1.304-0.176-1.914-0.242c-0.609-0.067-1.267-0.139-1.971-0.215
		l-0.171-0.315h-2.313c-0.095,0-0.2,0.005-0.314,0.015s-0.248,0.014-0.4,0.014h-0.714c-0.248,0-0.496-0.004-0.743-0.014
		c-0.248-0.01-0.514-0.033-0.8-0.072l-0.799-0.114v-2.491c0-0.631,0.138-1.141,0.414-1.532c0.276-0.392,0.595-0.702,0.957-0.931
		c0.361-0.229,0.724-0.41,1.085-0.545c0.361-0.133,0.638-0.258,0.828-0.371l0.657-0.516c0.762-0.573,1.561-1.079,2.399-1.519
		c0.837-0.439,1.713-0.782,2.627-1.031l0.428-0.115c0.418-0.209,0.866-0.391,1.342-0.544s0.923-0.344,1.342-0.573l-0.085-0.143
		c-0.476,0.21-0.957,0.392-1.442,0.544c-0.485,0.153-0.899,0.315-1.242,0.487l-0.429,0.115c-0.952,0.268-1.861,0.63-2.728,1.088
		s-1.652,0.964-2.356,1.519l-0.571,0.486h-0.114c-0.057,0-0.133,0.02-0.229,0.057l0.286-0.143c1.028-0.878,2.032-1.561,3.013-2.047
		c0.98-0.487,1.957-0.874,2.927-1.16c0.724-0.267,1.314-0.473,1.771-0.616s0.885-0.319,1.285-0.53
		c-0.743-0.172-1.399-0.291-1.971-0.358s-1.104-0.1-1.6-0.1c-0.248,0-0.485,0.005-0.714,0.014c-0.229,0.01-0.457,0.024-0.686,0.043
		c-0.133-0.019-0.267-0.029-0.4-0.029h-0.371c-0.667,0-1.309,0.067-1.928,0.201c-0.619,0.134-1.205,0.315-1.756,0.544
		c0-0.133-0.053-0.243-0.157-0.329c-0.105-0.086-0.157-0.196-0.157-0.33c0-0.114,0.129-0.258,0.386-0.429
		c0.257-0.172,0.738-0.334,1.442-0.487l-0.057-0.287c-0.647,0.096-1.209,0.182-1.685,0.258c-0.476,0.077-0.876,0.114-1.2,0.114
		c-0.209,0-0.367-0.009-0.471-0.028c-0.105-0.019-0.176-0.086-0.214-0.201c0-0.038,0.01-0.076,0.029-0.114
		c0.019-0.038,0.028-0.076,0.028-0.115c0.381-0.382,0.847-0.72,1.399-1.017c0.552-0.296,1.167-0.544,1.842-0.745
		s1.395-0.353,2.156-0.458c0.761-0.105,1.542-0.158,2.342-0.158c0.59,0,1.252,0.048,1.985,0.143c0.732,0.096,1.546,0.22,2.442,0.373
		c0.19,0.057,0.361,0.11,0.514,0.157c0.152,0.048,0.314,0.101,0.486,0.158s0.361,0.125,0.571,0.2
		c0.209,0.077,0.466,0.172,0.771,0.287c-0.019-0.019,0.109,0.029,0.386,0.143c0.275,0.115,0.557,0.325,0.842,0.63L-412.985,399.452z
		 M-426.523,402.574l-0.6,0.4c-0.229,0.152-0.5,0.306-0.814,0.458c-0.314,0.153-0.604,0.382-0.871,0.688
		c0.361-0.534,0.8-0.931,1.314-1.188c0.514-0.258,0.914-0.425,1.199-0.502L-426.523,402.574z M-426.266,403.346
		c0.323-0.114,0.533-0.258,0.628-0.43l0.171-0.114c0.343-0.268,0.7-0.549,1.071-0.845c0.371-0.296,0.757-0.567,1.157-0.816
		c-0.533,0.268-1.019,0.597-1.457,0.987c-0.438,0.393-0.933,0.76-1.485,1.104c-0.095,0.057-0.2,0.114-0.314,0.172
		C-426.418,403.385-426.342,403.366-426.266,403.346z M-425.181,404.978c-0.267,0-0.5,0.102-0.7,0.301
		c-0.2,0.201-0.357,0.34-0.471,0.416l0.057,0.028c0.095-0.058,0.276-0.162,0.543-0.315c0.266-0.152,0.552-0.314,0.856-0.486
		s0.6-0.339,0.885-0.501c0.286-0.162,0.504-0.291,0.657-0.387c-0.096,0.058-0.233,0.129-0.414,0.215
		c-0.181,0.086-0.367,0.177-0.557,0.272c-0.19,0.096-0.367,0.186-0.528,0.271C-425.014,404.879-425.124,404.941-425.181,404.978z"/>
</g>
<path fill="#F8F9F6" d="M-400.978,409.586c26.479,0-21.27,81.961-67.025,81.023l-7.431,0.008
	c-45.343-0.762-93.294-81.031-65.669-81.031l-0.25-14.173c-8.486,0-16.589,4.034-20.219,11.067
	c-8.202,15.887,5.308,39,14.092,51.363c16.634,23.413,43.842,46.953,72.615,46.953h7.723c28.773,0,55.981-23.54,72.615-46.953
	c8.784-12.363,22.294-35.477,14.092-51.363c-3.63-7.034-11.931-11.067-20.417-11.067L-400.978,409.586z"/>
<path fill="none" stroke="#103653" stroke-width="7.2781" stroke-miterlimit="10" d="M-541.353,395.416
	c-8.486,0-16.589,4.034-20.219,11.067c-8.202,15.888,5.308,39,14.092,51.363c16.634,23.413,43.842,46.954,72.615,46.954h7.723
	c28.773,0,55.981-23.541,72.615-46.954c8.784-12.363,22.294-35.476,14.092-51.363c-3.63-7.033-11.931-11.067-20.417-11.067"/>
<path fill="none" stroke="#103653" stroke-width="7.2781" stroke-miterlimit="10" d="M-541.103,409.59
	c-27.625,0,20.326,80.27,65.669,81.03l7.431-0.008c45.756,0.938,93.504-81.022,67.025-81.022"/>
<circle fill="none" stroke="#103653" stroke-width="8" stroke-miterlimit="10" cx="-471.004" cy="399.698" r="67.667"/>
<g>
	<path opacity="0.35" fill="#F79927" enable-background="new    " d="M661.639,101.552c-85.014-36.278-168.243,46.833-249.51,46.833
		h-21.65c-81.26,0-164.495-83.112-249.504-46.833C61.185,135.597,15.596,277.645,15.596,360.37
		c0,91.361,42.57,212.386,135.935,241.671c64.465,20.225,167.473-38.093,238.948-38.093h21.65
		c71.481,0,174.484,58.317,238.948,38.093c93.372-29.285,135.937-150.31,135.937-241.671
		C787.014,277.645,741.431,135.597,661.639,101.552z M129.282,360.895c-17.835,0-32.293-14.458-32.293-32.294
		c0-17.833,14.458-32.291,32.293-32.291s32.293,14.458,32.293,32.291C161.575,346.437,147.118,360.895,129.282,360.895z
		 M401.305,534.786c-139.05,0-214.32-88.378-214.32-185.442c0-97.063,117.257-166.056,214.32-166.056
		c97.062,0,212.719,71.784,212.719,168.848S498.366,534.786,401.305,534.786z M673.328,362.218
		c-17.833,0-32.295-14.458-32.295-32.295c0-17.833,14.462-32.291,32.295-32.291c17.836,0,32.294,14.457,32.294,32.291
		C705.622,347.76,691.164,362.218,673.328,362.218z"/>
	<path fill="none" stroke="#103653" stroke-width="20.7781" stroke-miterlimit="10" d="M390.479,563.948
		c-71.475,0-174.483,58.317-238.948,38.093C58.167,572.756,15.596,451.731,15.596,360.37c0-82.725,45.589-224.772,125.379-258.817
		c85.009-36.278,168.244,46.833,249.504,46.833"/>
	<path fill="#103653" d="M129.282,370.347c-23.018,0-41.744-18.728-41.744-41.747c0-23.017,18.726-41.743,41.744-41.743
		c23.017,0,41.744,18.726,41.744,41.743C171.026,351.619,152.299,370.347,129.282,370.347z M129.282,305.761
		c-12.596,0-22.843,10.246-22.843,22.839c0,12.596,10.247,22.843,22.843,22.843c12.596,0,22.843-10.247,22.843-22.843
		C152.125,316.007,141.878,305.761,129.282,305.761z"/>
	<path fill="#103653" d="M620.205,619.288c-0.003,0-0.003,0-0.003,0c-33.825,0-72.362-11.185-109.632-22.001
		c-34.476-10.005-70.125-20.352-98.441-20.352h-21.65c-28.316,0-63.962,10.347-98.437,20.352
		c-37.27,10.816-75.807,22.001-109.636,22.001c-12.974,0-24.344-1.588-34.761-4.855C52.427,584.565,2.61,464.013,2.61,360.37
		c0-87.423,47.458-234.148,133.269-270.762c16.096-6.87,32.651-10.209,50.612-10.209c37.518,0,73.78,14.932,108.851,29.373
		c33.257,13.694,64.671,26.628,95.137,26.628h21.65c30.473,0,61.887-12.935,95.14-26.628
		c35.068-14.441,71.332-29.373,108.854-29.373c17.959,0,34.517,3.339,50.615,10.209C752.545,126.221,800,272.947,800,360.37
		c0,103.646-49.819,224.195-145.037,254.063C644.546,617.7,633.176,619.288,620.205,619.288z M390.479,550.964h21.65
		c32.011,0,69.462,10.869,105.681,21.381c35.526,10.311,72.261,20.972,102.393,20.972c10.295,0,19.125-1.198,26.987-3.663
		c49.342-15.477,79.013-57.979,95.22-90.903c20.093-40.832,31.618-91.269,31.618-138.38c0-42.055-12.154-96.684-31.726-142.569
		c-22.766-53.377-53.223-90.42-85.759-104.305c-12.813-5.468-26.032-8.124-40.421-8.124c-32.383,0-66.231,13.937-98.962,27.416
		c-34.128,14.052-69.42,28.585-105.031,28.585h-21.65c-35.605,0-70.897-14.533-105.026-28.585
		c-32.735-13.479-66.583-27.416-98.962-27.416c-14.387,0-27.609,2.656-40.417,8.124c-32.54,13.884-62.999,50.928-85.763,104.305
		C40.739,263.686,28.583,318.315,28.583,360.37c0,47.111,11.525,97.548,31.621,138.38c16.205,32.925,45.878,75.427,95.214,90.901
		c7.756,2.431,16.836,3.665,26.989,3.665c30.135,0,66.87-10.661,102.395-20.972C321.02,561.831,358.47,550.964,390.479,550.964z"/>
	<path fill="#103653" d="M667.268,370.347c-23.019,0-41.745-18.727-41.745-41.747c0-23.016,18.727-41.743,41.745-41.743
		c23.02,0,41.741,18.727,41.741,41.743C709.009,351.62,690.287,370.347,667.268,370.347z M667.268,305.761
		c-12.596,0-22.843,10.247-22.843,22.839c0,12.596,10.247,22.843,22.843,22.843c12.594,0,22.841-10.247,22.841-22.843
		C690.108,316.008,679.861,305.761,667.268,305.761z"/>
	<g>
		<path fill="#103653" stroke="#103653" stroke-width="5" stroke-miterlimit="10" d="M247.214,359.028
			c-2.405-0.866-4.9-1.422-7.49-1.67c-2.467-0.308-4.994-0.586-7.586-0.833c2.344,0.372,4.748,0.71,7.216,1.019
			c2.59,0.311,5.025,0.992,7.308,2.042c-0.249,0.248-0.495,0.464-0.741,0.648c-0.249,0.184-0.492,0.277-0.741,0.277
			c-0.862,0-1.697-0.104-2.496-0.325c-0.801-0.214-1.667-0.324-2.592-0.324v-1.111c-0.31,0.064-0.738,0.093-1.293,0.093
			c-1.542,0-3.052-0.215-4.531-0.648c-1.48-0.433-2.992-0.652-4.534-0.652c-0.802,0-1.57,0.094-2.309,0.279v0.373
			c1.971,0.123,3.987,0.322,6.057,0.601c2.065,0.279,4.175,0.634,6.333,1.066c-1.976-0.307-4.085-0.588-6.333-0.833
			c-2.252-0.247-4.365-0.372-6.336-0.372c-0.802,0-1.558,0.017-2.268,0.045c-0.71,0.033-1.4,0.08-2.08,0.141
			c0,1.297,0.031,2.813,0.094,4.542c0.058,1.73,0.185,3.419,0.368,5.057c0.185,1.637,0.401,3.075,0.647,4.312
			c0.246,1.234,0.555,2.039,0.926,2.41l0.832,1.668c0.74,2.292,3.206,3.435,7.401,3.435c0.923,0,2.034-0.125,3.328-0.372
			c1.293-0.248,2.602-0.542,3.931-0.882c1.324-0.339,2.587-0.633,3.792-0.881c1.2-0.248,2.235-0.371,3.097-0.371
			c0.865,0,1.357,0.123,1.481,0.371c0.122,0.248,0.185,0.59,0.185,1.021c-2.589,0.31-5.087,0.774-7.492,1.39
			c-2.098,0.556-4.131,0.99-6.105,1.299c1.974-0.309,3.977-0.68,6.014-1.113c2.404-0.557,4.837-0.988,7.308-1.299
			c-0.125,0.369-0.188,0.62-0.188,0.742c0,0.37,0.155,0.681,0.464,0.926l1.294-0.184c0.37-0.062,0.74-0.108,1.113-0.14
			c0.37-0.029,0.705-0.108,1.014-0.232c1.111,0.311,1.895,0.649,2.359,1.022c0.461,0.37,0.692,0.771,0.692,1.205
			c0,0.802-0.385,1.361-1.156,1.669c-0.772,0.308-1.494,0.802-2.174,1.482h-0.365c-1.793,0-3.52,0.141-5.184,0.417
			c-1.664,0.278-3.313,0.572-4.945,0.882c-1.634,0.311-3.3,0.604-4.998,0.881c-1.694,0.278-3.436,0.417-5.225,0.417h-1.294h-0.552
			c1.169,0.125,2.435,0.186,3.789,0.186c1.727,0,3.343-0.093,4.854-0.279c1.512-0.187,2.975-0.402,4.396-0.649
			c1.417-0.246,2.788-0.465,4.117-0.649c1.323-0.187,2.666-0.28,4.022-0.28c-0.989,0.496-2.191,0.976-3.606,1.439
			c-1.42,0.463-2.993,0.867-4.718,1.208c-1.728,0.337-3.515,0.616-5.361,0.83c-1.853,0.218-3.673,0.326-5.458,0.326
			c-1.238,0-2.435-0.063-3.61-0.187c-1.169-0.124-2.437-0.525-3.789-1.205l-0.094-1.021c-0.867-0.307-1.776-0.878-2.729-1.717
			c-0.957-0.83-1.834-1.713-2.638-2.639c-0.801-0.929-1.477-1.795-2.034-2.597c-0.553-0.803-0.83-1.331-0.83-1.576l-0.276-0.834
			c-0.555-1.175-1.005-2.475-1.345-3.896c-0.337-1.423-0.598-2.859-0.786-4.313c-0.183-1.453-0.34-2.887-0.461-4.311
			c-0.122-1.423-0.213-2.75-0.279-3.989c-0.122-2.039-0.213-4.094-0.273-6.167c-0.062-2.069-0.097-4.157-0.097-6.258
			c0-2.102,0.016-4.22,0.051-6.352c0.03-2.133,0.045-4.282,0.045-6.448h-0.28c-0.309,2.351-0.476,4.608-0.507,6.769
			c-0.034,2.168-0.048,4.331-0.048,6.494v3.617c0,4.329,0.231,8.841,0.692,13.54c0.467,4.701,1.652,9.272,3.563,13.726
			c-1.418-2.41-2.313-4.807-2.681-7.189c-0.37-2.38-0.709-4.589-1.02-6.628c-0.37-2.657-0.633-5.224-0.786-7.698
			c-0.154-2.472-0.23-5.008-0.23-7.604v-1.948c0-3.585,0.09-7.234,0.276-10.943c0.185-3.71,0.74-7.636,1.664-11.778
			c-0.371,0-0.555-0.185-0.555-0.557c0-0.37,0.2-0.896,0.606-1.576c0.4-0.681,0.905-1.345,1.524-1.994
			c0.614-0.65,1.309-1.206,2.08-1.67c0.771-0.464,1.525-0.694,2.266-0.694h22.013c2.281,0.433,4.515,0.787,6.704,1.066
			c2.187,0.279,4.485,0.481,6.892,0.601l-0.094,2.134c0,0.372-0.17,0.665-0.507,0.882c-0.34,0.217-1.096,0.324-2.263,0.324
			c-0.37,0-0.821-0.014-1.343-0.045c-0.522-0.03-1.097-0.078-1.71-0.14v0.834c2.525,0.556,4.515,1.238,5.963,2.04
			c1.448,0.806,2.174,1.577,2.174,2.32c0,0.864-0.819,1.39-2.451,1.575c-1.633,0.185-3.809,0.276-6.521,0.276
			c-3.452,0-7.134-0.012-11.053-0.042c-3.914-0.033-7.69-0.203-11.328-0.513h-1.573c-0.311,2.353-0.525,4.762-0.647,7.234
			c-0.124,2.474-0.218,5.009-0.276,7.606c0.984,0,1.955-0.047,2.91-0.142c0.958-0.091,1.958-0.138,3.008-0.138
			c0.862,0,1.864,0.08,3.003,0.233c1.141,0.154,2.343,0.355,3.612,0.601c1.258,0.25,2.526,0.545,3.792,0.882
			c1.261,0.341,2.417,0.696,3.467,1.067c0.183,0.063,0.401,0.093,0.647,0.093h1.57c0.801,0,1.344,0.124,1.618,0.372
			c0.28,0.247,0.418,0.742,0.418,1.482c-1.047,0-2.036-0.059-2.959-0.185c-0.926-0.123-1.819-0.246-2.681-0.37
			c0.862,0.31,1.755,0.542,2.681,0.693c0.923,0.156,1.912,0.295,2.959,0.42c-0.124,0.309-0.2,0.586-0.23,0.834
			c-0.033,0.248-0.045,0.462-0.045,0.65c0.613,0.125,1.03,0.417,1.248,0.879c0.216,0.466,0.325,0.975,0.325,1.533
			c0,0.801-0.172,1.436-0.51,1.9C247.384,358.424,247.214,358.781,247.214,359.028z M214.659,369.507
			c0.247,1.484,0.541,3.075,0.88,4.777c0.337,1.7,0.862,3.369,1.572,5.006c0.708,1.638,1.68,3.17,2.912,4.592
			c0.986,1.172,2.28,2.165,3.883,2.965c-1.849-0.988-3.361-2.346-4.533-4.078c-1.355-2.103-2.42-4.452-3.188-7.048
			c-0.771-2.597-1.342-5.349-1.712-8.254c-0.31-2.907-0.553-5.688-0.74-8.347c0.061,1.67,0.155,3.371,0.278,5.102
			C214.134,365.952,214.352,367.715,214.659,369.507z M222.152,388.612c-0.805-0.373-1.512-0.804-2.128-1.3
			c-0.431-0.371-0.832-0.74-1.202-1.11c0.37,0.37,0.801,0.708,1.293,1.019C220.795,387.714,221.473,388.18,222.152,388.612z
			 M237.319,350.588c1.048,0.187,2.159,0.343,3.331,0.465c-1.111-0.31-2.161-0.539-3.145-0.695c-0.99-0.155-1.976-0.356-2.958-0.604
			C235.344,350.126,236.269,350.403,237.319,350.588z"/>
		<path fill="#103653" stroke="#103653" stroke-width="5" stroke-miterlimit="10" d="M264.137,383.231
			c0-0.309,0.097-0.678,0.279-1.111c0.186-0.433,0.279-0.896,0.279-1.391c0.184-1.483,0.305-2.55,0.37-3.198
			c0.062-0.65,0.092-1.221,0.092-1.719c0-2.595-0.079-5.392-0.23-8.393c-0.155-2.998-0.325-5.889-0.51-8.669
			c0-0.867-0.015-1.887-0.045-3.062c-0.031-1.173-0.109-2.1-0.233-2.781c0.188-2.165,0.34-4.297,0.464-6.397
			c0.124-2.104,0.185-4.237,0.185-6.4v-2.319c0-0.801-0.031-1.608-0.092-2.41c0.184,0.184,0.37,0.278,0.553,0.278
			c0.249,0,0.509-0.095,0.786-0.278c0.279-0.187,0.538-0.277,0.787-0.277c0.431,0,0.786,0.46,1.064,1.389
			c0.279,0.928,0.416,2.968,0.416,6.121h0.832c0.31-3.46,0.786-6.213,1.433-8.256c0.647-2.039,1.312-3.059,1.986-3.059
			c0.31,0,0.802,0.666,1.482,1.994c0.679,1.33,1.019,3.417,1.019,6.26l1.015-1.669c0.68-0.802,1.435-1.636,2.268-2.502
			c0.832-0.867,1.77-1.639,2.82-2.319c1.045-0.679,2.222-1.251,3.516-1.717c1.293-0.463,2.775-0.695,4.438-0.695
			c3.206,0,5.996,0.728,8.37,2.181c2.374,1.452,4.362,3.336,5.966,5.655c1.602,2.32,2.911,4.946,3.931,7.884
			c1.014,2.935,1.803,5.903,2.358,8.9c0.553,3.002,0.924,5.89,1.11,8.672c0.183,2.785,0.274,5.163,0.274,7.141
			c0,1.797-0.106,2.862-0.322,3.201c-0.218,0.339-0.601,0.539-1.156,0.603c-0.125-4.761-0.434-9.613-0.925-14.56
			c-0.493-4.946-1.665-9.739-3.513-14.375c1.661,4.887,2.727,9.69,3.188,14.42c0.466,4.729,0.695,9.475,0.695,14.236
			c-0.37-0.184-0.71-0.278-1.015-0.278c-0.249,0-0.467,0.094-0.649,0.278c0,0.496,0.031,1.019,0.091,1.578
			c0.061,0.493,0.106,0.989,0.142,1.48c0.028,0.498,0.046,0.961,0.046,1.394c-0.37,1.423-0.741,2.441-1.111,3.061
			c-0.371,0.618-0.71,0.929-1.017,0.929c-0.37,0-0.683-0.169-0.926-0.515c-0.246-0.336-0.479-0.754-0.695-1.249
			c-0.213-0.494-0.431-1.035-0.647-1.625c-0.215-0.586-0.507-1.157-0.877-1.715c0.124-1.048,0.213-1.899,0.276-2.55
			c0.061-0.65,0.094-1.19,0.094-1.624c0-1.669-0.033-3.677-0.094-6.025c-0.063-2.352-0.23-4.809-0.507-7.375
			c-0.278-2.565-0.71-5.131-1.293-7.698c-0.588-2.563-1.39-4.851-2.407-6.862c-1.017-2.007-2.298-3.646-3.837-4.916
			c-1.542-1.266-3.392-1.9-5.55-1.9c-1.481,0-2.791,0.495-3.931,1.484c-1.142,0.989-2.125,2.256-2.958,3.803
			c-0.832,1.544-1.56,3.232-2.176,5.054c-0.614,1.822-1.109,3.57-1.479,5.238c0.556-1.729,1.124-3.49,1.712-5.284
			c0.583-1.793,1.293-3.433,2.125-4.914c0.835-1.485,1.803-2.706,2.915-3.665c1.108-0.959,2.407-1.437,3.883-1.437
			c1.913,0,3.562,0.525,4.951,1.577c1.385,1.052,2.556,2.412,3.516,4.08c0.953,1.67,1.722,3.573,2.308,5.706
			c0.585,2.132,1.035,4.297,1.342,6.49c0.309,2.197,0.509,4.332,0.601,6.399c0.094,2.073,0.14,3.847,0.14,5.332
			c0,1.177-0.016,2.35-0.046,3.524c-0.034,1.174-0.079,2.381-0.14,3.618c-0.555-2.351-0.969-4.806-1.248-7.373
			c-0.276-2.564-0.571-5.101-0.878-7.604c-0.309-2.506-0.694-4.916-1.159-7.234c-0.462-2.321-1.126-4.468-1.986-6.447l0.646-0.925
			c-0.616-1.421-1.311-2.521-2.082-3.295c-0.771-0.77-1.527-1.342-2.265-1.713c-0.74-0.373-1.418-0.587-2.035-0.65
			c-0.618-0.062-1.017-0.094-1.202-0.094c-1.542,0-2.911,0.557-4.116,1.669c-1.203,1.112-2.253,2.614-3.146,4.497
			c-0.892,1.887-1.679,4.066-2.358,6.539c-0.68,2.473-1.263,5.07-1.755,7.789c-0.494,2.723-0.923,5.458-1.293,8.209
			c-0.37,2.751-0.682,5.33-0.928,7.742h0.832c0.31-2.101,0.634-4.419,0.974-6.955c0.337-2.536,0.706-5.114,1.108-7.744
			c0.398-2.625,0.88-5.178,1.436-7.651c0.555-2.471,1.215-4.697,1.985-6.676c0.771-1.977,1.68-3.584,2.73-4.822
			c0.983-1.174,2.188-1.854,3.606-2.04c-1.357,0.31-2.496,1.175-3.421,2.596c-0.987,1.485-1.849,3.309-2.59,5.472
			s-1.405,4.529-1.988,7.093c-0.586,2.567-1.126,5.025-1.619,7.375l-1.852,13.539c-0.246,0.866-0.429,1.638-0.553,2.319
			l-0.371,1.948c-0.124,0.618-0.249,1.283-0.37,1.993c-0.122,0.71-0.28,1.529-0.462,2.458l-0.279,1.112h-0.556l-9.339-3.153
			c-0.31-0.06-0.541-0.154-0.695-0.277C264.491,383.572,264.324,383.418,264.137,383.231z M280.232,335.659
			c-1.235,1.05-2.207,2.179-2.914,3.384c-0.71,1.207-1.373,2.427-1.988,3.665v0.092c0.862-1.792,2.064-3.619,3.606-5.473
			c1.482-1.729,3.452-3.027,5.92-3.894c-0.804,0.249-1.572,0.496-2.311,0.74C281.678,334.485,280.91,334.979,280.232,335.659z
			 M293.828,343.17c-0.495-0.37-1.065-0.664-1.712-0.882c-0.647-0.215-1.433-0.508-2.356-0.878l-0.094-0.187
			c1.048,0.062,1.973,0.295,2.772,0.695c0.802,0.401,1.573,1.099,2.313,2.085L293.828,343.17z M291.332,332.597
			c-0.312-0.058-0.741-0.093-1.299-0.093c1.976,0.498,3.825,1.038,5.549,1.623c1.728,0.588,3.361,1.748,4.903,3.479
			c-1.048-1.423-2.417-2.535-4.114-3.338C294.675,333.465,292.996,332.906,291.332,332.597z M300.671,337.791
			c0.862,1.053,1.664,2.258,2.405,3.619c0.74,1.358,1.387,2.564,1.942,3.614c-0.616-1.421-1.202-2.719-1.76-3.894
			C302.705,339.957,301.842,338.844,300.671,337.791z"/>
		<path fill="#103653" stroke="#103653" stroke-width="5" stroke-miterlimit="10" d="M331.285,389.26
			c-1.42-5.563-2.902-10.957-4.439-16.183c-1.542-5.224-3.145-10.495-4.809-15.811c-0.804-2.472-1.481-4.899-2.036-7.281
			c-0.554-2.379-1.357-4.775-2.405-7.186c0.434-0.125,0.789-0.356,1.063-0.697c0.278-0.34,0.634-0.51,1.065-0.51
			c0.307,0,0.601,0.187,0.878,0.557c0.276,0.372,0.524,0.789,0.74,1.253c0.216,0.462,0.417,0.94,0.6,1.436
			c0.187,0.495,0.309,0.834,0.37,1.019l1.111-0.276c-0.248-0.991-0.446-1.965-0.599-2.922c-0.157-0.958-0.233-1.932-0.233-2.922
			c0-0.371,0.046-0.942,0.137-1.715c0.096-0.772,0.447-1.159,1.065-1.159c0.923,0,1.943,0.851,3.054,2.55
			c1.109,1.701,2.202,3.88,3.282,6.538c1.078,2.658,2.141,5.581,3.191,8.763c1.047,3.188,2.004,6.261,2.869,9.228
			c0.86,2.967,1.616,5.625,2.265,7.976c0.645,2.352,1.091,4.018,1.339,5.007c1.603-2.038,3.023-4.171,4.256-6.396
			c1.233-2.227,2.448-4.466,3.653-6.725c1.202-2.256,2.462-4.48,3.792-6.677c1.324-2.192,2.88-4.281,4.669-6.259
			c0.431-0.495,1.093-1.301,1.991-2.412c0.895-1.113,1.846-2.24,2.863-3.384c1.022-1.144,2.019-2.15,3.005-3.017
			c0.987-0.864,1.791-1.295,2.408-1.295c0.307,0,0.585,0.217,0.831,0.65c-2.344,2.35-4.667,4.699-6.982,7.046
			c-2.314,2.352-4.333,5.006-6.06,7.975c1.791-2.842,3.84-5.426,6.156-7.743c2.308-2.317,4.7-4.557,7.163-6.723l0.832,1.112
			c0.37-0.556,1.047-1.174,2.032-1.854c0.989-0.681,1.826-1.023,2.5-1.023c0.494,0,0.863,0.156,1.113,0.466
			c0.244,0.311,0.365,0.713,0.365,1.205c0,0.434-0.063,0.991-0.184,1.671c-0.123,0.679-0.307,1.174-0.553,1.482
			c-0.31,0.434-0.68,0.804-1.108,1.114c-2.037,1.854-3.965,3.57-5.78,5.147c-1.821,1.577-3.53,3.51-5.134,5.797l0.647-0.651
			c1.667-1.978,3.343-3.738,5.042-5.285c1.693-1.545,3.618-3.029,5.778-4.45c-1.175,1.979-2.517,3.663-4.025,5.051
			c-1.511,1.393-3.034,2.956-4.577,4.685c-0.737,0.868-1.372,1.81-1.892,2.83c-0.524,1.02-1.192,1.933-1.996,2.734l-0.823-0.279
			c-1.176,2.537-2.393,5.119-3.658,7.747c-1.264,2.626-2.638,5.19-4.114,7.698c-1.479,2.5-3.13,4.868-4.949,7.094
			c-1.818,2.223-3.873,4.171-6.151,5.841c-0.183,0.369-0.571,0.695-1.156,0.973c-0.586,0.28-1.032,0.51-1.339,0.697l-5.829-2.598
			c-0.431-1.421-0.908-2.935-1.433-4.542c-0.525-1.607-1.032-3.124-1.524-4.544l-0.464,0.092l2.498,8.994
			c0.061,0.062,0.167,0.125,0.323,0.185c0.154,0.063,0.463,0.202,0.925,0.418c0.461,0.217,1.169,0.525,2.125,0.928
			c0.958,0.401,2.267,0.941,3.931,1.622c2.465-1.483,4.56-3.092,6.29-4.823c1.664-1.668,3.268-3.645,4.806-5.933
			c-0.676,1.173-1.385,2.255-2.125,3.244c-0.74,1.051-1.542,2.039-2.402,2.968c-0.867,0.928-1.821,1.809-2.869,2.644
			c-1.05,0.834-2.251,1.622-3.609,2.363L331.285,389.26z M348.489,366.816c1.847-3.523,3.756-6.983,5.73-10.386
			c-2.156,3.339-4.131,6.741-5.919,10.204c-1.786,3.401-3.729,6.707-5.824,9.925C344.692,373.463,346.698,370.219,348.489,366.816z
			 M344.23,385.643c2.96-3.337,5.504-6.861,7.633-10.571c2.127-3.711,4.022-7.513,5.688-11.408v-0.185
			c-1.049,1.855-2.08,3.756-3.099,5.704c-1.017,1.945-2.049,3.864-3.1,5.749c-1.049,1.887-2.156,3.742-3.328,5.563
			C346.851,382.321,345.59,384.036,344.23,385.643z M350.336,381.192c-0.125,0.125-0.215,0.248-0.28,0.373
			C350.121,381.44,350.211,381.317,350.336,381.192z M350.524,380.915c0.981-1.607,1.907-3.249,2.771-4.915
			c0.063-0.063,0.125-0.123,0.183-0.188c-0.058,0.065-0.088,0.124-0.088,0.188C352.521,377.666,351.569,379.307,350.524,380.915z
			 M353.854,374.979c-0.063,0.184-0.157,0.371-0.279,0.555C353.697,375.35,353.791,375.163,353.854,374.979z M355.423,372.012
			c-0.25,0.496-0.497,0.99-0.738,1.482C354.927,373.002,355.173,372.508,355.423,372.012z M361.252,357.637
			c-0.622,0.865-1.19,1.716-1.714,2.549c-0.523,0.837-1.03,1.656-1.524,2.459c0.552-0.803,1.202-1.59,1.939-2.366
			C360.694,359.509,361.126,358.628,361.252,357.637z"/>
		<path fill="#103653" stroke="#103653" stroke-width="5" stroke-miterlimit="10" d="M397.411,333.339
			c0.061,0.309,0.404,0.465,1.018,0.465h0.185c0.373,0,0.617,0.032,0.738,0.091c3.208,0.991,6.4,2.429,9.579,4.312
			c3.172,1.889,6.038,4.146,8.602,6.771c2.553,2.629,4.621,5.61,6.189,8.952c1.577,3.337,2.361,6.924,2.361,10.756
			c0,3.339-0.646,6.554-1.944,9.645c-1.291,3.092-3.082,5.78-5.363,8.066c2.345-2.039,4.211-4.591,5.596-7.65
			c1.388-3.058,2.082-6.352,2.082-9.876c0-3.956-0.834-7.649-2.498-11.081c-1.662-3.432-3.792-6.507-6.379-9.228
			c-2.592-2.722-5.474-5.055-8.646-7.001c-3.179-1.95-6.275-3.448-9.296-4.499c2.344,0,4.727,0.526,7.167,1.576
			c2.433,1.052,4.761,2.428,6.982,4.127c2.218,1.701,4.264,3.648,6.151,5.842c1.875,2.195,3.462,4.437,4.76,6.723l-0.649,0.929
			c1.236,1.854,2.174,3.862,2.824,6.027c0.646,2.164,0.968,4.39,0.968,6.676c0,4.392-0.938,8.24-2.819,11.546
			c-1.883,3.31-4.251,6.062-7.123,8.254c-2.866,2.194-6.009,3.85-9.433,4.964c-3.418,1.112-6.644,1.668-9.666,1.668
			c-1.722,0-3.468-0.187-5.223-0.557c-1.761-0.373-3.536-0.991-5.315-1.855v0.557c1.719,0.989,3.497,1.668,5.315,2.039
			c1.818,0.371,3.622,0.556,5.413,0.556c4.442,0,8.799-0.973,13.085-2.921c4.281-1.946,7.906-4.682,10.868-8.206
			c-2.838,3.646-6.368,6.49-10.588,8.532c-4.227,2.039-8.622,3.06-13.185,3.06c-4.685,0-8.476-0.911-11.374-2.735
			c-2.899-1.824-5.167-4.067-6.795-6.724c-1.635-2.658-2.733-5.474-3.283-8.441c-0.554-2.964-0.835-5.624-0.835-7.972
			c0-3.155,0.416-6.244,1.248-9.275c0.835-3.029,2.111-5.811,3.841-8.347c1.725-2.535,3.946-4.713,6.655-6.538
			c2.716-1.823,5.983-3.107,9.806-3.848l-2.679-0.65c-1.296-0.309-2.221-0.677-2.78-1.111c-0.552-0.433-0.826-0.804-0.826-1.113
			c0-0.495,0.538-1.036,1.616-1.626C394.837,333.634,396.054,333.339,397.411,333.339z M393.246,345.023
			c1.665-0.617,3.272-0.925,4.815-0.925c1.536,0,2.726,0.23,3.56,0.695c0.83,0.463,1.246,0.942,1.246,1.437
			c0,0.31-0.353,0.648-1.063,1.021c-0.711,0.369-1.604,0.88-2.682,1.529c-1.078,0.649-2.249,1.469-3.515,2.458
			c-1.264,0.989-2.435,2.242-3.516,3.755c-1.078,1.517-1.973,3.354-2.683,5.516c-0.706,2.166-1.061,4.702-1.061,7.604
			c0,4.268,0.954,7.483,2.868,9.647c1.911,2.166,4.563,3.246,7.95,3.246c2.158,0,4.366-0.373,6.617-1.112
			c2.247-0.743,4.281-1.795,6.103-3.154c1.817-1.357,3.296-3.03,4.439-5.006c1.141-1.98,1.709-4.206,1.709-6.679
			c0-1.855-0.319-3.709-0.969-5.565c-0.652-1.854-1.542-3.632-2.684-5.333c-1.139-1.699-2.496-3.291-4.067-4.774
			c-1.573-1.485-3.286-2.752-5.135-3.802c-1.785-0.991-3.252-1.745-4.393-2.273c-1.14-0.525-1.958-1.036-2.451-1.529
			c-0.497,0.247-1.188,0.54-2.082,0.88c-0.896,0.34-2.079,0.851-3.559,1.529L393.246,345.023z M399.445,339.181l-0.832-0.369
			c-0.061,0.123-0.154,0.246-0.277,0.369c-0.124,0.125-0.182,0.249-0.182,0.372c0,0.124,0.073,0.295,0.228,0.511
			c0.151,0.216,0.293,0.384,0.414,0.51L399.445,339.181z M399.445,340.666c2.836,0.927,5.546,2.318,8.143,4.173
			c2.219,1.671,4.25,3.492,6.102,5.471c-1.79-2.099-3.733-3.987-5.826-5.656c-2.406-1.978-5.088-3.523-8.049-4.637L399.445,340.666z
			 M417.388,372.29c-0.926,1.98-2.217,3.741-3.887,5.286c1.115-0.744,2.053-1.639,2.824-2.688c0.769-1.051,1.404-2.102,1.893-3.152
			c0.491-1.054,0.866-2.01,1.115-2.877c0.181-0.805,0.335-1.45,0.461-1.948C419.114,368.518,418.315,370.312,417.388,372.29z
			 M414.243,350.959c-0.186-0.247-0.369-0.462-0.554-0.65C413.874,350.559,414.058,350.775,414.243,350.959z M423.584,380.267
			c-0.061,0.121-0.151,0.246-0.279,0.368c-0.061,0.063-0.118,0.094-0.18,0.094c-0.063,0,0.089-0.323,0.459-0.975
			c0.37-0.648,0.819-1.421,1.341-2.319c0.523-0.896,1.033-1.838,1.527-2.827c0.432-0.741,0.741-1.391,0.924-1.948
			C426.511,375.319,425.253,377.855,423.584,380.267z M427.376,372.66c0.063-0.124,0.091-0.248,0.091-0.371
			C427.467,372.413,427.439,372.536,427.376,372.66z M428.764,365.242c0,0.989-0.063,1.965-0.186,2.921
			c-0.121,0.958-0.338,1.838-0.645,2.643c0.43-1.546,0.645-3.277,0.645-5.192c0-1.423-0.121-2.814-0.371-4.175
			c-0.184-1.174-0.433-2.319-0.74-3.432c0.308,1.113,0.587,2.227,0.833,3.339C428.61,362.583,428.764,363.883,428.764,365.242z
			 M427.558,372.103c-0.055,0.064-0.091,0.125-0.091,0.187C427.467,372.228,427.503,372.167,427.558,372.103z"/>
		<path fill="#103653" stroke="#103653" stroke-width="5" stroke-miterlimit="10" d="M435.145,414.114
			c0.492,0.495,1.339,0.88,2.544,1.159c1.203,0.278,2.354,0.418,3.473,0.418c2.026,0,3.972-0.666,5.821-1.994
			c1.852-1.329,3.621-3.139,5.321-5.426c1.697-2.289,3.312-4.913,4.854-7.882c1.538-2.969,3.02-6.09,4.438-9.366h-0.089
			c-1.239,2.719-2.562,5.517-3.979,8.392c-1.421,2.873-2.962,5.503-4.623,7.881c-1.666,2.381-3.467,4.33-5.415,5.845
			c-1.94,1.514-4.02,2.271-6.24,2.271c-1.79,0-3.548-0.527-5.27-1.576c0.92-0.309,1.785-0.464,2.588-0.464
			c0.244,0,0.675,0.062,1.292,0.187c0.987,0,1.819-0.031,2.501-0.094c0.675-0.063,1.318-0.201,1.943-0.415
			c0.612-0.219,1.202-0.559,1.756-1.021c0.554-0.465,1.171-1.068,1.849-1.808l1.108,0.277c1.79-2.353,3.473-4.887,5.045-7.606
			c1.57-2.721,3.125-5.472,4.667-8.254l1.664-3.71l-0.83-0.184l-1.39,3.338c-1.418,2.781-2.897,5.519-4.438,8.206
			c-1.541,2.692-3.298,5.148-5.271,7.375c2.155-2.661,4.129-5.628,5.921-8.903c1.781-3.279,3.425-6.678,4.9-10.201l-0.557-0.929
			c-0.307-1.421-0.771-2.813-1.385-4.174c-0.437-1.048-0.927-2.13-1.481-3.245c1.108,2.661,1.882,5.227,2.311,7.698
			c-0.616-0.184-1.124-0.574-1.523-1.16c-0.402-0.587-0.772-1.281-1.112-2.086c-0.338-0.804-0.648-1.637-0.925-2.501
			c-0.274-0.87-0.633-1.731-1.063-2.598l0.465-0.835c-0.986-1.545-2.053-3.463-3.188-5.75c-1.146-2.287-2.35-4.636-3.608-7.047
			c-1.267-2.413-2.548-4.761-3.84-7.047c-1.298-2.292-2.559-4.204-3.793-5.753l-0.276,0.279l11.561,20.867
			c-2.347-3.957-4.842-7.976-7.491-12.056c-2.651-4.082-5.028-8.594-7.119-13.542c0-0.431-0.063-1.002-0.189-1.714
			c-0.12-0.708-0.259-1.451-0.414-2.228c-0.154-0.769-0.322-1.543-0.51-2.316c-0.183-0.771-0.367-1.469-0.553-2.087l2.404-0.742
			c0.305,0,0.584,0.139,0.83,0.416c0.248,0.279,0.458,0.853,0.648,1.716c0.307,0,0.584-0.246,0.833-0.741
			c0.248-0.494,0.507-1.051,0.787-1.669c0.274-0.616,0.585-1.173,0.925-1.667c0.335-0.494,0.783-0.744,1.341-0.744
			c0.797,0,1.522,0.542,2.169,1.623c0.65,1.083,1.269,2.396,1.856,3.942c0.581,1.547,1.212,3.17,1.89,4.869
			c0.683,1.699,1.481,3.168,2.407,4.404c0.987,1.67,1.988,3.309,3.006,4.915c1.02,1.608,1.955,3.308,2.82,5.103
			c0.923,2.472,2.125,4.962,3.604,7.463c1.481,2.505,2.649,5.116,3.519,7.837c1.479-4.947,2.665-9.352,3.559-13.217
			c0.893-3.861,1.589-7.709,2.081-11.543c0.678-1.979,1.266-4.205,1.759-6.679c0.493-2.472,0.74-4.883,0.74-7.231l2.035,0.091
			c0.306,0,0.584,0.138,0.828,0.416c0.252,0.28,0.37,0.943,0.37,1.995c0,0.309-0.012,0.634-0.045,0.974
			c-0.031,0.341-0.073,0.758-0.14,1.251h0.835c0.557-2.04,1.201-3.678,1.942-4.917c0.741-1.234,1.448-1.854,2.128-1.854
			c0.491,0,0.972,0.527,1.433,1.576c0.46,1.054,0.696,2.814,0.696,5.288c0,4.143-0.501,8.623-1.48,13.446
			c-0.987,4.824-2.008,9.585-3.056,14.281c-1.725,6.308-3.759,12.367-6.103,18.177c-2.346,5.813-5.304,11.715-8.88,17.713
			c-1.105,1.671-2.356,3.416-3.744,5.241c-1.387,1.823-2.992,3.477-4.809,4.961c-1.821,1.483-3.886,2.704-6.198,3.662
			c-2.316,0.959-4.946,1.439-7.906,1.439c-2.158,0-3.625-0.279-4.396-0.837c-0.769-0.557-1.157-0.987-1.157-1.298
			c0-0.184,0.063-0.402,0.188-0.647c1.849,0.616,3.822,0.926,5.919,0.926c1.479,0,3.191-0.264,5.131-0.786
			c1.943-0.528,3.686-1.315,5.226-2.367c-1.418,0.743-3.005,1.392-4.763,1.947c-1.755,0.558-3.344,0.837-4.761,0.837
			c-2.221,0-4.379-0.279-6.474-0.837c0-0.432-0.17-0.834-0.511-1.204c-0.34-0.371-0.724-0.729-1.155-1.065
			c-0.432-0.341-0.817-0.698-1.154-1.067c-0.337-0.37-0.51-0.805-0.51-1.3c0-0.497,0.151-0.866,0.459-1.112
			c0.314-0.247,0.665-0.436,1.063-0.555c0.402-0.126,0.816-0.233,1.253-0.328C434.468,414.346,434.833,414.238,435.145,414.114z
			 M453.734,377.391c-0.678-1.607-1.465-3.201-2.359-4.777c-0.896-1.576-1.864-3.137-2.911-4.682
			c0.925,1.793,1.879,3.584,2.866,5.377c0.986,1.67,1.908,3.37,2.776,5.1L453.734,377.391z M466.221,397.702
			c-1.791,3.21-3.64,6.443-5.551,9.688c-1.908,3.247-4.313,6.32-7.212,9.229c2.959-2.784,5.412-5.797,7.352-9.046
			C462.754,404.328,464.555,401.038,466.221,397.702z M455.953,366.816c0.063,0.931,0.203,1.702,0.416,2.318
			c0.212,0.62,0.464,1.162,0.743,1.625c0.274,0.462,0.553,0.897,0.832,1.299c0.277,0.402,0.541,0.879,0.784,1.436l-0.184-0.277
			L455.953,366.816z M459.285,374.425l3.05,7.604l0.556-0.559L459.285,374.425z M463.075,381.842l-0.647,0.741
			c0.123,0.187,0.247,0.356,0.369,0.51c0.126,0.152,0.218,0.356,0.278,0.604l0.462-0.743L463.075,381.842z M464.187,380.729
			c0.243-0.74,0.462-1.483,0.644-2.226l0.562-2.226L464.83,376l-1.015,3.617C463.944,380.11,464.06,380.483,464.187,380.729z"/>
		<path fill="#103653" stroke="#103653" stroke-width="5" stroke-miterlimit="10" d="M523.561,390.838
			c-2.342,0.802-4.132,1.249-5.361,1.343c-1.238,0.092-2.314,0.168-3.233,0.234c-3.458,0-6.567-0.65-9.346-1.95
			c-2.773-1.298-5.148-3.058-7.119-5.285c-1.976-2.226-3.503-4.835-4.581-7.835c-1.08-2.999-1.618-6.196-1.618-9.597
			c0-1.981,0.186-4.036,0.557-6.17c0.367-2.134,0.922-4.232,1.665-6.307c0.739-2.068,1.691-4,2.861-5.796
			c1.116-1.791,2.438-3.397,3.978-4.821c-1.603,1.299-2.954,2.844-4.066,4.638c-1.172,1.794-2.16,3.725-2.96,5.797
			c-0.801,2.071-1.387,4.204-1.754,6.398c-0.371,2.195-0.561,4.311-0.561,6.353c0,2.598,0.42,5.364,1.253,8.3
			c0.828,2.936,2.17,5.656,4.021,8.161c1.85,2.504,4.238,4.591,7.165,6.26c2.931,1.667,6.491,2.503,10.687,2.503
			c1.971,0,4.033-0.279,6.194-0.836c-2.342,1.545-4.961,2.321-7.861,2.321c-2.343,0-4.542-0.356-6.614-1.067
			c-2.065-0.711-3.975-1.704-5.731-2.969c-1.753-1.268-3.343-2.766-4.762-4.496c-1.423-1.73-2.626-3.584-3.611-5.567l0.834-0.739
			c-1.045-2.101-1.801-4.203-2.268-6.308c-0.459-2.101-0.691-4.234-0.691-6.4c0-3.152,0.448-6.178,1.338-9.085
			c0.894-2.907,2.085-5.657,3.566-8.254l2.22-3.061c0.365-0.678,0.905-1.358,1.621-2.039c0.704-0.681,1.491-1.344,2.351-1.995
			c0.863-0.649,1.775-1.237,2.729-1.761c0.957-0.526,1.864-1.006,2.728-1.438c2.219-1.113,4.44-2.117,6.658-3.016
			c2.222-0.893,4.813-1.56,7.774-1.994l-0.37-0.278c-5.675,0.558-10.486,1.935-14.429,4.127c-3.946,2.198-7.154,4.871-9.622,8.024
			c-2.463,3.154-4.251,6.601-5.359,10.34c-1.111,3.743-1.664,7.405-1.664,10.989c0,1.917,0.17,3.85,0.504,5.798
			c0.344,1.946,0.848,3.879,1.53,5.795c-1.542-3.709-2.313-7.636-2.313-11.78c0-4.08,0.677-8.126,2.032-12.146
			c1.359-4.019,3.484-7.73,6.386-11.129c3.696-3.4,7.735-6.012,12.111-7.837c4.375-1.822,8.604-2.735,12.673-2.735
			c1.293,0,2.621,0.216,3.974,0.647c1.357,0.434,2.592,1.099,3.701,1.995c1.114,0.898,2.016,2.057,2.729,3.479
			c0.707,1.419,1.064,3.152,1.064,5.191c0,1.671-0.403,3.71-1.198,6.121c-0.802,2.412-1.994,4.747-3.563,7.002
			c-1.575,2.257-3.529,4.172-5.879,5.75c-2.341,1.575-5.055,2.365-8.137,2.365h-3.049c-2.285-0.496-4.363-1.066-6.245-1.718
			c-1.882-0.647-3.651-1.158-5.318-1.529c-0.245,0.988-0.383,1.934-0.413,2.829c-0.036,0.895-0.043,1.775-0.043,2.643
			c0,1.793,0.191,3.539,0.595,5.241c0.399,1.697,1.033,3.26,1.896,4.681c0.862,1.423,1.957,2.616,3.284,3.57
			c1.322,0.96,2.942,1.563,4.854,1.809c1.17,0.249,2.189,0.388,3.055,0.417c0.861,0.033,1.587,0.061,2.171,0.093
			c0.585,0.033,1.018,0.123,1.295,0.277c0.28,0.157,0.414,0.449,0.414,0.881c-0.614,0.184-1.243,0.311-1.895,0.371
			c-0.645,0.063-1.312,0.093-1.985,0.093c-2.161,0-4.102-0.355-5.826-1.067c-1.724-0.709-3.206-1.529-4.44-2.458
			c1.417,1.423,3.114,2.427,5.087,3.013c1.971,0.589,3.914,0.883,5.826,0.883c1.047,0,2.128-0.092,3.233-0.278
			c-0.121,0.373-0.181,0.591-0.181,0.648c0,0.371,0.153,0.618,0.463,0.743c0.246-0.059,0.674-0.229,1.294-0.509
			c0.616-0.28,1.248-0.558,1.896-0.833c0.647-0.28,1.28-0.525,1.893-0.743c0.617-0.216,1.054-0.326,1.299-0.326
			c0.305,0,0.585,0.049,0.832,0.14c0.246,0.093,0.367,0.449,0.367,1.067c0,0.618-0.211,1.359-0.643,2.223
			C525.069,389.107,524.424,389.969,523.561,390.838z M503.957,382.029c-0.437-0.496-0.865-0.989-1.296-1.486
			c-0.369-0.433-0.68-0.865-0.929-1.297C502.292,380.299,503.026,381.224,503.957,382.029z M506.545,360.975
			c0.124-0.122,0.197-0.307,0.23-0.558c0.029-0.246,0.047-0.43,0.047-0.556l-4.347-1.575l-0.464,1.299L506.545,360.975z
			 M510.803,354.113l2.03,0.37c0.68,0.123,1.295,0.186,1.854,0.186c0.611,0,1.338-0.2,2.168-0.603
			c0.832-0.399,1.669-0.972,2.499-1.715c0.837-0.744,1.574-1.671,2.22-2.785c0.646-1.111,1.128-2.379,1.435-3.799l0.183-0.557
			c-0.865,0-2.155,0.218-3.884,0.647c-1.727,0.434-3.515,1.007-5.361,1.717c-1.854,0.71-3.578,1.544-5.18,2.504
			c-1.606,0.957-2.715,1.995-3.329,3.108c0.925,0.184,1.832,0.355,2.726,0.508C509.055,353.851,509.935,353.987,510.803,354.113z"/>
		<path fill="#103653" stroke="#103653" stroke-width="5" stroke-miterlimit="10" d="M541.969,377.391
			c0-1.423,0.165-2.598,0.505-3.523c0.34-0.93,0.817-1.732,1.438-2.412c-0.498,0.741-0.909,1.575-1.254,2.503
			c-0.331,0.928-0.504,1.947-0.504,3.062v8.716l2.865,0.557c0.861,0.184,1.725,0.309,2.595,0.371
			c0.859,0.063,1.692,0.093,2.491,0.093c0.867,0,1.636-0.014,2.313-0.046c0.678-0.031,1.352-0.047,2.04-0.047l7.119,0.093
			l-7.033,0.091h-1.013c-0.555,0-1.157,0.019-1.808,0.046c-0.647,0.032-1.343,0.047-2.077,0.047c-0.684,0-1.421-0.031-2.22-0.093
			c-0.804-0.059-1.637-0.184-2.501-0.371l-2.956-0.556V377.391z M595.146,356.339c-1.234,1.113-2.712,2.196-4.438,3.247
			c-1.725,1.051-3.518,2.026-5.362,2.92c-1.857,0.898-3.67,1.67-5.46,2.319c-1.791,0.649-3.39,1.157-4.813,1.531
			c-1.418,0.433-2.71,0.852-3.883,1.251c-1.172,0.402-2.276,0.851-3.327,1.345c-1.05,0.497-2.096,1.05-3.146,1.67
			c-1.051,0.619-2.128,1.36-3.236,2.224c-0.804,0.619-1.467,1.114-1.988,1.486c-0.523,0.369-0.956,0.681-1.294,0.926
			c-0.342,0.25-0.62,0.434-0.837,0.556c-0.213,0.124-0.414,0.249-0.599,0.374l3.333,0.275c2.584,0.249,5.085,0.512,7.487,0.79
			c2.404,0.28,4.84,0.573,7.31,0.881c1.045,0.125,1.659,0.201,1.849,0.229c0.184,0.035,0.368,0.048,0.552,0.048
			c5.06,0.313,8.603,0.542,10.638,0.697c2.037,0.152,3.053,0.604,3.053,1.343c0,0.25-0.031,0.404-0.094,0.466
			c-2.529-0.123-4.977-0.356-7.354-0.695c-2.377-0.341-5.163-0.573-8.371-0.699c-1.233-0.182-2.663-0.353-4.298-0.508
			c-1.634-0.152-3.33-0.279-5.087-0.373c-1.758-0.091-3.516-0.167-5.27-0.231c-1.758-0.061-3.408-0.092-4.95-0.092
			c-1.418,0-2.682,0.016-3.789,0.043c-1.111,0.035-2.006,0.112-2.684,0.235c1.666,0,3.64,0.032,5.917,0.091
			c2.28,0.064,4.625,0.14,7.033,0.234c2.399,0.092,4.76,0.217,7.074,0.369c2.31,0.157,4.297,0.357,5.96,0.605l3.24,0.462
			c2.157,0.309,4.174,0.496,6.056,0.557c1.883,0.063,3.935,0.218,6.156,0.463c-0.314,0.309-0.467,0.619-0.467,0.928
			c0,0.557,0.384,0.804,1.157,0.743c0.769-0.062,1.864,0,3.285,0.182c1.229,0.497,2.106,0.944,2.636,1.346
			c0.521,0.404,0.784,0.787,0.784,1.159c0,0.372-0.245,0.727-0.74,1.067c-0.494,0.341-1.11,0.604-1.852,0.787l-2.313,0.649
			c-2.526-0.431-4.945-0.724-7.259-0.878c-2.311-0.155-4.852-0.386-7.63-0.697l-2.404-0.277c-1.973-0.246-3.913-0.465-5.822-0.65
			c-1.916-0.184-3.886-0.373-5.921-0.557l-9.806-0.74c-0.68-0.063-1.42-0.108-2.219-0.14c-0.803-0.032-1.635-0.045-2.498-0.045
			h-1.665c-0.556,0-1.14,0.032-1.757,0.091l-1.662,0.094v-7.142c0-1.914,0.46-3.416,1.382-4.498c0.93-1.084,1.946-1.9,3.057-2.457
			c0.553-0.308,1.108-0.557,1.664-0.742c-0.126,0-0.245,0.032-0.372,0.091c-0.923,0.309-1.837,0.758-2.728,1.345
			c-0.893,0.589-1.664,1.375-2.313,2.364c-0.645,0.99-0.97,2.289-0.97,3.896l-0.099,7.327h8.979l5.642,0.278
			c2.896,0.183,5.715,0.431,8.463,0.74c2.742,0.31,5.471,0.65,8.185,1.021l2.958,0.464c2.341,0.248,4.527,0.494,6.564,0.743
			c2.036,0.248,4.134,0.525,6.288,0.834c-0.863,0.186-1.803,0.356-2.822,0.508c-1.014,0.155-2.14,0.233-3.373,0.233
			c-1.171,0-2.219-0.062-3.145-0.186c-0.923-0.121-2.001-0.246-3.233-0.37l-2.957-0.372c-2.164-0.309-4.226-0.571-6.2-0.788
			c-1.978-0.216-4.105-0.449-6.384-0.695l-0.558-1.021h-7.487c-0.308,0-0.647,0.015-1.018,0.046
			c-0.368,0.032-0.804,0.045-1.299,0.045h-2.306c-0.804,0-1.608-0.014-2.406-0.045c-0.802-0.032-1.669-0.109-2.59-0.233
			l-2.588-0.373v-8.066c0-2.041,0.441-3.695,1.343-4.96c0.89-1.269,1.919-2.274,3.092-3.016c1.171-0.742,2.346-1.329,3.518-1.762
			c1.168-0.431,2.067-0.837,2.679-1.206l2.129-1.669c2.468-1.855,5.059-3.494,7.771-4.917c2.711-1.42,5.548-2.532,8.507-3.337
			l1.388-0.372c1.357-0.68,2.805-1.269,4.347-1.76c1.543-0.497,2.99-1.116,4.348-1.855l-0.276-0.463
			c-1.542,0.677-3.1,1.267-4.67,1.759c-1.571,0.498-2.915,1.02-4.022,1.578l-1.39,0.372c-3.085,0.865-6.029,2.039-8.831,3.522
			c-2.811,1.485-5.353,3.123-7.633,4.917l-1.849,1.574h-0.368c-0.19,0-0.437,0.062-0.74,0.185l0.926-0.462
			c3.325-2.843,6.579-5.054,9.755-6.629c3.175-1.578,6.336-2.828,9.48-3.758c2.344-0.865,4.251-1.529,5.732-1.994
			c1.483-0.464,2.869-1.032,4.161-1.716c-2.401-0.555-4.529-0.941-6.381-1.157c-1.846-0.218-3.575-0.325-5.181-0.325
			c-0.803,0-1.573,0.016-2.312,0.045c-0.737,0.03-1.479,0.079-2.216,0.14c-0.435-0.062-0.869-0.094-1.297-0.094h-1.197
			c-2.166,0-4.244,0.218-6.247,0.648c-2.006,0.433-3.9,1.021-5.688,1.763c0-0.431-0.171-0.788-0.511-1.063
			c-0.34-0.28-0.507-0.637-0.507-1.07c0-0.369,0.415-0.835,1.248-1.389c0.831-0.557,2.392-1.082,4.669-1.578l-0.185-0.925
			c-2.093,0.308-3.913,0.586-5.455,0.834c-1.54,0.246-2.837,0.369-3.887,0.369c-0.675,0-1.187-0.031-1.521-0.09
			c-0.343-0.063-0.57-0.278-0.701-0.651c0-0.123,0.036-0.247,0.098-0.369c0.061-0.125,0.091-0.249,0.091-0.373
			c1.234-1.236,2.748-2.333,4.533-3.292c1.79-0.957,3.773-1.761,5.962-2.411c2.189-0.651,4.518-1.145,6.983-1.483
			c2.467-0.341,4.997-0.511,7.586-0.511c1.912,0,4.053,0.153,6.43,0.462c2.371,0.31,5.006,0.712,7.909,1.207
			c0.612,0.185,1.166,0.356,1.662,0.509c0.49,0.155,1.018,0.326,1.573,0.511c0.555,0.185,1.173,0.403,1.847,0.65
			c0.68,0.247,1.511,0.555,2.501,0.928c-0.063-0.063,0.353,0.092,1.247,0.462c0.892,0.372,1.802,1.051,2.729,2.041L595.146,356.339z
			 M551.31,366.447l-1.944,1.3c-0.74,0.494-1.621,0.987-2.633,1.482c-1.02,0.496-1.96,1.238-2.821,2.227
			c1.169-1.73,2.588-3.014,4.253-3.85c1.666-0.833,2.957-1.375,3.886-1.625L551.31,366.447z M552.141,368.951
			c1.047-0.37,1.727-0.836,2.034-1.392l0.554-0.37c1.115-0.864,2.269-1.778,3.472-2.736c1.199-0.958,2.446-1.838,3.743-2.643
			c-1.729,0.866-3.299,1.934-4.714,3.2c-1.42,1.267-3.021,2.457-4.813,3.57c-0.31,0.186-0.644,0.37-1.015,0.554
			C551.646,369.076,551.893,369.015,552.141,368.951z M555.655,374.238c-0.867,0-1.62,0.324-2.27,0.972
			c-0.642,0.65-1.152,1.1-1.523,1.349l0.188,0.089c0.304-0.186,0.895-0.525,1.757-1.021c0.862-0.494,1.786-1.019,2.775-1.576
			c0.981-0.557,1.938-1.098,2.863-1.621c0.926-0.526,1.635-0.943,2.131-1.255c-0.311,0.185-0.761,0.419-1.342,0.697
			c-0.586,0.277-1.189,0.574-1.806,0.881c-0.617,0.309-1.185,0.604-1.707,0.881C556.193,373.913,555.844,374.113,555.655,374.238z"
			/>
	</g>
	<path fill="#F8F9F6" d="M185.292,378.367c-102.591-5.975,5.195,284.248,207.601,283.744h9.695
		c202.406,0.504,310.191-289.719,207.601-283.744l-2.141-36.75c27.747-1.617,51.539,10.016,65.312,31.912
		c27.296,43.387,18.424,140.641-9.575,191.186C620.375,643.083,520.786,738.73,403.11,738.73h-10.739
		c-117.676,0-217.262-95.647-260.675-174.016c-27.997-50.545-36.869-147.799-9.572-191.186
		c13.772-21.896,37.561-33.528,65.309-31.912L185.292,378.367z"/>
	<path fill="#103653" d="M400.696,749.121h-10.74c-117.075,0-221.905-92.981-269.762-179.37
		c-28.885-52.151-39.465-153.772-9.278-201.753c15.85-25.198,43.044-38.609,74.708-36.751l-1.21,20.743
		c-23.807-1.384-44.215,8.479-55.911,27.071c-25.378,40.338-15.622,134.606,9.867,180.622
		c44.999,81.233,142.923,168.66,251.586,168.66h10.74c108.667,0,206.589-87.427,251.586-168.66
		c25.49-46.016,35.246-140.283,9.869-180.622c-11.696-18.593-32.107-28.46-55.911-27.071l-1.209-20.743
		c31.628-1.839,58.854,11.553,74.707,36.751c30.187,47.982,19.606,149.604-9.281,201.753
		C622.604,656.139,517.775,749.121,400.696,749.121z"/>
	<path fill="#103653" d="M389.931,672.502c-106.169,0.002-186.452-76.594-226.213-148.371
		c-30.588-55.22-39.084-108.812-21.645-136.531c6.096-9.688,18.252-20.952,41.409-19.604l-1.208,20.743
		c-10.616-0.607-18.021,2.629-22.614,9.926c-13.053,20.748-3.91,68.203,22.234,115.399
		c36.889,66.593,110.896,137.661,208.064,137.661c0.167,0,0.329,0,0.496,0h9.719c0.161,0,0.334,0,0.494,0
		c97.204,0,171.203-71.063,208.095-137.663c26.144-47.195,35.286-94.649,22.231-115.397c-4.59-7.297-11.97-10.537-22.613-9.926
		l-1.208-20.743c23.168-1.347,35.314,9.917,41.41,19.604c17.438,27.719,8.943,81.311-21.645,136.531
		c-39.759,71.771-120.054,148.363-226.241,148.371c-0.189,0-0.361,0-0.548,0h-9.669
		C390.297,672.502,390.113,672.502,389.931,672.502z"/>
	<path fill="#103653" d="M398.448,546.29c-125.211,0-227.075-84-227.075-187.253c0-103.252,101.864-187.255,227.075-187.255
		c125.214,0,227.08,84.003,227.08,187.255C625.528,462.29,523.662,546.29,398.448,546.29z M398.448,194.795
		c-112.521,0-204.065,73.678-204.065,164.242c0,90.564,91.544,164.244,204.065,164.244c112.525,0,204.069-73.68,204.069-164.244
		C602.518,268.473,510.974,194.795,398.448,194.795z"/>
</g>
</svg>
