<?xml version="1.0" encoding="utf-8"?>
<!-- Generator: Adobe Illustrator 15.0.0, SVG Export Plug-In . SVG Version: 6.00 Build 0)  -->
<!DOCTYPE svg PUBLIC "-//W3C//DTD SVG 1.1//EN" "http://www.w3.org/Graphics/SVG/1.1/DTD/svg11.dtd">
<svg version="1.1" id="Capa_1" xmlns="http://www.w3.org/2000/svg" xmlns:xlink="http://www.w3.org/1999/xlink" x="0px" y="0px"
	 width="800px" height="800px" viewBox="0 0 800 800" enable-background="new 0 0 800 800" xml:space="preserve">
<path fill="#96D2CA" d="M2414.646,534.709c-5.859,129.202-93.857,225.591-213.997,234.405c-26.752,1.967-53.53-0.348-79.114-6.822
	c-64.28-16.258-131.146-16.398-192.999-0.361c-27.292,7.08-39.755,9.164-66.786,7.184
	c-124.197-9.109-222.104-109.885-227.745-234.409v-3.551c5.641-124.523,103.548-225.3,227.745-234.41
	c27.031-1.979,39.494,0.104,66.786,7.185c61.854,16.035,128.719,15.896,192.999-0.363c25.584-6.473,52.362-8.787,79.114-6.821
	c120.14,8.813,208.138,105.204,213.997,234.406V534.709z"/>
<path fill="none" stroke="#103653" stroke-width="25" stroke-miterlimit="10" d="M2414.646,534.709
	c-5.859,129.202-93.857,225.591-213.997,234.405c-26.752,1.967-53.53-0.348-79.114-6.822
	c-64.28-16.258-131.146-16.398-192.999-0.361c-27.292,7.08-39.755,9.164-66.786,7.184
	c-124.197-9.109-222.104-109.885-227.745-234.409v-3.551c5.641-124.523,103.548-225.3,227.745-234.41
	c27.031-1.979,39.494,0.104,66.786,7.184c61.854,16.036,128.719,15.897,192.999-0.363c25.584-6.473,52.362-8.788,79.114-6.821
	c120.14,8.814,208.138,105.204,213.997,234.406V534.709z"/>
<circle fill="none" stroke="#103653" stroke-width="25" stroke-miterlimit="10" cx="2024.325" cy="532.929" r="139.78"/>
<path fill="none" stroke="#103653" stroke-width="60" stroke-linecap="round" stroke-linejoin="round" stroke-miterlimit="10" d="
	M1821.899,946.569c-38.304-45.792-61.359-104.776-61.359-169.146c0-145.685,118.101-263.785,263.785-263.785
	s263.785,118.101,263.785,263.785c0,58.742-19.202,113-51.671,156.839"/>
<circle fill="#F79927" cx="2024.326" cy="532.929" r="65.266"/>
<circle fill="none" stroke="#103653" stroke-width="25" stroke-miterlimit="10" cx="2024.326" cy="532.929" r="65.266"/>
<path fill="none" d="M1750.848,908.065c56.401,79.263,142.299,164.419,274.176,154.019
	c133.435-10.524,242.563-92.631,284.779-181.259"/>
<text transform="matrix(0.8106 0.581 -0.5826 0.8128 1829.7637 997.5261)" fill="#103653" stroke="#103653" stroke-width="4.7811" stroke-miterlimit="10" font-family="'FingerPaint-Regular'" font-size="89.5352">E</text>
<text transform="matrix(0.9179 0.3901 -0.3911 0.9203 1878.998 1032.1531)" fill="#103653" stroke="#103653" stroke-width="4.7811" stroke-miterlimit="10" font-family="'FingerPaint-Regular'" font-size="89.5352">n</text>
<text transform="matrix(0.9881 0.1355 -0.1358 0.9907 1940.1533 1056.739)" fill="#103653" stroke="#103653" stroke-width="4.7811" stroke-miterlimit="10" font-family="'FingerPaint-Regular'" font-size="89.5352">v</text>
<text transform="matrix(0.9919 -0.1041 0.1044 0.9945 2005.998 1064.2039)" fill="#103653" stroke="#103653" stroke-width="4.7811" stroke-miterlimit="10" font-family="'FingerPaint-Regular'" font-size="89.5352">o</text>
<text transform="matrix(0.9606 -0.2683 0.2691 0.9631 2069.4922 1056.8005)" fill="#103653" stroke="#103653" stroke-width="4.7811" stroke-miterlimit="10" font-family="'FingerPaint-Regular'" font-size="89.5352">y</text>
<text transform="matrix(0.9069 -0.415 0.4161 0.9093 2126.6797 1040.2253)" fill="#103653" stroke="#103653" stroke-width="4.7811" stroke-miterlimit="10" font-family="'FingerPaint-Regular'" font-size="89.5352">e</text>
<text transform="matrix(0.8236 -0.5625 0.564 0.8258 2179.3418 1015.9792)" fill="#103653" stroke="#103653" stroke-width="4.7811" stroke-miterlimit="10" font-family="'FingerPaint-Regular'" font-size="89.5352">z</text>
<path opacity="0.1" fill="#F79927" d="M790.32,260.217c-5.859,129.202-93.857,225.591-213.997,234.405
	c-26.752,1.967-53.53-0.348-79.114-6.822c-64.28-16.258-131.146-16.398-192.999-0.361c-27.292,7.08-39.755,9.164-66.786,7.184
	C113.227,485.512,15.319,384.737,9.679,260.213v-3.551c5.641-124.523,103.548-225.3,227.745-234.41
	c27.031-1.979,39.494,0.104,66.786,7.185c61.854,16.035,128.719,15.896,192.999-0.363c25.584-6.473,52.362-8.787,79.114-6.821
	c120.14,8.813,208.138,105.204,213.997,234.406V260.217z"/>
<path fill="none" stroke="#103653" stroke-width="25" stroke-miterlimit="10" d="M790.32,260.217
	c-5.859,129.202-93.857,225.591-213.997,234.405c-26.752,1.967-53.53-0.348-79.114-6.822
	c-64.28-16.258-131.146-16.398-192.999-0.361c-27.292,7.08-39.755,9.164-66.786,7.184C113.227,485.512,15.319,384.737,9.679,260.213
	v-3.551c5.641-124.523,103.548-225.301,227.745-234.41c27.031-1.979,39.494,0.104,66.786,7.184
	c61.854,16.037,128.719,15.898,192.999-0.362c25.584-6.474,52.362-8.788,79.114-6.821c120.14,8.814,208.138,105.204,213.997,234.406
	V260.217z"/>
<circle fill="none" stroke="#103653" stroke-width="25" stroke-miterlimit="10" cx="399.999" cy="258.437" r="139.78"/>
<path fill="none" stroke="#103653" stroke-width="60" stroke-linecap="round" stroke-linejoin="round" stroke-miterlimit="10" d="
	M197.573,672.077c-38.304-45.792-61.359-104.776-61.359-169.146c0-145.685,118.101-263.785,263.785-263.785
	s263.785,118.101,263.785,263.785c0,58.742-19.202,113-51.671,156.839"/>
<circle fill="#F79927" cx="400" cy="258.437" r="65.266"/>
<circle fill="none" stroke="#103653" stroke-width="25" stroke-miterlimit="10" cx="400" cy="258.437" r="65.266"/>
<g>
	<path fill="#103653" stroke="#103653" stroke-width="4.7811" stroke-miterlimit="10" d="M218.888,732.013
		c-0.422-0.742-0.735-1.48-0.939-2.216c-0.131-0.534-0.237-1.05-0.317-1.55c0.08,0.5,0.228,1.009,0.442,1.528
		C218.325,730.548,218.597,731.293,218.888,732.013z M255.196,722.897c-1.4-2.03-3.048-3.872-4.94-5.522
		c-1.763-1.631-3.59-3.271-5.481-4.921c1.629,1.608,3.324,3.229,5.087,4.857c1.857,1.7,3.386,3.604,4.586,5.711
		c-0.334,0.056-0.648,0.087-0.945,0.094c-0.299,0.006-0.545-0.06-0.738-0.199c-0.678-0.485-1.271-1.037-1.776-1.658
		c-0.508-0.621-1.124-1.191-1.85-1.712l0.626-0.873c-0.277-0.125-0.633-0.344-1.068-0.655c-1.21-0.867-2.273-1.887-3.192-3.059
		c-0.917-1.172-1.981-2.192-3.189-3.059c-0.63-0.452-1.288-0.812-1.972-1.082l-0.209,0.29c1.479,1.208,2.95,2.501,4.415,3.882
		c1.464,1.38,2.921,2.847,4.373,4.4c-1.377-1.354-2.877-2.759-4.503-4.22c-1.628-1.459-3.216-2.744-4.764-3.854
		c-0.629-0.45-1.231-0.863-1.805-1.238c-0.573-0.374-1.144-0.729-1.711-1.061c-0.73,1.019-1.559,2.225-2.483,3.617
		c-0.926,1.394-1.777,2.785-2.552,4.174c-0.777,1.39-1.417,2.64-1.919,3.749c-0.503,1.108-0.712,1.912-0.629,2.412l-0.286,1.778
		c-0.706,2.211,0.584,4.494,3.877,6.854c0.725,0.52,1.665,1.048,2.82,1.582c1.156,0.535,2.349,1.041,3.58,1.52
		c1.23,0.479,2.389,0.961,3.473,1.442c1.08,0.483,1.962,0.965,2.64,1.451c0.677,0.485,0.993,0.86,0.952,1.124
		c-0.043,0.264-0.186,0.565-0.429,0.905c-2.206-1.215-4.427-2.255-6.661-3.123c-1.959-0.743-3.8-1.548-5.52-2.416
		c1.72,0.868,3.502,1.705,5.343,2.509c2.2,0.916,4.353,1.947,6.464,3.091c-0.307,0.222-0.494,0.382-0.563,0.479
		c-0.209,0.291-0.263,0.62-0.159,0.987l1.121,0.584c0.325,0.159,0.641,0.332,0.949,0.515c0.308,0.185,0.615,0.314,0.928,0.391
		c0.696,0.868,1.124,1.575,1.278,2.127c0.153,0.551,0.109,0.997-0.136,1.336c-0.451,0.63-1.066,0.851-1.845,0.66
		c-0.78-0.19-1.627-0.21-2.541-0.059l-0.29-0.209c-1.403-1.006-2.836-1.867-4.299-2.584c-1.462-0.719-2.924-1.417-4.378-2.093
		c-1.457-0.676-2.93-1.384-4.415-2.118c-1.488-0.735-2.933-1.606-4.336-2.612l-1.016-0.729l-0.437-0.312
		c0.85,0.756,1.807,1.516,2.872,2.278c1.354,0.972,2.677,1.809,3.967,2.514c1.29,0.704,2.56,1.357,3.813,1.961
		c1.252,0.605,2.45,1.205,3.595,1.806c1.145,0.6,2.249,1.282,3.314,2.045c-1.054-0.167-2.266-0.468-3.64-0.901
		s-2.835-1.002-4.38-1.707s-3.104-1.492-4.679-2.362c-1.573-0.871-3.061-1.81-4.464-2.814c-0.969-0.694-1.878-1.419-2.727-2.175
		c-0.851-0.757-1.616-1.782-2.299-3.079l0.502-0.853c-0.504-0.729-0.896-1.688-1.175-2.88c-0.282-1.193-0.477-2.38-0.583-3.558
		c-0.107-1.179-0.153-2.239-0.137-3.182c0.018-0.943,0.095-1.512,0.234-1.705l0.251-0.812c0.226-1.233,0.604-2.505,1.139-3.812
		c0.533-1.306,1.137-2.58,1.81-3.825c0.67-1.244,1.357-2.459,2.063-3.644c0.702-1.187,1.376-2.281,2.024-3.286
		c1.05-1.671,2.135-3.335,3.251-4.996c1.116-1.659,2.267-3.313,3.448-4.964c1.182-1.648,2.386-3.302,3.61-4.958
		c1.223-1.657,2.443-3.333,3.661-5.032l-0.218-0.156c-1.564,1.672-2.966,3.347-4.207,5.027c-1.242,1.681-2.471,3.37-3.688,5.067
		l-2.035,2.839c-2.434,3.396-4.791,7.067-7.07,11.015c-2.28,3.947-3.923,8.204-4.926,12.772c0.242-2.69,0.889-5.071,1.938-7.148
		c1.048-2.075,2.025-4.002,2.931-5.775c1.205-2.293,2.442-4.455,3.713-6.482c1.271-2.026,2.636-4.06,4.097-6.098l1.095-1.527
		c2.017-2.813,4.142-5.624,6.374-8.431c2.231-2.808,4.874-5.576,7.93-8.306c-0.29-0.208-0.331-0.458-0.121-0.748
		c0.207-0.292,0.658-0.592,1.357-0.9c0.697-0.308,1.47-0.544,2.319-0.706c0.848-0.163,1.705-0.21,2.571-0.139
		c0.866,0.068,1.59,0.312,2.17,0.729l17.272,12.381c1.547,1.623,3.102,3.159,4.664,4.609c1.56,1.449,3.249,2.898,5.067,4.348
		l-1.272,1.622c-0.209,0.291-0.508,0.426-0.895,0.405c-0.389-0.021-1.043-0.362-1.961-1.021c-0.29-0.208-0.634-0.471-1.026-0.791
		c-0.395-0.318-0.816-0.675-1.264-1.071l-0.471,0.655c1.671,1.859,2.848,3.512,3.534,4.956c0.685,1.446,0.819,2.459,0.401,3.043
		c-0.486,0.68-1.424,0.631-2.81-0.143c-1.388-0.772-3.146-1.923-5.273-3.449c-2.71-1.942-5.594-4.026-8.647-6.253
		c-3.056-2.227-5.924-4.483-8.604-6.772l-1.234-0.885c-1.564,1.67-3.09,3.441-4.576,5.312c-1.489,1.871-2.987,3.808-4.495,5.812
		c0.773,0.554,1.562,1.063,2.364,1.529c0.803,0.465,1.613,0.991,2.438,1.582c0.677,0.485,1.418,1.109,2.228,1.872
		c0.808,0.764,1.639,1.598,2.492,2.503c0.852,0.904,1.679,1.846,2.48,2.823c0.799,0.979,1.507,1.907,2.121,2.788
		c0.109,0.152,0.263,0.298,0.456,0.437l1.234,0.885c0.628,0.45,0.982,0.852,1.062,1.201c0.077,0.351-0.092,0.817-0.508,1.399
		c-0.823-0.591-1.563-1.192-2.219-1.812c-0.657-0.617-1.289-1.217-1.896-1.8c0.503,0.729,1.075,1.415,1.714,2.055
		c0.639,0.643,1.333,1.306,2.088,1.993c-0.272,0.173-0.489,0.349-0.651,0.524c-0.165,0.178-0.297,0.338-0.402,0.484
		c0.414,0.442,0.576,0.907,0.485,1.393s-0.293,0.946-0.607,1.383c-0.452,0.631-0.941,1.032-1.468,1.205
		C255.668,722.52,255.334,722.705,255.196,722.897z M223.753,712.809c-0.641,1.303-1.307,2.716-1.996,4.241
		c-0.692,1.524-1.22,3.13-1.583,4.813c-0.366,1.686-0.465,3.432-0.296,5.24c0.112,1.479,0.571,2.982,1.379,4.515
		c-0.896-1.815-1.316-3.734-1.261-5.751c0.117-2.412,0.604-4.854,1.46-7.325c0.855-2.472,1.956-4.951,3.301-7.438
		c1.391-2.455,2.763-4.775,4.112-6.967c-0.891,1.345-1.775,2.731-2.65,4.158C225.342,709.724,224.52,711.227,223.753,712.809z
		 M252.176,710.709c0.719,0.735,1.503,1.48,2.353,2.237c-0.697-0.867-1.39-1.639-2.076-2.315c-0.689-0.675-1.35-1.389-1.983-2.138
		C250.888,709.234,251.457,709.973,252.176,710.709z"/>
	<path fill="#103653" stroke="#103653" stroke-width="4.7811" stroke-miterlimit="10" d="M261.845,754.481
		c0.117-0.273,0.338-0.567,0.666-0.884c0.328-0.313,0.585-0.69,0.771-1.13c0.727-1.25,1.238-2.15,1.538-2.703
		c0.299-0.555,0.543-1.049,0.729-1.49c0.981-2.308,1.969-4.822,2.964-7.545c0.995-2.722,1.937-5.354,2.822-7.896
		c0.328-0.77,0.698-1.682,1.115-2.737c0.415-1.056,0.697-1.908,0.846-2.56c0.98-1.854,1.923-3.69,2.826-5.512
		c0.903-1.82,1.764-3.691,2.582-5.615l0.874-2.061c0.304-0.713,0.579-1.44,0.829-2.177c0.095,0.234,0.224,0.386,0.388,0.457
		c0.219,0.092,0.488,0.109,0.805,0.049s0.584-0.043,0.803,0.05c0.383,0.162,0.523,0.709,0.42,1.638s-0.751,2.794-1.941,5.596
		l0.739,0.315c1.581-2.96,3.046-5.226,4.391-6.794c1.346-1.567,2.32-2.225,2.923-1.968c0.273,0.116,0.46,0.894,0.562,2.33
		c0.1,1.438-0.385,3.421-1.46,5.947l1.535-1.099c0.905-0.458,1.893-0.914,2.959-1.371c1.066-0.454,2.193-0.785,3.382-0.993
		c1.188-0.209,2.445-0.274,3.771-0.198c1.326,0.078,2.729,0.431,4.208,1.06c2.849,1.21,5.054,2.91,6.615,5.097
		c1.559,2.188,2.615,4.613,3.163,7.279c0.55,2.666,0.723,5.496,0.518,8.489s-0.628,5.927-1.267,8.801
		c-0.64,2.874-1.402,5.582-2.288,8.124s-1.702,4.691-2.449,6.449c-0.679,1.594-1.178,2.501-1.496,2.722
		c-0.322,0.22-0.739,0.254-1.255,0.099c1.687-4.276,3.246-8.706,4.676-13.286c1.428-4.581,2.198-9.282,2.305-14.101
		c-0.365,4.969-1.234,9.641-2.609,14.02c-1.376,4.376-2.961,8.68-4.76,12.909c-0.258-0.304-0.525-0.515-0.799-0.631
		c-0.22-0.094-0.445-0.092-0.68,0.003c-0.188,0.44-0.359,0.919-0.514,1.436c-0.134,0.464-0.278,0.92-0.438,1.371
		c-0.16,0.452-0.32,0.869-0.484,1.254c-0.866,1.125-1.58,1.892-2.141,2.299c-0.563,0.41-0.981,0.558-1.255,0.44
		c-0.328-0.14-0.54-0.407-0.629-0.803c-0.092-0.395-0.14-0.852-0.145-1.374c-0.005-0.521,0.007-1.082,0.037-1.687
		c0.03-0.603-0.014-1.222-0.133-1.856c0.507-0.887,0.91-1.607,1.211-2.16c0.299-0.555,0.531-1.023,0.694-1.408
		c0.631-1.482,1.361-3.279,2.194-5.391c0.832-2.111,1.61-4.358,2.332-6.742c0.722-2.385,1.307-4.828,1.756-7.33
		c0.447-2.5,0.601-4.834,0.454-7.005c-0.146-2.169-0.664-4.108-1.553-5.817c-0.893-1.707-2.297-2.97-4.215-3.784
		c-1.314-0.56-2.667-0.613-4.053-0.166c-1.389,0.448-2.742,1.203-4.065,2.261c-1.323,1.059-2.604,2.282-3.841,3.67
		c-1.235,1.388-2.334,2.754-3.293,4.097c1.147-1.327,2.318-2.679,3.517-4.051c1.198-1.371,2.446-2.56,3.746-3.564
		c1.301-1.003,2.624-1.721,3.973-2.153c1.348-0.433,2.68-0.371,3.994,0.188c1.697,0.723,2.966,1.813,3.802,3.27
		c0.836,1.459,1.362,3.108,1.582,4.953c0.219,1.844,0.186,3.825-0.099,5.941c-0.285,2.116-0.707,4.208-1.26,6.275
		c-0.556,2.065-1.184,4.036-1.883,5.912c-0.7,1.876-1.329,3.472-1.89,4.79c-0.444,1.044-0.902,2.082-1.373,3.113
		c-0.472,1.032-0.968,2.087-1.488,3.162c0.395-2.297,0.952-4.638,1.675-7.021c0.722-2.385,1.418-4.749,2.091-7.091
		c0.671-2.341,1.239-4.628,1.703-6.862c0.465-2.235,0.687-4.395,0.669-6.479l0.925-0.58c-0.012-1.496-0.214-2.732-0.606-3.712
		c-0.394-0.977-0.848-1.771-1.365-2.379c-0.517-0.609-1.04-1.058-1.563-1.346c-0.526-0.287-0.87-0.466-1.034-0.536
		c-1.37-0.582-2.799-0.605-4.288-0.071c-1.488,0.535-2.986,1.471-4.493,2.81s-3.027,2.978-4.563,4.918
		c-1.538,1.941-3.038,4.027-4.503,6.258c-1.467,2.232-2.883,4.501-4.25,6.805c-1.367,2.305-2.618,4.481-3.746,6.53l0.74,0.315
		c1.066-1.751,2.229-3.689,3.489-5.813c1.257-2.124,2.561-4.278,3.91-6.462c1.348-2.183,2.735-4.268,4.163-6.257
		c1.427-1.986,2.854-3.714,4.288-5.183c1.431-1.467,2.847-2.551,4.245-3.254c1.32-0.671,2.645-0.821,3.976-0.45
		c-1.323-0.237-2.662,0.102-4.021,1.014c-1.438,0.947-2.893,2.242-4.367,3.884c-1.475,1.645-2.957,3.496-4.446,5.554
		c-1.489,2.059-2.896,4.039-4.222,5.939l-6.757,11.333c-0.547,0.676-1.003,1.293-1.368,1.85l-1.063,1.592
		c-0.345,0.502-0.706,1.047-1.082,1.631c-0.38,0.585-0.825,1.255-1.34,2.01l-0.666,0.883l-0.494-0.208l-7.109-6.33
		c-0.252-0.172-0.423-0.341-0.511-0.509C262.03,754.918,261.938,754.717,261.845,754.481z M294.109,718.288
		c-1.494,0.469-2.781,1.103-3.866,1.907c-1.086,0.802-2.137,1.638-3.15,2.504l-0.035,0.081c1.444-1.267,3.201-2.433,5.271-3.499
		c1.969-0.978,4.212-1.388,6.731-1.226c-0.808-0.082-1.584-0.153-2.336-0.213C295.84,717.792,294.97,717.94,294.109,718.288z
		 M303.354,730.096c-0.298-0.517-0.694-0.991-1.187-1.429c-0.494-0.437-1.081-0.996-1.763-1.674l-0.012-0.201
		c0.907,0.452,1.642,1.008,2.201,1.667c0.561,0.659,0.982,1.569,1.268,2.728L303.354,730.096z M305.128,719.76
		c-0.251-0.171-0.622-0.362-1.116-0.571c1.566,1.184,3.007,2.363,4.318,3.537c1.312,1.175,2.326,2.822,3.042,4.942
		c-0.395-1.66-1.192-3.168-2.396-4.521C307.772,721.792,306.49,720.663,305.128,719.76z M311.468,727.901
		c0.368,1.261,0.627,2.636,0.771,4.122c0.145,1.488,0.263,2.804,0.359,3.947c-0.011-1.496-0.04-2.871-0.09-4.125
		C312.458,730.593,312.109,729.279,311.468,727.901z"/>
	<path fill="#103653" stroke="#103653" stroke-width="4.7811" stroke-miterlimit="10" d="M330.678,784.374
		c-0.627-5.509-1.336-10.861-2.124-16.062c-0.79-5.199-1.632-10.449-2.526-15.755c-0.443-2.471-0.774-4.881-0.992-7.23
		c-0.219-2.349-0.672-4.746-1.358-7.19c0.429-0.061,0.799-0.236,1.109-0.525c0.31-0.288,0.671-0.405,1.084-0.349
		c0.295,0.04,0.551,0.256,0.769,0.647c0.217,0.391,0.396,0.823,0.542,1.294c0.146,0.473,0.276,0.957,0.387,1.455
		c0.112,0.497,0.186,0.838,0.221,1.024l1.098-0.121c-0.106-0.978-0.171-1.936-0.192-2.873c-0.021-0.937,0.033-1.878,0.163-2.824
		c0.049-0.355,0.167-0.896,0.358-1.623c0.189-0.728,0.578-1.051,1.169-0.971c0.885,0.122,1.745,1.07,2.585,2.841
		c0.838,1.773,1.599,4.001,2.284,6.685c0.681,2.684,1.316,5.618,1.902,8.801c0.584,3.185,1.095,6.251,1.531,9.202
		c0.438,2.952,0.812,5.595,1.123,7.926c0.311,2.334,0.519,3.988,0.625,4.966c1.801-1.741,3.437-3.595,4.909-5.563
		c1.471-1.967,2.93-3.95,4.377-5.952c1.445-2,2.944-3.963,4.502-5.889c1.556-1.925,3.318-3.716,5.289-5.376
		c0.477-0.415,1.217-1.097,2.218-2.046c1.001-0.946,2.063-1.898,3.188-2.86c1.123-0.961,2.212-1.79,3.271-2.489
		c1.056-0.697,1.879-1.008,2.47-0.926c0.295,0.039,0.531,0.284,0.712,0.729c-2.551,1.941-5.084,3.883-7.604,5.827
		c-2.52,1.944-4.802,4.222-6.841,6.834c2.083-2.485,4.383-4.687,6.899-6.601c2.516-1.914,5.095-3.743,7.737-5.49l0.65,1.174
		c0.427-0.484,1.156-0.985,2.189-1.508c1.032-0.521,1.873-0.737,2.522-0.648c0.471,0.064,0.805,0.261,1.002,0.588
		c0.194,0.33,0.26,0.73,0.196,1.202c-0.059,0.415-0.19,0.939-0.397,1.573c-0.208,0.636-0.45,1.083-0.725,1.346
		c-0.353,0.374-0.756,0.682-1.208,0.92c-2.189,1.508-4.259,2.896-6.204,4.164c-1.948,1.271-3.838,2.895-5.67,4.871l0.703-0.535
		c1.853-1.674,3.69-3.139,5.517-4.396c1.823-1.254,3.861-2.421,6.112-3.498c-1.381,1.738-2.884,3.174-4.512,4.306
		c-1.628,1.133-3.293,2.428-4.993,3.879c-0.821,0.732-1.55,1.55-2.186,2.457s-1.389,1.693-2.26,2.355l-0.761-0.374
		c-1.454,2.271-2.957,4.58-4.51,6.928c-1.554,2.348-3.202,4.621-4.945,6.822c-1.744,2.201-3.634,4.247-5.664,6.137
		c-2.032,1.891-4.249,3.485-6.649,4.781c-0.226,0.332-0.638,0.591-1.234,0.78c-0.597,0.19-1.055,0.353-1.373,0.49l-5.234-3.249
		c-0.226-1.416-0.485-2.927-0.774-4.533c-0.292-1.606-0.579-3.121-0.864-4.548l-0.454,0.028l1.209,8.932
		c0.05,0.067,0.146,0.141,0.284,0.22c0.14,0.078,0.417,0.252,0.831,0.521c0.414,0.267,1.051,0.654,1.913,1.165
		c0.861,0.51,2.044,1.199,3.547,2.068c2.553-1.096,4.77-2.359,6.647-3.788c1.813-1.378,3.605-3.06,5.38-5.045
		c-0.804,1.034-1.623,1.978-2.46,2.824c-0.846,0.91-1.742,1.749-2.689,2.523c-0.949,0.774-1.979,1.491-3.09,2.151
		c-1.112,0.661-2.366,1.258-3.761,1.79L330.678,784.374z M350.077,765.164c2.23-3.129,4.513-6.19,6.847-9.184
		c-2.503,2.909-4.836,5.904-7,8.981c-2.157,3.018-4.449,5.928-6.875,8.728C345.578,771.023,347.919,768.181,350.077,765.164z
		 M343.538,782.612c3.269-2.806,6.164-5.843,8.686-9.111c2.521-3.27,4.834-6.657,6.937-10.165l0.024-0.177
		c-1.247,1.636-2.483,3.318-3.712,5.049c-1.229,1.729-2.468,3.428-3.718,5.093c-1.252,1.667-2.556,3.296-3.914,4.886
		C346.479,779.777,345.045,781.253,343.538,782.612z M349.961,779.155c-0.135,0.103-0.24,0.208-0.314,0.319
		C349.721,779.363,349.826,779.258,349.961,779.155z M350.174,778.913c1.153-1.408,2.254-2.854,3.3-4.337
		c0.065-0.051,0.132-0.103,0.201-0.153c-0.069,0.051-0.104,0.107-0.113,0.165C352.516,776.071,351.387,777.513,350.174,778.913z
		 M354.138,773.673c-0.084,0.169-0.197,0.334-0.338,0.495C353.94,774.007,354.054,773.842,354.138,773.673z M356.031,771.041
		c-0.303,0.44-0.604,0.881-0.903,1.322C355.428,771.922,355.729,771.481,356.031,771.041z M363.489,758.055
		c-0.703,0.748-1.36,1.485-1.971,2.214c-0.611,0.73-1.205,1.448-1.782,2.151c0.637-0.695,1.358-1.364,2.168-2.008
		C362.714,759.772,363.24,758.985,363.489,758.055z"/>
	<path fill="#103653" stroke="#103653" stroke-width="4.7811" stroke-miterlimit="10" d="M398.239,733.756
		c0.089,0.292,0.43,0.406,1.022,0.346l0.178-0.018c0.354-0.036,0.595-0.029,0.72,0.017c3.175,0.64,6.381,1.708,9.615,3.21
		c3.233,1.502,6.207,3.391,8.922,5.665c2.713,2.274,4.988,4.938,6.824,7.992c1.835,3.054,2.94,6.421,3.313,10.103
		c0.325,3.207,0.017,6.358-0.926,9.453c-0.942,3.097-2.398,5.854-4.366,8.272c2.052-2.188,3.595-4.818,4.63-7.895
		c1.033-3.073,1.379-6.305,1.035-9.688c-0.385-3.801-1.545-7.269-3.478-10.402c-1.934-3.133-4.276-5.879-7.029-8.241
		c-2.753-2.36-5.75-4.321-8.988-5.883c-3.241-1.561-6.364-2.698-9.367-3.415c2.249-0.228,4.596,0.046,7.037,0.817
		c2.443,0.772,4.813,1.866,7.111,3.283s4.456,3.089,6.477,5.013c2.02,1.925,3.765,3.923,5.23,5.994l-0.532,0.953
		c1.365,1.661,2.466,3.5,3.298,5.516c0.833,2.017,1.36,4.122,1.583,6.318c0.429,4.218-0.101,8.006-1.584,11.366
		c-1.485,3.36-3.496,6.234-6.037,8.621c-2.539,2.388-5.399,4.282-8.578,5.685c-3.178,1.402-6.22,2.252-9.121,2.545
		c-1.659,0.169-3.35,0.16-5.074-0.025c-1.724-0.184-3.487-0.605-5.289-1.263l0.054,0.534c1.755,0.781,3.524,1.263,5.308,1.442
		c1.782,0.179,3.533,0.181,5.251,0.007c4.266-0.432,8.36-1.792,12.287-4.081s7.14-5.27,9.639-8.942
		c-2.369,3.781-5.482,6.855-9.34,9.227c-3.858,2.372-7.979,3.779-12.361,4.225c-4.503,0.456-8.234-0.052-11.194-1.521
		c-2.963-1.468-5.358-3.4-7.187-5.795c-1.828-2.393-3.153-4.99-3.976-7.786s-1.348-5.322-1.576-7.58
		c-0.308-3.028-0.209-6.037,0.296-9.029c0.503-2.989,1.462-5.787,2.873-8.391c1.41-2.603,3.331-4.912,5.76-6.93
		c2.428-2.015,5.44-3.566,9.042-4.651l-2.64-0.363c-1.274-0.169-2.198-0.436-2.772-0.797c-0.576-0.361-0.879-0.69-0.91-0.988
		c-0.048-0.475,0.418-1.046,1.396-1.717C395.794,734.289,396.935,733.888,398.239,733.756z M395.38,745.385
		c1.538-0.755,3.048-1.209,4.53-1.359c1.479-0.149,2.643-0.042,3.487,0.321c0.845,0.364,1.292,0.784,1.34,1.26
		c0.03,0.297-0.278,0.657-0.923,1.083c-0.646,0.426-1.455,1.003-2.427,1.73c-0.975,0.729-2.02,1.631-3.137,2.703
		c-1.119,1.074-2.122,2.392-3.011,3.95c-0.89,1.562-1.568,3.414-2.038,5.562c-0.471,2.149-0.564,4.618-0.28,7.408
		c0.414,4.099,1.646,7.093,3.692,8.985c2.046,1.893,4.699,2.673,7.958,2.342c2.072-0.21,4.152-0.781,6.243-1.713
		c2.089-0.932,3.941-2.139,5.556-3.624c1.614-1.482,2.873-3.229,3.777-5.242c0.902-2.012,1.234-4.204,0.992-6.581
		c-0.181-1.781-0.672-3.53-1.475-5.25c-0.803-1.718-1.835-3.337-3.096-4.86c-1.262-1.521-2.719-2.919-4.374-4.19
		c-1.655-1.272-3.423-2.321-5.302-3.152c-1.814-0.774-3.295-1.36-4.441-1.754c-1.147-0.394-1.981-0.803-2.503-1.231
		c-0.451,0.286-1.089,0.637-1.914,1.049c-0.825,0.414-1.916,1.021-3.271,1.816L395.38,745.385z M400.763,739.169l-0.836-0.275
		c-0.047,0.126-0.124,0.254-0.23,0.384c-0.107,0.133-0.152,0.256-0.141,0.374c0.012,0.121,0.102,0.275,0.271,0.467
		c0.169,0.195,0.319,0.344,0.45,0.45L400.763,739.169z M400.908,740.594c2.813,0.614,5.555,1.686,8.224,3.216
		c2.294,1.387,4.428,2.94,6.396,4.66c-1.923-1.845-3.972-3.467-6.147-4.866c-2.503-1.665-5.23-2.889-8.183-3.669L400.908,740.594z
		 M416.126,749.04c-0.202-0.219-0.401-0.409-0.598-0.569C415.73,748.69,415.93,748.88,416.126,749.04z M421.224,769.221
		c-0.695,1.991-1.768,3.811-3.216,5.457c0.994-0.821,1.809-1.773,2.447-2.859c0.638-1.084,1.143-2.154,1.515-3.213
		c0.372-1.058,0.632-2.014,0.786-2.87c0.099-0.789,0.183-1.428,0.254-1.915C422.514,765.432,421.92,767.231,421.224,769.221z
		 M427.954,776.279c-0.049,0.125-0.125,0.252-0.23,0.382c-0.054,0.066-0.111,0.103-0.169,0.108c-0.059,0.005,0.057-0.321,0.35-0.981
		c0.292-0.658,0.646-1.445,1.063-2.357c0.415-0.91,0.812-1.866,1.19-2.864c0.341-0.756,0.574-1.409,0.698-1.962
		C430.283,771.244,429.317,773.801,427.954,776.279z M431.465,761.344c0.097,0.95,0.132,1.893,0.107,2.823
		c-0.026,0.934-0.147,1.802-0.365,2.602c0.264-1.525,0.304-3.209,0.116-5.051c-0.138-1.365-0.394-2.689-0.762-3.973
		c-0.292-1.109-0.641-2.186-1.045-3.224c0.404,1.038,0.779,2.081,1.124,3.125C431.058,758.806,431.333,760.038,431.465,761.344z
		 M430.855,768.604c0.046-0.124,0.065-0.245,0.053-0.364C430.921,768.359,430.901,768.48,430.855,768.604z M430.979,768.052
		c-0.053,0.065-0.076,0.13-0.07,0.188C430.902,768.181,430.926,768.117,430.979,768.052z"/>
	<path fill="#103653" stroke="#103653" stroke-width="4.7811" stroke-miterlimit="10" d="M452.545,805.077
		c0.585,0.335,1.474,0.48,2.664,0.436c1.189-0.045,2.303-0.208,3.336-0.489c1.896-0.515,3.538-1.627,4.925-3.333
		c1.387-1.708,2.579-3.841,3.581-6.401c1-2.562,1.843-5.418,2.528-8.573c0.684-3.155,1.271-6.439,1.764-9.851l-0.086,0.023
		c-0.462,2.847-0.987,5.788-1.58,8.826c-0.595,3.038-1.364,5.875-2.313,8.515c-0.947,2.639-2.136,4.91-3.562,6.813
		c-1.426,1.902-3.173,3.136-5.241,3.698c-1.666,0.453-3.438,0.408-5.312-0.134c0.784-0.523,1.549-0.885,2.297-1.089
		c0.229-0.062,0.646-0.114,1.253-0.155c0.918-0.248,1.685-0.489,2.303-0.719c0.615-0.229,1.183-0.522,1.704-0.88
		c0.519-0.358,0.979-0.823,1.379-1.395c0.398-0.573,0.82-1.291,1.265-2.154l1.105-0.021c1.07-2.643,1.994-5.429,2.771-8.361
		c0.775-2.934,1.53-5.891,2.262-8.872l0.612-3.879l-0.824,0.038l-0.446,3.462c-0.618,2.951-1.304,5.875-2.059,8.771
		c-0.755,2.896-1.771,5.63-3.045,8.203c1.338-3.023,2.424-6.288,3.261-9.794c0.836-3.506,1.499-7.087,1.984-10.744l-0.753-0.724
		c-0.647-1.246-1.431-2.426-2.348-3.537c-0.669-0.869-1.402-1.753-2.202-2.648c1.708,2.195,3.076,4.392,4.104,6.585
		c-0.621-0.017-1.194-0.248-1.716-0.692c-0.522-0.446-1.044-1-1.562-1.665c-0.521-0.661-1.019-1.36-1.496-2.098
		c-0.479-0.735-1.028-1.451-1.648-2.15l0.22-0.894c-1.311-1.19-2.787-2.707-4.43-4.55c-1.644-1.84-3.358-3.727-5.146-5.653
		c-1.788-1.926-3.575-3.79-5.361-5.594c-1.785-1.803-3.448-3.269-4.988-4.396l-0.188,0.329l16.056,16.513
		c-3.186-3.093-6.529-6.204-10.033-9.335c-3.504-3.129-6.859-6.732-10.063-10.812c-0.109-0.401-0.313-0.919-0.607-1.551
		c-0.296-0.63-0.613-1.286-0.951-1.969c-0.339-0.681-0.692-1.357-1.061-2.03s-0.717-1.274-1.046-1.804l2.053-1.301
		c0.287-0.077,0.58-0.019,0.881,0.179c0.3,0.197,0.646,0.675,1.038,1.435c0.287-0.078,0.482-0.378,0.588-0.903
		c0.104-0.521,0.207-1.106,0.31-1.754c0.102-0.645,0.248-1.24,0.438-1.789c0.19-0.546,0.545-0.891,1.062-1.031
		c0.747-0.202,1.561,0.119,2.437,0.963c0.877,0.845,1.784,1.912,2.722,3.203c0.938,1.293,1.937,2.644,3,4.055
		c1.063,1.414,2.181,2.579,3.354,3.495c1.342,1.307,2.69,2.58,4.046,3.818c1.355,1.241,2.66,2.588,3.92,4.039
		c1.488,2.069,3.239,4.083,5.251,6.04c2.013,1.959,3.766,4.096,5.259,6.412c0.127-4.983,0.117-9.388-0.027-13.215
		c-0.146-3.824-0.476-7.585-0.985-11.284c0.13-2.014,0.111-4.235-0.055-6.666c-0.167-2.428-0.546-4.735-1.143-6.926l1.92-0.429
		c0.286-0.077,0.58-0.019,0.881,0.179c0.3,0.196,0.585,0.784,0.851,1.764c0.077,0.288,0.146,0.595,0.203,0.918
		c0.057,0.326,0.119,0.727,0.187,1.202l0.776-0.211c0-2.042,0.188-3.73,0.565-5.071c0.376-1.339,0.878-2.095,1.512-2.267
		c0.459-0.125,1.038,0.243,1.734,1.105c0.697,0.862,1.359,2.446,1.985,4.75c1.049,3.859,1.725,8.16,2.027,12.903
		c0.301,4.741,0.559,9.437,0.771,14.078c-0.011,6.313-0.373,12.474-1.083,18.48c-0.713,6.007-1.976,12.258-3.787,18.75
		c-0.612,1.837-1.333,3.779-2.163,5.831c-0.832,2.05-1.906,3.996-3.225,5.841c-1.32,1.842-2.935,3.502-4.847,4.98
		c-1.911,1.479-4.246,2.593-7.004,3.343c-2.011,0.546-3.446,0.657-4.304,0.335c-0.861-0.323-1.328-0.629-1.406-0.917
		c-0.047-0.173-0.045-0.391,0.008-0.652c1.88,0.107,3.797-0.104,5.751-0.635c1.377-0.374,2.904-1.054,4.582-2.034
		c1.676-0.982,3.1-2.156,4.27-3.526c-1.135,1.051-2.448,2.058-3.944,3.021c-1.496,0.964-2.905,1.625-4.228,1.984
		c-2.067,0.562-4.149,0.849-6.242,0.861c-0.11-0.404-0.37-0.734-0.78-0.995c-0.409-0.259-0.859-0.493-1.348-0.699
		c-0.487-0.208-0.938-0.441-1.345-0.701c-0.411-0.26-0.678-0.621-0.804-1.081c-0.126-0.462-0.077-0.846,0.148-1.153
		c0.225-0.31,0.507-0.572,0.85-0.788c0.342-0.218,0.703-0.423,1.082-0.619C451.971,805.465,452.289,805.27,452.545,805.077z
		 M460.566,766.154c-1.04-1.324-2.176-2.609-3.407-3.853c-1.232-1.242-2.532-2.45-3.899-3.625c1.315,1.438,2.659,2.865,4.033,4.285
		c1.341,1.306,2.632,2.656,3.877,4.049L460.566,766.154z M459.957,755.742c0.292,0.849,0.616,1.535,0.975,2.055
		c0.357,0.522,0.725,0.964,1.101,1.325c0.376,0.362,0.745,0.695,1.105,0.999c0.359,0.304,0.725,0.685,1.096,1.141l-0.244-0.213
		L459.957,755.742z M464.985,761.984l4.77,6.312l0.376-0.658L464.985,761.984z M470.397,767.935l-0.416,0.855
		c0.161,0.143,0.318,0.27,0.474,0.382c0.154,0.114,0.291,0.277,0.411,0.49l0.243-0.807L470.397,767.935z M477.343,781.914
		c-0.854,3.447-1.759,6.927-2.716,10.435c-0.961,3.509-2.422,6.981-4.385,10.424c2.053-3.342,3.572-6.771,4.561-10.287
		C475.79,788.97,476.637,785.446,477.343,781.914z M471.149,766.619c0.041-0.755,0.056-1.5,0.038-2.238l-0.046-2.214l-0.587-0.119
		l-0.032,3.627C470.763,766.105,470.972,766.421,471.149,766.619z"/>
	<path fill="#103653" stroke="#103653" stroke-width="4.7811" stroke-miterlimit="10" d="M533.127,753.528
		c-1.753,1.628-3.153,2.727-4.204,3.293c-1.052,0.566-1.972,1.058-2.765,1.476c-3.046,1.355-6.046,2.005-9.004,1.949
		s-5.743-0.679-8.357-1.866c-2.614-1.188-4.986-2.893-7.115-5.115c-2.129-2.221-3.86-4.83-5.194-7.83
		c-0.777-1.746-1.421-3.632-1.933-5.658c-0.51-2.026-0.847-4.098-1.008-6.216c-0.16-2.116-0.075-4.196,0.255-6.237
		c0.274-2.018,0.813-3.955,1.614-5.816c-0.906,1.775-1.493,3.671-1.77,5.688c-0.329,2.043-0.441,4.134-0.334,6.274
		c0.105,2.142,0.427,4.254,0.961,6.334c0.535,2.081,1.204,4.021,2.005,5.821c1.02,2.29,2.473,4.567,4.359,6.83
		c1.888,2.265,4.138,4.137,6.752,5.619c2.616,1.482,5.543,2.385,8.78,2.707c3.239,0.322,6.708-0.338,10.407-1.985
		c1.739-0.774,3.452-1.83,5.138-3.168c-1.461,2.282-3.468,3.993-6.024,5.131c-2.067,0.921-4.151,1.47-6.252,1.655
		c-2.103,0.184-4.175,0.062-6.223-0.366c-2.048-0.429-4.038-1.126-5.968-2.098c-1.931-0.968-3.72-2.132-5.366-3.491l0.443-0.981
		c-1.75-1.441-3.241-2.999-4.474-4.673c-1.233-1.671-2.275-3.462-3.125-5.372c-1.236-2.78-2.033-5.627-2.385-8.541
		c-0.353-2.915-0.385-5.808-0.099-8.68l0.756-3.571c0.06-0.743,0.268-1.555,0.627-2.435c0.357-0.878,0.79-1.772,1.297-2.685
		c0.506-0.91,1.078-1.786,1.715-2.625c0.637-0.838,1.251-1.618,1.843-2.339c1.521-1.854,3.085-3.61,4.691-5.272
		s3.629-3.265,6.069-4.81l-0.435-0.101c-4.788,2.72-8.488,5.821-11.107,9.306c-2.62,3.485-4.398,7.103-5.335,10.852
		c-0.939,3.75-1.162,7.491-0.673,11.226c0.49,3.736,1.439,7.185,2.846,10.348c0.753,1.69,1.66,3.328,2.725,4.913
		c1.063,1.585,2.27,3.089,3.621,4.514c-2.816-2.667-5.036-5.828-6.663-9.481c-1.603-3.599-2.594-7.437-2.975-11.515
		c-0.382-4.077,0.038-8.184,1.261-12.321c1.928-4.45,4.464-8.341,7.611-11.668c3.146-3.327,6.513-5.791,10.103-7.389
		c1.142-0.509,2.396-0.837,3.763-0.988c1.365-0.15,2.716-0.048,4.045,0.306c1.332,0.355,2.589,1.021,3.773,1.997
		c1.182,0.977,2.175,2.363,2.977,4.163c0.654,1.472,1.103,3.43,1.342,5.871c0.239,2.44,0.109,4.965-0.391,7.573
		c-0.502,2.608-1.478,5.066-2.925,7.378c-1.448,2.311-3.531,4.071-6.251,5.28l-2.692,1.198c-2.205,0.46-4.267,0.772-6.18,0.938
		c-1.915,0.167-3.677,0.412-5.292,0.739c0.171,0.97,0.418,1.856,0.743,2.657c0.324,0.805,0.657,1.587,0.997,2.351
		c0.704,1.581,1.566,3.044,2.588,4.385c1.021,1.344,2.19,2.473,3.511,3.387c1.32,0.916,2.752,1.536,4.297,1.86
		c1.546,0.325,3.21,0.222,4.994-0.312c1.13-0.241,2.082-0.519,2.854-0.83c0.774-0.311,1.426-0.568,1.955-0.772
		c0.528-0.2,0.946-0.288,1.251-0.262c0.306,0.028,0.543,0.232,0.714,0.614c-0.473,0.404-0.98,0.762-1.527,1.071
		c-0.547,0.309-1.119,0.596-1.718,0.862c-1.904,0.848-3.758,1.296-5.558,1.346c-1.803,0.053-3.431-0.09-4.882-0.424
		c1.81,0.698,3.698,0.918,5.67,0.66c1.972-0.254,3.8-0.759,5.486-1.509c0.923-0.412,1.84-0.918,2.745-1.517
		c0.037,0.376,0.068,0.591,0.093,0.645c0.146,0.328,0.378,0.485,0.699,0.473c0.192-0.149,0.506-0.47,0.941-0.958
		c0.434-0.487,0.884-0.981,1.345-1.48c0.463-0.499,0.922-0.965,1.382-1.399c0.457-0.431,0.796-0.697,1.015-0.794
		c0.271-0.121,0.534-0.188,0.788-0.204c0.254-0.015,0.503,0.251,0.745,0.796c0.243,0.546,0.344,1.284,0.303,2.217
		C533.779,751.41,533.548,752.426,533.127,753.528z M506.393,733.871c0.06-0.157,0.055-0.351-0.015-0.582
		c-0.069-0.229-0.128-0.398-0.178-0.509l-4.453,0.316l0.102,1.326L506.393,733.871z M507.45,726.147l1.941-0.472
		c0.646-0.156,1.215-0.345,1.704-0.563c0.543-0.241,1.104-0.703,1.681-1.386c0.577-0.681,1.086-1.512,1.528-2.492
		c0.443-0.981,0.732-2.091,0.867-3.326c0.134-1.236,0.057-2.541-0.229-3.917l-0.055-0.563c-0.763,0.34-1.819,1.039-3.172,2.098
		c-1.354,1.061-2.706,2.268-4.059,3.62c-1.352,1.354-2.548,2.768-3.586,4.24c-1.038,1.477-1.611,2.826-1.717,4.049
		c0.889-0.2,1.757-0.406,2.606-0.622C505.811,726.599,506.641,726.377,507.45,726.147z M512.373,753.456
		c-0.576-0.267-1.151-0.532-1.725-0.801c-0.497-0.236-0.939-0.496-1.326-0.781C510.226,752.583,511.241,753.111,512.373,753.456z"/>
	<path fill="#103653" stroke="#103653" stroke-width="4.7811" stroke-miterlimit="10" d="M579.687,686.55
		c-0.394,1.555-1.003,3.217-1.825,4.986c-0.823,1.77-1.736,3.51-2.742,5.221c-1.005,1.712-2.053,3.307-3.141,4.786
		c-1.088,1.48-2.102,2.748-3.042,3.806c-0.906,1.109-1.723,2.139-2.448,3.088c-0.726,0.952-1.377,1.906-1.953,2.865
		c-0.577,0.961-1.12,1.969-1.631,3.025c-0.512,1.06-0.979,2.233-1.406,3.523c-0.313,0.926-0.58,1.678-0.801,2.257
		c-0.224,0.579-0.404,1.059-0.543,1.438c-0.142,0.38-0.265,0.678-0.371,0.893c-0.107,0.217-0.201,0.422-0.284,0.621l2.823-1.563
		c2.212-1.188,4.357-2.316,6.439-3.382c2.079-1.064,4.192-2.134,6.339-3.209c0.908-0.461,1.445-0.729,1.609-0.804
		c0.166-0.074,0.322-0.162,0.471-0.262c4.226-2.46,7.198-4.174,8.914-5.143c1.718-0.966,2.774-1.151,3.172-0.556
		c0.134,0.2,0.191,0.341,0.175,0.423c-2.097,1.256-4.189,2.383-6.277,3.382c-2.089,1-4.454,2.311-7.095,3.929
		c-1.091,0.512-2.333,1.144-3.728,1.895c-1.395,0.752-2.823,1.562-4.284,2.43c-1.461,0.866-2.913,1.747-4.357,2.638
		c-1.444,0.894-2.786,1.752-4.024,2.578c-1.139,0.761-2.146,1.45-3.021,2.069c-0.874,0.621-1.551,1.162-2.028,1.624
		c1.337-0.893,2.938-1.924,4.802-3.099c1.865-1.171,3.788-2.366,5.771-3.581c1.98-1.213,3.941-2.378,5.88-3.494
		c1.94-1.114,3.645-2.019,5.115-2.713l2.848-1.362c1.898-0.908,3.619-1.841,5.163-2.801c1.543-0.958,3.272-1.933,5.188-2.924
		c-0.083,0.415-0.04,0.745,0.126,0.993c0.298,0.447,0.74,0.438,1.326-0.024c0.586-0.462,1.497-0.998,2.736-1.611
		c1.255-0.262,2.201-0.373,2.838-0.333c0.636,0.044,1.053,0.213,1.252,0.511c0.198,0.298,0.19,0.716-0.023,1.253
		c-0.214,0.538-0.567,1.078-1.062,1.624l-1.51,1.762c-2.262,1.008-4.362,2.067-6.303,3.183c-1.94,1.116-4.106,2.293-6.5,3.532
		l-2.081,1.065c-1.717,0.859-3.394,1.726-5.026,2.601c-1.636,0.875-3.318,1.784-5.053,2.726l-8.271,4.659
		c-0.577,0.315-1.196,0.675-1.857,1.077c-0.66,0.406-1.337,0.839-2.03,1.302l-1.337,0.893c-0.445,0.297-0.899,0.638-1.36,1.016
		l-1.288,0.968l-3.827-5.734c-1.026-1.539-1.46-2.991-1.296-4.356c0.163-1.364,0.54-2.568,1.133-3.609
		c0.28-0.545,0.593-1.042,0.94-1.488c-0.1,0.067-0.183,0.158-0.248,0.273c-0.576,0.745-1.068,1.592-1.47,2.542
		c-0.404,0.952-0.601,1.998-0.591,3.139c0.012,1.142,0.447,2.357,1.308,3.647l3.854,5.934l7.204-4.809l4.68-2.8
		c2.427-1.404,4.825-2.719,7.193-3.94c2.369-1.221,4.742-2.411,7.12-3.568l2.625-1.214c2.015-1.056,3.906-2.03,5.673-2.924
		c1.766-0.891,3.599-1.791,5.498-2.7c-0.595,0.613-1.258,1.254-1.993,1.922c-0.734,0.668-1.597,1.335-2.587,1.995
		c-0.94,0.628-1.815,1.14-2.624,1.537c-0.809,0.396-1.741,0.876-2.799,1.437l-2.575,1.289c-1.898,0.908-3.698,1.805-5.399,2.688
		c-1.701,0.885-3.533,1.839-5.498,2.862l-0.992-0.522l-6.017,4.017c-0.248,0.165-0.511,0.359-0.791,0.582
		c-0.28,0.224-0.62,0.467-1.016,0.73l-1.856,1.239c-0.645,0.43-1.296,0.849-1.956,1.252c-0.661,0.405-1.395,0.807-2.205,1.202
		l-2.278,1.09l-4.323-6.479c-1.094-1.639-1.622-3.205-1.582-4.703c0.038-1.495,0.329-2.856,0.873-4.081
		c0.542-1.223,1.17-2.322,1.878-3.299c0.709-0.974,1.211-1.776,1.508-2.405l0.813-2.481c0.986-2.81,2.188-5.513,3.604-8.109
		c1.417-2.596,3.099-5.011,5.044-7.242l0.916-1.041c0.725-1.273,1.574-2.521,2.547-3.745c0.973-1.224,1.805-2.497,2.496-3.82
		l-0.471-0.223c-0.873,1.374-1.81,2.679-2.806,3.918c-0.998,1.241-1.794,2.381-2.388,3.422l-0.915,1.042
		c-2.012,2.349-3.747,4.87-5.204,7.563c-1.459,2.696-2.623,5.375-3.493,8.037l-0.642,2.258l-0.297,0.198
		c-0.148,0.099-0.313,0.282-0.494,0.546l0.493-0.869c1.15-4.066,2.577-7.585,4.282-10.554c1.706-2.968,3.572-5.667,5.601-8.097
		c1.417-1.951,2.598-3.51,3.537-4.676s1.748-2.367,2.423-3.607c-2.229,0.841-4.145,1.672-5.747,2.489
		c-1.601,0.817-3.046,1.656-4.333,2.514c-0.644,0.431-1.254,0.856-1.832,1.278c-0.577,0.423-1.146,0.855-1.708,1.301
		c-0.38,0.184-0.743,0.389-1.089,0.619l-0.966,0.646c-1.734,1.156-3.289,2.446-4.666,3.866c-1.378,1.422-2.585,2.91-3.624,4.464
		c-0.231-0.348-0.559-0.542-0.979-0.584c-0.421-0.041-0.748-0.236-0.98-0.584c-0.199-0.298-0.113-0.894,0.258-1.786
		s1.339-2.147,2.906-3.769l-0.646-0.646c-1.519,1.373-2.831,2.572-3.937,3.596c-1.104,1.024-2.079,1.817-2.92,2.38
		c-0.545,0.364-0.971,0.612-1.275,0.743c-0.306,0.133-0.607,0.082-0.904-0.149c-0.067-0.1-0.108-0.214-0.126-0.348
		c-0.018-0.132-0.058-0.247-0.124-0.348c0.328-1.653,0.953-3.343,1.875-5.072c0.922-1.728,2.088-3.439,3.498-5.134
		c1.409-1.694,3.015-3.339,4.814-4.936c1.798-1.593,3.736-3.085,5.815-4.474c1.535-1.023,3.339-2.048,5.411-3.071
		c2.071-1.023,4.404-2.114,6.997-3.271c0.593-0.18,1.132-0.341,1.609-0.482c0.48-0.139,0.992-0.284,1.536-0.434
		c0.546-0.147,1.156-0.304,1.834-0.47c0.677-0.164,1.511-0.362,2.502-0.594c-0.082-0.015,0.335-0.114,1.251-0.297
		c0.917-0.182,2.014-0.121,3.285,0.176L579.687,686.55z M548.261,731.958c-0.762-1.142-1.257-2.177-1.479-3.104
		c-0.227-0.925-0.272-1.826-0.142-2.703c0.001,0.86,0.114,1.754,0.339,2.679c0.226,0.928,0.636,1.838,1.232,2.731l4.672,7l2.6-1.09
		c0.793-0.313,1.553-0.675,2.279-1.09c0.727-0.412,1.411-0.835,2.056-1.264c0.692-0.463,1.304-0.888,1.832-1.276
		c0.527-0.388,1.063-0.765,1.609-1.129l5.769-3.741l-5.595,3.842l-0.817,0.544c-0.446,0.298-0.92,0.634-1.423,1.005
		c-0.504,0.372-1.053,0.756-1.647,1.152c-0.545,0.363-1.155,0.735-1.832,1.115c-0.677,0.381-1.412,0.727-2.205,1.04l-2.674,1.14
		L548.261,731.958z M549.897,718.163l-0.864,2.084c-0.327,0.795-0.769,1.662-1.321,2.604c-0.551,0.943-0.908,2.044-1.072,3.3
		c0.013-2.018,0.465-3.809,1.354-5.371s1.64-2.69,2.25-3.385L549.897,718.163z M551.908,719.728
		c0.643-0.859,0.939-1.595,0.889-2.207l0.247-0.596c0.427-1.289,0.867-2.641,1.319-4.056s0.982-2.791,1.591-4.13
		c-0.922,1.621-1.612,3.32-2.072,5.096c-0.461,1.78-1.109,3.594-1.949,5.445c-0.149,0.314-0.321,0.645-0.52,0.992
		C551.578,720.094,551.743,719.91,551.908,719.728z M557.564,722.09c-0.694,0.464-1.127,1.129-1.298,1.996
		c-0.173,0.868-0.341,1.503-0.505,1.897l0.197-0.024c0.147-0.313,0.437-0.899,0.864-1.761c0.428-0.859,0.89-1.777,1.384-2.754
		c0.493-0.974,0.972-1.921,1.433-2.839c0.462-0.917,0.808-1.632,1.038-2.146c-0.149,0.314-0.384,0.74-0.705,1.276
		c-0.322,0.538-0.646,1.097-0.976,1.675c-0.33,0.58-0.631,1.121-0.901,1.624C557.822,721.54,557.646,721.891,557.564,722.09z"/>
</g>
</svg>
