<?xml version="1.0" encoding="utf-8"?>
<!-- Generator: Adobe Illustrator 15.0.0, SVG Export Plug-In . SVG Version: 6.00 Build 0)  -->
<!DOCTYPE svg PUBLIC "-//W3C//DTD SVG 1.1//EN" "http://www.w3.org/Graphics/SVG/1.1/DTD/svg11.dtd">
<svg version="1.1" id="Calque_1" xmlns="http://www.w3.org/2000/svg" xmlns:xlink="http://www.w3.org/1999/xlink" x="0px" y="0px"
	 width="841.89px" height="258.727px" viewBox="0 0 841.89 258.727" enable-background="new 0 0 841.89 258.727"
	 xml:space="preserve">
<path opacity="0.33" fill="#103653" d="M94.127,69.875c-0.208-0.641-0.763-1.109-1.431-1.205l-8.501-1.234l-3.803-7.706
	c-0.114-0.231-0.287-0.419-0.482-0.576V-5.921c0-0.612-0.495-1.107-1.107-1.107c-0.611,0-1.107,0.495-1.107,1.107v65.074
	c-0.194,0.159-0.367,0.345-0.481,0.576l-3.803,7.706l-8.501,1.234c-0.669,0.096-1.223,0.564-1.431,1.205
	c-0.208,0.642-0.034,1.347,0.449,1.818l6.151,5.996l-1.453,8.466c-0.114,0.666,0.16,1.337,0.706,1.733
	c0.546,0.396,1.27,0.448,1.867,0.135l7.603-3.996l7.604,3.996c0.26,0.137,0.543,0.203,0.825,0.203c0.368,0,0.733-0.113,1.042-0.338
	c0.546-0.396,0.819-1.068,0.706-1.733l-1.453-8.466l6.151-5.996C94.162,71.222,94.335,70.517,94.127,69.875z M84.384,75.801
	c-0.418,0.407-0.608,0.992-0.51,1.568l1.003,5.845l-5.249-2.758c-0.258-0.137-0.541-0.205-0.825-0.205
	c-0.283,0-0.566,0.068-0.824,0.205l-5.249,2.758l1.002-5.845c0.099-0.576-0.092-1.161-0.509-1.568l-4.247-4.14l5.869-0.854
	c0.577-0.082,1.077-0.445,1.335-0.969l2.625-5.318l2.625,5.318c0.259,0.523,0.757,0.887,1.335,0.969l5.869,0.854L84.384,75.801z"/>
<path opacity="0.54" fill="#F79927" enable-background="new    " d="M-615.355,193.057c-0.431-1.327-1.58-2.298-2.963-2.497
	l-17.608-2.557l-7.876-15.959c-0.239-0.482-0.596-0.87-1-1.195V36.059c0-1.269-1.027-2.293-2.293-2.293
	c-1.266,0-2.293,1.025-2.293,2.293v134.79c-0.403,0.328-0.762,0.717-1,1.195l-7.875,15.959l-17.608,2.557
	c-1.385,0.199-2.532,1.17-2.963,2.497c-0.431,1.33-0.071,2.79,0.929,3.767l12.742,12.418l-3.009,17.537
	c-0.236,1.38,0.331,2.769,1.461,3.589c1.13,0.824,2.631,0.932,3.867,0.281l15.749-8.277l15.75,8.277
	c0.536,0.282,1.125,0.422,1.709,0.422c0.761,0,1.519-0.237,2.158-0.703c1.131-0.82,1.697-2.213,1.46-3.589l-3.009-17.537
	l12.743-12.418C-615.285,195.847-614.924,194.387-615.355,193.057z M-635.537,205.332c-0.864,0.846-1.259,2.057-1.055,3.251
	l2.076,12.104l-10.872-5.712c-0.534-0.282-1.121-0.423-1.709-0.423c-0.587,0-1.174,0.141-1.708,0.423l-10.872,5.712l2.076-12.104
	c0.204-1.194-0.19-2.405-1.056-3.251l-8.798-8.575l12.156-1.769c1.195-0.172,2.232-0.925,2.766-2.007l5.437-11.019l5.438,11.019
	c0.535,1.082,1.569,1.835,2.766,2.007l12.156,1.769L-635.537,205.332z"/>
<path opacity="0.3" fill="#F79927" d="M150.456,84.027c-0.309-0.95-1.131-1.646-2.122-1.787l-12.61-1.832l-5.641-11.431
	c-0.171-0.343-0.427-0.623-0.716-0.855v-96.533c0-0.908-0.735-1.642-1.643-1.642c-0.906,0-1.643,0.734-1.643,1.642v96.533
	c-0.289,0.236-0.544,0.512-0.715,0.855l-5.641,11.431l-12.61,1.832c-0.992,0.142-1.813,0.837-2.122,1.787
	c-0.309,0.952-0.05,1.998,0.666,2.697l9.125,8.896l-2.155,12.558c-0.169,0.988,0.237,1.983,1.047,2.571
	c0.81,0.589,1.884,0.666,2.77,0.2l11.279-5.929l11.28,5.929c0.384,0.202,0.806,0.302,1.224,0.302c0.545,0,1.087-0.168,1.545-0.502
	c0.81-0.588,1.216-1.585,1.047-2.571l-2.155-12.558l9.125-8.896C150.506,86.025,150.765,84.979,150.456,84.027z M136.002,92.817
	c-0.619,0.604-0.901,1.473-0.755,2.327l1.487,8.671l-7.786-4.093c-0.383-0.202-0.803-0.303-1.224-0.303
	c-0.42,0-0.84,0.101-1.223,0.303l-7.786,4.093l1.487-8.671c0.146-0.854-0.137-1.723-0.756-2.327l-6.3-6.14l8.706-1.268
	c0.855-0.122,1.599-0.661,1.981-1.438l3.895-7.889l3.894,7.889c0.383,0.776,1.124,1.315,1.981,1.438l8.706,1.268L136.002,92.817z"/>
<path opacity="0.3" fill="#F79927" enable-background="new    " d="M21.519,134.952l14.149-2.056l6.33-12.825
	c0.192-0.388,0.48-0.698,0.804-0.962V10.787c0-1.019,0.826-1.843,1.843-1.843c1.018,0,1.843,0.824,1.843,1.843v108.322
	c0.325,0.266,0.612,0.576,0.804,0.962l6.33,12.825l14.149,2.056c1.113,0.16,2.035,0.939,2.382,2.007
	c0.346,1.068,0.058,2.243-0.747,3.027l-10.241,9.979l2.418,14.094c0.19,1.108-0.265,2.225-1.173,2.883
	c-0.515,0.375-1.123,0.566-1.734,0.566c-0.471,0-0.942-0.112-1.373-0.34l-12.658-6.651l-12.657,6.651
	c-0.993,0.523-2.2,0.436-3.107-0.227c-0.909-0.658-1.364-1.778-1.175-2.883l2.418-14.094l-10.241-9.979
	c-0.804-0.784-1.093-1.959-0.746-3.027C19.484,135.892,20.407,135.112,21.519,134.952z"/>
<path opacity="0.21" fill="#50C2C8" enable-background="new    " d="M126.077,79.015c-10.875,1.955-22.447,2.025-34.192-0.105
	c-22.722-4.117-41.928-15.72-54.903-31.296C18.03,64.042-9.629,72.009-38.35,66.806c-35.607-6.453-60.596-24.844-68.415-54.583
	l-19.031-3.448c-0.856-0.153-2.328-0.358-3.154-0.569c-15.211,31.175-52.199,47.531-92.197,40.284
	c-34.334-6.221-60.662-29.526-69.52-57.843c-2.695,0.457-5.448,0.44-8.137-0.053c-2.48-0.45-4.774-1.279-6.855-2.387
	c-6.718,4.993-15.904,7.277-25.417,5.555c-13.611-2.465-23.717-12.399-25.766-23.985c-17.123,8.919-39.104,17.851-60.63,13.951
	c-28.718-5.202-53.669-17.645-65.648-39.688c-17.612,10.045-33.197,10.361-56.037,6.958c-18.158-2.704-27.396-11.759-35.513-18.941
	c-10.665,38.065-52.833,61.854-97.551,53.757c-37.567-6.81-65.546-34.071-71.545-65.972c-4.729,1.172-9.654,1.33-14.449,0.452
	c-7.044-1.276-13.129-4.571-17.669-9.041c-9.36,23.48-36.751,37.638-65.722,32.388c-31.447-5.697-57.438-27.381-54.166-55.13
	c-12.585,3.148-25.947,3.338-39.912,0.808c-17.58-3.184-29.076-15.212-41.198-25.732c-4.626,4.045-11.397,6.018-18.437,4.745
	c-2.781-0.505-5.346-1.479-7.62-2.794c-11.37,18.451-33.852,30.882-58.875,27.128l9.513-92.033L868.359-0.834l-25.107,242.887
	c-18.257,11.979-49.462,16.695-74.12,12.228c-1.108-0.199-2.204-0.421-3.292-0.655c-0.042-0.073-0.088-0.147-0.124-0.225
	c-0.118,0.042-0.229,0.08-0.343,0.123c-35.671-7.894-61.997-34.382-67.79-65.211c-4.733,1.174-9.658,1.327-14.453,0.448
	c-7.042-1.274-13.132-4.569-17.669-9.043c-9.357,23.483-36.742,37.64-65.72,32.393c-25.781-4.673-44.98-23.308-49.278-45.159
	c-2.686,0.451-5.432,0.438-8.109-0.055c-7.042-1.273-12.686-5.496-15.603-10.908c-15.04,5.602-32.226,7.348-49.811,4.163
	c-13.965-2.531-26.587-7.9-37.268-15.27c-6.671,27.143-36.24,44.308-67.696,38.614c-34.147-6.176-50.814-33.224-50.172-53.382
	c-5.82,2.593-12.683,3.544-19.725,2.269c-5.018-0.91-9.537-2.851-13.37-5.493c-16.8,27.771-52.569,43.484-90.145,36.677
	c-5.26-0.953-10.33-2.319-15.182-4.034c-14.227-5.359-26.47-13.82-35.82-24.268c-0.165,0.28-0.353,0.539-0.525,0.813
	C132.33,120.423,124.276,100.055,126.077,79.015L126.077,79.015z"/>
<path fill="#96D2CA" d="M-1055.521,36.813c4.023,8.887,13.094,15.094,23.655,15.094c8.632,0.032,16.72-4.224,21.577-11.359
	c4.395,3.068,9.625,4.712,14.984,4.706c4.362,0,8.46-1.068,12.063-2.924c0.333,13.72,11.769,24.758,25.86,24.758
	c8.295,0,15.664-3.842,20.403-9.791c11.66,23.543,36.279,39.77,64.792,39.77c31.683,0,58.579-20.066,68.184-47.926
	c3.642,1.827,7.66,2.775,11.735,2.773c5.945,0,11.401-1.979,15.772-5.282c4.166,22.765,24.436,40.052,48.877,40.052
	c21.747,0,40.185-13.708,46.938-32.759c2.047,0.82,4.272,1.284,6.629,1.284c5.686,0.019,11.03-2.703,14.358-7.312
	c11.454,7.53,25.233,11.924,40.064,11.924c11.778,0,22.883-2.79,32.697-7.699c1.429,25.638,23.039,46.013,49.569,46.013
	c24.435,0,44.71-17.287,48.877-40.058c4.539,3.436,10.08,5.294,15.772,5.287c4.23,0,8.207-1.011,11.732-2.775
	c9.607,27.857,36.494,47.925,68.183,47.925c37.713,0,68.635-28.419,71.712-64.582c8.861,3.654,18.357,5.526,27.943,5.508
	c19.164,0,36.562-7.351,49.463-19.313c13.044,17.963,34.452,29.695,58.682,29.695c30.04,0,55.766-18.029,66.558-43.641
	c4.063,2.435,8.712,3.719,13.452,3.719c0.721,0,1.434-0.048,2.146-0.105c7.803,30.678,36.105,53.412,69.84,53.412
	c28.96,0,53.911-16.768,65.334-40.914c2.052,0.816,4.296,1.284,6.647,1.284c2.083,0,4.081-0.376,5.954-1.032
	c4.963,5.85,12.26,9.211,19.925,9.185c11.49,0,21.202-7.32,24.602-17.458c12.659,10.859,29.238,17.458,47.394,17.458
	c24.225,0,45.628-11.724,58.682-29.687c12.901,11.96,30.3,19.312,49.454,19.312c9.909,0,19.356-1.961,27.948-5.509
	c3.078,36.171,33.986,64.581,71.717,64.581c31.688,0,58.574-20.068,68.188-47.928c3.525,1.768,7.499,2.775,11.723,2.775
	c5.693,0.012,11.234-1.843,15.769-5.281c4.17,22.763,24.444,40.051,48.885,40.051c26.523,0,48.137-20.373,49.565-46.006
	c10.151,5.079,21.346,7.714,32.696,7.695c14.827,0,28.611-4.399,40.061-11.919c3.328,4.605,8.673,7.323,14.357,7.307
	c2.347,0,4.587-0.457,6.643-1.278c6.737,19.057,25.18,32.757,46.928,32.757c24.427,0,44.71-17.289,48.881-40.055
	c4.542,3.436,10.079,5.292,15.768,5.287c4.233,0,8.211-1.011,11.736-2.773c9.618,27.855,36.504,47.923,68.192,47.923
	c6.164,0,12.135-0.803,17.837-2.236V-2h-1930.887v36.35c4.878,4.743,11.419,7.387,18.222,7.369
	C-1065.066,41.719-1059.805,39.885-1055.521,36.813z"/>
<path fill="#96D2CA" d="M-1116.638,175.971c3.795-1.09,7.57-1.602,11.208-1.656c9.055-18.169,31.628-46.73,57.964-51.107
	c27.824-4.623,44.673,1.88,58.678,17.772c0.064-0.009,3.954-5.495,13.761-13.188c21.215-16.637,43.857-16.985,55.237-8.027
	c9.323,7.34,18.715,20.223,14.161,33.243c2.72-0.883,5.564-1.587,8.518-2.078c24.128-4.009,46.127,7.41,49.134,25.506
	c3.007,18.099-14.116,36.02-38.244,40.029c-6.479,1.077-12.787,1.01-18.63,0.033c-6.756,21.182-29.673,39.234-59.226,44.146
	c-27.822,4.623-53.852-3.678-67.856-19.57c-27.229,4.441-52.705-3.485-66.833-18.781c-1.358,0.54-2.746,1.044-4.195,1.463
	c-17.593,5.035-34.917-1.579-38.697-14.771C-1145.431,195.788-1134.232,181.007-1116.638,175.971z"/>
<path opacity="0.75" fill="#F79927" enable-background="new    " d="M-771.301,113.433c-0.42,0-0.838-0.101-1.223-0.303
	l-11.267-5.921l-11.268,5.921c-0.884,0.463-1.957,0.386-2.766-0.199c-0.81-0.59-1.214-1.583-1.046-2.568l2.151-12.548l-9.117-8.886
	c-0.718-0.7-0.974-1.742-0.666-2.694c0.311-0.95,1.131-1.645,2.123-1.787l12.595-1.828l5.635-11.417
	c0.443-0.897,1.356-1.466,2.356-1.466l0,0c0.999,0,1.913,0.569,2.355,1.466l5.633,11.417l12.595,1.828
	c0.991,0.145,1.812,0.837,2.123,1.787c0.309,0.952,0.05,1.995-0.666,2.694l-9.117,8.886l2.151,12.548
	c0.17,0.985-0.236,1.979-1.046,2.568C-770.213,113.263-770.758,113.433-771.301,113.433z M-798.353,88.883l6.294,6.136
	c0.619,0.604,0.9,1.474,0.756,2.325l-1.486,8.66l7.78-4.087c0.764-0.404,1.679-0.404,2.442,0l7.777,4.087l-1.486-8.66
	c-0.145-0.852,0.138-1.721,0.757-2.325l6.293-6.136l-8.697-1.261c-0.854-0.126-1.596-0.663-1.979-1.439l-3.887-7.882l-3.891,7.882
	c-0.383,0.776-1.121,1.313-1.977,1.439L-798.353,88.883z"/>
<path fill="#F79927" d="M17.117,359.489l-7.079,6.901l1.672,9.742c0.131,0.765-0.183,1.537-0.812,1.994
	c-0.628,0.455-1.462,0.518-2.149,0.155L0,373.682l-8.75,4.601c-0.298,0.155-0.624,0.234-0.95,0.234c-0.425,0-0.843-0.131-1.2-0.39
	c-0.628-0.457-0.942-1.229-0.812-1.994l1.672-9.742l-7.078-6.901c-0.558-0.542-0.757-1.352-0.517-2.09
	c0.241-0.738,0.877-1.277,1.647-1.39l9.782-1.42l4.373-8.863c0.344-0.698,1.053-1.136,1.83-1.136c0.778,0,1.484,0.438,1.829,1.136
	l4.375,8.863l9.782,1.42c0.768,0.114,1.405,0.651,1.646,1.39S17.674,358.947,17.117,359.489z"/>
<path fill="#96D2CA" d="M-231.003,232.049c-1.648,0.011-3.167-0.249-4.536-0.701c-7.243,7.286-21.741,17.641-32.501,16.225
	c-11.369-1.496-16.276-6.739-18.125-15.991c-0.024-0.005-2.645,2.042-7.94,4.345c-11.456,4.973-19.981,2.164-22.326-3.508
	c-1.919-4.645-2.686-11.889,1.783-17.362c-1.203,0.054-2.415,0.014-3.622-0.147c-9.857-1.295-15.643-9.51-12.917-18.344
	c2.724-8.835,12.928-14.945,22.788-13.649c2.647,0.349,4.988,1.208,6.961,2.434c7.026-8.99,19.417-14.401,31.494-12.813
	c11.369,1.495,19.318,8.786,21.166,18.033c11.109,1.505,18.933,8.546,20.956,17.535c0.62-0.076,1.245-0.126,1.875-0.132
	c7.638-0.043,12.699,5.319,11.304,11.967C-216.042,226.586-223.366,232.011-231.003,232.049z"/>
<path fill="#96D2CA" d="M-186.618,108.48c2.305-0.304,4.478-0.215,6.466,0.168c8.822-11.502,27.242-28.598,42.556-28.554
	c16.177,0.046,23.98,6.5,28.24,19.105c0.036,0.005,3.328-3.335,10.316-7.504c15.146-9.019,27.572-6.626,31.868,0.887
	c3.534,6.16,5.904,16.148,0.641,24.612c1.671-0.291,3.373-0.452,5.093-0.44c14.021,0.036,23.598,10.488,21.381,23.335
	c-2.227,12.853-15.405,23.241-29.431,23.205c-3.758-0.014-7.19-0.796-10.168-2.149c-8.211,13.84-24.579,23.646-41.758,23.594
	c-16.177-0.046-28.61-8.813-32.865-21.414c-15.811-0.105-28.021-8.551-32.47-20.762c-0.86,0.218-1.725,0.401-2.603,0.526
	c-10.679,1.431-18.727-5.158-17.972-14.706C-206.567,118.823-197.299,109.919-186.618,108.48z"/>
<path fill="#96D2CA" d="M597.334,151.431c1.648,0.011,3.168-0.247,4.533-0.7c7.244,7.285,21.74,17.639,32.504,16.224
	c11.369-1.495,16.274-6.738,18.124-15.99c0.026-0.004,2.644,2.044,7.938,4.345c11.458,4.972,19.982,2.162,22.325-3.508
	c1.922-4.646,2.688-11.889-1.782-17.361c1.2,0.053,2.414,0.011,3.623-0.149c9.859-1.293,15.639-9.509,12.92-18.344
	c-2.729-8.835-12.933-14.944-22.793-13.649c-2.643,0.35-4.984,1.21-6.956,2.434c-7.024-8.99-19.419-14.4-31.491-12.813
	c-11.369,1.495-19.32,8.787-21.166,18.033c-11.109,1.506-18.935,8.546-20.955,17.534c-0.618-0.072-1.245-0.125-1.872-0.13
	c-7.638-0.041-12.7,5.318-11.307,11.968C582.374,145.971,589.698,151.393,597.334,151.431z"/>
<path fill="#96D2CA" d="M761.51,182.333c1.106,0.007,2.128-0.165,3.046-0.47c4.865,4.894,14.604,11.851,21.834,10.898
	c7.638-1.005,10.935-4.527,12.175-10.741c0.019-0.004,1.778,1.372,5.335,2.915c7.691,3.34,13.421,1.455,14.993-2.354
	c1.29-3.121,1.806-7.983-1.195-11.663c0.811,0.037,1.621,0.007,2.437-0.101c6.621-0.869,10.504-6.388,8.677-12.322
	c-1.832-5.934-8.686-10.037-15.312-9.168c-1.773,0.236-3.346,0.813-4.672,1.633c-4.722-6.039-13.044-9.674-21.156-8.607
	c-7.638,1.004-12.978,5.904-14.219,12.115c-7.463,1.011-12.717,5.74-14.074,11.778c-0.417-0.05-0.838-0.084-1.259-0.087
	c-5.134-0.027-8.533,3.573-7.598,8.039C751.458,178.663,756.381,182.306,761.51,182.333z"/>
<rect x="-164.233" y="-323.863" fill="#103653" width="248.988" height="124.494"/>
<path opacity="0.24" fill="#103653" d="M-73.078,362.745l12.918-1.877l5.777-11.709c0.176-0.354,0.439-0.639,0.734-0.879v-98.895
	c0-0.93,0.754-1.682,1.684-1.682c0.929,0,1.683,0.752,1.683,1.682v98.895c0.296,0.242,0.558,0.527,0.733,0.879l5.778,11.709
	l12.919,1.877c1.016,0.145,1.857,0.857,2.174,1.832s0.053,2.047-0.682,2.764l-9.35,9.111l2.208,12.866
	c0.173,1.012-0.242,2.031-1.071,2.633c-0.47,0.342-1.025,0.516-1.584,0.516c-0.43,0-0.859-0.102-1.254-0.309l-11.555-6.074
	l-11.556,6.074c-0.907,0.477-2.008,0.396-2.837-0.207c-0.83-0.602-1.245-1.625-1.072-2.633l2.208-12.866l-9.35-9.111
	c-0.734-0.717-0.998-1.789-0.681-2.764S-74.093,362.89-73.078,362.745z"/>
<path fill="#96D2CA" d="M730.879,98.433c0.762,0.005,1.465-0.113,2.098-0.323c3.35,3.369,10.054,8.158,15.031,7.503
	c5.259-0.691,7.528-3.117,8.383-7.395c0.013-0.003,1.224,0.944,3.673,2.007c5.295,2.299,9.239,1.002,10.322-1.621
	c0.888-2.149,1.243-5.496-0.823-8.03c0.559,0.026,1.116,0.005,1.678-0.068c4.559-0.599,7.231-4.398,5.974-8.484
	c-1.262-4.085-5.979-6.91-10.542-6.312c-1.221,0.163-2.303,0.559-3.216,1.124c-3.251-4.157-8.98-6.66-14.565-5.926
	c-5.259,0.691-8.935,4.064-9.789,8.34c-5.139,0.697-8.756,3.953-9.69,8.11c-0.287-0.034-0.576-0.058-0.866-0.06
	c-3.534-0.02-5.875,2.46-5.23,5.534S727.348,98.414,730.879,98.433z"/>
</svg>
