<?xml version="1.0" encoding="utf-8"?>
<!-- Generator: Adobe Illustrator 15.0.0, SVG Export Plug-In . SVG Version: 6.00 Build 0)  -->
<!DOCTYPE svg PUBLIC "-//W3C//DTD SVG 1.1//EN" "http://www.w3.org/Graphics/SVG/1.1/DTD/svg11.dtd">
<svg version="1.1" id="Calque_1" xmlns="http://www.w3.org/2000/svg" xmlns:xlink="http://www.w3.org/1999/xlink" x="0px" y="0px"
	 width="841.89px" height="176.453px" viewBox="0 0 841.89 176.453" enable-background="new 0 0 841.89 176.453"
	 xml:space="preserve">
<path fill="#96D2CA" d="M128.798,98.959c0.777,0,1.529,0.107,2.249,0.291c3.114-5.682,9.148-9.535,16.085-9.535
	c7.706,0,14.29,4.762,17.002,11.499c0.611-9.573,8.547-17.153,18.273-17.153c8.456,0,15.556,5.734,17.673,13.52
	c3.338-3.488,8.027-5.67,13.236-5.67c3.895,0,7.499,1.223,10.469,3.293c2.061-7.869,9.199-13.686,17.715-13.686
	c10.075,0,18.245,8.129,18.326,18.187c2.17-1.597,4.84-2.552,7.739-2.552c4.646,0,8.716,2.429,11.04,6.077
	c1.571-1.297,3.586-2.076,5.783-2.076c5.021,0,9.09,4.07,9.09,9.092s-4.069,9.09-9.09,9.09c-2.197,0-4.212-0.779-5.783-2.074
	c-2.323,3.648-6.395,6.074-11.04,6.074c-2.47,0-4.771-0.695-6.741-1.883c-1.542,8.564-9.018,15.066-18.025,15.066
	c-6.342,0-11.93-3.221-15.222-8.113c-2.24,1.793-5.077,2.871-8.17,2.871c-2.224,0-4.315-0.559-6.149-1.535
	c-0.602,9.58-8.541,17.17-18.274,17.17c-6.539,0-12.262-3.434-15.508-8.584c-0.351,0.041-0.706,0.068-1.068,0.068
	c-5.021,0-9.091-4.07-9.091-9.09c0-0.246,0.018-0.488,0.036-0.73c-0.012,0-0.023,0.002-0.036,0.002
	c-4.623,0-8.677-2.402-11.007-6.02c-3.096,2.389-6.965,3.826-11.178,3.826c-6.937,0-12.971-3.854-16.084-9.535
	c-0.721,0.184-1.473,0.293-2.25,0.293c-5.021,0-9.091-4.07-9.091-9.09C119.708,103.03,123.777,98.959,128.798,98.959z"/>
<path opacity="0.45" fill="#F79927" enable-background="new    " d="M206.515,83.047c-0.188-0.579-0.689-1.002-1.292-1.089
	l-7.677-1.115l-3.434-6.958c-0.104-0.21-0.26-0.379-0.436-0.521v-58.77c0-0.553-0.448-1-1-1c-0.552,0-1,0.447-1,1v58.77
	c-0.176,0.143-0.332,0.313-0.436,0.521l-3.434,6.958l-7.677,1.115c-0.604,0.087-1.104,0.51-1.292,1.089
	c-0.188,0.58-0.031,1.216,0.405,1.642l5.556,5.415l-1.312,7.646c-0.103,0.602,0.144,1.207,0.637,1.564
	c0.493,0.359,1.147,0.406,1.686,0.123l6.867-3.609l6.867,3.609c0.234,0.123,0.49,0.184,0.745,0.184c0.332,0,0.662-0.104,0.941-0.307
	c0.493-0.357,0.74-0.965,0.637-1.564l-1.312-7.646l5.556-5.415C206.546,84.263,206.703,83.627,206.515,83.047z M197.716,88.399
	c-0.377,0.369-0.549,0.897-0.46,1.417l0.905,5.277l-4.74-2.49c-0.233-0.123-0.489-0.185-0.745-0.185
	c-0.256,0-0.512,0.062-0.745,0.185l-4.74,2.49l0.905-5.277c0.089-0.521-0.083-1.049-0.46-1.417L183.8,84.66l5.3-0.771
	c0.521-0.075,0.973-0.403,1.206-0.875l2.371-4.804l2.371,4.804c0.233,0.472,0.684,0.8,1.206,0.875l5.3,0.771L197.716,88.399z"/>
<path opacity="0.24" fill="#103653" d="M91.18,130.427c-0.188-0.578-0.689-1.002-1.292-1.088l-7.677-1.115l-3.434-6.959
	c-0.104-0.209-0.26-0.379-0.436-0.521v-58.77c0-0.553-0.448-1-1-1c-0.552,0-1,0.447-1,1v58.77c-0.176,0.144-0.332,0.312-0.436,0.521
	l-3.434,6.959l-7.677,1.115c-0.604,0.086-1.104,0.51-1.292,1.088c-0.188,0.58-0.031,1.217,0.405,1.643l5.556,5.415l-1.312,7.646
	c-0.103,0.602,0.144,1.207,0.637,1.565s1.147,0.405,1.686,0.122l6.867-3.609l6.867,3.609c0.234,0.123,0.49,0.184,0.745,0.184
	c0.332,0,0.662-0.103,0.941-0.306c0.493-0.358,0.74-0.965,0.637-1.565l-1.312-7.646l5.556-5.415
	C91.21,131.644,91.368,131.007,91.18,130.427z M82.38,135.778c-0.377,0.368-0.549,0.896-0.46,1.417l0.905,5.278l-4.74-2.491
	c-0.233-0.123-0.489-0.185-0.745-0.185c-0.256,0-0.512,0.062-0.745,0.185l-4.74,2.491l0.905-5.278
	c0.089-0.521-0.083-1.049-0.46-1.417l-3.835-3.738l5.3-0.771c0.521-0.074,0.973-0.402,1.206-0.875l2.371-4.803l2.371,4.803
	c0.233,0.473,0.684,0.801,1.206,0.875l5.3,0.771L82.38,135.778z"/>
<path opacity="0.45" fill="#F79927" enable-background="new    " d="M28.436,150.592l7.677-1.115l3.434-6.958
	c0.104-0.21,0.26-0.379,0.436-0.521v-58.77c0-0.553,0.448-1,1-1c0.552,0,1,0.447,1,1v58.77c0.176,0.144,0.332,0.313,0.436,0.521
	l3.434,6.958l7.677,1.115c0.604,0.087,1.104,0.51,1.292,1.089c0.188,0.58,0.031,1.217-0.405,1.643l-5.556,5.414l1.312,7.646
	c0.103,0.602-0.144,1.207-0.637,1.564c-0.279,0.203-0.609,0.307-0.941,0.307c-0.255,0-0.511-0.061-0.745-0.184l-6.867-3.609
	l-6.867,3.609c-0.539,0.283-1.193,0.236-1.686-0.123c-0.493-0.357-0.74-0.965-0.637-1.564l1.312-7.646l-5.556-5.414
	c-0.436-0.426-0.593-1.063-0.405-1.643C27.332,151.102,27.833,150.679,28.436,150.592z"/>
<path opacity="0.21" fill="#50C2C8" enable-background="new    " d="M523.542,66.908c-4.629,1.335-9.645,1.884-14.834,1.487
	c-10.039-0.767-18.889-4.938-25.215-11.112c-7.482,7.975-19.121,12.67-31.811,11.701c-15.732-1.202-27.395-8.058-32.119-20.606
	l-8.408-0.642c-0.378-0.028-1.025-0.051-1.394-0.105c-5.199,14.202-20.508,22.954-38.18,21.604
	c-15.17-1.159-27.633-10.086-32.744-21.97c-1.148,0.319-2.343,0.435-3.531,0.342c-1.096-0.084-2.128-0.341-3.08-0.728
	c-2.689,2.466-6.571,3.869-10.774,3.548c-6.014-0.459-10.842-4.314-12.25-9.247c-7.026,4.636-16.159,9.495-25.67,8.769
	c-12.688-0.969-24.067-5.247-30.251-14.27c-7.188,5.146-13.933,5.982-23.991,5.53c-7.996-0.359-12.409-3.872-16.251-6.623
	c-2.919,16.987-20.141,29.195-39.898,27.688c-16.598-1.269-29.955-11.838-33.987-25.405c-1.998,0.721-4.127,1.01-6.246,0.844
	c-3.112-0.238-5.899-1.394-8.068-3.129c-3.007,10.603-14.252,17.971-27.052,16.993c-13.894-1.061-26.138-9.3-25.963-21.482
	c-5.317,1.93-11.104,2.611-17.274,2.14c-7.767-0.593-13.292-5.294-19.021-9.313c-1.825,1.962-4.673,3.121-7.783,2.884
	c-1.229-0.094-2.385-0.401-3.43-0.87C20.214,33.448,11.021,39.847,0,39.341V-1h841.89v106.466
	c-7.381,6.013-20.703,9.458-31.598,8.626c-0.49-0.037-0.975-0.084-1.457-0.137c-0.021-0.03-0.045-0.061-0.064-0.092
	c-0.049,0.023-0.096,0.045-0.143,0.068c-15.824-1.824-28.43-12.132-32.324-25.243c-2,0.721-4.129,1.008-6.248,0.842
	c-3.111-0.237-5.9-1.393-8.068-3.129c-3.006,10.604-14.248,17.971-27.051,16.995c-11.391-0.871-20.553-8.092-23.396-17.376
	c-1.145,0.316-2.336,0.433-3.52,0.34c-3.111-0.237-5.748-1.815-7.256-4.032c-6.271,3.104-13.646,4.632-21.416,4.039
	c-6.17-0.472-11.885-2.234-16.848-4.952c-1.676,12.071-13.73,20.841-27.629,19.782c-15.086-1.147-23.527-12.131-24.152-20.902
	c-2.408,1.385-5.342,2.105-8.453,1.868c-2.217-0.17-4.264-0.809-6.045-1.783c-6.041,12.798-20.85,21.216-37.451,19.948
	c-2.324-0.178-4.584-0.543-6.766-1.069c-6.41-1.687-12.1-4.807-16.623-8.919c-0.059,0.129-0.129,0.25-0.191,0.376
	C528.111,84.586,523.705,76.114,523.542,66.908L523.542,66.908z"/>
<path fill="#96D2CA" d="M14.598,14.923c1.754,3.875,5.709,6.581,10.314,6.581c3.764,0.014,7.29-1.842,9.408-4.953
	c1.916,1.338,4.196,2.055,6.533,2.052c1.902,0,3.689-0.466,5.26-1.275c0.145,5.982,5.131,10.795,11.275,10.795
	c3.617,0,6.83-1.675,8.896-4.269c5.084,10.265,15.818,17.34,28.25,17.34c13.814,0,25.541-8.749,29.729-20.896
	c1.588,0.796,3.34,1.21,5.117,1.209c2.592,0,4.971-0.863,6.877-2.303c1.816,9.926,10.654,17.463,21.311,17.463
	c9.482,0,17.521-5.977,20.465-14.283c0.893,0.357,1.863,0.56,2.891,0.56c2.479,0.008,4.809-1.179,6.26-3.188
	c4.994,3.283,11.002,5.199,17.469,5.199c5.135,0,9.977-1.216,14.256-3.357c0.623,11.179,10.045,20.062,21.613,20.062
	c10.654,0,19.494-7.537,21.311-17.465c1.979,1.498,4.395,2.308,6.877,2.305c1.844,0,3.578-0.441,5.115-1.21
	c4.189,12.146,15.912,20.896,29.729,20.896c16.443,0,29.926-12.391,31.268-28.158c3.863,1.593,8.004,2.409,12.184,2.401
	c8.355,0,15.941-3.205,21.566-8.42c5.688,7.832,15.021,12.947,25.586,12.947c13.098,0,24.314-7.861,29.02-19.028
	c1.771,1.062,3.799,1.622,5.865,1.622c0.314,0,0.625-0.021,0.936-0.046c3.402,13.376,15.742,23.288,30.451,23.288
	c12.627,0,23.506-7.311,28.486-17.839c0.895,0.356,1.873,0.56,2.898,0.56c0.908,0,1.779-0.164,2.596-0.45
	c2.164,2.551,5.346,4.016,8.688,4.005c5.01,0,9.244-3.192,10.727-7.612c5.52,4.735,12.748,7.612,20.664,7.612
	c10.563,0,19.895-5.112,25.586-12.944c5.625,5.215,13.211,8.42,21.563,8.42c4.32,0,8.439-0.855,12.186-2.402
	c1.342,15.771,14.818,28.158,31.27,28.158c13.816,0,25.539-8.75,29.73-20.897c1.537,0.771,3.27,1.21,5.111,1.21
	c2.482,0.005,4.898-0.804,6.875-2.303c1.818,9.925,10.658,17.463,21.314,17.463c11.564,0,20.988-8.883,21.611-20.059
	c4.426,2.214,9.307,3.363,14.256,3.355c6.465,0,12.475-1.918,17.467-5.197c1.451,2.008,3.781,3.193,6.26,3.186
	c1.023,0,2-0.199,2.896-0.557c2.938,8.309,10.979,14.282,20.461,14.282c10.65,0,19.494-7.538,21.313-17.464
	c1.98,1.498,4.395,2.307,6.875,2.305c1.846,0,3.58-0.441,5.117-1.209c4.193,12.145,15.916,20.895,29.732,20.895
	c2.688,0,5.291-0.35,7.777-0.975V-2H0v15.849c2.127,2.068,4.979,3.221,7.945,3.213C10.436,17.062,12.73,16.262,14.598,14.923z"/>
<path opacity="0.24" fill="#103653" d="M138.521,48.33c-0.183,0-0.365-0.044-0.533-0.132l-4.913-2.582l-4.913,2.582
	c-0.385,0.202-0.853,0.168-1.206-0.087c-0.353-0.257-0.529-0.69-0.456-1.12l0.938-5.471l-3.975-3.874
	c-0.313-0.305-0.425-0.76-0.29-1.175c0.135-0.414,0.493-0.717,0.925-0.779l5.492-0.797l2.457-4.978
	c0.193-0.391,0.591-0.639,1.027-0.639l0,0c0.436,0,0.834,0.248,1.027,0.639l2.456,4.978l5.492,0.797
	c0.432,0.063,0.79,0.365,0.925,0.779c0.135,0.415,0.022,0.87-0.29,1.175l-3.975,3.874l0.938,5.471
	c0.074,0.43-0.103,0.863-0.456,1.12C138.995,48.256,138.758,48.33,138.521,48.33z M126.726,37.626l2.744,2.675
	c0.27,0.264,0.393,0.643,0.33,1.014l-0.648,3.776l3.392-1.782c0.333-0.176,0.732-0.176,1.065,0L137,45.091l-0.648-3.776
	c-0.063-0.371,0.06-0.75,0.33-1.014l2.744-2.675l-3.792-0.55c-0.373-0.055-0.696-0.289-0.863-0.627l-1.695-3.437l-1.696,3.437
	c-0.167,0.338-0.489,0.572-0.862,0.627L126.726,37.626z"/>
<path opacity="0.29" fill="#F79927" d="M257.157,52.678l-3.086,3.009l0.729,4.248c0.057,0.333-0.08,0.67-0.354,0.869
	c-0.274,0.199-0.638,0.226-0.937,0.068l-3.815-2.006l-3.815,2.006c-0.13,0.068-0.272,0.102-0.414,0.102
	c-0.185,0-0.368-0.057-0.523-0.17c-0.274-0.199-0.411-0.536-0.354-0.869l0.729-4.248l-3.086-3.009
	c-0.243-0.236-0.33-0.589-0.225-0.911c0.105-0.322,0.382-0.557,0.718-0.606l4.265-0.619l1.907-3.865
	c0.15-0.304,0.459-0.495,0.798-0.495c0.339,0,0.647,0.191,0.797,0.495l1.908,3.865l4.265,0.619c0.335,0.05,0.613,0.284,0.718,0.606
	C257.487,52.089,257.4,52.442,257.157,52.678z"/>
<path fill="#96D2CA" d="M374.097,100.048c-0.719,0.005-1.381-0.108-1.978-0.306c-3.158,3.177-9.479,7.691-14.171,7.074
	c-4.957-0.652-7.097-2.938-7.902-6.973c-0.011-0.002-1.153,0.891-3.462,1.895c-4.995,2.168-8.712,0.943-9.734-1.529
	c-0.837-2.025-1.171-5.184,0.777-7.57c-0.524,0.023-1.053,0.006-1.579-0.064c-4.298-0.564-6.82-4.146-5.632-7.998
	c1.188-3.852,5.637-6.516,9.936-5.951c1.154,0.152,2.175,0.527,3.035,1.061c3.063-3.92,8.466-6.279,13.731-5.587
	c4.957,0.652,8.423,3.831,9.229,7.863c4.844,0.656,8.255,3.726,9.137,7.646c0.271-0.033,0.543-0.055,0.817-0.058
	c3.33-0.019,5.537,2.319,4.929,5.218C380.62,97.666,377.427,100.031,374.097,100.048z"/>
<path fill="#96D2CA" d="M393.449,46.171c1.005-0.133,1.952-0.094,2.819,0.073c3.847-5.015,11.878-12.469,18.555-12.45
	c7.053,0.02,10.456,2.834,12.313,8.33c0.016,0.002,1.451-1.454,4.498-3.272c6.604-3.932,12.021-2.889,13.895,0.387
	c1.541,2.686,2.574,7.041,0.279,10.731c0.729-0.127,1.471-0.197,2.221-0.192c6.113,0.016,10.289,4.573,9.322,10.174
	c-0.971,5.604-6.717,10.134-12.832,10.118c-1.639-0.006-3.135-0.347-4.434-0.937c-3.58,6.034-10.717,10.31-18.207,10.287
	c-7.053-0.02-12.474-3.843-14.33-9.337c-6.894-0.046-12.218-3.728-14.157-9.052c-0.375,0.095-0.752,0.175-1.135,0.229
	c-4.656,0.624-8.165-2.249-7.836-6.412C384.751,50.68,388.792,46.798,393.449,46.171z"/>
<path fill="#96D2CA" d="M542.355,63.199c0.719,0.004,1.381-0.108,1.977-0.306c3.158,3.177,9.479,7.691,14.172,7.074
	c4.957-0.652,7.096-2.938,7.902-6.972c0.012-0.002,1.152,0.891,3.461,1.894c4.996,2.168,8.713,0.943,9.734-1.529
	c0.838-2.026,1.172-5.184-0.777-7.57c0.523,0.023,1.053,0.005,1.58-0.065c4.299-0.564,6.818-4.146,5.633-7.998
	c-1.189-3.852-5.639-6.516-9.938-5.951c-1.152,0.152-2.174,0.527-3.033,1.061c-3.063-3.92-8.467-6.279-13.73-5.587
	c-4.957,0.652-8.424,3.831-9.229,7.863c-4.844,0.656-8.256,3.726-9.137,7.645c-0.27-0.032-0.543-0.055-0.816-0.057
	c-3.33-0.018-5.537,2.319-4.93,5.218S539.025,63.182,542.355,63.199z"/>
<path fill="#96D2CA" d="M720.343,45.269c0.482,0.003,0.928-0.072,1.328-0.205c2.121,2.134,6.367,5.167,9.52,4.752
	c3.33-0.438,4.768-1.974,5.309-4.683c0.008-0.002,0.775,0.598,2.326,1.271c3.354,1.456,5.852,0.634,6.537-1.027
	c0.563-1.361,0.787-3.481-0.521-5.085c0.354,0.016,0.707,0.003,1.063-0.044c2.887-0.379,4.58-2.785,3.783-5.373
	c-0.799-2.587-3.787-4.376-6.676-3.997c-0.773,0.103-1.459,0.354-2.037,0.712c-2.059-2.633-5.688-4.218-9.225-3.753
	c-3.33,0.438-5.658,2.574-6.199,5.282c-3.254,0.441-5.545,2.503-6.137,5.136c-0.182-0.022-0.365-0.037-0.549-0.038
	c-2.238-0.012-3.721,1.558-3.313,3.505C715.96,43.669,718.107,45.257,720.343,45.269z"/>
<path opacity="0.24" fill="#103653" d="M530.615,41.813c-0.184,0-0.365-0.044-0.533-0.133l-4.912-2.581l-4.914,2.581
	c-0.385,0.203-0.853,0.169-1.205-0.086c-0.354-0.258-0.529-0.69-0.457-1.12l0.938-5.472l-3.976-3.874
	c-0.313-0.305-0.424-0.76-0.289-1.175c0.135-0.414,0.492-0.717,0.925-0.779l5.491-0.797l2.457-4.978
	c0.193-0.391,0.592-0.639,1.027-0.639l0,0c0.436,0,0.834,0.248,1.027,0.639l2.456,4.978l5.491,0.797
	c0.433,0.063,0.791,0.365,0.926,0.779c0.135,0.415,0.021,0.87-0.29,1.175l-3.976,3.874l0.938,5.472
	c0.074,0.43-0.103,0.862-0.456,1.12C531.089,41.739,530.851,41.813,530.615,41.813z M518.82,31.109l2.744,2.675
	c0.27,0.264,0.393,0.643,0.33,1.014l-0.648,3.776l3.393-1.782c0.332-0.176,0.731-0.176,1.064,0l3.391,1.782l-0.647-3.776
	c-0.063-0.371,0.06-0.75,0.33-1.014l2.743-2.675l-3.791-0.55c-0.373-0.055-0.696-0.289-0.863-0.627l-1.695-3.437l-1.695,3.437
	c-0.168,0.338-0.489,0.572-0.862,0.627L518.82,31.109z"/>
<path opacity="0.29" fill="#F79927" d="M830.939,131.737l-3.087,3.01l0.729,4.248c0.057,0.332-0.08,0.67-0.354,0.869
	c-0.274,0.198-0.638,0.225-0.937,0.067l-3.815-2.006l-3.814,2.006c-0.131,0.067-0.272,0.103-0.414,0.103
	c-0.186,0-0.368-0.058-0.523-0.17c-0.273-0.199-0.41-0.537-0.354-0.869l0.729-4.248l-3.086-3.01c-0.243-0.236-0.33-0.589-0.225-0.91
	c0.104-0.322,0.382-0.558,0.718-0.606l4.265-0.619l1.907-3.864c0.149-0.305,0.459-0.496,0.798-0.496c0.34,0,0.646,0.191,0.798,0.496
	l1.907,3.864l4.265,0.619c0.336,0.05,0.613,0.284,0.719,0.606C831.268,131.148,831.181,131.501,830.939,131.737z"/>
<path fill="#96D2CA" d="M-22.895,85.28c0.778,0,1.529-0.108,2.249-0.292c3.115,5.682,9.148,9.536,16.084,9.536
	c7.707,0,14.291-4.762,17.002-11.499c0.612,9.573,8.547,17.153,18.274,17.153c8.456,0,15.556-5.734,17.673-13.52
	c3.338,3.489,8.027,5.67,13.236,5.67c3.895,0,7.499-1.223,10.469-3.293c2.061,7.869,9.199,13.686,17.715,13.686
	c10.075,0,18.245-8.129,18.326-18.185c2.17,1.596,4.84,2.55,7.739,2.55c4.646,0,8.716-2.428,11.04-6.076
	c1.571,1.297,3.586,2.076,5.783,2.076c5.021,0,9.09-4.07,9.09-9.092c0-5.021-4.069-9.09-9.09-9.09c-2.197,0-4.212,0.779-5.783,2.075
	c-2.323-3.648-6.395-6.075-11.04-6.075c-2.47,0-4.771,0.696-6.741,1.884c-1.542-8.564-9.018-15.067-18.025-15.067
	c-6.342,0-11.93,3.221-15.222,8.113c-2.24-1.793-5.077-2.871-8.17-2.871c-2.224,0-4.315,0.559-6.149,1.536
	c-0.602-9.581-8.541-17.171-18.274-17.171c-6.539,0-12.262,3.434-15.507,8.585c-0.351-0.041-0.707-0.068-1.069-0.068
	c-5.021,0-9.091,4.069-9.091,9.09c0,0.246,0.018,0.488,0.037,0.729c-0.012,0-0.024-0.002-0.037-0.002
	c-4.623,0-8.677,2.402-11.006,6.02c-3.096-2.389-6.965-3.825-11.179-3.825c-6.936,0-12.97,3.854-16.084,9.534
	c-0.721-0.184-1.472-0.292-2.25-0.292c-5.021,0-9.091,4.069-9.091,9.09C-31.986,81.209-27.916,85.28-22.895,85.28z"/>
</svg>
