<?xml version="1.0" encoding="utf-8"?>
<!-- Generator: Adobe Illustrator 15.0.0, SVG Export Plug-In . SVG Version: 6.00 Build 0)  -->
<!DOCTYPE svg PUBLIC "-//W3C//DTD SVG 1.1//EN" "http://www.w3.org/Graphics/SVG/1.1/DTD/svg11.dtd">
<svg version="1.1" id="Calque_1" xmlns="http://www.w3.org/2000/svg" xmlns:xlink="http://www.w3.org/1999/xlink" x="0px" y="0px"
	 width="800px" height="800px" viewBox="0 0 800 800" enable-background="new 0 0 800 800" xml:space="preserve">
<polygon fill="#F79927" points="400.5,48.988 511.758,274.418 760.533,310.568 580.518,486.041 623.014,733.812 400.5,616.832 
	177.987,733.812 220.483,486.041 40.466,310.568 289.243,274.418 "/>
<path fill="#103653" d="M622.012,748.738c-2.375,0-4.76-0.566-6.943-1.715L399.501,633.694L183.933,747.023
	c-5.029,2.645-11.123,2.203-15.718-1.136c-4.597-3.34-6.898-8.999-5.938-14.599l41.17-240.037L29.047,321.256
	c-4.068-3.966-5.532-9.897-3.777-15.3c1.756-5.403,6.427-9.341,12.049-10.158l241.012-35.021L386.117,42.382
	c2.514-5.095,7.703-8.32,13.384-8.32c5.682,0,10.87,3.226,13.385,8.32l107.783,218.394l241.011,35.021
	c5.622,0.817,10.293,4.755,12.049,10.158s0.291,11.334-3.777,15.3L595.555,491.252l41.17,240.037
	c0.96,5.6-1.342,11.259-5.938,14.599C628.187,747.776,625.107,748.738,622.012,748.738z M71.541,320.99l158.361,154.363
	c3.518,3.43,5.123,8.37,4.292,13.212l-37.384,217.964l195.745-102.907c4.348-2.287,9.543-2.287,13.891,0L602.19,706.528
	l-37.384-217.964c-0.83-4.842,0.775-9.782,4.293-13.212L727.459,320.99l-218.848-31.801c-4.861-0.707-9.063-3.76-11.238-8.165
	L399.501,82.713l-97.874,198.311c-2.174,4.405-6.376,7.458-11.238,8.165L71.541,320.99z"/>
<circle fill="#103653" cx="307" cy="376.991" r="24.5"/>
<circle fill="#103653" cx="468" cy="376.991" r="24.5"/>
<path fill="#103653" d="M386.511,547.601c-22.199,0-43.219-6.837-59.188-19.251c-17.081-13.278-26.487-31.275-26.487-50.675
	c0-8.243,6.683-14.926,14.926-14.926s14.926,6.683,14.926,14.926c0,21.723,25.564,40.074,55.824,40.074
	c30.261,0,55.825-18.352,55.825-40.074c0-8.243,6.683-14.926,14.926-14.926s14.926,6.683,14.926,14.926
	c0,19.399-9.407,37.396-26.487,50.675C429.73,540.764,408.71,547.601,386.511,547.601z"/>
<g>
	<g>
		<g>
			<path fill="#96D2CA" d="M191.224,293.611c0.504,5.44,1.033,10.894,1.986,16.279c0.897,4.964,2.066,9.833,3.02,14.797
				c1.006,5.059,2.012,10.104,3.236,15.108c1.224,4.938,2.924,9.766,4.855,14.457c1.795,4.394,3.521,8.99,6.119,12.988
				c1.809,2.733,3.713,4.828,6.474,6.583c2.462,1.591,5.454,2.502,8.215,3.427c2.04,0.68,4.106,0.367,6.024-0.34
				c1.4-0.163,2.788-0.544,4.094-1.225c9.561-4.937,19.162-9.9,28.709-14.905c8.759-4.583,17.789-8.989,25.881-14.688
				c8.881-6.282,17.517-12.92,26.111-19.569c4.026-3.155,7.984-6.338,11.643-9.915c3.713-3.604,7.099-7.493,10.525-11.396
				c1.129-1.319,2.299-2.68,3.469-3.998c0.762-0.857,1.305-1.836,1.754-2.829c1.877,0.476,3.781,0.911,5.658,1.333
				c1.985,0.422,3.957,0.87,5.889,1.428c3.264,0.966,6.568,1.387,9.969,1.782c5.004,0.57,10.05,1.183,15.109,1.346
				c5.331,0.123,10.662,0.231,15.992,0.313c9.562,0.108,19.136-0.19,28.683-0.667c4.584-0.244,9.127-1.061,13.654-1.728
				c0.164-0.026,0.314-0.095,0.477-0.122c2.979,2.435,5.617,5.358,8.309,8.078c3.307,3.346,6.732,6.556,10.283,9.629
				c3.508,3.02,7.166,5.889,10.662,8.908c3.006,2.584,5.93,5.276,9.057,7.711c2.762,2.148,5.305,4.488,8.242,6.392
				c3.209,2.081,6.283,4.38,9.492,6.46c6.488,4.203,13.125,8.174,19.721,12.2c11.219,6.84,22.535,13.286,34.625,18.481
				c1.672,1.822,3.494,3.25,5.686,3.835c1.957,0.53,3.93,0.53,5.889,0c1.889-0.53,3.508-1.469,4.881-2.842
				c5.467-4.325,9.072-9.86,11.67-16.198c1.088-2.665,2.256-5.371,3.072-8.159c0.844-2.788,1.428-5.645,2.123-8.486
				c0.707-3.06,1.48-6.079,1.984-9.18c1.033-6.338,1.809-12.703,2.869-19.04c1.07-6.363,2.236-12.7,3.137-19.099
				c-0.043,0.351-0.086,0.701-0.131,1.052c0.137-0.871,0.246-1.755,0.367-2.625c-0.021,0.188-0.057,0.372-0.09,0.554
				c1.406-10.34,2.734-20.707,3.178-31.153c0.422-10.473,1.197-20.944,1.986-31.389c0.76-10.31,1.141-20.577,1.033-30.913
				c-0.109-10.581-0.912-21.135-1.863-31.701c-0.586-6.556-1.387-13.233-2.789-19.68c-1.223-5.752-3.018-11.342-4.107-17.122
				c-1.088-5.861-2.066-11.723-4.242-17.313c-2.381-6.038-4.938-12.022-7.48-17.993c-1.59-3.794-3.141-7.575-5.25-11.138
				c-1.93-3.332-5.535-5.208-9.205-5.208c-1.811,0-3.619,0.449-5.264,1.414c-0.299,0.177-0.49,0.49-0.775,0.694
				c-0.748-0.163-1.51-0.327-2.271-0.327c-0.924,0-1.836,0.136-2.652,0.449c-13.545,5.086-26.887,10.894-39.289,18.428
				c-11.873,7.194-23.094,15.45-34.109,23.923c-7.275,5.589-14.484,11.151-21.107,17.516c-2.992,2.925-5.848,5.944-8.744,8.963
				c-1.4,1.455-2.68,3.006-4.039,4.488c-3.877-1.7-8.133-2.774-12.076-3.604c-9.154-1.972-18.51-2.598-27.867-2.814
				c-1.523-0.041-3.059-0.055-4.583-0.055c-8.133,0-16.266,0.463-24.344,1.237c-5.223,0.503-10.418,1.197-15.559,2.095
				c-6.229,1.074-12.063,3.318-17.789,5.861c-2.107-1.972-3.902-3.835-5.711-5.685c-3.632-3.713-7.168-7.548-10.717-11.343
				c-3.822-4.107-7.725-8.078-11.805-11.927c-4.189-3.972-8.963-7.452-13.6-10.894c-4.107-3.047-8.379-5.889-12.513-8.908
				c-4.147-3.032-8.228-6.134-12.362-9.152c-4.243-3.128-8.459-6.283-12.757-9.33c-4.583-3.236-9.329-6.256-13.967-9.438
				c-1.999-1.346-3.931-2.788-5.902-4.162c-1.415-1.006-3.318-1.455-5.168-1.455c-1.048,0-2.067,0.136-2.992,0.395
				c-1.401,0.38-2.679,1.088-3.794,1.985c-2.217,0.354-4.584,1.156-5.902,2.829c-1.4,1.809-2.625,3.346-3.604,5.386
				c-0.952,1.985-1.931,3.957-2.951,5.902c-2.23,4.243-3.739,8.772-5.521,13.206c-3.318,8.241-5.808,16.755-8.432,25.241
				c-2.652,8.514-4.964,17.19-6.556,25.936c-1.832,10.147-3.189,20.336-4.505,30.566c-0.022,0.138-0.046,0.276-0.064,0.414
				c0.011-0.091,0.03-0.181,0.046-0.271c-0.311,2.37-0.633,4.741-0.957,7.111c-1.428,10.825-2.475,21.624-2.733,32.559
				c-0.245,10.186-0.027,20.413,0.476,30.6C189.905,273.864,190.3,283.751,191.224,293.611z"/>
		</g>
	</g>
	<path fill="#103653" d="M592.762,154.478c-1.225-5.752-3.02-11.342-4.107-17.122c-1.088-5.861-2.066-11.723-4.242-17.313
		c-2.381-6.038-4.938-12.022-7.48-17.993c-1.592-3.794-3.143-7.575-5.25-11.138c-1.932-3.332-5.535-5.208-9.207-5.208
		c-1.809,0-3.619,0.449-5.264,1.414c-0.299,0.177-0.49,0.49-0.775,0.694c-0.748-0.163-1.51-0.327-2.271-0.327
		c-0.924,0-1.836,0.136-2.652,0.449c-13.545,5.086-26.887,10.894-39.289,18.428c-11.873,7.194-23.094,15.45-34.109,23.923
		c-7.275,5.589-14.482,11.151-21.105,17.516c-2.992,2.925-5.85,5.944-8.746,8.963c-1.4,1.455-2.678,3.006-4.039,4.488
		c-3.875-1.7-8.133-2.774-12.076-3.604c-9.152-1.972-18.51-2.598-27.867-2.814c-1.521-0.041-3.059-0.055-4.581-0.055
		c-8.134,0-16.267,0.463-24.345,1.237c-5.223,0.503-10.417,1.197-15.559,2.095c-6.229,1.074-12.063,3.318-17.788,5.861
		c-2.108-1.972-3.904-3.835-5.713-5.685c-3.631-3.713-7.166-7.548-10.717-11.343c-3.82-4.107-7.725-8.078-11.805-11.927
		c-4.188-3.972-8.962-7.452-13.6-10.894c-4.107-3.047-8.377-5.889-12.512-8.908c-4.148-3.032-8.228-6.134-12.362-9.152
		c-4.243-3.128-8.459-6.283-12.757-9.33c-4.583-3.236-9.329-6.256-13.967-9.438c-2-1.346-3.931-2.788-5.902-4.162
		c-1.414-1.006-3.318-1.455-5.168-1.455c-1.047,0-2.067,0.136-2.992,0.395c-1.4,0.38-2.68,1.088-3.795,1.985
		c-2.216,0.354-4.582,1.156-5.902,2.829c-1.4,1.809-2.624,3.346-3.604,5.386c-0.952,1.985-1.932,3.957-2.951,5.902
		c-2.23,4.243-3.74,8.772-5.521,13.206c-3.318,8.241-5.807,16.755-8.432,25.241c-2.652,8.514-4.964,17.19-6.556,25.936
		c-1.831,10.147-3.188,20.336-4.505,30.566c0.011-0.066,0.021-0.132,0.031-0.198c-0.014,0.095-0.027,0.19-0.041,0.286
		c-0.002,0.019-0.006,0.037-0.01,0.056c-0.31,2.37-0.633,4.741-0.956,7.111c-1.428,10.825-2.476,21.624-2.733,32.559
		c-0.245,10.186-0.027,20.413,0.477,30.6c0.488,9.9,0.883,19.788,1.809,29.647c0.503,5.44,1.033,10.894,1.984,16.279
		c0.898,4.964,2.068,9.833,3.02,14.797c1.007,5.059,2.014,10.104,3.236,15.108c1.225,4.938,2.925,9.766,4.855,14.457
		c1.795,4.394,3.523,8.99,6.121,12.988c1.809,2.733,3.712,4.828,6.473,6.583c2.462,1.591,5.453,2.502,8.215,3.427
		c2.039,0.68,4.107,0.367,6.024-0.34c1.401-0.163,2.788-0.544,4.094-1.225c9.561-4.937,19.162-9.9,28.71-14.905
		c8.758-4.583,17.788-8.989,25.88-14.688c8.881-6.282,17.517-12.92,26.112-19.569c4.025-3.155,7.982-6.338,11.641-9.915
		c3.713-3.604,7.1-7.493,10.527-11.396c1.129-1.319,2.298-2.68,3.467-3.998c0.762-0.857,1.307-1.836,1.756-2.829
		c1.875,0.476,3.779,0.911,5.656,1.333c1.986,0.422,3.958,0.87,5.889,1.428c3.265,0.966,6.569,1.387,9.969,1.782
		c5.006,0.57,10.051,1.183,15.109,1.346c5.332,0.123,10.663,0.231,15.994,0.313c9.562,0.108,19.134-0.19,28.683-0.667
		c4.582-0.244,9.125-1.061,13.654-1.728c0.162-0.026,0.313-0.095,0.475-0.122c2.979,2.435,5.617,5.358,8.311,8.078
		c3.305,3.346,6.73,6.556,10.281,9.629c3.51,3.02,7.168,5.889,10.662,8.908c3.006,2.584,5.93,5.276,9.059,7.711
		c2.76,2.148,5.303,4.488,8.24,6.392c3.209,2.081,6.283,4.38,9.492,6.46c6.488,4.203,13.125,8.174,19.721,12.2
		c11.221,6.84,22.535,13.286,34.625,18.481c1.674,1.822,3.496,3.25,5.686,3.835c1.957,0.53,3.93,0.53,5.889,0
		c1.891-0.53,3.508-1.469,4.883-2.842c5.467-4.325,9.07-9.86,11.668-16.198c1.088-2.665,2.258-5.371,3.074-8.159
		c0.844-2.788,1.428-5.645,2.121-8.486c0.707-3.06,1.482-6.079,1.986-9.18c1.033-6.338,1.809-12.703,2.869-19.04
		c1.068-6.363,2.236-12.7,3.137-19.099c0.024-0.193,0.049-0.387,0.072-0.581c0.02-0.146,0.047-0.292,0.073-0.438
		c1.405-10.34,2.735-20.707,3.177-31.153c0.422-10.473,1.197-20.944,1.986-31.389c0.762-10.31,1.143-20.577,1.033-30.913
		c-0.107-10.581-0.91-21.135-1.863-31.701C594.965,167.602,594.162,160.924,592.762,154.478z M286.124,196.733
		c3.822,1.319,7.644,2.611,11.41,4.121c7.276,3.346,14.186,7.494,20.917,11.818c2.407,1.537,5.276,1.781,7.929,1.143
		c-0.162,2.652-0.326,5.317-0.489,7.969c-0.979-0.312-1.944-0.707-3.005-0.707c-0.219,0-0.449,0.015-0.667,0.027
		c-3.903,0.3-7.766,0.612-11.696,0.721c-6.678,0.163-13.355,0-20.06-0.081c-6.597-0.082-12.091,5.563-12.091,12.09
		c0,6.597,5.494,12.118,12.091,12.118c10.581-0.027,21.161-0.775,31.742-0.585c1.061,0.014,2.026-0.34,3.019-0.599
		c-0.026,2.815-0.054,5.617-0.041,8.419c-0.421,0.177-0.91,0.108-1.318,0.354c-3.795,2.203-7.263,4.896-11.002,7.208
		c-3.754,2.312-7.711,4.379-11.696,6.283c-5.821,2.284-11.751,4.379-17.626,6.609c-2.732,1.061-4.909,2.366-6.445,4.964
		c-1.455,2.516-1.863,5.535-1.089,8.323c0.748,2.706,2.558,5.045,4.964,6.474c2.258,1.306,5.78,2.095,8.324,1.088
		c8.485-3.454,17.148-6.813,25.213-11.22c3.658-2.014,7.209-4.217,10.771-6.393c0.027,0.477,0,0.952,0.041,1.415
		c0.055,0.693,0.109,1.346,0.163,2.04c0.218,2.366,0.925,4.365,2.38,6.174c0.068,0.395-0.027,0.803,0.082,1.184
		c0.055,0.177,0.217,0.381,0.285,0.57c-6.922,7.848-13.967,15.437-22.209,21.992c-5.793,4.42-11.641,8.73-17.475,13.068
		c-6.202,4.665-12.54,8.963-19.271,12.812c-3.318,1.904-6.732,3.55-10.133,5.25c-3.467,1.714-6.922,3.495-10.417,5.141
		c-6.731,3.128-13.478,6.188-20.142,9.397c-0.163-0.068-0.34-0.122-0.517-0.177c-1.917-2.992-3.386-6.202-4.801-9.466
		c-1.102-2.666-2.122-5.358-2.951-8.119c-1.155-3.971-2.095-8.037-2.911-12.091c-0.896-4.283-1.672-8.607-2.516-12.933
		c-0.639-3.468-1.373-6.937-1.931-10.418c-1.755-14.851-2.611-29.893-3.019-44.812c-0.055-2.339-0.096-4.692-0.123-7.045
		c-0.367-34.721,3.686-70.257,13.328-103.672c3.387-11.655,6.895-23.311,11.438-34.571c1.061-2.421,2.217-4.854,3.509-7.208
		c0.993,0.653,1.972,1.333,2.978,1.959c2.544,1.591,5.195,2.964,7.712,4.61c5.575,3.631,11.029,7.453,16.442,11.328
		c4.909,3.469,9.656,7.153,14.524,10.649c4.515,3.223,9.017,6.46,13.45,9.805c6.393,5.046,12.309,10.499,17.911,16.348
		c5.386,5.644,11.07,11.18,16.062,17.177c0.449,0.639,0.857,1.292,1.225,1.999c0.258,0.489,0.721,0.775,1.047,1.196
		c-0.571,4.026-1.115,8.052-1.523,12.104c-3.277-2.149-6.582-4.257-9.9-6.352c-8.065-5.072-16.783-8.595-25.745-11.831
		c-1.021-0.367-2.081-0.545-3.128-0.545c-4.991,0-9.792,3.903-11.111,8.637C276.292,188.859,280.181,194.666,286.124,196.733z
		 M441.449,233.344c0.096,15.069-0.15,30.273-1.578,45.329c-0.082,0.04-0.178,0.054-0.258,0.095
		c-0.49,0.231-0.994,0.477-1.496,0.707c-3.305,1.225-6.691,1.863-10.188,2.38c-4.311,0.489-8.648,0.775-13.041,1.021
		c-5.617,0.326-11.221,0.612-16.837,0.693c-11.369,0.149-22.726-0.422-34-1.836c-6.501-0.992-12.975-3.02-19.121-5.412
		c-0.205-3.822-0.218-7.657-0.3-11.479c-0.163-7.126-0.026-14.266,0.082-21.393c0.108-7.453,0.666-14.878,1.142-22.304
		c0.572-8.228,1.088-16.469,2.068-24.684c0.557-4.012,1.184-8.011,1.822-12.009c1.55-0.775,3.101-1.563,4.678-2.284
		c6.025-2.34,12.24-3.754,18.605-4.733c7.561-0.762,15.096-1.074,22.684-1.074c7.657-0.027,15.327,0.068,22.958,0.844
		c5.453,0.788,10.934,1.768,16.143,3.698c0.57,0.272,1.143,0.544,1.672,0.857c0.693,0.611,1.523,0.979,2.313,1.4
		c0.816,8.378,1.74,16.728,2.313,25.105C441.666,216.616,441.395,224.967,441.449,233.344z M577.447,230.23
		c-0.693,10.091-1.4,20.169-2.066,30.273c-0.639,9.969-1.332,19.896-2.529,29.811c-0.707,5.087-1.482,10.119-2.488,15.138
		c-1.17,5.834-2.285,11.642-3.293,17.503c-1.006,5.807-2.201,11.668-3.766,17.366c-1.375,4.924-2.734,9.792-4.584,14.539
		c-0.666,1.387-1.455,2.706-2.258,4.012c-1.047-0.449-2.094-0.884-3.141-1.319c-10.133-4.556-19.91-9.696-29.457-15.396
		c-9.535-5.698-19.109-11.424-28.098-17.965c-7.004-5.563-13.643-11.56-20.578-17.218c-5.848-4.773-11.545-9.873-16.672-15.504
		c0.447-2.733,0.924-5.453,1.291-8.2c0.285-2.122,0.34-4.257,0.49-6.393c2.814,1.537,5.711,2.952,8.635,4.271
		c6.705,3.061,13.492,5.971,20.387,8.596c2.381,0.897,5.563,0.244,7.684-1.007c2.217-1.333,3.891-3.481,4.584-5.997
		c0.721-2.57,0.34-5.372-1.006-7.685c-1.389-2.38-3.455-3.658-5.971-4.583c-4.652-1.727-9.289-3.509-13.859-5.386
		c-5.656-2.529-11.084-5.235-16.211-8.771c-1.033-0.83-2.053-1.51-3.141-2.014c0.121-3.48,0.313-6.949,0.381-10.431
		c11.328-0.149,22.752-0.748,34.066,0.055c6.053,0.422,11.084-5.358,11.084-11.058c0-5.97-5.045-11.191-11.084-11.084
		c-11.369,0.178-22.725-0.285-34.094-0.489c-0.041-2.121,0-4.257-0.055-6.378c0.109-0.096,0.23-0.149,0.34-0.245
		c0.082-0.067,0.162-0.136,0.244-0.203c2.381-1.741,4.787-3.387,7.209-5.046c2.475-1.673,4.963-3.454,7.561-4.938
		c2.938-1.686,5.834-3.576,8.881-5.059c3.998-1.986,8.037-3.985,12.064-5.916c5.357-2.57,6.744-10.104,3.93-14.906
		c-1.441-2.434-3.795-4.256-6.527-5.004c-0.926-0.259-1.836-0.381-2.734-0.381c-1.945,0-3.809,0.571-5.645,1.496
		c-4.025,1.985-7.982,4.08-11.926,6.174c-2.992,1.564-5.809,3.577-8.691,5.359c-2.148,1.332-4.189,2.869-6.256,4.352
		c-0.109-1.918-0.217-3.849-0.354-5.767c-0.096-1.428-0.203-2.869-0.313-4.298c-0.15-1.876-0.707-3.522-1.537-5.059
		c3.537-4.176,7.398-8.052,11.328-11.818c4.57-4.406,9.289-8.582,14.254-12.512c8.975-6.868,18.115-13.546,27.471-19.897
		c5.305-3.617,10.744-7.112,16.389-10.213c4.746-2.598,9.629-4.842,14.592-6.991c5.033-2.013,10.092-3.835,15.178-5.685
		c0.055-0.013,0.096-0.054,0.164-0.081c0.436,0.938,0.951,1.836,1.4,2.774c1.537,3.236,3.129,6.419,4.557,9.669
		c1.482,3.455,3.02,6.937,4.012,10.54c1.17,4.298,1.768,8.745,2.516,13.124c0.748,4.516,2.039,8.908,3.156,13.342
		c0.979,3.89,1.508,7.86,2.039,11.818c0.57,4.814,0.871,9.656,1.293,14.511c0.502,5.25,1.059,10.472,1.25,15.722
		C577.924,209.939,578.1,220.112,577.447,230.23z"/>
</g>
</svg>
