<?xml version="1.0" encoding="utf-8"?>
<!-- Generator: Adobe Illustrator 15.0.0, SVG Export Plug-In . SVG Version: 6.00 Build 0)  -->
<!DOCTYPE svg PUBLIC "-//W3C//DTD SVG 1.1//EN" "http://www.w3.org/Graphics/SVG/1.1/DTD/svg11.dtd">
<svg version="1.1" id="Calque_1" xmlns="http://www.w3.org/2000/svg" xmlns:xlink="http://www.w3.org/1999/xlink" x="0px" y="0px"
	 width="800px" height="800px" viewBox="0 0 800 800" enable-background="new 0 0 800 800" xml:space="preserve">
<g>
	<g id="XMLID_33_">
		<g>
			<path fill="#808080" d="M470.688,383.33c28.682,0,51.993,23.331,51.993,51.994c0,28.681-23.312,51.993-51.993,51.993
				c-28.663,0-51.994-23.312-51.994-51.993C418.693,406.661,442.024,383.33,470.688,383.33z"/>
			<path fill="#86A9F7" d="M393.17,95.947c15.106,0,27.415,12.309,27.415,27.415c0,15.125-12.309,27.414-27.415,27.414
				c-15.126,0-27.415-12.289-27.415-27.414C365.755,108.256,378.044,95.947,393.17,95.947z"/>
			<path fill="#E8465A" d="M593.544,230.771l-25.185,51.577c-56.739-18.547-115.955-27.83-175.189-27.83
				c-59.235,0-118.451,9.283-175.19,27.83l-25.203-51.577h12.271c45.868,0,83.19-37.322,83.19-83.189v-12.29
				c0-57.854,47.078-104.933,104.933-104.933s104.933,47.078,104.933,104.933v12.29c0,45.867,37.303,83.189,83.189,83.189H593.544z
				 M448.944,123.362c0-30.743-25.014-55.775-55.774-55.775c-30.762,0-55.775,25.032-55.775,55.775
				c0,30.761,25.014,55.774,55.775,55.774C423.931,179.136,448.944,154.123,448.944,123.362z"/>
			<path fill="#F79927" d="M710.671,397.037c0.643,1.947,1.683,6.958-2.155,11.741L603.98,538.328l-64.813-60.993
				c7.524-12.233,11.873-26.621,11.873-42.011c0-44.299-36.036-80.354-80.354-80.354c-17.11,0-32.992,5.407-46.057,14.577
				l-88.806-83.605c48.155-5.162,96.916-3.781,144.75,4.103l22.349,34.278c5.521,8.451,13.915,14.539,23.614,17.148l175.492,47.361
				C707.948,390.42,710.047,395.109,710.671,397.037z"/>
			<path fill="#F79927" d="M594.546,759.537c0.302,6.106-3.498,9.566-5.143,10.758c-1.664,1.191-6.107,3.743-11.817,1.569
				l-169.839-64.831c-9.396-3.593-19.758-3.593-29.154,0l-169.84,64.831c-5.709,2.193-10.172-0.378-11.816-1.569
				c-1.645-1.21-5.445-4.651-5.143-10.758l9.188-181.581c0.492-10.058-2.704-19.908-9-27.717L77.824,408.76
				c-3.857-4.765-2.798-9.775-2.174-11.723c0.624-1.929,2.742-6.617,8.659-8.205l175.493-47.361
				c9.699-2.609,18.094-8.697,23.615-17.148l19.701-30.232l101.51,95.574c-8.999,12.97-14.293,28.719-14.293,45.66
				c0,44.317,36.055,80.354,80.354,80.354c18.699,0,35.923-6.429,49.593-17.187l67.497,63.546
				c-1.834,5.066-2.704,10.475-2.42,15.938L594.546,759.537z M463.295,553.378c2.533-7.412-1.418-15.485-8.829-18.019
				c-39.534-13.537-83.077-13.537-122.61,0c-7.412,2.533-11.363,10.606-8.811,18.019c2.004,5.88,7.506,9.586,13.404,9.586
				c1.531,0,3.082-0.246,4.595-0.775c33.616-11.495,70.636-11.495,104.232,0C452.688,564.721,460.762,560.789,463.295,553.378z
				 M355.886,445.552c1.929-7.601-2.647-15.314-10.229-17.263l-46.87-11.949c-7.582-1.928-15.314,2.647-17.243,10.229
				c-1.947,7.601,2.647,15.314,10.229,17.242l46.87,11.969c1.172,0.302,2.345,0.435,3.517,0.435
				C348.474,456.216,354.24,451.962,355.886,445.552z"/>
			<path fill="#103653" d="M737.651,388.283c4.272,13.197,1.645,27.51-7.071,38.306l-114.141,141.46
				c-1.947,2.401-2.911,5.408-2.76,8.489l9.188,181.581c0.699,13.84-5.597,26.979-16.809,35.129
				c-11.23,8.148-25.656,10.058-38.589,5.104l-169.839-64.831c-2.893-1.097-6.05-1.097-8.924,0l-169.821,64.831
				c-4.765,1.815-9.699,2.704-14.615,2.704c-8.508,0-16.903-2.666-24.012-7.828c-11.212-8.148-17.489-21.289-16.79-35.129
				l9.189-181.542c0.151-3.082-0.832-6.107-2.742-8.489L55.76,426.57c-8.716-10.777-11.363-25.09-7.09-38.287
				c4.292-13.196,14.842-23.217,28.247-26.848l175.512-47.361c2.968-0.794,5.54-2.665,7.223-5.256l7.071-10.833
				c-17.3,4.197-34.429,9.226-51.294,15.182c-6.788,2.382-14.293-0.681-17.451-7.146l-40.649-83.19
				c-2.136-4.405-1.872-9.585,0.719-13.745c2.59-4.141,7.146-6.674,12.024-6.674h34.978c30.232,0,54.83-24.598,54.83-54.829v-12.29
				C259.877,61.802,319.679,2,393.17,2c73.49,0,133.293,59.802,133.293,133.292v12.29c0,30.231,24.578,54.829,54.829,54.829h34.978
				c4.878,0,9.435,2.533,12.024,6.674c2.591,4.16,2.855,9.34,0.7,13.745l-40.631,83.19c-2.439,4.973-7.469,7.94-12.743,7.94
				c-1.569,0-3.157-0.246-4.708-0.794c-16.884-5.956-34.014-11.004-51.313-15.182l7.09,10.852c1.683,2.572,4.234,4.443,7.203,5.237
				l175.53,47.361C722.81,365.066,733.359,375.087,737.651,388.283z M708.516,408.778c3.838-4.783,2.798-9.794,2.155-11.741
				c-0.624-1.928-2.723-6.617-8.641-8.205L526.538,341.47c-9.699-2.609-18.094-8.697-23.614-17.148l-22.348-34.278
				c-47.835-7.884-96.595-9.265-144.751-4.103l88.806,83.605c13.064-9.17,28.946-14.577,46.057-14.577
				c44.317,0,80.354,36.056,80.354,80.354c0,15.39-4.349,29.777-11.873,42.011l64.813,60.993L708.516,408.778z M589.403,770.295
				c1.645-1.191,5.444-4.651,5.143-10.758l-9.188-181.562c-0.284-5.464,0.586-10.872,2.42-15.938l-67.497-63.546
				c-13.67,10.758-30.894,17.187-49.593,17.187c-44.299,0-80.354-36.036-80.354-80.354c0-16.941,5.294-32.69,14.293-45.66
				l-101.51-95.574l-19.701,30.232c-5.521,8.451-13.916,14.539-23.615,17.148L84.309,388.832c-5.917,1.588-8.035,6.277-8.659,8.205
				c-0.624,1.947-1.683,6.958,2.174,11.723l114.159,141.479c6.296,7.809,9.491,17.659,9,27.717l-9.188,181.581
				c-0.303,6.106,3.498,9.548,5.143,10.758c1.645,1.191,6.107,3.763,11.816,1.569l169.84-64.831c9.396-3.593,19.758-3.593,29.154,0
				l169.839,64.831C583.296,774.038,587.739,771.486,589.403,770.295z M568.359,282.348l25.185-51.577h-12.252
				c-45.887,0-83.189-37.322-83.189-83.189v-12.29c0-57.854-47.078-104.933-104.933-104.933S288.237,77.437,288.237,135.292v12.29
				c0,45.867-37.322,83.189-83.19,83.189h-12.271l25.203,51.577c56.739-18.547,115.955-27.83,175.19-27.83
				C452.404,254.518,511.62,263.802,568.359,282.348z M522.681,435.324c0-28.663-23.312-51.994-51.993-51.994
				c-28.663,0-51.994,23.331-51.994,51.994c0,28.681,23.331,51.993,51.994,51.993C499.369,487.317,522.681,464.005,522.681,435.324z
				"/>
			<path fill="#103653" d="M454.466,535.359c7.411,2.533,11.362,10.606,8.829,18.019c-2.533,7.411-10.606,11.344-18.019,8.811
				c-33.597-11.495-70.616-11.495-104.232,0c-1.513,0.529-3.063,0.775-4.595,0.775c-5.898,0-11.4-3.706-13.404-9.586
				c-2.553-7.412,1.398-15.485,8.811-18.019C371.389,521.822,414.932,521.822,454.466,535.359z"/>
			<path fill="#103653" d="M393.17,67.587c30.761,0,55.774,25.032,55.774,55.775c0,30.761-25.014,55.774-55.774,55.774
				c-30.762,0-55.775-25.014-55.775-55.774C337.395,92.619,362.408,67.587,393.17,67.587z M420.585,123.362
				c0-15.106-12.309-27.415-27.415-27.415c-15.126,0-27.415,12.309-27.415,27.415c0,15.125,12.289,27.414,27.415,27.414
				C408.276,150.776,420.585,138.487,420.585,123.362z"/>
			<path fill="#103653" d="M345.657,428.29c7.581,1.948,12.157,9.662,10.229,17.263c-1.646,6.409-7.411,10.663-13.727,10.663
				c-1.172,0-2.345-0.133-3.517-0.435l-46.87-11.969c-7.581-1.928-12.176-9.642-10.229-17.242
				c1.929-7.582,9.661-12.157,17.243-10.229L345.657,428.29z"/>
		</g>
	</g>
</g>
</svg>
