<?xml version="1.0" encoding="utf-8"?>
<!-- Generator: Adobe Illustrator 15.0.0, SVG Export Plug-In . SVG Version: 6.00 Build 0)  -->
<!DOCTYPE svg PUBLIC "-//W3C//DTD SVG 1.1//EN" "http://www.w3.org/Graphics/SVG/1.1/DTD/svg11.dtd">
<svg version="1.1" id="Calque_1" xmlns="http://www.w3.org/2000/svg" xmlns:xlink="http://www.w3.org/1999/xlink" x="0px" y="0px"
	 width="800px" height="800px" viewBox="0 0 800 800" enable-background="new 0 0 800 800" xml:space="preserve">
<polygon fill="#F79927" points="400.5,33.986 511.758,259.416 760.533,295.566 580.518,471.039 623.014,718.81 400.5,601.83 
	177.986,718.81 220.482,471.039 40.467,295.566 289.244,259.416 "/>
<path fill="#103653" d="M622.012,733.736c-2.375,0-4.76-0.566-6.943-1.715L399.5,618.692L183.932,732.021
	c-5.028,2.644-11.122,2.203-15.718-1.136c-4.596-3.34-6.898-8.999-5.938-14.599l41.169-240.037L29.048,306.254
	c-4.068-3.966-5.532-9.897-3.777-15.3c1.756-5.403,6.427-9.341,12.049-10.158l241.012-35.021L386.116,27.38
	c2.514-5.095,7.703-8.32,13.384-8.32c5.682,0,10.87,3.226,13.385,8.32L520.67,245.774l241.01,35.021
	c5.622,0.817,10.293,4.755,12.049,10.158s0.291,11.334-3.777,15.3L595.555,476.25l41.17,240.037c0.96,5.6-1.342,11.259-5.938,14.599
	C628.187,732.774,625.107,733.736,622.012,733.736z M399.5,586.904c2.386,0,4.771,0.571,6.945,1.715L602.19,691.526l-37.384-217.964
	c-0.83-4.842,0.775-9.782,4.293-13.212l158.359-154.363l-218.848-31.801c-4.861-0.707-9.063-3.76-11.238-8.165L399.5,67.711
	l-97.872,198.311c-2.174,4.405-6.376,7.458-11.238,8.165L71.541,305.988L229.9,460.35c3.518,3.43,5.123,8.37,4.293,13.212
	L196.81,691.526l195.745-102.907C394.729,587.475,397.114,586.904,399.5,586.904z"/>
<path fill="none" stroke="#103653" stroke-width="29.8512" stroke-linecap="round" stroke-linejoin="round" stroke-miterlimit="10" d="
	M457.262,471.674c0,30.375-31.676,55-70.75,55s-70.75-24.625-70.75-55"/>
<path fill="#103653" d="M566.973,317.949h-3.036c-4.288-2.533-8.849-4.58-13.592-6.1c-14.951-4.945-34.692-7.493-58.701-7.493
	c-24.007,0-43.749,2.548-58.667,7.493c-11.943,3.983-17.202,8.377-18.901,10.083c-11.11-5.312-24.025-5.312-35.136,0
	c-1.698-1.698-6.957-6.1-18.901-10.083c-14.935-4.945-34.677-7.493-58.685-7.493c-24.006,0-43.748,2.548-58.666,7.493
	c-4.744,1.52-9.303,3.566-13.592,6.1h-3.068v-61.168H206.21v74.76c0,7.507,6.086,13.592,13.591,13.592h0.146
	c0.85,38.619,5.47,61.828,15.384,78.349c6.21,10.668,15.73,19.02,27.116,23.789c10.391,4.447,23.124,6.615,38.906,6.615
	c20.516,0,49.68-3.152,66.024-30.385c8.224-13.713,12.819-32.019,14.62-59.909c0.6-1.554,0.907-3.204,0.908-4.868
	c0-7.506,6.088-13.592,13.592-13.592c7.507,0,13.594,6.086,13.594,13.592c0.004,1.66,0.313,3.303,0.908,4.851
	c1.801,27.89,6.396,46.196,14.62,59.907c6.21,10.668,15.73,19.02,27.116,23.789c10.39,4.447,23.124,6.615,38.907,6.615
	c20.517,0,49.68-3.152,66.024-30.385c9.913-16.523,14.552-39.734,15.384-78.352h0.145c7.507,0,13.593-6.085,13.593-13.592
	c0-0.006-0.001-0.011-0.001-0.017h0.001v-74.76h-19.816V317.949z"/>
</svg>
