<?xml version="1.0" encoding="utf-8"?>
<!-- Generator: Adobe Illustrator 15.0.0, SVG Export Plug-In . SVG Version: 6.00 Build 0)  -->
<!DOCTYPE svg PUBLIC "-//W3C//DTD SVG 1.1//EN" "http://www.w3.org/Graphics/SVG/1.1/DTD/svg11.dtd">
<svg version="1.1" id="Calque_1" xmlns="http://www.w3.org/2000/svg" xmlns:xlink="http://www.w3.org/1999/xlink" x="0px" y="0px"
	 width="800px" height="800px" viewBox="0 0 800 800" enable-background="new 0 0 800 800" xml:space="preserve">
<polygon fill="#F79927" points="392.915,40.155 504.173,265.586 752.948,301.735 572.933,477.208 615.429,724.979 392.915,607.999 
	170.401,724.979 212.897,477.208 32.882,301.735 281.659,265.586 "/>
<path fill="#103653" d="M614.427,739.905c-2.375,0-4.76-0.566-6.943-1.715L391.915,624.861L176.347,738.19
	c-5.029,2.645-11.122,2.203-15.718-1.136c-4.596-3.34-6.898-8.999-5.938-14.599l41.169-240.037L21.463,312.423
	c-4.068-3.966-5.532-9.897-3.777-15.3c1.756-5.403,6.427-9.341,12.049-10.158l241.012-35.021L378.531,33.55
	c2.514-5.095,7.703-8.32,13.384-8.32s10.87,3.226,13.384,8.32l107.785,218.394l241.011,35.021
	c5.622,0.817,10.293,4.755,12.049,10.158s0.291,11.334-3.777,15.3L587.97,482.419l41.17,240.037c0.96,5.6-1.342,11.259-5.938,14.599
	C620.602,738.943,617.522,739.905,614.427,739.905z M391.915,593.073c2.386,0,4.771,0.571,6.945,1.715l195.745,102.907
	l-37.384-217.964c-0.83-4.842,0.775-9.782,4.293-13.212l158.359-154.362l-218.848-31.801c-4.861-0.707-9.063-3.76-11.237-8.165
	L391.915,73.88l-97.872,198.311c-2.174,4.405-6.376,7.458-11.238,8.165L63.956,312.157l158.359,154.362
	c3.518,3.43,5.123,8.37,4.293,13.212l-37.384,217.964L384.97,594.788C387.144,593.644,389.529,593.073,391.915,593.073z"/>
<circle fill="#103653" cx="299.415" cy="368.158" r="24.5"/>
<circle fill="#103653" cx="460.415" cy="368.158" r="24.5"/>
<g>
	<path fill="#103653" d="M650.365,494.823c0,0-16.266,31.213-46.764,28.987c-30.53-2.227-63.06-73.59-124.105-95.899
		c-61.028-22.308-93.59,13.373-93.59,13.373s-32.546-35.682-93.56-13.373c-61.029,22.31-93.573,93.673-124.088,95.899
		c-30.515,2.226-46.796-28.987-46.796-28.987s-10.171,26.761,18.328,64.669c28.468,37.907,107.792,53.846,158.665,37.907
		c56.936-17.84,87.45-62.426,87.45-62.426s28.482,46.828,87.48,62.426c51.426,13.616,130.215,0,158.682-37.907
		C660.536,521.585,650.365,494.823,650.365,494.823z"/>
</g>
</svg>
