<?xml version="1.0" encoding="utf-8"?>
<!-- Generator: Adobe Illustrator 15.0.0, SVG Export Plug-In . SVG Version: 6.00 Build 0)  -->
<!DOCTYPE svg PUBLIC "-//W3C//DTD SVG 1.1//EN" "http://www.w3.org/Graphics/SVG/1.1/DTD/svg11.dtd">
<svg version="1.1" id="Calque_1" xmlns="http://www.w3.org/2000/svg" xmlns:xlink="http://www.w3.org/1999/xlink" x="0px" y="0px"
	 width="800px" height="800px" viewBox="0 0 800 800" enable-background="new 0 0 800 800" xml:space="preserve">
<polygon fill="#F79927" points="400.5,44.485 511.758,269.916 760.533,306.065 580.518,481.538 623.014,729.309 400.5,612.329 
	177.986,729.309 220.482,481.538 40.467,306.065 289.244,269.916 "/>
<path fill="#103653" d="M622.012,744.235c-2.375,0-4.76-0.566-6.943-1.715L399.5,629.191L183.932,742.52
	c-5.028,2.645-11.122,2.204-15.718-1.136s-6.898-8.999-5.938-14.599l41.169-240.037L29.048,316.753
	c-4.068-3.966-5.532-9.897-3.777-15.3c1.756-5.403,6.427-9.341,12.049-10.158l241.012-35.021L386.116,37.88
	c2.514-5.095,7.703-8.32,13.384-8.32c5.682,0,10.87,3.226,13.384,8.32l107.785,218.394l241.011,35.021
	c5.622,0.817,10.293,4.755,12.049,10.158s0.291,11.334-3.777,15.3L595.555,486.749l41.17,240.037
	c0.96,5.6-1.342,11.259-5.938,14.599C628.187,743.273,625.107,744.235,622.012,744.235z M399.5,597.403
	c2.386,0,4.771,0.571,6.945,1.715L602.19,702.025l-37.384-217.964c-0.83-4.842,0.775-9.782,4.293-13.212l158.359-154.362
	l-218.848-31.801c-4.861-0.707-9.063-3.76-11.237-8.165L399.5,78.21l-97.872,198.311c-2.174,4.405-6.376,7.458-11.238,8.165
	L71.541,316.487L229.9,470.849c3.518,3.43,5.123,8.37,4.293,13.212L196.81,702.025l195.745-102.907
	C394.729,597.974,397.114,597.403,399.5,597.403z"/>
<circle fill="#103653" cx="307" cy="372.488" r="24.5"/>
<circle fill="#103653" cx="468" cy="372.488" r="24.5"/>
<g>
	<path fill="#96D2CA" d="M522.383,508.138c-1.963,43.281-31.44,75.571-71.686,78.523c-8.962,0.659-17.934-0.116-26.503-2.284
		c-21.534-5.446-43.933-5.494-64.653-0.122c-9.142,2.372-13.317,3.07-22.372,2.406c-41.605-3.05-74.403-36.81-76.292-78.524v-1.189
		c1.889-41.714,34.687-75.474,76.292-78.524c9.055-0.664,13.23,0.034,22.372,2.406c20.721,5.372,43.119,5.325,64.653-0.121
		c8.569-2.169,17.541-2.943,26.503-2.285c40.245,2.953,69.723,35.242,71.686,78.523V508.138z"/>
	<path fill="#103653" d="M342.922,593.9c-1.855,0-3.905-0.084-6.265-0.257c-45.139-3.309-80.724-39.933-82.772-85.189l-0.007-0.316
		l0.007-1.506c2.049-45.256,37.633-81.879,82.773-85.189c2.359-0.173,4.409-0.257,6.265-0.257c6.225,0,10.886,0.925,18.377,2.869
		c19.478,5.05,40.872,5.003,61.178-0.132c9.278-2.35,19.05-3.195,28.734-2.48c43.892,3.221,76.035,38.252,78.164,85.188l0.007,0.317
		l-0.007,1.509c-2.129,46.938-34.272,81.968-78.167,85.188c-9.676,0.711-19.451-0.132-28.731-2.479
		c-20.308-5.136-41.699-5.182-61.18-0.132C353.808,592.975,349.147,593.9,342.922,593.9z M267.877,507.975
		c1.802,38.105,31.785,68.918,69.804,71.705c2.016,0.148,3.73,0.22,5.241,0.22c4.765,0,8.283-0.713,14.861-2.42
		c21.751-5.641,45.549-5.601,68.128,0.111c7.829,1.979,16.085,2.691,24.272,2.089c36.549-2.681,63.341-32.154,65.199-71.703v-0.869
		c-1.858-39.548-28.65-69.021-65.198-71.703c-8.191-0.607-16.444,0.106-24.271,2.09c-22.583,5.711-46.38,5.748-68.129,0.111
		c-6.579-1.708-10.098-2.421-14.862-2.421c-1.511,0-3.225,0.071-5.241,0.22c-38.02,2.788-68.002,33.601-69.804,71.705V507.975z"/>
	<path fill="#103653" d="M391.63,561.368c-29.679,0-53.825-24.146-53.825-53.826c0-29.679,24.146-53.824,53.825-53.824
		c29.679,0,53.824,24.146,53.824,53.824C445.454,537.221,421.309,561.368,391.63,561.368z M391.63,467.718
		c-21.959,0-39.825,17.865-39.825,39.824c0,21.96,17.866,39.826,39.825,39.826c21.959,0,39.824-17.866,39.824-39.826
		C431.454,485.583,413.589,467.718,391.63,467.718z"/>
	<circle fill="none" stroke="#103653" stroke-width="8.3747" stroke-miterlimit="10" cx="391.63" cy="507.542" r="21.863"/>
	<path fill="#103653" d="M391.727,674.657c-49.024,0-88.908-39.884-88.908-88.908c0-49.023,39.884-88.907,88.908-88.907
		c49.024,0,88.908,39.884,88.908,88.907C480.635,634.773,440.751,674.657,391.727,674.657z M391.727,512.842
		c-40.202,0-72.908,32.706-72.908,72.907c0,40.202,32.707,72.908,72.908,72.908c40.202,0,72.908-32.706,72.908-72.908
		C464.635,545.548,431.929,512.842,391.727,512.842z"/>
	<circle fill="#F79927" cx="391.63" cy="507.542" r="21.863"/>
</g>
</svg>
