<?xml version="1.0" encoding="utf-8"?>
<!-- Generator: Adobe Illustrator 15.0.0, SVG Export Plug-In . SVG Version: 6.00 Build 0)  -->
<!DOCTYPE svg PUBLIC "-//W3C//DTD SVG 1.1//EN" "http://www.w3.org/Graphics/SVG/1.1/DTD/svg11.dtd">
<svg version="1.1" id="Calque_1" xmlns="http://www.w3.org/2000/svg" xmlns:xlink="http://www.w3.org/1999/xlink" x="0px" y="0px"
	 width="841.89px" height="118.439px" viewBox="0 0 841.89 118.439" enable-background="new 0 0 841.89 118.439"
	 xml:space="preserve">
<path fill="#96D2CA" d="M12.131,89.64C6.855,89.624,1.783,91.67-2,95.338v28.102h1497.445V62.564
	c-4.523-1.142-9.172-1.721-13.837-1.729c-24.574,0-45.426,15.516-52.884,37.052c-2.824-1.412-5.94-2.145-9.103-2.145
	c-4.606,0-8.841,1.535-12.229,4.086c-3.23-17.6-18.957-30.968-37.907-30.968c-16.866,0-31.165,10.597-36.394,25.327
	c-1.637-0.653-3.384-0.987-5.148-0.987c-4.408-0.015-8.553,2.089-11.134,5.649c-8.88-5.815-19.568-9.217-31.068-9.217
	c-8.802-0.013-17.484,2.023-25.355,5.95c-1.108-19.817-17.87-35.568-38.44-35.568c-18.949,0-34.673,13.367-37.907,30.965
	c-3.52-2.656-7.816-4.092-12.229-4.083c-3.283,0-6.364,0.779-9.099,2.146c-7.455-21.54-28.306-37.056-52.881-37.056
	c-29.254,0-53.23,21.967-55.617,49.93c-6.875-2.824-14.236-4.271-21.671-4.26c-14.858,0-28.351,5.683-38.356,14.93
	c-10.12-13.888-26.722-22.953-45.509-22.953c-14.08,0-26.938,5.102-36.754,13.499c-2.633-7.837-10.169-13.499-19.076-13.499
	c-6.219,0-11.773,2.766-15.455,7.103c-1.484-0.526-3.047-0.795-4.617-0.798c-1.769,0-3.516,0.337-5.155,0.992
	c-8.858-18.67-28.209-31.633-50.668-31.633c-26.163,0-48.11,17.576-54.163,41.295c-0.553-0.049-1.107-0.076-1.664-0.082
	c-3.824,0-7.389,1.063-10.432,2.878c-8.368-19.802-28.32-33.743-51.617-33.743c-18.789,0-35.391,9.071-45.509,22.959
	c-10.005-9.247-23.498-14.931-38.36-14.931c-7.689,0-15.008,1.515-21.67,4.259C591.15,59.972,567.171,38,537.923,38
	c-24.576,0-45.428,15.514-52.879,37.052c-2.823-1.411-5.939-2.146-9.098-2.146c-4.611,0-8.846,1.535-12.232,4.085
	c-3.231-17.602-18.955-30.967-37.905-30.967c-20.575,0-37.334,15.751-38.442,35.573c-7.872-3.928-16.555-5.966-25.357-5.953
	c-11.503,0-22.189,3.397-31.072,9.22c-2.582-3.563-6.727-5.667-11.134-5.653c-1.763-0.001-3.508,0.337-5.142,0.993
	c-5.237-14.731-19.536-25.327-36.401-25.327c-18.955,0-34.675,13.365-37.905,30.966c-3.521-2.655-7.816-4.091-12.232-4.084
	c-3.279,0-6.368,0.781-9.101,2.144c-7.449-21.54-28.308-37.055-52.878-37.055c-22.113,0-41.205,12.548-50.248,30.748
	c-3.84-4.798-9.667-7.585-15.823-7.569c-10.928,0-19.797,8.535-20.055,19.143c-2.891-1.49-6.101-2.266-9.355-2.262
	c-4.334,0-8.336,1.355-11.621,3.638c-3.767-5.517-10.038-8.809-16.733-8.782c-8.191,0-15.226,4.798-18.345,11.67
	C20.517,90.962,16.377,89.634,12.131,89.64z"/>
</svg>
