<?xml version="1.0" encoding="utf-8"?>
<!-- Generator: Adobe Illustrator 15.0.0, SVG Export Plug-In . SVG Version: 6.00 Build 0)  -->
<!DOCTYPE svg PUBLIC "-//W3C//DTD SVG 1.1//EN" "http://www.w3.org/Graphics/SVG/1.1/DTD/svg11.dtd">
<svg version="1.1" id="Calque_1" xmlns="http://www.w3.org/2000/svg" xmlns:xlink="http://www.w3.org/1999/xlink" x="0px" y="0px"
	 width="841.89px" height="48.182px" viewBox="0 0 841.89 48.182" enable-background="new 0 0 841.89 48.182" xml:space="preserve">
<path fill="#96D2CA" d="M5.438,30.298c-2.984-0.009-5.853,1.152-7.993,3.232v15.946h847v-34.54c-2.559-0.647-5.188-0.977-7.826-0.98
	c-13.9,0-25.695,8.803-29.914,21.021c-1.598-0.801-3.359-1.217-5.146-1.217c-2.605,0-5.002,0.871-6.918,2.318
	c-1.826-9.984-10.723-17.57-21.441-17.57c-9.541,0-17.627,6.012-20.586,14.369c-0.924-0.37-1.914-0.559-2.912-0.559
	c-2.492-0.008-4.838,1.184-6.297,3.205c-5.023-3.301-11.068-5.23-17.572-5.23c-4.98-0.007-9.891,1.149-14.344,3.377
	c-0.627-11.244-10.107-20.181-21.742-20.181c-10.719,0-19.611,7.584-21.441,17.569c-1.99-1.508-4.422-2.321-6.916-2.316
	c-1.857,0-3.601,0.441-5.146,1.216C652.025,17.739,640.23,8.936,626.33,8.936c-16.547,0-30.109,12.464-31.459,28.329
	c-3.889-1.603-8.053-2.423-12.258-2.416c-8.404,0-16.035,3.224-21.695,8.471c-5.724-7.881-15.114-13.023-25.74-13.023
	c-7.965,0-15.236,2.894-20.79,7.658c-1.489-4.447-5.751-7.658-10.79-7.658c-3.518,0-6.658,1.568-8.742,4.029
	c-0.838-0.299-1.723-0.45-2.611-0.452c-1,0-1.988,0.19-2.916,0.562c-5.01-10.592-15.955-17.946-28.659-17.946
	c-14.798,0-27.213,9.973-30.636,23.429c-0.313-0.027-0.627-0.043-0.941-0.046c-2.164,0-4.18,0.604-5.9,1.632
	c-4.733-11.235-16.02-19.144-29.197-19.144c-10.627,0-20.018,5.146-25.741,13.025c-5.659-5.246-13.292-8.471-21.697-8.471
	c-4.35,0-8.489,0.859-12.258,2.417C332.948,13.466,319.385,1,302.842,1c-13.901,0-25.695,8.802-29.91,21.022
	c-1.597-0.801-3.36-1.219-5.146-1.218c-2.607,0-5.003,0.871-6.918,2.318c-1.828-9.987-10.722-17.57-21.44-17.57
	c-11.638,0-21.118,8.937-21.744,20.183c-4.453-2.228-9.364-3.384-14.343-3.377c-6.506,0-12.551,1.928-17.575,5.23
	c-1.461-2.021-3.805-3.215-6.298-3.207c-0.997-0.001-1.984,0.191-2.908,0.563c-2.962-8.358-11.05-14.37-20.59-14.37
	c-10.721,0-19.613,7.583-21.44,17.569c-1.992-1.507-4.421-2.32-6.919-2.316c-1.854,0-3.602,0.442-5.148,1.215
	C118.249,14.823,106.45,6.02,92.553,6.02c-12.508,0-23.306,7.119-28.421,17.446c-2.172-2.723-5.468-4.304-8.95-4.295
	c-6.182,0-11.198,4.842-11.344,10.861c-1.636-0.846-3.451-1.285-5.292-1.283c-2.452,0-4.715,0.769-6.573,2.063
	c-2.131-3.131-5.678-4.997-9.464-4.982c-4.633,0-8.612,2.722-10.376,6.62C10.182,31.049,7.839,30.296,5.438,30.298z"/>
</svg>
